<?xml version="1.0" encoding="UTF-8" standalone="no"?>
<svg
   width="24"
   height="24"
   viewBox="0 0 24 24"
   fill="none"
   version="1.1"
   id="svg2"
   sodipodi:docname="arrow-circle.svg"
   inkscape:version="1.3.2 (091e20e, 2023-11-25, custom)"
   xmlns:inkscape="http://www.inkscape.org/namespaces/inkscape"
   xmlns:sodipodi="http://sodipodi.sourceforge.net/DTD/sodipodi-0.dtd"
   xmlns="http://www.w3.org/2000/svg"
   xmlns:svg="http://www.w3.org/2000/svg">
  <defs
     id="defs2" />
  <sodipodi:namedview
     id="namedview2"
     pagecolor="#ffffff"
     bordercolor="#cccccc"
     borderopacity="1"
     inkscape:showpageshadow="0"
     inkscape:pageopacity="1"
     inkscape:pagecheckerboard="0"
     inkscape:deskcolor="#d1d1d1"
     inkscape:zoom="49.208333"
     inkscape:cx="11.989839"
     inkscape:cy="12"
     inkscape:window-width="3440"
     inkscape:window-height="1377"
     inkscape:window-x="-8"
     inkscape:window-y="-8"
     inkscape:window-maximized="1"
     inkscape:current-layer="svg2" />
  <path
     style="color:#000000;fill:#475569;-inkscape-stroke:none"
     d="M 12,2 C 6.4773028,2 2,6.4773028 2,12 2,17.522697 6.4773028,22 12,22 17.522697,22 22,17.522697 22,12 22,6.4773028 17.522697,2 12,2 Z m 0,2 c 4.449293,0 8,3.5507072 8,8 0,4.449293 -3.550707,8 -8,8 C 7.5507072,20 4,16.449293 4,12 4,7.5507072 7.5507072,4 12,4 Z"
     id="rect1" />
  <path
     style="color:#000000;fill:#475569;stroke-linecap:round;stroke-linejoin:round;-inkscape-stroke:none"
     d="m 8,11 a 1,1 0 0 0 -1,1 1,1 0 0 0 1,1 h 8 a 1,1 0 0 0 1,-1 1,1 0 0 0 -1,-1 z"
     id="path1" />
  <path
     style="color:#000000;fill:#475569;stroke-linecap:round;stroke-linejoin:round;-inkscape-stroke:none"
     d="M 12,7 A 1,1 0 0 0 11.292969,7.2929687 L 7.2929687,11.292969 a 1.0001,1.0001 0 0 0 0,1.414062 l 4.0000003,4 a 1,1 0 0 0 1.414062,0 1,1 0 0 0 0,-1.414062 L 9.4140625,12 12.707031,8.7070313 a 1,1 0 0 0 0,-1.4140626 A 1,1 0 0 0 12,7 Z"
     id="path2" />
</svg>
