<?xml version="1.0" encoding="UTF-8" standalone="no"?>
<svg
   width="17"
   height="16"
   viewBox="0 0 17 16"
   fill="none"
   version="1.1"
   id="svg10"
   sodipodi:docname="attach.svg"
   inkscape:version="1.1.1 (3bf5ae0d25, 2021-09-20)"
   xmlns:inkscape="http://www.inkscape.org/namespaces/inkscape"
   xmlns:sodipodi="http://sodipodi.sourceforge.net/DTD/sodipodi-0.dtd"
   xmlns="http://www.w3.org/2000/svg"
   xmlns:svg="http://www.w3.org/2000/svg">
  <defs
     id="defs14" />
  <sodipodi:namedview
     id="namedview12"
     pagecolor="#ffffff"
     bordercolor="#666666"
     borderopacity="1.0"
     inkscape:pageshadow="2"
     inkscape:pageopacity="0.0"
     inkscape:pagecheckerboard="0"
     showgrid="false"
     inkscape:zoom="50.125"
     inkscape:cx="8.5087282"
     inkscape:cy="8.0099751"
     inkscape:window-width="1920"
     inkscape:window-height="991"
     inkscape:window-x="-9"
     inkscape:window-y="-9"
     inkscape:window-maximized="1"
     inkscape:current-layer="svg10" />
  <path
     style="color:#000000;fill:#e8e8e8;stroke-linecap:round;stroke-linejoin:round;-inkscape-stroke:none"
     d="M 8.25,0.58398437 A 0.75,0.75 0 0 0 7.5,1.3339844 V 6 a 0.750075,0.750075 0 0 0 1.28125,0.53125 l 1.332031,-1.3339844 a 0.75,0.75 0 0 0 0,-1.0605469 0.75,0.75 0 0 0 -1.0605466,0 L 9,4.1894531 V 1.3339844 A 0.75,0.75 0 0 0 8.25,0.58398437 Z"
     id="path2" />
  <path
     style="color:#000000;fill:#e8e8e8;stroke-linecap:round;stroke-linejoin:round;-inkscape-stroke:none"
     d="m 6.9140625,3.9160156 a 0.75,0.75 0 0 0 -0.53125,0.2207031 0.75,0.75 0 0 0 0,1.0605469 l 1.3339844,1.3320313 a 0.75,0.75 0 0 0 1.0605469,0 0.75,0.75 0 0 0 0,-1.0605469 L 7.4453125,4.1367187 a 0.75,0.75 0 0 0 -0.53125,-0.2207031 z"
     id="path4" />
  <path
     style="color:#000000;fill:#e8e8e8;stroke-linecap:round;stroke-linejoin:round;-inkscape-stroke:none"
     d="m 1.5703125,7.9160156 a 0.75,0.75 0 0 0 -0.75,0.75 0.75,0.75 0 0 0 0.75,0.75 h 2.8867187 l 0.7558594,1.5117184 c 0.3516187,0.703207 1.0736863,1.15625 1.8632813,1.15625 h 2.3535156 c 0.7895945,0 1.5136665,-0.452958 1.8652345,-1.15625 l 0.755859,-1.5117184 h 2.853516 a 0.75,0.75 0 0 0 0.75,-0.75 0.75,0.75 0 0 0 -0.75,-0.75 h -2.908203 c -0.530445,0 -1.0214,0.2969835 -1.263672,0.78125 L 9.953125,10.257813 C 9.8514938,10.46112 9.6534315,10.583984 9.4296875,10.583984 H 7.0761719 c -0.223744,0 -0.4197836,-0.122779 -0.5214844,-0.326171 L 5.7753906,8.6972656 c -0.2369738,-0.4739267 -0.735977,-0.78125 -1.265625,-0.78125 z"
     id="path6" />
  <path
     style="color:#000000;fill:#e8e8e8;stroke-linecap:round;stroke-linejoin:round;-inkscape-stroke:none"
     d="M 4.8105469,2.0117188 C 3.5029524,2.2037911 2.4323812,2.7341392 1.7597656,3.6660156 1.0871501,4.5978921 0.8359375,5.8251712 0.8359375,7.3339844 V 10 c 0,1.766649 0.3563224,3.166852 1.3027344,4.113281 0.946412,0.94643 2.3466129,1.302735 4.1132812,1.302735 h 3.9999999 c 1.766654,0 3.16881,-0.35631 4.115235,-1.302735 C 15.313612,13.166856 15.669922,11.766654 15.669922,10 V 7.3339844 c 0,-1.5088194 -0.251193,-2.7360959 -0.923828,-3.6679688 C 14.073459,2.7341428 13.002906,2.2037909 11.695313,2.0117188 a 0.75,0.75 0 0 0 -0.851563,0.6328125 0.75,0.75 0 0 0 0.632813,0.8515625 c 1.052404,0.1545874 1.64867,0.4890349 2.052734,1.0488281 0.404064,0.5597931 0.640625,1.4512147 0.640625,2.7890625 V 10 c 0,1.566642 -0.311636,2.499136 -0.865234,3.052734 -0.553599,0.553599 -1.486092,0.863282 -3.052735,0.863282 H 6.2519531 c -1.5666583,0 -2.4991504,-0.309687 -3.0527343,-0.863282 C 2.6456348,12.49914 2.3359375,11.566648 2.3359375,10 V 7.3339844 c 0,-1.337854 0.2365766,-2.2292729 0.640625,-2.7890625 C 3.3806109,3.9851323 3.9749406,3.6506811 5.0273437,3.4960938 A 0.75,0.75 0 0 0 5.6621094,2.6445313 0.75,0.75 0 0 0 4.8105469,2.0117188 Z"
     id="path8" />
</svg>
