<?xml version="1.0" encoding="UTF-8" standalone="no"?>
<svg
   width="14"
   height="12"
   viewBox="0 0 14 12"
   fill="none"
   version="1.1"
   id="svg1"
   sodipodi:docname="bag.svg"
   inkscape:version="1.3.2 (091e20e, 2023-11-25, custom)"
   xmlns:inkscape="http://www.inkscape.org/namespaces/inkscape"
   xmlns:sodipodi="http://sodipodi.sourceforge.net/DTD/sodipodi-0.dtd"
   xmlns="http://www.w3.org/2000/svg"
   xmlns:svg="http://www.w3.org/2000/svg">
  <defs
     id="defs1" />
  <sodipodi:namedview
     id="namedview1"
     pagecolor="#ffffff"
     bordercolor="#cccccc"
     borderopacity="1"
     inkscape:showpageshadow="0"
     inkscape:pageopacity="1"
     inkscape:pagecheckerboard="0"
     inkscape:deskcolor="#d1d1d1"
     inkscape:zoom="98.416667"
     inkscape:cx="7.0008467"
     inkscape:cy="6"
     inkscape:window-width="3440"
     inkscape:window-height="1377"
     inkscape:window-x="-8"
     inkscape:window-y="-8"
     inkscape:window-maximized="1"
     inkscape:current-layer="svg1" />
  <path
     style="color:#000000;fill:#94a3b8;stroke-linecap:round;stroke-linejoin:round;-inkscape-stroke:none"
     d="m 7,0.06640625 c -1.5959064,0 -2.8729114,1.18109485 -3.1523437,2.69921875 C 3.4027025,2.7659163 3.0147985,2.7485109 2.671875,2.9023438 2.3390981,3.0516446 2.0554515,3.2920381 1.8535156,3.5957031 1.5936333,3.9865134 1.5508803,4.3841612 1.4453125,5.0175781 L 0.82226563,8.75 c -0.14243275,0.8545765 -0.26879108,1.36319 -0.0605469,1.923828 0.15748782,0.423933 0.45773675,0.779147 0.84960935,1.003906 0.5185177,0.297488 1.0398409,0.25586 1.90625,0.25586 h 6.9648439 c 0.866399,0 1.387459,0.04175 1.90625,-0.25586 0.39209,-0.2249 0.692352,-0.5804 0.849609,-1.003906 C 13.446574,10.113105 13.32012,9.6045315 13.177734,8.75 L 12.554688,5.0175781 C 12.449182,4.3842369 12.406617,3.9866913 12.146484,3.5957031 11.944698,3.2922846 11.661014,3.0517013 11.328125,2.9023438 10.985199,2.7484685 10.59729,2.7659107 10.152344,2.765625 9.8729132,1.2475025 8.5959064,0.06640625 7,0.06640625 Z M 7,1.265625 c 0.9128015,0 1.5438227,0.6521532 1.8203125,1.4667969 H 5.1796875 C 5.4561799,1.9177789 6.0871985,1.265625 7,1.265625 Z M 4.140625,3.9335938 H 4.3339844 9.6660156 9.859375 c 0.642039,-1e-7 0.88626,0.023057 0.978516,0.064453 0.12611,0.056582 0.233733,0.1462177 0.310547,0.2617187 0.05607,0.084271 0.117161,0.3218006 0.222656,0.9550781 l 0.623047,3.7324219 c 0.142414,0.8547068 0.158247,1.2033174 0.11914,1.3085934 -0.05974,0.160894 -0.173556,0.295561 -0.322265,0.38086 -0.09761,0.05599 -0.442195,0.0957 -1.308594,0.0957 H 3.5175781 c -0.8664091,0 -1.210792,-0.03959 -1.3085937,-0.0957 C 2.0600176,10.551279 1.9463307,10.416326 1.8867187,10.255859 1.8475832,10.150498 1.8634124,9.8019274 2.0058594,8.9472656 L 2.6289063,5.2148437 C 2.7344382,4.581642 2.7954051,4.3442149 2.8515625,4.2597656 2.9282063,4.144511 3.0358667,4.0546858 3.1621094,3.9980469 3.254508,3.9565976 3.4985756,3.9335938 4.140625,3.9335938 Z"
     id="path1" />
</svg>
