<?xml version="1.0" encoding="UTF-8" standalone="no"?>
<svg
   width="16"
   height="16"
   viewBox="0 0 16 16"
   fill="none"
   version="1.1"
   id="svg8"
   sodipodi:docname="box.svg"
   inkscape:version="1.1.1 (3bf5ae0d25, 2021-09-20)"
   xmlns:inkscape="http://www.inkscape.org/namespaces/inkscape"
   xmlns:sodipodi="http://sodipodi.sourceforge.net/DTD/sodipodi-0.dtd"
   xmlns="http://www.w3.org/2000/svg"
   xmlns:svg="http://www.w3.org/2000/svg">
  <defs
     id="defs12" />
  <sodipodi:namedview
     id="namedview10"
     pagecolor="#ffffff"
     bordercolor="#666666"
     borderopacity="1.0"
     inkscape:pageshadow="2"
     inkscape:pageopacity="0.0"
     inkscape:pagecheckerboard="0"
     showgrid="false"
     inkscape:zoom="51.5"
     inkscape:cx="7.9902913"
     inkscape:cy="7.9902913"
     inkscape:window-width="1920"
     inkscape:window-height="1009"
     inkscape:window-x="-8"
     inkscape:window-y="-8"
     inkscape:window-maximized="1"
     inkscape:current-layer="svg8" />
  <path
     style="color:#000000;fill:#94a3b8;stroke-linecap:round;stroke-linejoin:round;-inkscape-stroke:none"
     d="M 1.984375,4.4765625 A 0.5,0.5 0 0 0 1.6796875,4.7089844 0.5,0.5 0 0 0 1.8632812,5.3925781 L 7.75,8.7988281 a 0.50005,0.50005 0 0 0 0.5,0 L 14.097656,5.4121094 A 0.5,0.5 0 0 0 14.279297,4.7285156 0.5,0.5 0 0 0 13.595703,4.546875 L 8,7.7890625 2.3632813,4.5273437 A 0.5,0.5 0 0 0 1.984375,4.4765625 Z"
     id="path2" />
  <path
     style="color:#000000;fill:#94a3b8;stroke-linecap:round;stroke-linejoin:round;-inkscape-stroke:none"
     d="m 8,7.859375 a 0.5,0.5 0 0 0 -0.5,0.5 v 6.046875 a 0.5,0.5 0 0 0 0.5,0.5 0.5,0.5 0 0 0 0.5,-0.5 V 8.359375 a 0.5,0.5 0 0 0 -0.5,-0.5 z"
     id="path4" />
  <path
     style="color:#000000;fill:#94a3b8;stroke-linecap:round;stroke-linejoin:round;-inkscape-stroke:none"
     d="M 8,0.8125 C 7.4281278,0.81340058 6.8562176,0.94663751 6.375,1.2167969 L 2.8183594,3.1894531 C 1.802929,3.7517181 1.09375,4.954152 1.09375,6.1132812 v 3.7675782 c 0,1.1591366 0.7091957,2.3615346 1.7246094,2.9238286 l 3.5585937,1.978515 a 0.50005,0.50005 0 0 0 0.00195,0.002 c 0.9625959,0.531961 2.2874042,0.531961 3.2500001,0 a 0.50005,0.50005 0 0 0 0,-0.002 l 3.5605467,-1.980469 c 1.014805,-0.562572 1.724609,-1.763194 1.72461,-2.9218746 V 6.1132812 c 0,-1.1591292 -0.709148,-2.3615666 -1.72461,-2.9238281 L 9.6289063,1.2089844 a 0.50005,0.50005 0 0 0 -0.00195,0 C 9.1440052,0.9444106 8.5718722,0.81159942 8,0.8125 Z m 1.1464844,1.2734375 3.5566406,1.9785156 a 0.50005,0.50005 0 0 0 0.002,0 c 0.597937,0.3310776 1.208984,1.3679593 1.208985,2.0488281 v 3.7675782 c 0,0.6808816 -0.611032,1.7177186 -1.208985,2.0488286 a 0.50005,0.50005 0 0 0 -0.002,0 l -3.5585937,1.980468 v -0.002 c -0.5574027,0.308038 -1.7258006,0.308038 -2.2832032,0 L 3.3027344,11.929688 C 2.7048097,11.598582 2.09375,10.561741 2.09375,9.8808594 V 6.1132812 c 0,-0.6808688 0.6110764,-1.7177539 1.2089844,-2.0488281 L 6.8632812,2.0898438 a 0.50005,0.50005 0 0 0 0.00195,0 c 0.5575632,-0.3130205 1.7138274,-0.3147579 2.28125,-0.00391 z"
     id="path6" />
</svg>
