<?xml version="1.0" encoding="UTF-8" standalone="no"?>
<svg
   width="16"
   height="16"
   viewBox="0 0 16 16"
   fill="none"
   version="1.1"
   id="svg8"
   sodipodi:docname="burger.svg"
   inkscape:version="1.1.1 (3bf5ae0d25, 2021-09-20)"
   xmlns:inkscape="http://www.inkscape.org/namespaces/inkscape"
   xmlns:sodipodi="http://sodipodi.sourceforge.net/DTD/sodipodi-0.dtd"
   xmlns="http://www.w3.org/2000/svg"
   xmlns:svg="http://www.w3.org/2000/svg">
  <defs
     id="defs12" />
  <sodipodi:namedview
     id="namedview10"
     pagecolor="#ffffff"
     bordercolor="#666666"
     borderopacity="1.0"
     inkscape:pageshadow="2"
     inkscape:pageopacity="0.0"
     inkscape:pagecheckerboard="0"
     showgrid="false"
     inkscape:zoom="51.5"
     inkscape:cx="7.9902913"
     inkscape:cy="7.9902913"
     inkscape:window-width="1920"
     inkscape:window-height="1009"
     inkscape:window-x="-8"
     inkscape:window-y="-8"
     inkscape:window-maximized="1"
     inkscape:current-layer="svg8" />
  <path
     style="color:#000000;fill:#1d1d1d;stroke-linecap:round;stroke-linejoin:round;-inkscape-stroke:none"
     d="M 2,7.5 A 0.5,0.5 0 0 0 1.5,8 0.5,0.5 0 0 0 2,8.5 H 14 A 0.5,0.5 0 0 0 14.5,8 0.5,0.5 0 0 0 14,7.5 Z"
     id="path2" />
  <path
     style="color:#000000;fill:#1d1d1d;stroke-linecap:round;stroke-linejoin:round;-inkscape-stroke:none"
     d="M 2,2.5 A 0.5,0.5 0 0 0 1.5,3 0.5,0.5 0 0 0 2,3.5 H 14 A 0.5,0.5 0 0 0 14.5,3 0.5,0.5 0 0 0 14,2.5 Z"
     id="path4" />
  <path
     style="color:#000000;fill:#1d1d1d;stroke-linecap:round;stroke-linejoin:round;-inkscape-stroke:none"
     d="M 2,12.5 A 0.5,0.5 0 0 0 1.5,13 0.5,0.5 0 0 0 2,13.5 H 14 A 0.5,0.5 0 0 0 14.5,13 0.5,0.5 0 0 0 14,12.5 Z"
     id="path6" />
</svg>
