<?xml version="1.0" encoding="UTF-8" standalone="no"?>
<svg
   width="20"
   height="20"
   viewBox="0 0 20 20"
   fill="none"
   version="1.1"
   id="svg16"
   sodipodi:docname="cake.svg"
   inkscape:version="1.1.1 (3bf5ae0d25, 2021-09-20)"
   xmlns:inkscape="http://www.inkscape.org/namespaces/inkscape"
   xmlns:sodipodi="http://sodipodi.sourceforge.net/DTD/sodipodi-0.dtd"
   xmlns="http://www.w3.org/2000/svg"
   xmlns:svg="http://www.w3.org/2000/svg">
  <defs
     id="defs20" />
  <sodipodi:namedview
     id="namedview18"
     pagecolor="#ffffff"
     bordercolor="#666666"
     borderopacity="1.0"
     inkscape:pageshadow="2"
     inkscape:pageopacity="0.0"
     inkscape:pagecheckerboard="0"
     showgrid="false"
     inkscape:zoom="40.1"
     inkscape:cx="9.9875312"
     inkscape:cy="9.9875312"
     inkscape:window-width="1920"
     inkscape:window-height="991"
     inkscape:window-x="-9"
     inkscape:window-y="-9"
     inkscape:window-maximized="1"
     inkscape:current-layer="svg16" />
  <path
     style="color:#000000;fill:#475569;stroke-linecap:round;stroke-linejoin:round;-inkscape-stroke:none"
     d="m 1.6679687,17.833984 a 0.5,0.5 0 0 0 -0.5,0.5 0.5,0.5 0 0 0 0.5,0.5 H 18.333984 a 0.5,0.5 0 0 0 0.5,-0.5 0.5,0.5 0 0 0 -0.5,-0.5 z"
     id="path2" />
  <path
     style="color:#000000;fill:#475569;stroke-linecap:round;stroke-linejoin:round;-inkscape-stroke:none"
     d="m 5.3671875,7.8339844 c -1.7760893,0 -3.2753906,1.3174914 -3.2753906,2.9999996 v 7.5 a 0.5,0.5 0 0 0 0.5,0.5 0.5,0.5 0 0 0 0.5,-0.5 v -7.5 c 0,-1.0841083 0.984803,-1.9999996 2.2753906,-1.9999996 H 14.625 c 1.290657,0 2.275391,0.9158768 2.275391,1.9999996 v 7.5 a 0.5,0.5 0 0 0 0.5,0.5 0.5,0.5 0 0 0 0.5,-0.5 v -7.5 c 0,-1.6824937 -1.499251,-2.9999996 -3.275391,-2.9999996 z"
     id="path4" />
  <path
     style="color:#000000;fill:#475569;stroke-linecap:round;stroke-linejoin:round;-inkscape-stroke:none"
     d="m 6.6503906,3.6660156 c -1.3579634,0 -2.5175781,1.0085951 -2.5175781,2.3085938 v 2.359375 a 0.5,0.5 0 0 0 0.5,0.5 0.5,0.5 0 0 0 0.5,-0.5 v -2.359375 c 0,-0.6999993 0.6422038,-1.3085938 1.5175781,-1.3085938 h 6.7070314 c 0.865182,0 1.507812,0.6085945 1.507812,1.3085938 v 2.359375 a 0.5,0.5 0 0 0 0.5,0.5 0.5,0.5 0 0 0 0.5,-0.5 v -2.359375 c 0,-1.2999987 -1.156396,-2.3085938 -2.507812,-2.3085938 z"
     id="path6" />
  <path
     style="color:#000000;fill:#475569;stroke-linecap:round;stroke-linejoin:round;-inkscape-stroke:none"
     d="m 2.9550781,11.150391 a 0.5,0.5 0 0 0 -0.5136718,0.486328 0.5,0.5 0 0 0 0.4863281,0.513672 l 0.3085937,0.0078 a 0.50005,0.50005 0 0 0 0.00586,0 c 0.3500951,0.0048 0.6152344,0.274191 0.6152344,0.625 v 0.275391 c 0,0.886955 0.7289075,1.625 1.625,1.625 0.8869379,0 1.625,-0.728892 1.625,-1.625 v -0.257813 c 0,-0.346444 0.2710937,-0.625 0.625,-0.625 0.3464008,0 0.625,0.27111 0.625,0.625 v 0.257813 c 0,0.886955 0.7289075,1.625 1.625,1.625 0.8869151,0 1.6250001,-0.728854 1.6250001,-1.625 v -0.257813 c 0,-0.346444 0.271094,-0.625 0.625,-0.625 0.3463,0 0.625,0.271147 0.625,0.625 v 0.257813 c 0,0.886955 0.728907,1.625 1.625,1.625 0.886898,0 1.625,-0.728854 1.625,-1.625 v -0.257813 c 0,-0.346444 0.271094,-0.625 0.625,-0.625 h 0.375 a 0.5,0.5 0 0 0 0.5,-0.5 0.5,0.5 0 0 0 -0.5,-0.5 h -0.375 c -0.896093,0 -1.625,0.738045 -1.625,1.625 v 0.257813 c 0,0.353853 -0.2787,0.625 -0.625,0.625 -0.353906,0 -0.625,-0.278556 -0.625,-0.625 v -0.257813 c 0,-0.896146 -0.738102,-1.625 -1.625,-1.625 -0.896093,0 -1.625,0.738045 -1.625,1.625 v 0.257813 c 0,0.353853 -0.278657,0.625 -0.6250001,0.625 -0.3539063,0 -0.625,-0.278556 -0.625,-0.625 v -0.257813 c 0,-0.896108 -0.7380621,-1.625 -1.625,-1.625 -0.8960925,0 -1.625,0.738045 -1.625,1.625 v 0.257813 c 0,0.35389 -0.2785992,0.625 -0.625,0.625 -0.3539063,0 -0.625,-0.278556 -0.625,-0.625 v -0.275391 c 0,-0.88239 -0.7183189,-1.612969 -1.6015625,-1.625 z"
     id="path8" />
  <path
     style="color:#000000;fill:#475569;stroke-linecap:round;stroke-linejoin:round;-inkscape-stroke:none"
     d="m 6.6679687,2 a 0.5,0.5 0 0 0 -0.5,0.5 v 1.6660156 a 0.5,0.5 0 0 0 0.5,0.5 0.5,0.5 0 0 0 0.5,-0.5 V 2.5 a 0.5,0.5 0 0 0 -0.5,-0.5 z"
     id="path10" />
  <path
     style="color:#000000;fill:#475569;stroke-linecap:round;stroke-linejoin:round;-inkscape-stroke:none"
     d="m 13.332031,2 a 0.5,0.5 0 0 0 -0.5,0.5 v 1.6660156 a 0.5,0.5 0 0 0 0.5,0.5 0.5,0.5 0 0 0 0.5,-0.5 V 2.5 a 0.5,0.5 0 0 0 -0.5,-0.5 z"
     id="path12" />
  <path
     style="color:#000000;fill:#475569;stroke-linecap:round;stroke-linejoin:round;-inkscape-stroke:none"
     d="m 10,1.1660156 a 0.5,0.5 0 0 0 -0.5,0.5 v 2.5 a 0.5,0.5 0 0 0 0.5,0.5 0.5,0.5 0 0 0 0.5,-0.5 v -2.5 a 0.5,0.5 0 0 0 -0.5,-0.5 z"
     id="path14" />
</svg>
