<?xml version="1.0" encoding="UTF-8" standalone="no"?>
<svg
   width="20"
   height="20"
   viewBox="0 0 20 20"
   fill="none"
   version="1.1"
   id="svg12"
   sodipodi:docname="calendar.svg"
   inkscape:version="1.1.1 (3bf5ae0d25, 2021-09-20)"
   xmlns:inkscape="http://www.inkscape.org/namespaces/inkscape"
   xmlns:sodipodi="http://sodipodi.sourceforge.net/DTD/sodipodi-0.dtd"
   xmlns="http://www.w3.org/2000/svg"
   xmlns:svg="http://www.w3.org/2000/svg">
  <defs
     id="defs16" />
  <sodipodi:namedview
     id="namedview14"
     pagecolor="#ffffff"
     bordercolor="#666666"
     borderopacity="1.0"
     inkscape:pageshadow="2"
     inkscape:pageopacity="0.0"
     inkscape:pagecheckerboard="0"
     showgrid="false"
     inkscape:zoom="41.2"
     inkscape:cx="9.9878641"
     inkscape:cy="10.012136"
     inkscape:window-width="1920"
     inkscape:window-height="1009"
     inkscape:window-x="-8"
     inkscape:window-y="-8"
     inkscape:window-maximized="1"
     inkscape:current-layer="svg12" />
  <path
     style="color:#000000;fill:#94a3b8;stroke-linecap:round;-inkscape-stroke:none"
     d="M 5.8339844,2.5839844 C 3.5877051,2.5839844 1.75,4.4197391 1.75,6.6660156 V 14.166016 C 1.75,16.412253 3.5877024,18.25 5.8339844,18.25 H 10 A 0.75,0.75 0 0 0 10.75,17.5 0.75,0.75 0 0 0 10,16.75 H 5.8339844 C 4.39837,16.75 3.25,15.601574 3.25,14.166016 V 6.6660156 c 0,-1.4356198 1.1483673,-2.5820312 2.5839844,-2.5820312 h 8.3320316 c 1.435556,0 2.583984,1.1464169 2.583984,2.5820312 V 10 A 0.75,0.75 0 0 0 17.5,10.75 0.75,0.75 0 0 0 18.25,10 V 6.6660156 c 0,-2.2462819 -1.837744,-4.0820312 -4.083984,-4.0820312 z"
     id="path2" />
  <path
     style="color:#000000;fill:#94a3b8;stroke-linecap:round;-inkscape-stroke:none"
     d="m 6.6640625,1.75 a 0.75,0.75 0 0 0 -0.75,0.75 V 5 a 0.75,0.75 0 0 0 0.75,0.75 0.75,0.75 0 0 0 0.75,-0.75 V 2.5 a 0.75,0.75 0 0 0 -0.75,-0.75 z"
     id="path4" />
  <path
     style="color:#000000;fill:#94a3b8;stroke-linecap:round;-inkscape-stroke:none"
     d="m 5.8359375,7.5839844 a 0.75,0.75 0 0 0 -0.75,0.75 0.75,0.75 0 0 0 0.75,0.75 h 8.3339845 a 0.75,0.75 0 0 0 0.75,-0.75 0.75,0.75 0 0 0 -0.75,-0.75 z"
     id="path6" />
  <path
     style="color:#000000;fill:#94a3b8;stroke-linecap:round;-inkscape-stroke:none"
     d="m 13.335938,1.75 a 0.75,0.75 0 0 0 -0.75,0.75 V 5 a 0.75,0.75 0 0 0 0.75,0.75 0.75,0.75 0 0 0 0.75,-0.75 V 2.5 a 0.75,0.75 0 0 0 -0.75,-0.75 z"
     id="path8" />
  <path
     style="color:#000000;fill:#94a3b8;-inkscape-stroke:none"
     d="m 15,11.75 c -1.786036,0 -3.25,1.463964 -3.25,3.25 0,1.786036 1.463964,3.25 3.25,3.25 1.786036,0 3.25,-1.463964 3.25,-3.25 0,-1.786036 -1.463964,-3.25 -3.25,-3.25 z m 0,1.5 c 0.975361,0 1.75,0.774639 1.75,1.75 0,0.975361 -0.774639,1.75 -1.75,1.75 -0.975361,0 -1.75,-0.774639 -1.75,-1.75 0,-0.975361 0.774639,-1.75 1.75,-1.75 z"
     id="path10" />
</svg>
