<svg width="16" height="16" viewBox="0 0 16 16" fill="none" xmlns="http://www.w3.org/2000/svg">
<g clip-path="url(#clip0_2001_26974)">
<path d="M13.3333 15.1667C13.9776 15.1667 14.5 14.6443 14.5 14C14.5 13.3557 13.9776 12.8333 13.3333 12.8333C12.689 12.8333 12.1666 13.3557 12.1666 14C12.1666 14.6443 12.689 15.1667 13.3333 15.1667Z" stroke="#475569" stroke-linecap="round" stroke-linejoin="round"/>
<path d="M6.00004 15.1667C6.64437 15.1667 7.16671 14.6443 7.16671 14C7.16671 13.3557 6.64437 12.8333 6.00004 12.8333C5.35571 12.8333 4.83337 13.3557 4.83337 14C4.83337 14.6443 5.35571 15.1667 6.00004 15.1667Z" stroke="#475569" stroke-linecap="round" stroke-linejoin="round"/>
<path d="M0.666626 0.666664H3.33329L5.11996 9.59333C5.18092 9.90026 5.3479 10.176 5.59166 10.3722C5.83541 10.5684 6.14042 10.6727 6.45329 10.6667H12.9333C13.2462 10.6727 13.5512 10.5684 13.7949 10.3722C14.0387 10.176 14.2057 9.90026 14.2666 9.59333L15.3333 4H3.99996" stroke="#475569" stroke-linecap="round" stroke-linejoin="round"/>
</g>
<defs>
<clipPath id="clip0_2001_26974">
<rect width="16" height="16" fill="white"/>
</clipPath>
</defs>
</svg>
