<?xml version="1.0" encoding="UTF-8" standalone="no"?>
<svg
   width="16"
   height="16"
   viewBox="0 0 16 16"
   fill="none"
   version="1.1"
   id="svg15"
   sodipodi:docname="cart.svg"
   inkscape:version="1.1.1 (3bf5ae0d25, 2021-09-20)"
   xmlns:inkscape="http://www.inkscape.org/namespaces/inkscape"
   xmlns:sodipodi="http://sodipodi.sourceforge.net/DTD/sodipodi-0.dtd"
   xmlns="http://www.w3.org/2000/svg"
   xmlns:svg="http://www.w3.org/2000/svg">
  <sodipodi:namedview
     id="namedview17"
     pagecolor="#ffffff"
     bordercolor="#666666"
     borderopacity="1.0"
     inkscape:pageshadow="2"
     inkscape:pageopacity="0.0"
     inkscape:pagecheckerboard="0"
     showgrid="false"
     inkscape:zoom="54.5625"
     inkscape:cx="8"
     inkscape:cy="8"
     inkscape:window-width="3440"
     inkscape:window-height="1369"
     inkscape:window-x="-8"
     inkscape:window-y="-8"
     inkscape:window-maximized="1"
     inkscape:current-layer="svg15" />
  <path
     style="color:#000000;fill:#475569;stroke-linecap:round;stroke-linejoin:round;-inkscape-stroke:none"
     d="m 13.333984,12.333984 c -0.914566,0 -1.667968,0.751449 -1.667968,1.666016 0,0.914567 0.753402,1.666016 1.667968,1.666016 C 14.248551,15.666016 15,14.914567 15,14 15,13.085433 14.248551,12.333984 13.333984,12.333984 Z m 0,1 C 13.708017,13.333984 14,13.625968 14,14 c 0,0.374032 -0.291983,0.666016 -0.666016,0.666016 -0.374032,0 -0.667968,-0.291984 -0.667968,-0.666016 0,-0.374032 0.293936,-0.666016 0.667968,-0.666016 z"
     id="path2" />
  <path
     style="color:#000000;fill:#475569;stroke-linecap:round;stroke-linejoin:round;-inkscape-stroke:none"
     d="m 6,12.333984 c -0.914584,0 -1.6660156,0.75148 -1.6660156,1.666016 0,0.914536 0.7514316,1.666016 1.6660156,1.666016 0.914584,0 1.6660156,-0.75148 1.6660156,-1.666016 C 7.6660156,13.085464 6.914584,12.333984 6,12.333984 Z m 0,1 c 0.3740747,0 0.6660156,0.291953 0.6660156,0.666016 0,0.374063 -0.2919409,0.666016 -0.6660156,0.666016 -0.3740747,0 -0.6660156,-0.291953 -0.6660156,-0.666016 0,-0.374063 0.2919409,-0.666016 0.6660156,-0.666016 z"
     id="path4" />
  <path
     style="color:#000000;fill:#475569;stroke-linecap:round;stroke-linejoin:round;-inkscape-stroke:none"
     d="m 0.66601562,0.16601562 a 0.5,0.5 0 0 0 -0.5,0.5 0.5,0.5 0 0 0 0.5,0.49999998 H 2.9238281 l 1.7050781,8.5253907 c 0.0838,0.4219267 0.3133078,0.8005697 0.6484375,1.0703127 0.3350352,0.269677 0.7553885,0.412546 1.1855469,0.404297 h 6.4609374 c 0.429542,0.0082 0.84883,-0.135356 1.183594,-0.404297 0.335176,-0.269736 0.566656,-0.648298 0.650391,-1.0703127 a 0.50005,0.50005 0 0 0 0,-0.00391 L 15.824219,4.09375 A 0.50005,0.50005 0 0 0 15.333984,3.5 H 4.4101562 L 3.8242188,0.56835937 A 0.50005,0.50005 0 0 0 3.3339844,0.16601562 Z M 4.6113281,4.5 H 14.728516 l -0.953125,4.9960938 c -0.03807,0.1918443 -0.142499,0.3636643 -0.294922,0.4863281 -0.152391,0.1226881 -0.341487,0.1873451 -0.53711,0.1835941 a 0.50005,0.50005 0 0 0 -0.0098,0 H 6.453125 a 0.50005,0.50005 0 0 0 -0.00977,0 C 6.2477785,10.169766 6.0567613,10.105144 5.9042969,9.9824219 5.7519071,9.8597649 5.6494483,9.6880267 5.6113281,9.4960938 a 0.50005,0.50005 0 0 0 -0.00195,0 z"
     id="path6" />
  <defs
     id="defs13">
    <clipPath
       id="clip0_2001_26974">
      <rect
         width="16"
         height="16"
         fill="white"
         id="rect10" />
    </clipPath>
  </defs>
</svg>
