<?xml version="1.0" encoding="UTF-8" standalone="no"?>
<svg
   width="32"
   height="33"
   viewBox="0 0 32 33"
   fill="none"
   version="1.1"
   id="svg8"
   sodipodi:docname="grid.svg"
   inkscape:version="1.1.1 (3bf5ae0d25, 2021-09-20)"
   xmlns:inkscape="http://www.inkscape.org/namespaces/inkscape"
   xmlns:sodipodi="http://sodipodi.sourceforge.net/DTD/sodipodi-0.dtd"
   xmlns="http://www.w3.org/2000/svg"
   xmlns:svg="http://www.w3.org/2000/svg">
  <defs
     id="defs12" />
  <sodipodi:namedview
     id="namedview10"
     pagecolor="#ffffff"
     bordercolor="#666666"
     borderopacity="1.0"
     inkscape:pageshadow="2"
     inkscape:pageopacity="0.0"
     inkscape:pagecheckerboard="0"
     showgrid="false"
     inkscape:zoom="24.969697"
     inkscape:cx="15.999393"
     inkscape:cy="16.520024"
     inkscape:window-width="1920"
     inkscape:window-height="1009"
     inkscape:window-x="1912"
     inkscape:window-y="-8"
     inkscape:window-maximized="1"
     inkscape:current-layer="svg8" />
  <path
     style="color:#000000;fill:#f7ce46;stroke-linecap:round;stroke-linejoin:round;-inkscape-stroke:none"
     d="m 5.640625,2.4160156 c -1.1543385,0 -2.116882,0.2137999 -2.796875,0.8535157 C 2.163757,3.909247 1.9160156,4.8601317 1.9160156,5.9667969 V 27.033203 c 0,1.106665 0.2477414,2.05755 0.9277344,2.697266 0.679993,0.639716 1.6425365,0.853515 2.796875,0.853515 h 5.386719 c 1.154338,0 2.114912,-0.213807 2.794922,-0.853515 C 14.502275,29.090761 14.75,28.139877 14.75,27.033203 V 5.9667969 C 14.75,4.860123 14.502275,3.9092395 13.822266,3.2695313 13.142256,2.629823 12.181682,2.4160156 11.027344,2.4160156 Z m 0,1.5 h 5.386719 c 0.965659,0 1.490889,0.1869748 1.767578,0.4472656 C 13.071611,4.6235721 13.25,5.0734728 13.25,5.9667969 V 27.033203 c 0,0.893324 -0.178389,1.343225 -0.455078,1.603516 -0.276689,0.260291 -0.801919,0.447265 -1.767578,0.447265 H 5.640625 c -0.9656594,0 -1.4909071,-0.186982 -1.7675781,-0.447265 C 3.5963758,28.376435 3.4160156,27.926536 3.4160156,27.033203 V 5.9667969 c 0,-0.8933329 0.1803602,-1.3432323 0.4570313,-1.6035157 C 4.1497179,4.1029979 4.6749656,3.9160156 5.640625,3.9160156 Z"
     id="path2" />
  <path
     style="color:#000000;fill:#f7ce46;stroke-linecap:round;stroke-linejoin:round;-inkscape-stroke:none"
     d="m 20.972656,2.4160156 c -1.154338,0 -2.114936,0.2137966 -2.794922,0.8535157 C 17.497749,3.9092503 17.25,4.8601355 17.25,5.9667969 v 9.0664061 c 0,1.106662 0.247749,2.057547 0.927734,2.697266 0.679986,0.639719 1.640584,0.853515 2.794922,0.853515 h 5.386719 c 1.154338,0 2.116889,-0.213796 2.796875,-0.853515 0.679986,-0.639719 0.927734,-1.590604 0.927734,-2.697266 V 5.9667969 c 0,-1.1066614 -0.247748,-2.0575466 -0.927734,-2.6972656 C 28.476264,2.6298122 27.513713,2.4160156 26.359375,2.4160156 Z m 0,1.5 h 5.386719 c 0.965659,0 1.490915,0.1869856 1.767578,0.4472656 0.276663,0.2602801 0.457031,0.7101791 0.457031,1.6035157 v 9.0664061 c 0,0.893337 -0.180368,1.343236 -0.457031,1.603516 -0.276663,0.26028 -0.801919,0.447265 -1.767578,0.447265 h -5.386719 c -0.965659,0 -1.490915,-0.186985 -1.767578,-0.447265 C 18.928415,16.376439 18.75,15.92654 18.75,15.033203 V 5.9667969 c 0,-0.8933366 0.178415,-1.3432356 0.455078,-1.6035157 0.276663,-0.26028 0.801919,-0.4472656 1.767578,-0.4472656 z"
     id="path4" />
  <path
     style="color:#000000;fill:#f7ce46;stroke-linecap:round;stroke-linejoin:round;-inkscape-stroke:none"
     d="m 20.972656,21.083984 c -1.154338,0 -2.114936,0.213797 -2.794922,0.853516 C 17.497749,22.577219 17.25,23.526151 17.25,24.632812 v 2.400391 c 0,1.106662 0.247749,2.057547 0.927734,2.697266 0.679986,0.639719 1.640584,0.853515 2.794922,0.853515 h 5.386719 c 1.154338,0 2.116889,-0.213796 2.796875,-0.853515 0.679986,-0.639719 0.927734,-1.590604 0.927734,-2.697266 v -2.400391 c 0,-1.106661 -0.247748,-2.055593 -0.927734,-2.695312 -0.679986,-0.639719 -1.642537,-0.853516 -2.796875,-0.853516 z m 0,1.5 h 5.386719 c 0.965659,0 1.490915,0.185033 1.767578,0.445313 0.276663,0.26028 0.457031,0.710179 0.457031,1.603515 v 2.400391 c 0,0.893337 -0.180368,1.343236 -0.457031,1.603516 -0.276663,0.26028 -0.801919,0.447265 -1.767578,0.447265 h -5.386719 c -0.965659,0 -1.490915,-0.186985 -1.767578,-0.447265 C 18.928415,28.376439 18.75,27.92654 18.75,27.033203 v -2.400391 c 0,-0.893336 0.178415,-1.343235 0.455078,-1.603515 0.276663,-0.26028 0.801919,-0.445313 1.767578,-0.445313 z"
     id="path6" />
</svg>
