<?xml version="1.0" encoding="UTF-8" standalone="no"?>
<svg
   width="16"
   height="17"
   viewBox="0 0 16 17"
   fill="none"
   version="1.1"
   id="svg1"
   sodipodi:docname="clock.svg"
   inkscape:version="1.3.2 (091e20e, 2023-11-25, custom)"
   xmlns:inkscape="http://www.inkscape.org/namespaces/inkscape"
   xmlns:sodipodi="http://sodipodi.sourceforge.net/DTD/sodipodi-0.dtd"
   xmlns="http://www.w3.org/2000/svg"
   xmlns:svg="http://www.w3.org/2000/svg">
  <defs
     id="defs1" />
  <sodipodi:namedview
     id="namedview1"
     pagecolor="#ffffff"
     bordercolor="#cccccc"
     borderopacity="1"
     inkscape:showpageshadow="0"
     inkscape:pageopacity="1"
     inkscape:pagecheckerboard="0"
     inkscape:deskcolor="#d1d1d1"
     inkscape:zoom="69.470588"
     inkscape:cx="8.003387"
     inkscape:cy="8.5"
     inkscape:window-width="3440"
     inkscape:window-height="1377"
     inkscape:window-x="-8"
     inkscape:window-y="-8"
     inkscape:window-maximized="1"
     inkscape:current-layer="svg1" />
  <path
     style="color:#000000;fill:#94a3b8;stroke-linecap:round;stroke-linejoin:round;-inkscape-stroke:none"
     d="m 8,1.75 c -3.719036,0 -6.75,3.030964 -6.75,6.75 0,3.719027 3.0309625,6.75 6.75,6.75 3.719029,0 6.75,-3.030971 6.75,-6.75 C 14.75,4.7809625 11.719027,1.75 8,1.75 Z m 0,1.5 c 2.908366,0 5.25,2.3416241 5.25,5.25 0,2.908365 -2.341635,5.25 -5.25,5.25 C 5.0916241,13.75 2.75,11.408366 2.75,8.5 2.75,5.5916226 5.0916226,3.25 8,3.25 Z m 0,1.1660156 a 0.75,0.75 0 0 0 -0.75,0.75 V 8.5 A 0.750075,0.750075 0 0 0 8,9.25 h 3.333984 a 0.75,0.75 0 0 0 0.75,-0.75 0.75,0.75 0 0 0 -0.75,-0.75 H 8.75 V 5.1660156 a 0.75,0.75 0 0 0 -0.75,-0.75 z"
     id="path1" />
</svg>
