<?xml version="1.0" encoding="UTF-8" standalone="no"?>
<svg
   width="16"
   height="16"
   viewBox="0 0 16 16"
   fill="none"
   version="1.1"
   id="svg8"
   sodipodi:docname="compare.svg"
   inkscape:version="1.1.1 (3bf5ae0d25, 2021-09-20)"
   xmlns:inkscape="http://www.inkscape.org/namespaces/inkscape"
   xmlns:sodipodi="http://sodipodi.sourceforge.net/DTD/sodipodi-0.dtd"
   xmlns="http://www.w3.org/2000/svg"
   xmlns:svg="http://www.w3.org/2000/svg">
  <defs
     id="defs12" />
  <sodipodi:namedview
     id="namedview10"
     pagecolor="#ffffff"
     bordercolor="#666666"
     borderopacity="1.0"
     inkscape:pageshadow="2"
     inkscape:pageopacity="0.0"
     inkscape:pagecheckerboard="0"
     showgrid="false"
     inkscape:zoom="54.5625"
     inkscape:cx="8"
     inkscape:cy="8"
     inkscape:window-width="3440"
     inkscape:window-height="1369"
     inkscape:window-x="-8"
     inkscape:window-y="-8"
     inkscape:window-maximized="1"
     inkscape:current-layer="svg8" />
  <path
     style="color:#000000;fill:#475569;stroke-linecap:round;stroke-linejoin:round;-inkscape-stroke:none"
     d="m 4,8.8339844 a 0.5,0.5 0 0 0 -0.5,0.5 v 3.9999996 a 0.5,0.5 0 0 0 0.5,0.5 0.5,0.5 0 0 0 0.5,-0.5 V 9.3339844 a 0.5,0.5 0 0 0 -0.5,-0.5 z"
     id="path2" />
  <path
     style="color:#000000;fill:#475569;stroke-linecap:round;stroke-linejoin:round;-inkscape-stroke:none"
     d="m 12,6.1660156 a 0.5,0.5 0 0 0 -0.5,0.5 v 6.6679684 a 0.5,0.5 0 0 0 0.5,0.5 0.5,0.5 0 0 0 0.5,-0.5 V 6.6660156 a 0.5,0.5 0 0 0 -0.5,-0.5 z"
     id="path4" />
  <path
     style="color:#000000;fill:#475569;stroke-linecap:round;stroke-linejoin:round;-inkscape-stroke:none"
     d="m 8,2.1660156 a 0.5,0.5 0 0 0 -0.5,0.5 V 13.333984 a 0.5,0.5 0 0 0 0.5,0.5 0.5,0.5 0 0 0 0.5,-0.5 V 2.6660156 a 0.5,0.5 0 0 0 -0.5,-0.5 z"
     id="path6" />
</svg>
