<?xml version="1.0" encoding="UTF-8" standalone="no"?>
<svg
   width="17"
   height="16"
   viewBox="0 0 17 16"
   fill="none"
   version="1.1"
   id="svg2"
   sodipodi:docname="copy.svg"
   inkscape:version="1.3.2 (091e20e, 2023-11-25, custom)"
   xmlns:inkscape="http://www.inkscape.org/namespaces/inkscape"
   xmlns:sodipodi="http://sodipodi.sourceforge.net/DTD/sodipodi-0.dtd"
   xmlns="http://www.w3.org/2000/svg"
   xmlns:svg="http://www.w3.org/2000/svg">
  <defs
     id="defs2" />
  <sodipodi:namedview
     id="namedview2"
     pagecolor="#ffffff"
     bordercolor="#cccccc"
     borderopacity="1"
     inkscape:showpageshadow="0"
     inkscape:pageopacity="1"
     inkscape:pagecheckerboard="0"
     inkscape:deskcolor="#d1d1d1"
     inkscape:zoom="73.8125"
     inkscape:cx="8.5012701"
     inkscape:cy="8"
     inkscape:window-width="3440"
     inkscape:window-height="1377"
     inkscape:window-x="-8"
     inkscape:window-y="-8"
     inkscape:window-maximized="1"
     inkscape:current-layer="svg2" />
  <path
     style="color:#000000;fill:#94a3b8;stroke-linecap:round;stroke-linejoin:round;-inkscape-stroke:none"
     d="m 4.9335937,4.8339844 c -1.2333302,0 -2.2073373,0.2483529 -2.8632812,0.9042968 -0.6559439,0.655944 -0.9042969,1.6279979 -0.9042969,2.8613282 v 2.8007816 c 0,1.233316 0.248351,2.205396 0.9042969,2.861328 0.6559459,0.655932 1.6299531,0.904297 2.8632812,0.904297 h 2.7988282 c 1.2333234,0 2.2053912,-0.248364 2.8613281,-0.904297 C 11.249687,13.605785 11.5,12.633705 11.5,11.400391 V 8.5996094 C 11.5,7.3662812 11.249685,6.3942271 10.59375,5.7382812 9.9378151,5.0823354 8.9657475,4.8339844 7.7324219,4.8339844 Z m 0,1 h 2.7988282 c 1.0999921,0 1.7602528,0.2172775 2.1542969,0.6113281 C 10.280763,6.8393631 10.5,7.4996099 10.5,8.5996094 v 2.8007816 c 0,1.099983 -0.219239,1.760256 -0.6132812,2.154297 -0.3940421,0.39404 -1.0543027,0.611328 -2.1542969,0.611328 H 4.9335937 c -1.0999995,0 -1.7621994,-0.217286 -2.1562499,-0.611328 C 2.3832932,13.160645 2.1660156,12.500372 2.1660156,11.400391 V 8.5996094 c 0,-1.0999974 0.2172756,-1.7602444 0.6113282,-2.1542969 C 3.1713963,6.05126 3.8335964,5.8339844 4.9335937,5.8339844 Z"
     id="path1" />
  <path
     style="color:#000000;fill:#94a3b8;stroke-linecap:round;stroke-linejoin:round;-inkscape-stroke:none"
     d="m 8.9335938,0.83398438 c -1.2333303,0 -2.2073374,0.24835292 -2.8632813,0.90429682 -0.6559439,0.655944 -0.9042969,1.6279979 -0.9042969,2.8613282 v 0.734375 a 0.50005,0.50005 0 0 0 0.5,0.5 h 2.0664063 c 1.0999921,0 1.7602528,0.2172775 2.1542969,0.6113281 C 10.280763,6.8393631 10.5,7.4996099 10.5,8.5996094 v 2.0664066 a 0.50005,0.50005 0 0 0 0.5,0.5 h 0.732422 c 1.233314,0 2.205394,-0.248357 2.861328,-0.904297 C 15.249684,9.6057788 15.5,8.6337235 15.5,7.4003906 V 4.5996094 C 15.5,3.3662812 15.249682,2.3942271 14.59375,1.7382812 13.937818,1.0823354 12.965738,0.83398437 11.732422,0.83398438 Z m 0,1.00000002 h 2.7988282 c 1.099981,0 1.760255,0.2172775 2.154297,0.6113281 C 14.280761,2.8393631 14.5,3.4996099 14.5,4.5996094 v 2.8007812 c 0,1.1000048 -0.219241,1.7602529 -0.613281,2.1542969 -0.394041,0.394044 -1.054313,0.6113285 -2.154297,0.6113285 H 11.5 V 8.5996094 C 11.5,7.3662812 11.249685,6.3942271 10.59375,5.7382812 9.9378151,5.0823354 8.9657475,4.8339844 7.7324219,4.8339844 H 6.1660156 v -0.234375 c 0,-1.0999974 0.2172756,-1.7602444 0.6113281,-2.1542969 C 7.1713963,2.05126 7.8335964,1.8339844 8.9335938,1.8339844 Z"
     id="path2" />
</svg>
