<?xml version="1.0" encoding="UTF-8" standalone="no"?>
<svg
   width="16"
   height="16"
   viewBox="0 0 16 16"
   fill="none"
   version="1.1"
   id="svg6"
   sodipodi:docname="currency.svg"
   inkscape:version="1.1.1 (3bf5ae0d25, 2021-09-20)"
   xmlns:inkscape="http://www.inkscape.org/namespaces/inkscape"
   xmlns:sodipodi="http://sodipodi.sourceforge.net/DTD/sodipodi-0.dtd"
   xmlns="http://www.w3.org/2000/svg"
   xmlns:svg="http://www.w3.org/2000/svg">
  <defs
     id="defs10" />
  <sodipodi:namedview
     id="namedview8"
     pagecolor="#ffffff"
     bordercolor="#666666"
     borderopacity="1.0"
     inkscape:pageshadow="2"
     inkscape:pageopacity="0.0"
     inkscape:pagecheckerboard="0"
     showgrid="false"
     inkscape:zoom="54.5625"
     inkscape:cx="8"
     inkscape:cy="8"
     inkscape:window-width="3440"
     inkscape:window-height="1369"
     inkscape:window-x="-8"
     inkscape:window-y="-8"
     inkscape:window-maximized="1"
     inkscape:current-layer="svg6" />
  <path
     style="color:#000000;fill:#475569;stroke-linecap:round;stroke-linejoin:round;-inkscape-stroke:none"
     d="M 8,0.83398438 C 4.0478839,0.83398437 0.83398438,4.0478839 0.83398438,8 c 0,3.952116 3.21389682,7.166016 7.16601562,7.166016 3.95211,0 7.166016,-3.213897 7.166016,-7.166016 C 15.166016,4.0478812 11.952107,0.83398437 8,0.83398438 Z M 8,1.8339844 c 3.411666,0 6.166016,2.7543418 6.166016,6.1660156 0,3.411674 -2.754353,6.166016 -6.166016,6.166016 C 4.5883262,14.166016 1.8339844,11.411677 1.8339844,8 1.8339844,4.5883235 4.5883235,1.8339844 8,1.8339844 Z"
     id="path2" />
  <path
     style="color:#000000;fill:#475569;-inkscape-stroke:none"
     d="M 6.5,4.1660156 V 7.5 H 5.3339844 v 1 H 6.5 v 1 H 5.3339844 v 1 H 6.5 V 12 h 1 V 10.5 H 9 v -1 H 7.5 v -1 H 9.6660156 C 10.043781,8.5 10.541617,8.4023082 11,8.0722656 11.458383,7.7422231 11.833984,7.1395404 11.833984,6.3339844 11.833984,5.5284323 11.458383,4.9237908 11,4.59375 10.541617,4.2637092 10.043781,4.1660156 9.6660156,4.1660156 Z m 1,1 h 2.1660156 c 0.1777544,0 0.5139534,0.070278 0.7500004,0.2402344 0.236046,0.1699562 0.417968,0.3999577 0.417968,0.9277344 0,0.5277826 -0.181922,0.7577774 -0.417968,0.9277343 C 10.179969,7.4316757 9.84377,7.5 9.6660156,7.5 H 7.5 Z"
     id="path4" />
</svg>
