<?xml version="1.0" encoding="UTF-8" standalone="no"?>
<svg
   width="18"
   height="16"
   viewBox="0 0 18 16"
   fill="none"
   version="1.1"
   id="svg1"
   sodipodi:docname="devices.svg"
   inkscape:version="1.3.2 (091e20e, 2023-11-25, custom)"
   xmlns:inkscape="http://www.inkscape.org/namespaces/inkscape"
   xmlns:sodipodi="http://sodipodi.sourceforge.net/DTD/sodipodi-0.dtd"
   xmlns="http://www.w3.org/2000/svg"
   xmlns:svg="http://www.w3.org/2000/svg">
  <defs
     id="defs1" />
  <sodipodi:namedview
     id="namedview1"
     pagecolor="#ffffff"
     bordercolor="#cccccc"
     borderopacity="1"
     inkscape:showpageshadow="0"
     inkscape:pageopacity="1"
     inkscape:pagecheckerboard="0"
     inkscape:deskcolor="#d1d1d1"
     inkscape:zoom="73.8125"
     inkscape:cx="8.9957663"
     inkscape:cy="8"
     inkscape:window-width="3440"
     inkscape:window-height="1377"
     inkscape:window-x="-8"
     inkscape:window-y="-8"
     inkscape:window-maximized="1"
     inkscape:current-layer="svg1" />
  <path
     style="color:#000000;fill:#94a3b8;stroke-linecap:round;stroke-linejoin:round;-inkscape-stroke:none"
     d="M 6.6660156,0.33398438 C 5.7325966,0.33398438 5.1263727,0.28296966 4.4550781,0.625 3.9532629,0.88069216 3.5464704,1.2876817 3.2910156,1.7890625 2.9774655,2.4044257 3.0184407,3.0077945 3.0234375,3.8164063 2.6851725,3.8481448 2.2794614,3.7917461 1.9550781,3.9570313 1.4532434,4.2127173 1.0464704,4.6216661 0.79101562,5.1230469 0.44908327,5.7941122 0.5,6.4005653 0.5,7.3339844 V 12 c 0,0.933399 -0.0509347,1.539875 0.29101562,2.210938 0.25545088,0.501373 0.66205668,0.91037 1.16406248,1.166015 0.6713277,0.342141 1.2775185,0.289063 2.2109375,0.289063 h 0.5 c 0.9334191,0 1.5400682,0.05284 2.2109375,-0.289063 0.5016215,-0.255441 0.9101603,-0.66388 1.1660157,-1.166015 C 8.20461,13.893706 8.1468725,13.49552 8.1796875,13.166016 h 5.6542965 c 0.933499,0 1.53803,0.05291 2.208985,-0.289063 0.501615,-0.255446 0.910162,-0.663915 1.166015,-1.166015 C 17.551158,11.039584 17.5,10.433286 17.5,9.5 V 4 C 17.5,3.0667238 17.551137,2.460412 17.208984,1.7890625 16.953127,1.2869538 16.544393,0.88049305 16.042969,0.625 15.372115,0.28317489 14.767383,0.33398437 13.833984,0.33398438 Z m 0,2.00000002 h 7.1679684 c 0.933399,0 1.26059,0.050791 1.302735,0.072266 0.125775,0.064087 0.227273,0.1659249 0.291015,0.2910156 C 15.448982,2.7389554 15.5,3.0664381 15.5,4 v 5.5 c 0,0.933572 -0.05104,1.261089 -0.07227,1.302734 -0.06375,0.125099 -0.165431,0.227063 -0.291015,0.291016 a 1.0001,1.0001 0 0 0 -0.002,0 c -0.04205,0.02143 -0.367283,0.07227 -1.300782,0.07227 H 8.3339844 V 7.3339844 c 0,-0.9332905 0.051016,-1.5396407 -0.2910156,-2.2109375 C 7.7871095,4.6209037 7.3784034,4.2125133 6.8769531,3.9570313 6.3122149,3.6692684 5.7224764,3.7086185 5.015625,3.7128906 5.0301704,3.1813209 5.0555889,2.7299948 5.0722656,2.6972656 5.1363705,2.571447 5.2378971,2.4701375 5.3632812,2.40625 5.405026,2.3849807 5.7325966,2.3339844 6.6660156,2.3339844 Z m -2.5,3.3320312 h 0.5 c 0.9334191,0 1.2605669,0.052732 1.3027344,0.074219 0.1257691,0.064078 0.2292483,0.1659594 0.2929687,0.2910156 0.021268,0.041742 0.072266,0.3691867 0.072266,1.3027344 V 12 c 0,0.933528 -0.051016,1.26103 -0.072266,1.302734 -0.063724,0.125064 -0.1673708,0.227058 -0.2929687,0.291016 -0.04217,0.02149 -0.3693153,0.07227 -1.3027344,0.07227 h -0.5 c -0.933419,0 -1.2610227,-0.05101 -1.3027343,-0.07227 C 2.7380877,13.529996 2.6363744,13.428561 2.5722656,13.302734 2.5508963,13.260798 2.5,12.933399 2.5,12 V 7.3339844 C 2.5,6.4005653 2.5508783,6.073224 2.5722656,6.03125 2.6363705,5.9054314 2.7379166,5.804108 2.8632813,5.7402344 2.9050194,5.7189673 3.2325966,5.6660156 4.1660156,5.6660156 Z"
     id="path1" />
</svg>
