<?xml version="1.0" encoding="UTF-8" standalone="no"?>
<svg
   width="14"
   height="12"
   viewBox="0 0 14 12"
   fill="none"
   version="1.1"
   id="svg1"
   sodipodi:docname="dialog.svg"
   inkscape:version="1.3.2 (091e20e, 2023-11-25, custom)"
   xmlns:inkscape="http://www.inkscape.org/namespaces/inkscape"
   xmlns:sodipodi="http://sodipodi.sourceforge.net/DTD/sodipodi-0.dtd"
   xmlns="http://www.w3.org/2000/svg"
   xmlns:svg="http://www.w3.org/2000/svg">
  <defs
     id="defs1" />
  <sodipodi:namedview
     id="namedview1"
     pagecolor="#ffffff"
     bordercolor="#cccccc"
     borderopacity="1"
     inkscape:showpageshadow="0"
     inkscape:pageopacity="1"
     inkscape:pagecheckerboard="0"
     inkscape:deskcolor="#d1d1d1"
     inkscape:zoom="98.416667"
     inkscape:cx="7.0008467"
     inkscape:cy="6"
     inkscape:window-width="3440"
     inkscape:window-height="1377"
     inkscape:window-x="-8"
     inkscape:window-y="-8"
     inkscape:window-maximized="1"
     inkscape:current-layer="svg1" />
  <path
     style="color:#000000;fill:#94a3b8;stroke-linecap:round;stroke-linejoin:round;-inkscape-stroke:none"
     d="m 5,0.06640625 c -2.5334005,0 -4.59960937,2.06620815 -4.59960937,4.59960935 0,0.765875 0.27255747,1.4508045 0.60546877,2.0878906 L 0.76757812,7.4648437 C 0.71330541,7.6276519 0.67002488,7.7548676 0.63671875,7.8964844 0.60341262,8.0381012 0.56724083,8.2254506 0.6484375,8.453125 0.74234826,8.716444 0.95005415,8.9234057 1.2128906,9.0175781 1.4404525,9.0987346 1.6278369,9.06451 1.7695312,9.03125 1.9112256,8.99799 2.0382702,8.9527364 2.2011719,8.8984375 L 2.9121094,8.6601563 C 3.5354254,8.9858794 4.2074259,9.2440053 4.9550781,9.2519531 5.6983729,10.796877 7.1776322,11.933594 9,11.933594 c 0.7650918,0 1.449386,-0.273159 2.085938,-0.605469 l 0.71289,0.236328 c 0.162894,0.05431 0.289954,0.09952 0.431641,0.132813 0.141687,0.03329 0.328956,0.06943 0.55664,-0.01172 0.263896,-0.09403 0.470697,-0.303553 0.564454,-0.566406 0.081,-0.227266 0.04691,-0.412971 0.01367,-0.554688 -0.03324,-0.141717 -0.07847,-0.27063 -0.132812,-0.433594 l -0.195313,-0.583984 -0.04101,0.064453 c 0.383961,-0.6719069 0.603515,-1.4505825 0.603515,-2.2773437 0,-2.4759667 -1.98309,-4.4775333 -4.4374996,-4.5683594 C 8.4335239,1.1830675 6.8510776,0.06640625 5,0.06640625 Z M 5,1.265625 c 1.8848751,0 3.4003906,1.5155163 3.4003906,3.4003906 0,1.8848816 -1.5155235,3.4003906 -3.4003906,3.4003907 -0.6716021,0 -1.2922733,-0.1935626 -1.8183594,-0.5273438 a 0.60006002,0.60006002 0 0 0 -0.5117187,-0.0625 L 1.9492187,7.7167969 2.1894531,6.9960937 A 0.60006002,0.60006002 0 0 0 2.1269531,6.484375 C 1.7931776,5.9583114 1.5996094,5.3376533 1.5996094,4.6660156 1.5996094,2.7811413 3.1151249,1.265625 5,1.265625 Z m 4.4707031,2.7617187 c 1.6496609,0.2367702 2.9296879,1.5890315 2.9296879,3.3066407 0,0.6156547 -0.1632,1.186966 -0.447266,1.6835937 l -0.08594,0.1464844 a 0.60006002,0.60006002 0 0 0 -0.05664,0.4980469 l 0.240234,0.7207036 -0.720703,-0.238282 a 0.60006002,0.60006002 0 0 0 -0.511719,0.0625 C 10.292314,10.540868 9.6715703,10.732422 9,10.732422 c -1.2323537,0 -2.1927533,-0.7361981 -2.7890625,-1.7109376 1.9348129,-0.5433879 3.3886719,-2.2511812 3.3886719,-4.3554688 0,-0.2263294 -0.097059,-0.4209346 -0.1289063,-0.6386719 z"
     id="path1" />
</svg>
