<?xml version="1.0" encoding="UTF-8" standalone="no"?>
<svg
   width="16"
   height="16"
   viewBox="0 0 16 16"
   fill="none"
   version="1.1"
   id="svg10"
   sodipodi:docname="doc.svg"
   inkscape:version="1.1.1 (3bf5ae0d25, 2021-09-20)"
   xmlns:inkscape="http://www.inkscape.org/namespaces/inkscape"
   xmlns:sodipodi="http://sodipodi.sourceforge.net/DTD/sodipodi-0.dtd"
   xmlns="http://www.w3.org/2000/svg"
   xmlns:svg="http://www.w3.org/2000/svg">
  <defs
     id="defs14" />
  <sodipodi:namedview
     id="namedview12"
     pagecolor="#ffffff"
     bordercolor="#666666"
     borderopacity="1.0"
     inkscape:pageshadow="2"
     inkscape:pageopacity="0.0"
     inkscape:pagecheckerboard="0"
     showgrid="false"
     inkscape:zoom="51.5"
     inkscape:cx="7.9902913"
     inkscape:cy="7.9902913"
     inkscape:window-width="1920"
     inkscape:window-height="1009"
     inkscape:window-x="-8"
     inkscape:window-y="-8"
     inkscape:window-maximized="1"
     inkscape:current-layer="svg10" />
  <path
     style="color:#000000;fill:#475569;stroke-linecap:round;stroke-linejoin:round;stroke-miterlimit:10;-inkscape-stroke:none"
     d="m 5.3339844,0.83398438 c -1.2619025,0 -2.2571687,0.37505522 -2.9082031,1.07617182 C 1.7747468,2.6112729 1.5,3.5826834 1.5,4.6660156 v 6.6679684 c 0,1.083333 0.2747497,2.054728 0.9257813,2.75586 0.6510315,0.701131 1.6462963,1.076172 2.9082031,1.076172 h 5.3320316 c 1.261893,0 2.257176,-0.375041 2.908203,-1.076172 C 14.225246,13.388712 14.5,12.417317 14.5,11.333984 V 4.6660156 C 14.5,3.5826834 14.225249,2.6112728 13.574219,1.9101562 12.923189,1.2090397 11.927904,0.83398437 10.666016,0.83398438 Z m 0,1.00000002 h 5.3320316 c 1.071409,0 1.743487,0.2903071 2.175781,0.7558594 C 13.274091,3.055396 13.5,3.7493499 13.5,4.6660156 v 6.6679684 c 0,0.916666 -0.225906,1.610605 -0.658203,2.076172 -0.432297,0.465568 -1.104377,0.75586 -2.175781,0.75586 H 5.3339844 c -1.071421,0 -1.7434814,-0.290292 -2.1757813,-0.75586 C 2.7259032,12.944589 2.5,12.25065 2.5,11.333984 V 4.6660156 C 2.5,3.7493499 2.7259062,3.055396 3.1582031,2.5898438 3.5905001,2.1242915 4.2625592,1.8339844 5.3339844,1.8339844 Z"
     id="path2" />
  <path
     style="color:#000000;fill:#475569;stroke-linecap:round;stroke-linejoin:round;stroke-miterlimit:10;-inkscape-stroke:none"
     d="m 9.6660156,2.5 a 0.5,0.5 0 0 0 -0.5,0.5 v 1.3339844 c 0,1.0060638 0.8279457,1.8320312 1.8339844,1.8320312 h 1.333984 a 0.5,0.5 0 0 0 0.5,-0.5 0.5,0.5 0 0 0 -0.5,-0.5 H 11 c -0.46056,0 -0.833984,-0.3714165 -0.833984,-0.8320312 V 3 A 0.5,0.5 0 0 0 9.6660156,2.5 Z"
     id="path4" />
  <path
     style="color:#000000;fill:#475569;stroke-linecap:round;stroke-linejoin:round;stroke-miterlimit:10;-inkscape-stroke:none"
     d="m 5.3339844,8.1660156 a 0.5,0.5 0 0 0 -0.5,0.5 0.5,0.5 0 0 0 0.5,0.5 H 8 a 0.5,0.5 0 0 0 0.5,-0.5 0.5,0.5 0 0 0 -0.5,-0.5 z"
     id="path6" />
  <path
     style="color:#000000;fill:#475569;stroke-linecap:round;stroke-linejoin:round;stroke-miterlimit:10;-inkscape-stroke:none"
     d="m 5.3339844,10.833984 a 0.5,0.5 0 0 0 -0.5,0.5 0.5,0.5 0 0 0 0.5,0.5 h 5.3320316 a 0.5,0.5 0 0 0 0.5,-0.5 0.5,0.5 0 0 0 -0.5,-0.5 z"
     id="path8" />
</svg>
