<?xml version="1.0" encoding="UTF-8" standalone="no"?>
<svg
   width="4"
   height="16"
   viewBox="0 0 4 16"
   fill="none"
   version="1.1"
   id="svg3"
   sodipodi:docname="dotts.svg"
   inkscape:version="1.3.2 (091e20e, 2023-11-25, custom)"
   xmlns:inkscape="http://www.inkscape.org/namespaces/inkscape"
   xmlns:sodipodi="http://sodipodi.sourceforge.net/DTD/sodipodi-0.dtd"
   xmlns="http://www.w3.org/2000/svg"
   xmlns:svg="http://www.w3.org/2000/svg">
  <defs
     id="defs3" />
  <sodipodi:namedview
     id="namedview3"
     pagecolor="#ffffff"
     bordercolor="#cccccc"
     borderopacity="1"
     inkscape:showpageshadow="0"
     inkscape:pageopacity="1"
     inkscape:pagecheckerboard="0"
     inkscape:deskcolor="#d1d1d1"
     inkscape:zoom="73.8125"
     inkscape:cx="2.0050804"
     inkscape:cy="8"
     inkscape:window-width="3440"
     inkscape:window-height="1377"
     inkscape:window-x="-8"
     inkscape:window-y="-8"
     inkscape:window-maximized="1"
     inkscape:current-layer="svg3" />
  <path
     style="color:#000000;fill:#94a3b8;stroke-linecap:round;stroke-linejoin:round;-inkscape-stroke:none"
     d="m 2,12 c -1.09270526,0 -2,0.90727 -2,2 0,1.09273 0.90729474,2 2,2 1.0927053,0 2,-0.90727 2,-2 0,-1.09273 -0.9072947,-2 -2,-2 z"
     id="path1" />
  <path
     style="color:#000000;fill:#94a3b8;stroke-linecap:round;stroke-linejoin:round;-inkscape-stroke:none"
     d="M 2,6 C 0.9072706,6 0,6.9072706 0,8 0,9.0927294 0.9072706,10 2,10 3.0927294,10 4,9.0927294 4,8 4,6.9072706 3.0927294,6 2,6 Z"
     id="path2" />
  <path
     style="color:#000000;fill:#94a3b8;stroke-linecap:round;stroke-linejoin:round;-inkscape-stroke:none"
     d="M 2,0 C 0.9072706,0 0,0.9072706 0,2 0,3.0927294 0.9072706,4 2,4 3.0927294,4 4,3.0927294 4,2 4,0.9072706 3.0927294,0 2,0 Z"
     id="path3" />
</svg>
