<?xml version="1.0" encoding="UTF-8" standalone="no"?>
<svg
   width="16"
   height="16"
   viewBox="0 0 16 16"
   fill="none"
   version="1.1"
   id="svg8"
   sodipodi:docname="edit.svg"
   inkscape:version="1.1.1 (3bf5ae0d25, 2021-09-20)"
   xmlns:inkscape="http://www.inkscape.org/namespaces/inkscape"
   xmlns:sodipodi="http://sodipodi.sourceforge.net/DTD/sodipodi-0.dtd"
   xmlns="http://www.w3.org/2000/svg"
   xmlns:svg="http://www.w3.org/2000/svg">
  <defs
     id="defs12" />
  <sodipodi:namedview
     id="namedview10"
     pagecolor="#ffffff"
     bordercolor="#666666"
     borderopacity="1.0"
     inkscape:pageshadow="2"
     inkscape:pageopacity="0.0"
     inkscape:pagecheckerboard="0"
     showgrid="false"
     inkscape:zoom="51.5"
     inkscape:cx="7.9902913"
     inkscape:cy="7.9902913"
     inkscape:window-width="1920"
     inkscape:window-height="1009"
     inkscape:window-x="-8"
     inkscape:window-y="-8"
     inkscape:window-maximized="1"
     inkscape:current-layer="svg8" />
  <path
     style="color:#000000;fill:#94a3b8;stroke-linecap:round;stroke-linejoin:round;stroke-miterlimit:10;-inkscape-stroke:none"
     d="M 10.3125,0.7109375 C 9.4752062,0.81800332 8.8274132,1.3222768 8.2949219,1.8847656 L 2.8222656,7.6777344 a 0.750075,0.750075 0 0 0 -0.00195,0.00195 C 2.4424645,8.0819063 2.2465615,8.5160233 2.1757813,9.046875 a 0.750075,0.750075 0 0 0 0,0.015625 l -0.2480469,2.158203 a 0.750075,0.750075 0 0 0 0,0.0039 c -0.064987,0.58486 0.1226263,1.171086 0.53125,1.558594 0.4086236,0.387508 1.0063658,0.543598 1.5878906,0.44336 l 2.1464844,-0.367188 a 0.750075,0.750075 0 0 0 0.00391,0 C 6.7285292,12.764987 7.162136,12.547027 7.546875,12.125 l 5.464844,-5.7832031 c 0.532494,-0.5624744 1.001536,-1.2379053 1.060547,-2.0820313 0.05901,-0.844126 -0.3523,-1.7200594 -1.189453,-2.5117187 a 0.750075,0.750075 0 0 0 -0.002,0 C 12.046534,0.96298473 11.149794,0.60387168 10.3125,0.7109375 Z m 0.191406,1.4863281 c 0.322708,-0.041265 0.717336,0.047638 1.34961,0.6425782 0.633272,0.5998651 0.74528,0.9908201 0.722656,1.3144531 -0.02266,0.3242053 -0.240092,0.7187253 -0.654297,1.15625 a 0.750075,0.750075 0 0 0 0,0.00195 l -5.4746094,5.792969 a 0.750075,0.750075 0 0 0 -0.00781,0.0098 c -0.028601,0.03137 -0.4351704,0.253413 -0.5039062,0.265625 l -2.1425781,0.367188 c -0.1918045,0.03306 -0.2596935,-0.01192 -0.3027344,-0.05273 -0.042521,-0.04033 -0.091986,-0.112932 -0.072266,-0.302735 v -0.002 c 1.256e-4,-0.0012 -1.309e-4,-7.76e-4 0,-0.002 L 3.6640625,9.2460938 v -0.00195 C 3.6743712,9.1733594 3.8754151,8.7498895 3.9121094,8.7089844 l 0.00195,-0.00195 5.4707031,-5.7910157 C 9.7989434,2.4785054 10.181199,2.2385307 10.503906,2.1972656 Z"
     id="path2" />
  <path
     style="color:#000000;fill:#94a3b8;stroke-linecap:round;stroke-linejoin:round;stroke-miterlimit:10;-inkscape-stroke:none"
     d="m 7.8105469,2.625 a 0.75,0.75 0 0 0 -0.625,0.8574219 C 7.5242437,5.6564333 9.2972148,7.3265823 11.484375,7.546875 A 0.75,0.75 0 0 0 12.306641,6.875 0.75,0.75 0 0 0 11.634766,6.0546875 C 10.11525,5.9016405 8.9025914,4.757938 8.6679688,3.2519531 A 0.75,0.75 0 0 0 7.8105469,2.625 Z"
     id="path4" />
  <path
     style="color:#000000;fill:#94a3b8;stroke-linecap:round;stroke-linejoin:round;stroke-miterlimit:10;-inkscape-stroke:none"
     d="m 2,13.916016 a 0.75,0.75 0 0 0 -0.75,0.75 0.75,0.75 0 0 0 0.75,0.75 h 12 a 0.75,0.75 0 0 0 0.75,-0.75 0.75,0.75 0 0 0 -0.75,-0.75 z"
     id="path6" />
</svg>
