<?xml version="1.0" encoding="UTF-8" standalone="no"?>
<svg
   width="16"
   height="16"
   viewBox="0 0 16 16"
   fill="none"
   version="1.1"
   id="svg6"
   sodipodi:docname="eye.svg"
   inkscape:version="1.1.1 (3bf5ae0d25, 2021-09-20)"
   xmlns:inkscape="http://www.inkscape.org/namespaces/inkscape"
   xmlns:sodipodi="http://sodipodi.sourceforge.net/DTD/sodipodi-0.dtd"
   xmlns="http://www.w3.org/2000/svg"
   xmlns:svg="http://www.w3.org/2000/svg">
  <defs
     id="defs10" />
  <sodipodi:namedview
     id="namedview8"
     pagecolor="#ffffff"
     bordercolor="#666666"
     borderopacity="1.0"
     inkscape:pageshadow="2"
     inkscape:pageopacity="0.0"
     inkscape:pagecheckerboard="0"
     showgrid="false"
     inkscape:zoom="54.5625"
     inkscape:cx="8"
     inkscape:cy="8"
     inkscape:window-width="3440"
     inkscape:window-height="1369"
     inkscape:window-x="-8"
     inkscape:window-y="-8"
     inkscape:window-maximized="1"
     inkscape:current-layer="svg6" />
  <path
     style="color:#000000;fill:#475569;-inkscape-stroke:none"
     d="M 8,3 C 4.9875557,3 2.787759,5.4180611 1.7695312,6.6542969 c -0.6353141,0.7713632 -0.6353141,1.920043 0,2.6914062 C 2.7877554,10.581948 4.9875557,13 8,13 c 3.012437,0 5.212243,-2.418024 6.230469,-3.6542969 0.635331,-0.7713659 0.635331,-1.9200403 0,-2.6914062 C 13.21224,5.41801 11.012437,3 8,3 Z m 0,2 c 1.8351784,0 3.812331,1.8631905 4.6875,2.9257812 0.05327,0.064673 0.05327,0.083764 0,0.1484376 C 11.812328,9.1368038 9.8351784,11 8,11 6.1648092,11 4.187714,9.136832 3.3125,8.0742188 3.2592148,8.0095228 3.2592148,7.9904772 3.3125,7.9257812 4.1877304,6.8631593 6.1648092,5 8,5 Z"
     id="path2" />
  <path
     style="color:#000000;fill:#475569;-inkscape-stroke:none"
     d="M 8,5 C 6.3549921,5 5,6.3549921 5,8 5,9.6450079 6.3549921,11 8,11 9.6450079,11 11,9.6450079 11,8 11,6.3549921 9.6450079,5 8,5 Z M 8,7 C 8.5641299,7 9,7.4358701 9,8 9,8.5641299 8.5641299,9 8,9 7.4358701,9 7,8.5641299 7,8 7,7.4358701 7.4358701,7 8,7 Z"
     id="path4" />
</svg>
