<?xml version="1.0" encoding="UTF-8" standalone="no"?>
<svg
   width="16"
   height="16"
   viewBox="0 0 16 16"
   fill="none"
   version="1.1"
   id="svg6"
   sodipodi:docname="eye.svg"
   inkscape:version="1.1.1 (3bf5ae0d25, 2021-09-20)"
   xmlns:inkscape="http://www.inkscape.org/namespaces/inkscape"
   xmlns:sodipodi="http://sodipodi.sourceforge.net/DTD/sodipodi-0.dtd"
   xmlns="http://www.w3.org/2000/svg"
   xmlns:svg="http://www.w3.org/2000/svg">
  <defs
     id="defs10" />
  <sodipodi:namedview
     id="namedview8"
     pagecolor="#ffffff"
     bordercolor="#666666"
     borderopacity="1.0"
     inkscape:pageshadow="2"
     inkscape:pageopacity="0.0"
     inkscape:pagecheckerboard="0"
     showgrid="false"
     inkscape:zoom="50.125"
     inkscape:cx="8.0099751"
     inkscape:cy="8.0099751"
     inkscape:window-width="1920"
     inkscape:window-height="991"
     inkscape:window-x="-9"
     inkscape:window-y="-9"
     inkscape:window-maximized="1"
     inkscape:current-layer="svg6" />
  <path
     style="color:#000000;fill:#475569;-inkscape-stroke:none"
     d="m 8,3.5 c -2.7181309,0 -4.8612716,2.2778708 -5.84375,3.4707031 -0.4898069,0.5946964 -0.4898069,1.4638974 0,2.0585938 C 3.1387216,10.222134 5.2818691,12.5 8,12.5 c 2.718122,0 4.861288,-2.277852 5.84375,-3.4707031 0.489816,-0.5946928 0.489816,-1.463901 0,-2.0585938 C 12.861286,5.7778402 10.718122,3.5 8,3.5 Z m 0,1 c 2.129493,0 4.161331,2.0014071 5.072266,3.1074219 0.198783,0.2413464 0.198783,0.5438098 0,0.7851562 C 12.16133,9.4985851 10.129493,11.5 8,11.5 5.8704958,11.5 3.8387009,9.4985992 2.9277344,8.3925781 2.728942,8.1512154 2.728942,7.8487846 2.9277344,7.6074219 3.8387141,6.5013965 5.8704958,4.5 8,4.5 Z"
     id="path2" />
  <path
     style="color:#000000;fill:#475569;-inkscape-stroke:none"
     d="M 8,5.5 C 6.6252116,5.5 5.5,6.6252116 5.5,8 5.5,9.3747884 6.6252116,10.5 8,10.5 9.3747884,10.5 10.5,9.3747884 10.5,8 10.5,6.6252116 9.3747884,5.5 8,5.5 Z m 0,1 C 8.8343494,6.5 9.5,7.1656506 9.5,8 9.5,8.8343494 8.8343494,9.5 8,9.5 7.1656506,9.5 6.5,8.8343494 6.5,8 6.5,7.1656506 7.1656506,6.5 8,6.5 Z"
     id="path4" />
</svg>
