<?xml version="1.0" encoding="UTF-8" standalone="no"?>
<svg
   width="16"
   height="16"
   viewBox="0 0 16 16"
   fill="none"
   version="1.1"
   id="svg10"
   sodipodi:docname="globe.svg"
   inkscape:version="1.1.1 (3bf5ae0d25, 2021-09-20)"
   xmlns:inkscape="http://www.inkscape.org/namespaces/inkscape"
   xmlns:sodipodi="http://sodipodi.sourceforge.net/DTD/sodipodi-0.dtd"
   xmlns="http://www.w3.org/2000/svg"
   xmlns:svg="http://www.w3.org/2000/svg">
  <defs
     id="defs14" />
  <sodipodi:namedview
     id="namedview12"
     pagecolor="#ffffff"
     bordercolor="#666666"
     borderopacity="1.0"
     inkscape:pageshadow="2"
     inkscape:pageopacity="0.0"
     inkscape:pagecheckerboard="0"
     showgrid="false"
     inkscape:zoom="54.5625"
     inkscape:cx="8"
     inkscape:cy="8"
     inkscape:window-width="3440"
     inkscape:window-height="1369"
     inkscape:window-x="-8"
     inkscape:window-y="-8"
     inkscape:window-maximized="1"
     inkscape:current-layer="svg10" />
  <path
     style="color:#000000;fill:#475569;-inkscape-stroke:none"
     d="M 8,1.5 C 4.4160738,1.5 1.5,4.4160738 1.5,8 c 0,3.583917 2.9160728,6.5 6.5,6.5 3.583918,0 6.5,-2.916082 6.5,-6.5 C 14.5,4.4160728 11.583917,1.5 8,1.5 Z m 0,1 c 3.043476,0 5.5,2.4565138 5.5,5.5 0,3.043475 -2.456525,5.5 -5.5,5.5 C 4.9565138,13.5 2.5,11.043476 2.5,8 2.5,4.9565128 4.9565128,2.5 8,2.5 Z"
     id="path2" />
  <path
     style="color:#000000;fill:#475569;-inkscape-stroke:none"
     d="M 8,1.5 C 7.4798119,1.5 7.0021175,1.7430482 6.6171875,2.109375 6.2322575,2.4757018 5.9186552,2.9686683 5.6582031,3.5546875 5.1372989,4.726726 4.8339844,6.2830982 4.8339844,8 c 0,1.716897 0.3033147,3.273273 0.8242187,4.445313 0.2604521,0.586019 0.5740545,1.078984 0.9589844,1.445312 C 7.0021174,14.256953 7.4798113,14.5 8,14.5 8.5201887,14.5 8.9978792,14.256952 9.3828125,13.890625 9.7677458,13.524298 10.081339,13.031332 10.341797,12.445313 10.862712,11.273273 11.166016,9.716899 11.166016,8 c 0,-1.7169038 -0.303304,-3.273274 -0.824219,-4.4453125 C 10.081339,2.9686682 9.767746,2.4757008 9.3828125,2.109375 8.997879,1.7430492 8.5201881,1.5 8,1.5 Z m 0,1 c 0.2161912,0 0.440216,0.093078 0.6933594,0.3339844 C 8.9465028,3.0748908 9.2075655,3.4611716 9.4296875,3.9609375 9.8739315,4.9604693 10.166016,6.4031971 10.166016,8 c 0,1.5967977 -0.2920843,3.039529 -0.7363285,4.039063 C 9.2075654,12.538829 8.9465029,12.925108 8.6933594,13.166016 8.4402158,13.406923 8.2161906,13.5 8,13.5 7.7838094,13.5 7.5597801,13.406922 7.3066406,13.166016 7.0535011,12.925109 6.7943831,12.538829 6.5722656,12.039063 6.1280306,11.039529 5.8339844,9.5967997 5.8339844,8 c 0,-1.5968049 0.2940464,-3.0395307 0.7382812,-4.0390625 C 6.794383,3.4611716 7.0535013,3.0748898 7.3066406,2.8339844 7.55978,2.593079 7.7838088,2.5 8,2.5 Z"
     id="path4" />
  <path
     style="color:#000000;fill:#475569;-inkscape-stroke:none"
     d="m 8.1054688,9.5 c -2.3479349,0 -4.4186371,0.525666 -5.7226563,1.421875 l 0.5664063,0.824219 C 3.9837372,11.035104 5.9130881,10.5 8.1054688,10.5 c 2.0655682,0 3.8964242,0.469745 4.9667972,1.123047 L 13.59375,10.769531 C 12.283525,9.9698349 10.317596,9.5 8.1054688,9.5 Z"
     id="path6" />
  <path
     style="color:#000000;fill:#475569;-inkscape-stroke:none"
     d="M 2.9511719,4.2558594 2.3808594,5.078125 C 3.6714282,5.9755246 5.7203592,6.5 8.0429688,6.5 10.309321,6.5 12.314609,5.9986869 13.609375,5.1425781 L 13.056641,4.3066406 C 12.019009,4.9927303 10.155772,5.5 8.0429688,5.5 5.8777228,5.5 3.9721208,4.9657782 2.9511719,4.2558594 Z"
     id="path8" />
</svg>
