<svg width="16" height="16" viewBox="0 0 16 16" fill="none" xmlns="http://www.w3.org/2000/svg">
<path d="M14 8C14 11.3137 11.3137 14 8 14C4.68629 14 2 11.3137 2 8C2 4.68629 4.68629 2 8 2C11.3137 2 14 4.68629 14 8Z" stroke="#475569"/>
<path d="M10.6667 8C10.6667 11.3137 9.47276 14 8 14C6.52724 14 5.33334 11.3137 5.33334 8C5.33334 4.68629 6.52724 2 8 2C9.47276 2 10.6667 4.68629 10.6667 8Z" stroke="#475569"/>
<path d="M13.3333 11.1967C12.143 10.4702 10.2444 10 8.10555 10C5.83539 10 3.83594 10.5297 2.66667 11.3333" stroke="#475569"/>
<path d="M13.3333 4.72459C12.1671 5.49569 10.2323 6 8.04272 6C5.79879 6 3.82243 5.47033 2.66667 4.66667" stroke="#475569"/>
</svg>
