<?xml version="1.0" encoding="UTF-8" standalone="no"?>
<svg
   width="16"
   height="16"
   viewBox="0 0 16 16"
   fill="none"
   version="1.1"
   id="svg4"
   sodipodi:docname="MainIcons.svg"
   inkscape:version="1.3.2 (091e20e, 2023-11-25, custom)"
   xmlns:inkscape="http://www.inkscape.org/namespaces/inkscape"
   xmlns:sodipodi="http://sodipodi.sourceforge.net/DTD/sodipodi-0.dtd"
   xmlns="http://www.w3.org/2000/svg"
   xmlns:svg="http://www.w3.org/2000/svg">
  <defs
     id="defs4" />
  <sodipodi:namedview
     id="namedview4"
     pagecolor="#ffffff"
     bordercolor="#cccccc"
     borderopacity="1"
     inkscape:showpageshadow="0"
     inkscape:pageopacity="1"
     inkscape:pagecheckerboard="0"
     inkscape:deskcolor="#d1d1d1"
     inkscape:zoom="73.8125"
     inkscape:cx="8"
     inkscape:cy="8"
     inkscape:window-width="3440"
     inkscape:window-height="1377"
     inkscape:window-x="-8"
     inkscape:window-y="-8"
     inkscape:window-maximized="1"
     inkscape:current-layer="svg4" />
  <path
     style="color:#000000;fill:#475569;stroke-linecap:round;stroke-linejoin:round;-inkscape-stroke:none"
     d="m 10.486328,0.83398438 c -0.589761,0 -1.0965249,0.0994069 -1.4726561,0.43359372 C 8.6375406,1.601765 8.5,2.1086467 8.5,2.6542969 V 5.6738281 C 8.5,6.2222803 8.6366101,6.7288008 9.0136719,7.0625 9.3907336,7.3961992 9.8976157,7.4941406 10.486328,7.4941406 h 2.691406 c 0.590165,0.00371 1.097547,-0.094041 1.47461,-0.4277344 0.377063,-0.3336931 0.513672,-0.8410632 0.513672,-1.3867187 V 2.6542969 c 0,-0.5456555 -0.13754,-1.0525359 -0.513672,-1.3867188 C 14.276211,0.93339522 13.769435,0.83398438 13.179688,0.83398438 Z m 0,1.00000002 h 2.69336 c 0.470251,0 0.706376,0.088871 0.808593,0.1796875 0.102217,0.090817 0.177735,0.2462814 0.177735,0.640625 v 3.0253906 c 0,0.3943436 -0.0745,0.5470823 -0.175782,0.6367187 -0.101286,0.089637 -0.336806,0.1806864 -0.80664,0.1777344 a 0.50005,0.50005 0 0 0 -0.0039,0 h -2.69336 c -0.471316,0 -0.7073134,-0.090055 -0.8085936,-0.1796875 C 9.5764541,6.2248202 9.5,6.072045 9.5,5.6738281 V 2.6542969 C 9.5,2.259948 9.5755236,2.1044846 9.6777344,2.0136719 9.7799451,1.9228592 10.01606,1.8339844 10.486328,1.8339844 Z"
     id="path1" />
  <path
     style="color:#000000;fill:#475569;stroke-linecap:round;stroke-linejoin:round;-inkscape-stroke:none"
     d="M 10.486328,8.5 C 9.8892291,8.5 9.3619403,8.6224347 8.9921875,8.9921875 8.6224347,9.3619403 8.5,9.8892291 8.5,10.486328 v 2.69336 c 0,0.597085 0.1224386,1.124385 0.4921875,1.49414 0.3697489,0.369755 0.8970369,0.492188 1.4941405,0.492188 h 2.69336 c 0.59709,0 1.124389,-0.122437 1.49414,-0.492188 0.369751,-0.369751 0.492188,-0.89705 0.492188,-1.49414 v -2.69336 c 0,-0.5971036 -0.122433,-1.1243916 -0.492188,-1.4941405 C 14.304073,8.6224386 13.776773,8.5 13.179688,8.5 Z m 0,1 h 2.69336 c 0.462913,0 0.678514,0.090626 0.787109,0.1992188 0.108595,0.1085931 0.199219,0.3241842 0.199219,0.7871092 v 2.69336 c 0,0.462908 -0.09062,0.67851 -0.199219,0.787109 -0.108599,0.108599 -0.324201,0.199219 -0.787109,0.199219 h -2.69336 c -0.462925,0 -0.6785161,-0.09062 -0.7871092,-0.199219 C 9.5906256,13.858202 9.5,13.642601 9.5,13.179688 v -2.69336 c 0,-0.46293 0.09063,-0.67852 0.1992188,-0.7871092 C 9.807808,9.5906295 10.023398,9.5 10.486328,9.5 Z"
     id="path2" />
  <path
     style="color:#000000;fill:#475569;stroke-linecap:round;stroke-linejoin:round;-inkscape-stroke:none"
     d="m 2.8203125,0.83398438 c -0.5897478,0 -1.0965303,0.0994063 -1.4726563,0.43359372 C 0.9715303,1.6017655 0.83398438,2.1086467 0.83398438,2.6542969 v 3.0195312 c 0,0.5484522 0.13661541,1.0549722 0.51367182,1.3886719 0.3770565,0.3336997 0.8839572,0.4316406 1.4726563,0.4316406 H 5.5117187 C 6.101883,7.4978486 6.6092717,7.4001039 6.9863281,7.0664062 7.3633845,6.7327086 7.5,6.2253377 7.5,5.6796875 V 2.6542969 C 7.5,2.1086467 7.3624541,1.6017655 6.9863281,1.2675781 6.6102022,0.93339073 6.1034197,0.83398438 5.5136719,0.83398438 Z m 0,1.00000002 h 2.6933594 c 0.4702511,0 0.7063852,0.088875 0.8085937,0.1796875 C 6.4244742,2.1044841 6.5,2.259948 6.5,2.6542969 V 5.6796875 C 6.5,6.0740364 6.4254969,6.2267744 6.3242187,6.3164062 6.2229406,6.4060381 5.9874129,6.4970926 5.5175781,6.4941406 a 0.50005,0.50005 0 0 0 -0.00391,0 H 2.8203125 c -0.4712998,0 -0.7073157,-0.090055 -0.8085937,-0.1796875 C 1.9104407,6.2248208 1.8339844,6.072045 1.8339844,5.6738281 V 2.6542969 c 0,-0.3943489 0.075526,-0.5498128 0.1777344,-0.640625 0.1022085,-0.090812 0.3383426,-0.1796875 0.8085937,-0.1796875 z"
     id="path3" />
  <path
     style="color:#000000;fill:#475569;stroke-linecap:round;stroke-linejoin:round;-inkscape-stroke:none"
     d="M 2.8203125,8.5 C 2.2232266,8.5 1.695919,8.6224345 1.3261719,8.9921875 0.9564247,9.3619405 0.83398438,9.8892291 0.83398438,10.486328 v 2.69336 c 0,0.597085 0.12244422,1.124385 0.49218752,1.49414 0.3697433,0.369755 0.89705,0.492188 1.4941406,0.492188 h 2.6933594 c 0.5970906,0 1.1243973,-0.122433 1.4941406,-0.492188 C 7.3775558,14.304073 7.5,13.776773 7.5,13.179688 v -2.69336 C 7.5,9.8892291 7.3775597,9.3619405 7.0078125,8.9921875 6.6380653,8.6224345 6.1107578,8.5 5.5136719,8.5 Z m 0,1 h 2.6933594 c 0.462913,0 0.678522,0.09063 0.7871093,0.1992188 C 6.4093686,9.8078078 6.5,10.023398 6.5,10.486328 v 2.69336 c 0,0.462913 -0.090628,0.678514 -0.1992188,0.787109 -0.1085912,0.108595 -0.324201,0.199219 -0.7871093,0.199219 H 2.8203125 c -0.4629083,0 -0.6785181,-0.09062 -0.7871094,-0.199219 C 1.9246119,13.858202 1.8339844,13.642601 1.8339844,13.179688 v -2.69336 c 0,-0.46293 0.090631,-0.6785202 0.1992187,-0.7871092 C 2.1417905,9.5906297 2.3573994,9.5 2.8203125,9.5 Z"
     id="path4" />
</svg>
