<?xml version="1.0" encoding="UTF-8" standalone="no"?>
<svg
   width="16"
   height="16"
   viewBox="0 0 16 16"
   fill="none"
   version="1.1"
   id="svg4"
   sodipodi:docname="home.svg"
   inkscape:version="1.1.1 (3bf5ae0d25, 2021-09-20)"
   xmlns:inkscape="http://www.inkscape.org/namespaces/inkscape"
   xmlns:sodipodi="http://sodipodi.sourceforge.net/DTD/sodipodi-0.dtd"
   xmlns="http://www.w3.org/2000/svg"
   xmlns:svg="http://www.w3.org/2000/svg">
  <defs
     id="defs8" />
  <sodipodi:namedview
     id="namedview6"
     pagecolor="#ffffff"
     bordercolor="#666666"
     borderopacity="1.0"
     inkscape:pageshadow="2"
     inkscape:pageopacity="0.0"
     inkscape:pagecheckerboard="0"
     showgrid="false"
     inkscape:zoom="50.125"
     inkscape:cx="8.0099751"
     inkscape:cy="8.0099751"
     inkscape:window-width="1920"
     inkscape:window-height="991"
     inkscape:window-x="-9"
     inkscape:window-y="-9"
     inkscape:window-maximized="1"
     inkscape:current-layer="svg4" />
  <path
     style="color:#000000;fill:#475569;stroke-linecap:round;stroke-linejoin:round;-inkscape-stroke:none"
     d="M 7.4101562,1.7734375 C 6.9034035,1.9233109 6.6007162,2.229012 6.1035156,2.6640625 h -0.00195 L 2.9023438,5.4648437 a 0.750075,0.750075 0 0 0 -0.00391,0.00391 C 2.6334136,5.7004949 2.4462399,5.852759 2.2773438,6.1015625 2.1440436,6.2979406 2.0462803,6.5147327 1.9863281,6.7441406 1.9097963,7.0370501 1.9179687,7.278536 1.9179687,7.6347656 v 3.6992184 c 0,0.6212 -0.02906,1.010832 0.1582032,1.462891 0.2114105,0.510366 0.6186984,0.915655 1.1289062,1.126953 0.4520805,0.187268 0.8416413,0.160156 1.4628906,0.160156 0.6212594,0 1.01287,0.02707 1.4648438,-0.160156 0.5103178,-0.211344 0.9156526,-0.616853 1.1269531,-1.126953 0.1872163,-0.451946 0.1582032,-0.841535 0.1582031,-1.462891 v -0.667968 c 0,-0.331115 0.252939,-0.582032 0.5839844,-0.582032 0.3310455,0 0.5820313,0.250917 0.5820313,0.582032 v 0.667968 c 0,0.6213 -0.02713,1.010821 0.1601562,1.462891 0.2114014,0.510381 0.6167129,0.915661 1.1269532,1.126953 0.4520702,0.187286 0.8415912,0.160156 1.4628902,0.160156 0.6212,0 1.012841,0.0271 1.464844,-0.160156 0.510476,-0.211344 0.915638,-0.617082 1.126953,-1.126953 0.187286,-0.45207 0.158203,-0.841691 0.158203,-1.462891 V 7.6347656 c 0,-0.3551135 0.0096,-0.596678 -0.06641,-0.8886719 v -0.00195 C 13.95762,6.5149774 13.857611,6.2974312 13.724609,6.1015625 13.554607,5.8510648 13.367724,5.6994266 13.099609,5.4648437 L 9.9003906,2.6640625 C 9.4026361,2.2285198 9.0987698,1.9233681 8.5917969,1.7734375 8.2060985,1.6593846 7.7958545,1.65938 7.4101562,1.7734375 Z m 0.4257813,1.4394531 c 0.1078812,-0.031902 0.222177,-0.031907 0.3300781,0 0.053187,0.015729 0.2483693,0.1445617 0.7460938,0.5800782 L 12.113281,6.59375 c 0.268085,0.2345567 0.348697,0.3166073 0.371094,0.3496094 0.03726,0.054878 0.06535,0.1156885 0.08203,0.1796875 a 0.750075,0.750075 0 0 0 0,0.00195 c 0.01006,0.0385 0.01758,0.153876 0.01758,0.5097656 v 3.6992184 c 0,0.6212 -0.02725,0.850743 -0.04297,0.888672 -0.05949,0.143529 -0.173283,0.257151 -0.316407,0.316407 -0.038,0.01574 -0.269425,0.04492 -0.890625,0.04492 -0.621299,0 -0.850742,-0.02921 -0.888671,-0.04492 -0.14322,-0.05931 -0.257168,-0.173389 -0.316407,-0.316407 -0.01571,-0.03793 -0.04492,-0.267372 -0.04492,-0.888672 v -0.667968 c 0,-1.1417246 -0.9403178,-2.0820316 -2.0820309,-2.0820316 -1.141713,0 -2.0839844,0.940307 -2.0839844,2.0820316 v 0.667968 c 0,0.621243 -0.029158,0.850619 -0.044922,0.888672 -0.059359,0.143299 -0.1713716,0.25715 -0.3144532,0.316407 -0.038086,0.01578 -0.2693656,0.04492 -0.890625,0.04492 -0.6212493,0 -0.8526459,-0.02919 -0.8906249,-0.04492 -0.1431916,-0.0593 -0.255204,-0.173373 -0.3144532,-0.316407 -0.015717,-0.03794 -0.044922,-0.267472 -0.044922,-0.888672 V 7.6347656 C 3.4179688,7.278536 3.4274119,7.1636102 3.4375,7.125 3.4543278,7.0606082 3.4822915,6.998221 3.5195313,6.9433594 3.5418826,6.9104332 3.6229597,6.8279458 3.890625,6.59375 a 0.750075,0.750075 0 0 0 0.00195,-0.00195 l 0.00195,-0.00195 3.1953124,-2.7968749 a 0.750075,0.750075 0 0 0 0.00195,0 C 7.5889953,3.3579201 7.7828308,3.2285971 7.8359375,3.2128906 Z"
     id="path2" />
</svg>
