<?xml version="1.0" encoding="UTF-8" standalone="no"?>
<svg
   width="16"
   height="16"
   viewBox="0 0 16 16"
   fill="none"
   version="1.1"
   id="svg6"
   sodipodi:docname="info.svg"
   inkscape:version="1.1.1 (3bf5ae0d25, 2021-09-20)"
   xmlns:inkscape="http://www.inkscape.org/namespaces/inkscape"
   xmlns:sodipodi="http://sodipodi.sourceforge.net/DTD/sodipodi-0.dtd"
   xmlns="http://www.w3.org/2000/svg"
   xmlns:svg="http://www.w3.org/2000/svg">
  <defs
     id="defs10" />
  <sodipodi:namedview
     id="namedview8"
     pagecolor="#ffffff"
     bordercolor="#666666"
     borderopacity="1.0"
     inkscape:pageshadow="2"
     inkscape:pageopacity="0.0"
     inkscape:pagecheckerboard="0"
     showgrid="false"
     inkscape:zoom="50.125"
     inkscape:cx="8.0099751"
     inkscape:cy="8.0099751"
     inkscape:window-width="1920"
     inkscape:window-height="991"
     inkscape:window-x="-9"
     inkscape:window-y="-9"
     inkscape:window-maximized="1"
     inkscape:current-layer="svg6" />
  <path
     style="color:#000000;fill:#f1f2f4;stroke-linecap:round;stroke-linejoin:round;-inkscape-stroke:none"
     d="m 8.1796875,1.5 c -3.5839262,0 -6.5,2.9160738 -6.5,6.5 0,3.583917 2.9160728,6.5 6.5,6.5 3.5839275,0 6.4999995,-2.916082 6.5000005,-6.5 0,-3.5839272 -2.916074,-6.5 -6.5000005,-6.5 z m 0,1 c 3.0434875,0 5.4999995,2.4565138 5.5000005,5.5 0,3.043475 -2.456514,5.5 -5.5000005,5.5 -3.0434862,0 -5.5,-2.456524 -5.5,-5.5 0,-3.0434872 2.4565128,-5.5 5.5,-5.5 z"
     id="Vector" />
  <path
     style="color:#000000;fill:#f1f2f4;stroke-linecap:round;stroke-linejoin:round;-inkscape-stroke:none"
     d="m 8.1796875,7.5 a 0.5,0.5 0 0 0 -0.5,0.5 v 2.666016 a 0.5,0.5 0 0 0 0.5,0.5 0.5,0.5 0 0 0 0.5,-0.5 V 8 a 0.5,0.5 0 0 0 -0.5,-0.5 z"
     id="Vector_2" />
  <path
     style="color:#000000;fill:#f1f2f4;stroke-linecap:round;stroke-linejoin:round;-inkscape-stroke:none"
     d="m 8.1796875,4.8339844 a 0.5,0.5 0 0 0 -0.5,0.5 0.5,0.5 0 0 0 0.5,0.5 h 0.00586 a 0.5,0.5 0 0 0 0.5,-0.5 0.5,0.5 0 0 0 -0.5,-0.5 z"
     id="Vector_3" />
</svg>
