<?xml version="1.0" encoding="UTF-8" standalone="no"?>
<svg
   width="12"
   height="14"
   viewBox="0 0 12 14"
   fill="none"
   version="1.1"
   id="svg6"
   sodipodi:docname="location.svg"
   inkscape:version="1.1.1 (3bf5ae0d25, 2021-09-20)"
   xmlns:inkscape="http://www.inkscape.org/namespaces/inkscape"
   xmlns:sodipodi="http://sodipodi.sourceforge.net/DTD/sodipodi-0.dtd"
   xmlns="http://www.w3.org/2000/svg"
   xmlns:svg="http://www.w3.org/2000/svg">
  <defs
     id="defs10" />
  <sodipodi:namedview
     id="namedview8"
     pagecolor="#ffffff"
     bordercolor="#666666"
     borderopacity="1.0"
     inkscape:pageshadow="2"
     inkscape:pageopacity="0.0"
     inkscape:pagecheckerboard="0"
     showgrid="false"
     inkscape:zoom="62.357143"
     inkscape:cx="6.0057274"
     inkscape:cy="7"
     inkscape:window-width="3440"
     inkscape:window-height="1369"
     inkscape:window-x="-8"
     inkscape:window-y="-8"
     inkscape:window-maximized="1"
     inkscape:current-layer="svg6" />
  <path
     style="color:#000000;fill:#475569;stroke-linecap:round;stroke-linejoin:round;-inkscape-stroke:none"
     d="M 6,0.5 C 4.6230258,0.5 3.3041743,1.0772735 2.3378906,2.09375 1.3716052,3.1102283 0.83398438,4.4803561 0.83398438,5.9082031 c 0,2.1127919 1.25340392,3.9716678 2.46093752,5.3124999 1.2075335,1.340832 2.4179687,2.189453 2.4179687,2.189453 a 0.50005,0.50005 0 0 0 0.5742188,0 c 0,0 1.210425,-0.848621 2.4179687,-2.189453 C 9.9126219,9.879871 11.166016,8.0209967 11.166016,5.9082031 11.166016,4.4803484 10.628402,3.1102245 9.6621094,2.09375 8.6958244,1.0772721 7.3769653,0.5 6,0.5 Z m 0,1 c 1.0983722,0 2.1534467,0.4584228 2.9375,1.2832031 0.7840654,0.8247837 1.228516,1.9489174 1.228516,3.125 0,1.7053826 -1.0792696,3.3944559 -2.2050785,4.6445309 C 6.9788107,11.643268 6.2341643,12.159087 6,12.330078 5.7658378,12.159087 5.0211808,11.643268 4.0390625,10.552734 2.9132634,9.3026592 1.8339844,7.6135875 1.8339844,5.9082031 c 0,-1.1760903 0.4444628,-2.3002201 1.2285156,-3.125 C 3.8465546,1.9584215 4.9016167,1.5 6,1.5 Z"
     id="path2" />
  <path
     style="color:#000000;fill:#475569;stroke-linecap:round;stroke-linejoin:round;-inkscape-stroke:none"
     d="m 6,3.1660156 c -1.3747809,0 -2.5,1.1252086 -2.5,2.5 0,1.3747915 1.1252191,2.5 2.5,2.5 1.3747884,0 2.5,-1.1252116 2.5,-2.5 0,-1.3747884 -1.1252116,-2.5 -2.5,-2.5 z m 0,1 c 0.8343494,0 1.5,0.6656506 1.5,1.5 0,0.8343494 -0.6656506,1.5 -1.5,1.5 -0.8343369,0 -1.5,-0.6656536 -1.5,-1.5 0,-0.8343463 0.6656631,-1.5 1.5,-1.5 z"
     id="path4" />
</svg>
