<svg width="12" height="14" viewBox="0 0 12 14" fill="none" xmlns="http://www.w3.org/2000/svg">
<path d="M10.6667 5.90909C10.6667 9.72727 5.99999 13 5.99999 13C5.99999 13 1.33332 9.72727 1.33332 5.90909C1.33332 4.60712 1.82499 3.35847 2.70016 2.43784C3.57533 1.51721 4.76231 1 5.99999 1C7.23766 1 8.42465 1.51721 9.29982 2.43784C10.175 3.35847 10.6667 4.60712 10.6667 5.90909Z" stroke="#475569" stroke-linecap="round" stroke-linejoin="round"/>
<path d="M5.99998 7.66667C7.10455 7.66667 7.99998 6.77124 7.99998 5.66667C7.99998 4.5621 7.10455 3.66667 5.99998 3.66667C4.89542 3.66667 3.99998 4.5621 3.99998 5.66667C3.99998 6.77124 4.89542 7.66667 5.99998 7.66667Z" stroke="#475569" stroke-linecap="round" stroke-linejoin="round"/>
</svg>
