<?xml version="1.0" encoding="UTF-8" standalone="no"?>
<svg
   width="20"
   height="20"
   viewBox="0 0 20 20"
   fill="none"
   version="1.1"
   id="svg2"
   sodipodi:docname="lock.svg"
   inkscape:version="1.3.2 (091e20e, 2023-11-25, custom)"
   xmlns:inkscape="http://www.inkscape.org/namespaces/inkscape"
   xmlns:sodipodi="http://sodipodi.sourceforge.net/DTD/sodipodi-0.dtd"
   xmlns="http://www.w3.org/2000/svg"
   xmlns:svg="http://www.w3.org/2000/svg">
  <defs
     id="defs2" />
  <sodipodi:namedview
     id="namedview2"
     pagecolor="#ffffff"
     bordercolor="#cccccc"
     borderopacity="1"
     inkscape:showpageshadow="0"
     inkscape:pageopacity="1"
     inkscape:pagecheckerboard="0"
     inkscape:deskcolor="#d1d1d1"
     inkscape:zoom="59.05"
     inkscape:cx="9.9915326"
     inkscape:cy="10"
     inkscape:window-width="3440"
     inkscape:window-height="1377"
     inkscape:window-x="-8"
     inkscape:window-y="-8"
     inkscape:window-maximized="1"
     inkscape:current-layer="svg2" />
  <path
     style="color:#000000;fill:#94a3b8;-inkscape-stroke:none"
     d="m 6.6660156,7.3339844 c -1.921145,0 -3.5,1.5788441 -3.5,3.4999996 V 15 c 0,1.921144 1.5788454,3.5 3.5,3.5 h 6.6679684 c 1.921149,0 3.5,-1.578851 3.5,-3.5 v -4.166016 c 0,-1.9211604 -1.578861,-3.4999996 -3.5,-3.4999996 z m 0,2 h 6.6679684 c 0.840259,0 1.5,0.6597235 1.5,1.4999996 V 15 c 0,0.840249 -0.659751,1.5 -1.5,1.5 H 6.6660156 c -0.8402626,0 -1.5,-0.659747 -1.5,-1.5 v -4.166016 c 0,-0.8402809 0.6597278,-1.4999996 1.5,-1.4999996 z"
     id="path1" />
  <path
     style="color:#000000;fill:#94a3b8;-inkscape-stroke:none"
     d="M 10,1.5 C 8.0788502,1.5 6.5,3.0788502 6.5,5 v 3.3339844 h 2 V 5 c 0,-0.8402674 0.6597326,-1.5 1.5,-1.5 0.840253,0 1.5,0.6597374 1.5,1.5 v 3.3339844 h 2 V 5 C 13.5,3.0788453 11.921144,1.5 10,1.5 Z"
     id="path2" />
</svg>
