<?xml version="1.0" encoding="UTF-8" standalone="no"?>
<svg
   width="16"
   height="16"
   viewBox="0 0 16 16"
   fill="none"
   version="1.1"
   id="svg3"
   sodipodi:docname="logout.svg"
   inkscape:version="1.3.2 (091e20e, 2023-11-25, custom)"
   xmlns:inkscape="http://www.inkscape.org/namespaces/inkscape"
   xmlns:sodipodi="http://sodipodi.sourceforge.net/DTD/sodipodi-0.dtd"
   xmlns="http://www.w3.org/2000/svg"
   xmlns:svg="http://www.w3.org/2000/svg">
  <defs
     id="defs3" />
  <sodipodi:namedview
     id="namedview3"
     pagecolor="#ffffff"
     bordercolor="#cccccc"
     borderopacity="1"
     inkscape:showpageshadow="0"
     inkscape:pageopacity="1"
     inkscape:pagecheckerboard="0"
     inkscape:deskcolor="#d1d1d1"
     inkscape:zoom="73.8125"
     inkscape:cx="7.9932261"
     inkscape:cy="8"
     inkscape:window-width="3440"
     inkscape:window-height="1377"
     inkscape:window-x="-8"
     inkscape:window-y="-8"
     inkscape:window-maximized="1"
     inkscape:current-layer="svg3" />
  <path
     style="color:#000000;fill:#94a3b8;stroke-linecap:round;stroke-linejoin:round;-inkscape-stroke:none"
     d="m 10.074219,0.91015625 c -1.4407256,0 -2.6141362,0.25565685 -3.4785159,0.95703125 C 5.7313235,2.5685619 5.2990742,3.6582016 5.1855469,4.9765625 A 0.75,0.75 0 0 0 5.8691406,5.7871094 0.75,0.75 0 0 0 6.6796875,5.1054687 C 6.7728299,4.0238321 7.0620716,3.4218276 7.5410156,3.0332031 8.0199596,2.6445787 8.8149768,2.4101563 10.074219,2.4101563 h 0.08594 c 1.389887,0 2.199325,0.2754913 2.673828,0.75 0.474504,0.4745086 0.75,1.2839385 0.75,2.6738281 v 4.3457036 c 0,1.389889 -0.275498,2.199326 -0.75,2.673828 -0.474501,0.474501 -1.283938,0.75 -2.673828,0.75 h -0.08594 c -1.2498058,0 -2.0426472,-0.230203 -2.5214846,-0.613282 C 7.0738969,12.607156 6.7863562,12.017489 6.6875,10.957031 A 0.75,0.75 0 0 0 5.8710937,10.279297 0.75,0.75 0 0 0 5.1933594,11.095703 c 0.1211436,1.29954 0.5590563,2.374183 1.421875,3.064453 0.8628187,0.690271 2.0288225,0.94336 3.4589846,0.94336 h 0.08594 c 1.590108,0 2.867228,-0.322306 3.734375,-1.189453 0.867148,-0.867148 1.189453,-2.144268 1.189453,-3.734375 V 5.8339844 c 0,-1.5901075 -0.322307,-2.86722 -1.189453,-3.734375 -0.867145,-0.867155 -2.144265,-1.18945315 -3.734375,-1.18945315 z"
     id="path1" />
  <path
     style="color:#000000;fill:#94a3b8;stroke-linecap:round;stroke-linejoin:round;-inkscape-stroke:none"
     d="m 2.4140625,7.25 a 0.75,0.75 0 0 0 -0.75,0.75 0.75,0.75 0 0 0 0.75,0.75 H 10 A 0.75,0.75 0 0 0 10.75,8 0.75,0.75 0 0 0 10,7.25 Z"
     id="path2" />
  <path
     style="color:#000000;fill:#94a3b8;stroke-linecap:round;stroke-linejoin:round;-inkscape-stroke:none"
     d="M 3.3691406,5.2363281 1.1367187,7.46875 a 0.750075,0.750075 0 0 0 0,1.0605469 l 2.2324219,2.2343751 a 0.75,0.75 0 0 0 1.0605469,0 0.75,0.75 0 0 0 0,-1.060547 L 2.7265625,8 4.4296875,6.296875 a 0.75,0.75 0 0 0 0,-1.0605469 0.75,0.75 0 0 0 -1.0605469,0 z"
     id="path3" />
</svg>
