<?xml version="1.0" encoding="UTF-8" standalone="no"?>
<svg
   width="16"
   height="16"
   viewBox="0 0 16 16"
   fill="none"
   version="1.1"
   id="svg4"
   sodipodi:docname="mail.svg"
   inkscape:version="1.1.1 (3bf5ae0d25, 2021-09-20)"
   xmlns:inkscape="http://www.inkscape.org/namespaces/inkscape"
   xmlns:sodipodi="http://sodipodi.sourceforge.net/DTD/sodipodi-0.dtd"
   xmlns="http://www.w3.org/2000/svg"
   xmlns:svg="http://www.w3.org/2000/svg">
  <defs
     id="defs8" />
  <sodipodi:namedview
     id="namedview6"
     pagecolor="#ffffff"
     bordercolor="#666666"
     borderopacity="1.0"
     inkscape:pageshadow="2"
     inkscape:pageopacity="0.0"
     inkscape:pagecheckerboard="0"
     showgrid="false"
     inkscape:zoom="51.5"
     inkscape:cx="7.9902913"
     inkscape:cy="7.9902913"
     inkscape:window-width="1920"
     inkscape:window-height="1009"
     inkscape:window-x="1912"
     inkscape:window-y="-8"
     inkscape:window-maximized="1"
     inkscape:current-layer="svg4" />
  <path
     style="color:#000000;fill:#4b4b4b;stroke-linecap:round;stroke-linejoin:round;-inkscape-stroke:none"
     d="m 4.1328125,2.5839844 c -0.7467293,0 -1.2247962,-0.039039 -1.7460937,0.2265625 C 1.9946679,3.0103072 1.6761448,3.3290323 1.4765625,3.7207031 1.2110669,4.2417922 1.25,4.7200576 1.25,5.4667969 v 5.0664061 c 0,0.746699 -0.038979,1.224951 0.2265625,1.746094 0.1995767,0.391691 0.5180364,0.710408 0.9101563,0.910156 0.5212851,0.265559 0.9993644,0.226563 1.7460937,0.226563 h 7.7343755 c 0.746699,0 1.223214,0.03874 1.74414,-0.226563 a 0.750075,0.750075 0 0 0 0.002,0 c 0.391666,-0.199581 0.71026,-0.517715 0.910157,-0.910156 C 14.788999,11.758043 14.75,11.279835 14.75,10.533203 V 5.4667969 c 0,-0.7466723 0.03895,-1.2248931 -0.226562,-1.7460938 -0.199902,-0.3924207 -0.51856,-0.7105638 -0.910157,-0.9101562 a 0.750075,0.750075 0 0 0 -0.002,0 C 13.090389,2.5452023 12.613887,2.5839844 11.867188,2.5839844 Z m 0,1.5 h 7.7343755 c 0.08497,0 0.04813,0.0069 0.121093,0.00781 L 8.1386719,7.0625 4.0605469,4.0878906 c 0.046363,-3.388e-4 0.021584,-0.00391 0.072266,-0.00391 z M 2.7773438,5.0078125 7.7109375,8.6054688 A 0.750075,0.750075 0 0 0 8.6113281,8.59375 L 13.224609,5.03125 C 13.233922,5.1944627 13.25,5.1612645 13.25,5.4667969 v 5.0664061 c 0,0.746766 -0.03746,1.015308 -0.0625,1.064453 a 0.750075,0.750075 0 0 0 -0.002,0 c -0.0557,0.109359 -0.143972,0.199841 -0.253906,0.25586 -0.04967,0.0253 -0.317754,0.0625 -1.064453,0.0625 H 4.1328125 c -0.7467293,0 -1.0152989,-0.03746 -1.0644531,-0.0625 C 2.9587197,11.797664 2.8705562,11.707765 2.8144531,11.597656 2.7893549,11.548399 2.75,11.279902 2.75,10.533203 V 5.4667969 c 0,-0.3219696 0.017199,-0.2940173 0.027344,-0.4589844 z"
     id="path2" />
</svg>
