<?xml version="1.0" encoding="UTF-8" standalone="no"?>
<svg
   width="20"
   height="20"
   viewBox="0 0 20 20"
   fill="none"
   version="1.1"
   id="svg1"
   sodipodi:docname="message.svg"
   inkscape:version="1.3.2 (091e20e, 2023-11-25, custom)"
   xmlns:inkscape="http://www.inkscape.org/namespaces/inkscape"
   xmlns:sodipodi="http://sodipodi.sourceforge.net/DTD/sodipodi-0.dtd"
   xmlns="http://www.w3.org/2000/svg"
   xmlns:svg="http://www.w3.org/2000/svg">
  <defs
     id="defs1" />
  <sodipodi:namedview
     id="namedview1"
     pagecolor="#ffffff"
     bordercolor="#cccccc"
     borderopacity="1"
     inkscape:showpageshadow="0"
     inkscape:pageopacity="1"
     inkscape:pagecheckerboard="0"
     inkscape:deskcolor="#d1d1d1"
     inkscape:zoom="59.05"
     inkscape:cx="9.9915326"
     inkscape:cy="10"
     inkscape:window-width="3440"
     inkscape:window-height="1377"
     inkscape:window-x="-8"
     inkscape:window-y="-8"
     inkscape:window-maximized="1"
     inkscape:current-layer="svg1" />
  <path
     style="color:#000000;fill:#94a3b8;stroke-linecap:round;stroke-linejoin:round;-inkscape-stroke:none"
     d="m 10,1.5 c -4.6825742,0 -8.5,3.8174258 -8.5,8.5 0,1.488656 0.4005423,2.885986 1.0761719,4.105469 l -0.6035157,1.8125 v 0.002 c -0.067695,0.203064 -0.1257614,0.366184 -0.171875,0.5625 -0.046114,0.196315 -0.1036509,0.477578 0.023437,0.833984 0.1428129,0.400461 0.4596883,0.716872 0.8593751,0.859375 0.356743,0.127286 0.6373947,0.06958 0.8339843,0.02344 0.1965897,-0.04615 0.3608095,-0.103997 0.5644531,-0.171875 l 1.8125,-0.603516 C 7.113971,18.099444 8.5113382,18.5 10,18.5 c 4.682546,0 8.5,-3.81747 8.5,-8.5 0,-4.6825806 -3.817461,-8.5 -8.5,-8.5 z m 0,2 c 3.601652,0 6.5,2.8983089 6.5,6.5 0,3.601662 -2.898354,6.5 -6.5,6.5 -1.1847902,0 -2.2879104,-0.314895 -3.2421875,-0.865234 -0.1093603,-0.06313 -0.2074463,-0.138527 -0.4472656,-0.205078 a 1.0001,1.0001 0 0 0 -0.00195,0 c -0.1408892,-0.03875 -0.3261189,-0.05893 -0.4726562,-0.04883 -0.2332923,0.01592 -0.3537642,0.07105 -0.4628906,0.107422 a 1.0001,1.0001 0 0 0 -0.019531,0.0059 l -1.2714844,0.423828 0.4277344,-1.28711 0.00195,-0.0039 a 1.0001,1.0001 0 0 0 0,-0.002 c 0.035732,-0.107136 0.0914,-0.226871 0.1074219,-0.460937 0.01003,-0.146726 -0.010193,-0.334571 -0.048828,-0.47461 C 4.5035088,13.447994 4.4276058,13.350338 4.3652344,13.242188 3.8148726,12.287859 3.5,11.184816 3.5,10 3.5,6.3983024 6.3983024,3.5 10,3.5 Z"
     id="path1" />
</svg>
