<?xml version="1.0" encoding="UTF-8" standalone="no"?>
<svg
   width="17"
   height="17"
   viewBox="0 0 17 17"
   fill="none"
   version="1.1"
   id="svg3"
   sodipodi:docname="Group 33511.svg"
   inkscape:version="1.3.2 (091e20e, 2023-11-25, custom)"
   xmlns:inkscape="http://www.inkscape.org/namespaces/inkscape"
   xmlns:sodipodi="http://sodipodi.sourceforge.net/DTD/sodipodi-0.dtd"
   xmlns="http://www.w3.org/2000/svg"
   xmlns:svg="http://www.w3.org/2000/svg">
  <defs
     id="defs3" />
  <sodipodi:namedview
     id="namedview3"
     pagecolor="#ffffff"
     bordercolor="#cccccc"
     borderopacity="1"
     inkscape:showpageshadow="0"
     inkscape:pageopacity="1"
     inkscape:pagecheckerboard="0"
     inkscape:deskcolor="#d1d1d1"
     inkscape:zoom="69.470588"
     inkscape:cx="8.4928027"
     inkscape:cy="8.5"
     inkscape:window-width="3440"
     inkscape:window-height="1377"
     inkscape:window-x="-8"
     inkscape:window-y="-8"
     inkscape:window-maximized="1"
     inkscape:current-layer="svg3" />
  <path
     style="color:#000000;fill:#94a3b8;stroke-linecap:round;stroke-linejoin:round;-inkscape-stroke:none"
     d="M 8.5,0 C 3.8174258,0 0,3.8174258 0,8.5 c 0,1.488656 0.40054231,2.885986 1.0761719,4.105469 l -0.60351565,1.8125 v 0.002 c -0.0676946,0.203064 -0.12576148,0.366184 -0.171875,0.5625 -0.0461135,0.196315 -0.10365093,0.477578 0.0234375,0.833984 0.14281288,0.400461 0.45968826,0.716872 0.85937495,0.859375 0.3567431,0.127286 0.6373948,0.06958 0.8339844,0.02344 0.1965897,-0.04615 0.3608095,-0.103997 0.5644532,-0.171875 L 4.3945312,15.923828 C 5.6139711,16.599444 7.0113298,17 8.5,17 13.182537,17 17,13.18253 17,8.5 17,3.8174194 13.182539,0 8.5,0 Z m 0,2 C 12.101652,2 15,4.8983089 15,8.5 15,12.101662 12.101635,15 8.5,15 7.3151985,15 6.2120896,14.685105 5.2578125,14.134766 5.1484522,14.071636 5.0503662,13.996239 4.8105469,13.929688 a 1.0001,1.0001 0 0 0 -0.00195,0 c -0.1408892,-0.03875 -0.3261189,-0.05893 -0.4726562,-0.04883 -0.2332923,0.01592 -0.3537642,0.07105 -0.4628906,0.107422 a 1.0001,1.0001 0 0 0 -0.019531,0.0059 l -1.2714843,0.423828 0.4277343,-1.28711 0.00195,-0.0039 a 1.0001,1.0001 0 0 0 0,-0.002 c 0.035732,-0.107136 0.0914,-0.226871 0.1074218,-0.460937 0.01003,-0.146726 -0.010193,-0.334571 -0.048828,-0.47461 C 3.0035088,11.947994 2.9276058,11.850338 2.8652344,11.742188 2.3148726,10.787859 2,9.6848161 2,8.5 2,4.8983024 4.8983024,2 8.5,2 Z"
     id="path1" />
  <path
     id="circle1"
     style="fill:#d9d9d9"
     d="M 6,8 A 1,1 0 0 1 5,9 1,1 0 0 1 4,8 1,1 0 0 1 5,7 1,1 0 0 1 6,8 Z" />
  <path
     id="circle2"
     style="fill:#d9d9d9"
     d="m 9.5,8 a 1,1 0 0 1 -1,1 1,1 0 0 1 -1,-1 1,1 0 0 1 1,-1 1,1 0 0 1 1,1 z" />
  <path
     id="circle3"
     style="fill:#d9d9d9"
     d="M 13,8 A 1,1 0 0 1 12,9 1,1 0 0 1 11,8 1,1 0 0 1 12,7 1,1 0 0 1 13,8 Z" />
</svg>
