<?xml version="1.0" encoding="UTF-8" standalone="no"?>
<svg
   width="16"
   height="16"
   viewBox="0 0 16 16"
   fill="none"
   version="1.1"
   id="svg5"
   sodipodi:docname="messages.svg"
   inkscape:version="1.3.2 (091e20e, 2023-11-25, custom)"
   xmlns:inkscape="http://www.inkscape.org/namespaces/inkscape"
   xmlns:sodipodi="http://sodipodi.sourceforge.net/DTD/sodipodi-0.dtd"
   xmlns="http://www.w3.org/2000/svg"
   xmlns:svg="http://www.w3.org/2000/svg">
  <defs
     id="defs5" />
  <sodipodi:namedview
     id="namedview5"
     pagecolor="#ffffff"
     bordercolor="#cccccc"
     borderopacity="1"
     inkscape:showpageshadow="0"
     inkscape:pageopacity="1"
     inkscape:pagecheckerboard="0"
     inkscape:deskcolor="#d1d1d1"
     inkscape:zoom="73.8125"
     inkscape:cx="7.9932261"
     inkscape:cy="8"
     inkscape:window-width="3440"
     inkscape:window-height="1377"
     inkscape:window-x="-8"
     inkscape:window-y="-8"
     inkscape:window-maximized="1"
     inkscape:current-layer="svg5" />
  <path
     style="color:#000000;fill:#94a3b8;stroke-linecap:round;stroke-linejoin:round;stroke-miterlimit:10;-inkscape-stroke:none"
     d="m 4.5273437,3.4003906 c -0.1816561,0 -0.365688,0.00712 -0.5527343,0.029297 -0.00151,1.293e-4 -0.0024,0.00182 -0.00391,0.00195 C 2.9675627,3.5182893 2.1173531,3.8804443 1.5507812,4.546875 0.98335598,5.2143096 0.73242187,6.1245451 0.73242187,7.1933594 V 9.859375 c 10e-9,1.413343 0.29182723,2.425327 1.00585933,3.048828 0.7140322,0.623501 1.6762052,0.744141 2.7890625,0.744141 h 0.2324219 l 0.7792969,1.039062 c 0.2697175,0.361364 0.6850819,0.597657 1.1210937,0.597657 0.435105,0 0.8493859,-0.235614 1.1191407,-0.595704 l 0.00195,-0.002 0.7792969,-1.039062 h 0.2324219 c 1.0681463,0 1.9785592,-0.245723 2.6464842,-0.8125 0.664589,-0.563947 1.027036,-1.414449 1.115235,-2.416016 0.02333,-0.191119 0.03125,-0.378898 0.03125,-0.564453 V 7.1933594 C 12.585938,6.0297091 12.285036,5.0486985 11.611328,4.375 10.93762,3.7013015 9.9566162,3.4003906 8.7929688,3.4003906 Z m 0,1.1992188 h 4.2656251 c 0.9630203,0 1.5793942,0.2317439 1.9707032,0.6230468 0.391308,0.391303 0.623047,1.0076856 0.623047,1.9707032 V 9.859375 c 0,0.157824 -0.0058,0.300313 -0.02149,0.425781 a 0.60006002,0.60006002 0 0 0 -0.0039,0.02344 c -0.06744,0.791853 -0.308524,1.285362 -0.697265,1.615234 -0.388742,0.329872 -0.9858726,0.529297 -1.8710942,0.529297 h -0.265625 c -0.3586659,0 -0.6930103,0.166058 -0.9082032,0.453125 l -0.7988281,1.066406 a 0.60006002,0.60006002 0 0 0 -0.00195,0.002 c -0.083617,0.112032 -0.1308779,0.113282 -0.1582032,0.113282 -0.027325,0 -0.076534,-0.0012 -0.1601562,-0.113282 a 0.60006002,0.60006002 0 0 0 0,-0.002 L 5.6992187,12.90625 a 0.60006002,0.60006002 0 0 0 -0.00195,-0.0039 C 5.4525446,12.582148 5.2123594,12.453125 4.7929687,12.453125 h -0.265625 c -1.0138105,0 -1.6490307,-0.142748 -1.9999999,-0.449219 C 2.1763745,11.697436 1.9335937,11.112719 1.9335937,9.859375 V 7.1933594 c 0,-0.8845138 0.2003412,-1.4799088 0.5312501,-1.8691407 C 2.7957526,4.9349869 3.2898973,4.6923976 4.078125,4.625 a 0.60006002,0.60006002 0 0 0 0.023437,-0.00391 C 4.22697,4.6054178 4.3693956,4.5996094 4.5273437,4.5996094 Z"
     id="path1" />
  <path
     style="color:#000000;fill:#94a3b8;stroke-linecap:round;stroke-linejoin:round;stroke-miterlimit:10;-inkscape-stroke:none"
     d="m 7.1933594,0.734375 c -1.0688143,0 -1.9790498,0.24898098 -2.6464844,0.8164062 C 3.8794404,2.1182065 3.5156297,2.971452 3.4296875,3.9765625 a 0.60006002,0.60006002 0 0 0 0.671875,0.6464844 c 0.1254289,-0.015679 0.2678671,-0.023437 0.4257812,-0.023437 h 4.2656251 c 0.9630194,0 1.5793942,0.2317424 1.9707032,0.6230468 0.391309,0.3913045 0.623047,1.0076911 0.623047,1.9707032 V 9.859375 c 0,0.157868 -0.0058,0.300313 -0.02149,0.425781 a 0.60006002,0.60006002 0 0 0 0.646485,0.673828 C 13.016068,10.873072 13.867703,10.51063 14.435547,9.84375 15.00339,9.17687 15.253906,8.265195 15.253906,7.1933594 V 4.5273437 c 0,-1.1636408 -0.300921,-2.1446542 -0.974609,-2.8183593 C 13.605609,1.0352792 12.624599,0.734375 11.460938,0.734375 Z m 0,1.1992187 h 4.2675786 c 0.963036,0 1.577463,0.2317506 1.96875,0.6230469 0.391286,0.3912963 0.623046,1.0076762 0.623046,1.9707031 v 2.6660157 c 0,0.8881623 -0.200769,1.4829748 -0.53125,1.8710937 C 13.329841,9.2895202 12.913189,9.3476513 12.585938,9.46875 V 7.1933594 c 0,-1.1636458 -0.300903,-2.14466 -0.97461,-2.8183594 C 10.937621,3.7013006 9.9566172,3.4003906 8.7929688,3.4003906 H 4.9179687 C 5.0394741,3.0730777 5.0984341,2.6567965 5.3242187,2.4648438 5.7134506,2.1339349 6.3088456,1.9335937 7.1933594,1.9335937 Z"
     id="path2" />
  <path
     style="color:#000000;fill:#94a3b8;stroke-linecap:round;stroke-linejoin:round;-inkscape-stroke:none"
     d="M 8.9960938,8.2324219 A 0.60000002,0.60000002 0 0 0 8.3964844,8.8339844 0.60000002,0.60000002 0 0 0 8.9960938,9.4335938 h 0.00781 A 0.60000002,0.60000002 0 0 0 9.6035156,8.8339844 0.60000002,0.60000002 0 0 0 9.0039063,8.2324219 Z"
     id="path3" />
  <path
     style="color:#000000;fill:#94a3b8;stroke-linecap:round;stroke-linejoin:round;-inkscape-stroke:none"
     d="M 6.6640625,8.2324219 A 0.60000002,0.60000002 0 0 0 6.0644531,8.8339844 0.60000002,0.60000002 0 0 0 6.6640625,9.4335938 h 0.00586 A 0.60000002,0.60000002 0 0 0 7.2695312,8.8339844 0.60000002,0.60000002 0 0 0 6.6699219,8.2324219 Z"
     id="path4" />
  <path
     style="color:#000000;fill:#94a3b8;stroke-linecap:round;stroke-linejoin:round;-inkscape-stroke:none"
     d="M 4.3300781,8.2324219 A 0.60000002,0.60000002 0 0 0 3.7304688,8.8339844 0.60000002,0.60000002 0 0 0 4.3300781,9.4335938 h 0.00586 A 0.60000002,0.60000002 0 0 0 4.9355469,8.8339844 0.60000002,0.60000002 0 0 0 4.3359375,8.2324219 Z"
     id="path5" />
</svg>
