<?xml version="1.0" encoding="UTF-8" standalone="no"?>
<svg
   width="16"
   height="16"
   viewBox="0 0 16 16"
   fill="none"
   version="1.1"
   id="svg4"
   sodipodi:docname="phone.svg"
   inkscape:version="1.1.1 (3bf5ae0d25, 2021-09-20)"
   xmlns:inkscape="http://www.inkscape.org/namespaces/inkscape"
   xmlns:sodipodi="http://sodipodi.sourceforge.net/DTD/sodipodi-0.dtd"
   xmlns="http://www.w3.org/2000/svg"
   xmlns:svg="http://www.w3.org/2000/svg">
  <defs
     id="defs8" />
  <sodipodi:namedview
     id="namedview6"
     pagecolor="#ffffff"
     bordercolor="#666666"
     borderopacity="1.0"
     inkscape:pageshadow="2"
     inkscape:pageopacity="0.0"
     inkscape:pagecheckerboard="0"
     showgrid="false"
     inkscape:zoom="51.5"
     inkscape:cx="7.9902913"
     inkscape:cy="7.9902913"
     inkscape:window-width="1920"
     inkscape:window-height="1009"
     inkscape:window-x="1912"
     inkscape:window-y="-8"
     inkscape:window-maximized="1"
     inkscape:current-layer="svg4" />
  <path
     style="color:#000000;fill:#4b4b4b;stroke-linecap:round;stroke-linejoin:round;-inkscape-stroke:none"
     d="M 3.2636719,1.25 C 2.1607034,1.25 1.25,2.1607177 1.25,3.2636719 1.25,9.5988072 6.4011978,14.75 12.736328,14.75 13.839245,14.75 14.75,13.839174 14.75,12.736328 v -1.833984 c 0,-0.849675 -0.521737,-1.6180701 -1.310547,-1.933594 L 11.683594,8.265625 C 10.974481,7.9820268 10.162926,8.1107305 9.5761719,8.5996094 L 9.1210938,8.9785156 C 8.8841935,9.1759303 8.553961,9.1594342 8.3359375,8.9414063 L 7.0585937,7.6640625 C 6.8406406,7.4461093 6.824027,7.1158578 7.0214844,6.8789062 a 0.750075,0.750075 0 0 0 0.00195,0 L 7.4003906,6.4238281 C 7.8894387,5.8369798 8.0180163,5.0255252 7.734375,4.3164062 L 7.03125,2.5605469 C 6.7157164,1.7716816 5.947271,1.25 5.0976562,1.25 Z m 0,1.5 h 1.8339843 c 0.2408042,0 0.4515897,0.1436138 0.5410157,0.3671875 l 0.703125,1.7558594 c 0.080118,0.2003001 0.044261,0.4242328 -0.09375,0.5898437 L 5.8691406,5.9179687 h 0.00195 C 5.1856121,6.7405561 5.240741,7.9673035 5.9980469,8.7246094 l 1.2773437,1.2773436 c 0.7572155,0.757231 1.984002,0.814431 2.8066404,0.128906 l 0.455078,-0.3789059 c 0.165845,-0.1381805 0.389357,-0.1739314 0.589844,-0.09375 l 1.75586,0.7031249 C 13.106402,10.450764 13.25,10.661619 13.25,10.902344 v 1.833984 C 13.25,13.028681 13.02861,13.25 12.736328,13.25 7.2118503,13.25 2.75,8.7881247 2.75,3.2636719 2.75,2.9713875 2.9714018,2.75 3.2636719,2.75 Z"
     id="path2" />
</svg>
