<?xml version="1.0" encoding="UTF-8" standalone="no"?>
<svg
   width="24"
   height="24"
   viewBox="0 0 24 24"
   fill="none"
   version="1.1"
   id="svg3"
   sodipodi:docname="plus-circle.svg"
   inkscape:version="1.3.2 (091e20e, 2023-11-25, custom)"
   xmlns:inkscape="http://www.inkscape.org/namespaces/inkscape"
   xmlns:sodipodi="http://sodipodi.sourceforge.net/DTD/sodipodi-0.dtd"
   xmlns="http://www.w3.org/2000/svg"
   xmlns:svg="http://www.w3.org/2000/svg">
  <defs
     id="defs3" />
  <sodipodi:namedview
     id="namedview3"
     pagecolor="#ffffff"
     bordercolor="#cccccc"
     borderopacity="1"
     inkscape:showpageshadow="0"
     inkscape:pageopacity="1"
     inkscape:pagecheckerboard="0"
     inkscape:deskcolor="#d1d1d1"
     inkscape:zoom="49.208333"
     inkscape:cx="12"
     inkscape:cy="12"
     inkscape:window-width="3440"
     inkscape:window-height="1377"
     inkscape:window-x="-8"
     inkscape:window-y="-8"
     inkscape:window-maximized="1"
     inkscape:current-layer="svg3" />
  <path
     style="color:#000000;fill:#94a3b8;stroke-linecap:round;stroke-linejoin:round;-inkscape-stroke:none"
     d="M 12,1.25 C 6.090915,1.25 1.25,6.090915 1.25,12 1.25,17.909085 6.090915,22.75 12,22.75 17.909085,22.75 22.75,17.909085 22.75,12 22.75,6.090915 17.909085,1.25 12,1.25 Z m 0,1.5 c 5.090904,0 9.25,4.159096 9.25,9.25 0,5.090904 -4.159096,9.25 -9.25,9.25 C 6.909096,21.25 2.75,17.090904 2.75,12 2.75,6.909096 6.909096,2.75 12,2.75 Z"
     id="path1" />
  <path
     style="color:#000000;fill:#94a3b8;stroke-linecap:round;stroke-linejoin:round;-inkscape-stroke:none"
     d="M 12,7.25 A 0.75,0.75 0 0 0 11.25,8 v 8 A 0.75,0.75 0 0 0 12,16.75 0.75,0.75 0 0 0 12.75,16 V 8 A 0.75,0.75 0 0 0 12,7.25 Z"
     id="path2" />
  <path
     style="color:#000000;fill:#94a3b8;stroke-linecap:round;stroke-linejoin:round;-inkscape-stroke:none"
     d="M 8,11.25 A 0.75,0.75 0 0 0 7.25,12 0.75,0.75 0 0 0 8,12.75 h 8 A 0.75,0.75 0 0 0 16.75,12 0.75,0.75 0 0 0 16,11.25 Z"
     id="path3" />
</svg>
