<?xml version="1.0" encoding="UTF-8" standalone="no"?>
<svg
   width="16"
   height="16"
   viewBox="0 0 16 16"
   fill="none"
   version="1.1"
   id="svg2"
   sodipodi:docname="MainIcons (1).svg"
   inkscape:version="1.3.2 (091e20e, 2023-11-25, custom)"
   xmlns:inkscape="http://www.inkscape.org/namespaces/inkscape"
   xmlns:sodipodi="http://sodipodi.sourceforge.net/DTD/sodipodi-0.dtd"
   xmlns="http://www.w3.org/2000/svg"
   xmlns:svg="http://www.w3.org/2000/svg">
  <defs
     id="defs2" />
  <sodipodi:namedview
     id="namedview2"
     pagecolor="#ffffff"
     bordercolor="#cccccc"
     borderopacity="1"
     inkscape:showpageshadow="0"
     inkscape:pageopacity="1"
     inkscape:pagecheckerboard="0"
     inkscape:deskcolor="#d1d1d1"
     inkscape:zoom="73.8125"
     inkscape:cx="8"
     inkscape:cy="8"
     inkscape:window-width="3440"
     inkscape:window-height="1377"
     inkscape:window-x="-8"
     inkscape:window-y="-8"
     inkscape:window-maximized="1"
     inkscape:current-layer="svg2" />
  <path
     style="color:#000000;fill:#94a3b8;stroke-linecap:round;stroke-linejoin:round;-inkscape-stroke:none"
     d="M 2.734375,8.5 C 2.1632639,8.5 1.646398,8.630293 1.2949219,9.0039063 0.94344572,9.3775195 0.83398438,9.8934224 0.83398438,10.486328 v 2.69336 c 0,0.592892 0.10946529,1.11076 0.46093752,1.484375 0.3514722,0.373614 0.868337,0.501953 1.4394531,0.501953 h 10.533203 c 0.571116,0 1.087981,-0.128339 1.439453,-0.501953 0.351472,-0.373615 0.460938,-0.891483 0.460938,-1.484375 v -2.69336 c 0,-0.5929056 -0.109462,-1.1088085 -0.460938,-1.4824217 C 14.355555,8.630293 13.838689,8.5 13.267578,8.5 Z m 0,1 h 10.533203 c 0.428888,0 0.612414,0.082771 0.710938,0.1875 0.09852,0.1047287 0.189453,0.331705 0.189453,0.798828 v 2.69336 c 0,0.467106 -0.09093,0.694093 -0.189453,0.798828 -0.09853,0.104734 -0.282055,0.1875 -0.710938,0.1875 H 2.734375 c -0.4288829,0 -0.6124102,-0.08277 -0.7109375,-0.1875 -0.098527,-0.104735 -0.1894531,-0.331722 -0.1894531,-0.798828 v -2.69336 c 0,-0.467123 0.09093,-0.6940993 0.1894531,-0.798828 C 2.1219609,9.5827713 2.3054871,9.5 2.734375,9.5 Z"
     id="path1" />
  <path
     style="color:#000000;fill:#94a3b8;stroke-linecap:round;stroke-linejoin:round;-inkscape-stroke:none"
     d="m 2.734375,0.83398438 c -0.5711094,0 -1.0879751,0.12834765 -1.4394531,0.50195312 C 0.9434439,1.709543 0.83398438,2.22742 0.83398438,2.8203125 v 2.6933594 c 0,0.5928925 0.10945952,1.1088164 0.46093752,1.4824218 C 1.6463999,7.3696992 2.1632656,7.5 2.734375,7.5 H 8.6015625 C 9.1726719,7.5 9.6875714,7.3696924 10.039063,6.9960937 10.390554,6.6224951 10.5,6.1065722 10.5,5.5136719 V 2.8203125 C 10.5,2.2274121 10.390554,1.7095362 10.039063,1.3359375 9.6875714,0.96233882 9.1726719,0.83398437 8.6015625,0.83398438 Z m 0,1.00000002 h 5.8671875 c 0.4288896,0 0.6104509,0.082769 0.7089844,0.1875 C 9.4090803,2.1262152 9.5,2.3532139 9.5,2.8203125 V 5.5136719 C 9.5,5.9807705 9.4090803,6.2077692 9.3105469,6.3125 9.2120134,6.4172308 9.0304521,6.5 8.6015625,6.5 H 2.734375 C 2.3054854,6.5 2.1219591,6.4172241 2.0234375,6.3125 1.9249159,6.2077759 1.8339844,5.9807783 1.8339844,5.5136719 V 2.8203125 c 0,-0.4671065 0.090931,-0.6941041 0.1894531,-0.7988281 0.098522,-0.1047241 0.2820479,-0.1875 0.7109375,-0.1875 z"
     id="path2" />
</svg>
