<?xml version="1.0" encoding="UTF-8" standalone="no"?>
<svg
   width="16"
   height="16"
   viewBox="0 0 16 16"
   fill="none"
   version="1.1"
   id="svg6"
   sodipodi:docname="search.svg"
   inkscape:version="1.1.1 (3bf5ae0d25, 2021-09-20)"
   xmlns:inkscape="http://www.inkscape.org/namespaces/inkscape"
   xmlns:sodipodi="http://sodipodi.sourceforge.net/DTD/sodipodi-0.dtd"
   xmlns="http://www.w3.org/2000/svg"
   xmlns:svg="http://www.w3.org/2000/svg">
  <defs
     id="defs10" />
  <sodipodi:namedview
     id="namedview8"
     pagecolor="#ffffff"
     bordercolor="#666666"
     borderopacity="1.0"
     inkscape:pageshadow="2"
     inkscape:pageopacity="0.0"
     inkscape:pagecheckerboard="0"
     showgrid="false"
     inkscape:zoom="54.5625"
     inkscape:cx="8"
     inkscape:cy="8"
     inkscape:window-width="3440"
     inkscape:window-height="1369"
     inkscape:window-x="-8"
     inkscape:window-y="-8"
     inkscape:window-maximized="1"
     inkscape:current-layer="svg6" />
  <path
     style="color:#000000;fill:#1d1d1d;stroke-linecap:round;stroke-linejoin:round;-inkscape-stroke:none"
     d="M 7.3339844,1.5 C 4.1182482,1.5 1.5,4.1182482 1.5,7.3339844 c 0,3.2157816 2.6182493,5.8320316 5.8339844,5.8320316 3.2157806,0 5.8320316,-2.616251 5.8320316,-5.8320316 C 13.166016,4.1182493 10.549766,1.5 7.3339844,1.5 Z m 0,1 c 2.6753526,0 4.8320316,2.1586853 4.8320316,4.8339844 0,2.6753536 -2.156678,4.8320316 -4.8320316,4.8320316 C 4.6586853,12.166016 2.5,10.009337 2.5,7.3339844 2.5,4.6586865 4.6586865,2.5 7.3339844,2.5 Z"
     id="path2" />
  <path
     style="color:#000000;fill:#1d1d1d;stroke-linecap:round;stroke-linejoin:round;-inkscape-stroke:none"
     d="m 11.333984,10.833984 a 0.5,0.5 0 0 0 -0.353515,0.146485 0.5,0.5 0 0 0 0,0.707031 l 2.666015,2.666016 a 0.5,0.5 0 0 0 0.707032,0 0.5,0.5 0 0 0 0,-0.707032 L 11.6875,10.980469 a 0.5,0.5 0 0 0 -0.353516,-0.146485 z"
     id="path4" />
</svg>
