<?xml version="1.0" encoding="UTF-8" standalone="no"?>
<svg
   width="16"
   height="15"
   viewBox="0 0 16 15"
   fill="none"
   version="1.1"
   id="svg4"
   sodipodi:docname="star.svg"
   inkscape:version="1.1.1 (3bf5ae0d25, 2021-09-20)"
   xmlns:inkscape="http://www.inkscape.org/namespaces/inkscape"
   xmlns:sodipodi="http://sodipodi.sourceforge.net/DTD/sodipodi-0.dtd"
   xmlns="http://www.w3.org/2000/svg"
   xmlns:svg="http://www.w3.org/2000/svg">
  <defs
     id="defs8" />
  <sodipodi:namedview
     id="namedview6"
     pagecolor="#ffffff"
     bordercolor="#666666"
     borderopacity="1.0"
     inkscape:pageshadow="2"
     inkscape:pageopacity="0.0"
     inkscape:pagecheckerboard="0"
     showgrid="false"
     inkscape:zoom="58.2"
     inkscape:cx="7.9982818"
     inkscape:cy="7.5"
     inkscape:window-width="3440"
     inkscape:window-height="1369"
     inkscape:window-x="-8"
     inkscape:window-y="-8"
     inkscape:window-maximized="1"
     inkscape:current-layer="svg4" />
  <path
     style="color:#000000;fill:#475569;stroke-linecap:round;stroke-linejoin:round;-inkscape-stroke:none"
     d="M 8,0.83398438 A 0.50005,0.50005 0 0 0 7.5507812,1.1113281 L 5.6074219,5.0507812 1.2617187,5.6855469 A 0.50005,0.50005 0 0 0 0.984375,6.5390625 l 3.1445312,3.0625 -0.7421874,4.3281255 a 0.50005,0.50005 0 0 0 0.7265624,0.52539 L 8,12.412109 l 3.886719,2.042969 a 0.50005,0.50005 0 0 0 0.726562,-0.52539 l -0.742187,-4.3281255 3.144531,-3.0625 A 0.50005,0.50005 0 0 0 14.738281,5.6855469 L 10.392578,5.0507812 8.4492188,1.1113281 A 0.50005,0.50005 0 0 0 8,0.83398438 Z M 8,2.4648438 9.6113281,5.7285156 A 0.50005,0.50005 0 0 0 9.9882813,6.0019531 L 13.59375,6.5273437 10.984375,9.0683594 a 0.50005,0.50005 0 0 0 -0.144531,0.4433594 l 0.615234,3.5859372 -3.2226561,-1.693359 a 0.50005,0.50005 0 0 0 -0.4648438,0 L 4.5449219,13.097656 5.1601562,9.5117188 A 0.50005,0.50005 0 0 0 5.015625,9.0683594 L 2.40625,6.5273437 6.0117187,6.0019531 A 0.50005,0.50005 0 0 0 6.3886719,5.7285156 Z"
     id="path2" />
  <path
     style="color:#000000;fill:#475569;stroke-linecap:round;stroke-linejoin:round;-inkscape-stroke:none"
     d="M 8,0.83398438 A 0.50005,0.50005 0 0 0 7.5507812,1.1113281 L 5.6074219,5.0507812 1.2617187,5.6855469 A 0.50005,0.50005 0 0 0 0.984375,6.5390625 l 3.1445312,3.0625 -0.7421874,4.3281255 a 0.50005,0.50005 0 0 0 0.7265624,0.52539 L 8,12.412109 l 3.886719,2.042969 a 0.50005,0.50005 0 0 0 0.726562,-0.52539 l -0.742187,-4.3281255 3.144531,-3.0625 A 0.50005,0.50005 0 0 0 14.738281,5.6855469 L 10.392578,5.0507812 8.4492188,1.1113281 A 0.50005,0.50005 0 0 0 8,0.83398438 Z M 8,2.4648438 9.6113281,5.7285156 A 0.50005,0.50005 0 0 0 9.9882813,6.0019531 L 13.59375,6.5273437 10.984375,9.0683594 a 0.50005,0.50005 0 0 0 -0.144531,0.4433594 l 0.615234,3.5859372 -3.2226561,-1.693359 a 0.50005,0.50005 0 0 0 -0.4648438,0 L 4.5449219,13.097656 5.1601562,9.5117188 A 0.50005,0.50005 0 0 0 5.015625,9.0683594 L 2.40625,6.5273437 6.0117187,6.0019531 A 0.50005,0.50005 0 0 0 6.3886719,5.7285156 Z"
     id="path851" />
</svg>
