<svg width="17" height="14" viewBox="0 0 17 14" fill="none" xmlns="http://www.w3.org/2000/svg">
<path d="M15.1359 0.451024C15.1359 0.451024 16.616 -0.12612 16.4927 1.27552C16.4516 1.85267 16.0816 3.87267 15.7938 6.05758L14.807 12.5299C14.807 12.5299 14.7248 13.478 13.9847 13.6429C13.2447 13.8078 12.1346 13.0658 11.929 12.9009C11.7645 12.7772 8.84545 10.9221 7.81757 10.0151C7.52976 9.76779 7.20084 9.27309 7.85867 8.69595L12.1757 4.57351C12.6691 4.0788 13.1624 2.92451 11.1067 4.32615L5.35071 8.2425C5.35071 8.2425 4.69288 8.65473 3.45947 8.28372L0.787018 7.45922C0.787018 7.45922 -0.19973 6.84086 1.48596 6.22246C5.59741 4.2849 10.6545 2.30611 15.1359 0.451024Z" fill="white"/>
</svg>
