<?xml version="1.0" encoding="UTF-8" standalone="no"?>
<svg
   width="14"
   height="12"
   viewBox="0 0 14 12"
   fill="none"
   version="1.1"
   id="svg1"
   sodipodi:docname="users.svg"
   inkscape:version="1.3.2 (091e20e, 2023-11-25, custom)"
   xmlns:inkscape="http://www.inkscape.org/namespaces/inkscape"
   xmlns:sodipodi="http://sodipodi.sourceforge.net/DTD/sodipodi-0.dtd"
   xmlns="http://www.w3.org/2000/svg"
   xmlns:svg="http://www.w3.org/2000/svg">
  <defs
     id="defs1" />
  <sodipodi:namedview
     id="namedview1"
     pagecolor="#ffffff"
     bordercolor="#cccccc"
     borderopacity="1"
     inkscape:showpageshadow="0"
     inkscape:pageopacity="1"
     inkscape:pagecheckerboard="0"
     inkscape:deskcolor="#d1d1d1"
     inkscape:zoom="98.416667"
     inkscape:cx="7.0008467"
     inkscape:cy="6"
     inkscape:window-width="3440"
     inkscape:window-height="1377"
     inkscape:window-x="-8"
     inkscape:window-y="-8"
     inkscape:window-maximized="1"
     inkscape:current-layer="svg1" />
  <path
     style="color:#000000;fill:#94a3b8;stroke-linecap:round;stroke-linejoin:round;-inkscape-stroke:none"
     d="m 4.3339844,0.734375 c -1.4288323,0 -2.6015625,1.1707771 -2.6015625,2.5996094 0,0.7662188 0.335983,1.4620683 0.8671875,1.9375 A 0.60000002,0.60000002 0 0 0 3.4472656,5.2246094 0.60000002,0.60000002 0 0 0 3.4003906,4.3769531 C 3.1132559,4.1199656 2.9335938,3.7524244 2.9335938,3.3339844 c 0,-0.7803055 0.6200851,-1.4003907 1.4003906,-1.4003907 0.3618648,0 0.683329,0.1332276 0.9316406,0.3554688 A 0.60000002,0.60000002 0 0 0 6.1132812,2.2421875 0.60000002,0.60000002 0 0 0 6.0664062,1.3964844 C 5.6070386,0.98534617 4.9965985,0.734375 4.3339844,0.734375 Z m 5.3320312,0 c -0.6626141,0 -1.2730542,0.25097117 -1.7324219,0.6621094 A 0.60000002,0.60000002 0 0 0 7.8867187,2.2421875 0.60000002,0.60000002 0 0 0 8.734375,2.2890625 C 8.9826866,2.0668213 9.3041508,1.9335937 9.6660156,1.9335937 c 0.7802534,0 1.4003904,0.6201106 1.4003904,1.4003907 0,0.41844 -0.179642,0.7859819 -0.466797,1.0429687 a 0.60000002,0.60000002 0 0 0 -0.04687,0.8476563 0.60000002,0.60000002 0 0 0 0.847657,0.046875 c 0.531244,-0.4754325 0.867187,-1.1712812 0.867187,-1.9375 0,-1.4288577 -1.172758,-2.5996094 -2.6015624,-2.5996094 z M 7,2.734375 c -1.4288323,0 -2.5996094,1.1707771 -2.5996094,2.5996094 0,1.4288323 1.1707771,2.5996094 2.5996094,2.5996093 1.4288323,0 2.5996094,-1.170777 2.5996094,-2.5996093 C 9.5996094,3.9051521 8.4288323,2.734375 7,2.734375 Z m 0,1.1992188 c 0.7803055,0 1.4003906,0.6200851 1.4003906,1.4003906 C 8.4003906,6.1142898 7.7803055,6.734375 7,6.734375 6.2196945,6.734375 5.5996094,6.1142898 5.5996094,5.3339844 5.5996094,4.5536789 6.2196945,3.9335937 7,3.9335938 Z M 2.8476563,6.9199219 C 2.1838075,7.0939491 1.6025179,7.3797358 1.1582031,7.7792969 0.71388838,8.1788579 0.40039062,8.7232859 0.40039063,9.3339844 A 0.60000002,0.60000002 0 0 0 1,9.9335938 0.60000002,0.60000002 0 0 0 1.5996094,9.3339844 c 0,-0.2094308 0.098008,-0.4270686 0.359375,-0.6621094 C 2.2203514,8.4368342 2.6389236,8.2146706 3.1523438,8.0800781 A 0.60000002,0.60000002 0 0 0 3.5800781,7.3476562 0.60000002,0.60000002 0 0 0 2.8476563,6.9199219 Z m 8.3046877,0 a 0.60000002,0.60000002 0 0 0 -0.732422,0.4277343 0.60000002,0.60000002 0 0 0 0.427734,0.7324219 c 0.513435,0.1345929 0.931998,0.3567587 1.19336,0.5917969 0.261361,0.2350382 0.359375,0.4526713 0.359375,0.6621094 A 0.60000002,0.60000002 0 0 0 13,9.9335938 0.60000002,0.60000002 0 0 0 13.599609,9.3339844 c 0,-0.6106912 -0.313499,-1.1551239 -0.757812,-1.5546875 C 12.397484,7.3797332 11.816208,7.0939487 11.152344,6.9199219 Z M 7,8.734375 c -1.0177498,0 -1.9473455,0.2387237 -2.6660156,0.6699219 C 3.6153142,9.8354951 3.0664062,10.511473 3.0664063,11.333984 a 0.60000002,0.60000002 0 0 0 0.5996093,0.59961 0.60000002,0.60000002 0 0 0 0.6015625,-0.59961 c 0,-0.282087 0.1958376,-0.607739 0.6835938,-0.90039 C 5.438928,10.140943 6.1768017,9.9335938 7,9.9335938 c 0.8231983,0 1.5610805,0.2073502 2.0488281,0.5000002 0.4877477,0.292649 0.6835938,0.618297 0.6835938,0.90039 a 0.60000002,0.60000002 0 0 0 0.6015621,0.59961 0.60000002,0.60000002 0 0 0 0.59961,-0.59961 c 0,-0.822505 -0.548915,-1.4984874 -1.2675784,-1.9296871 C 8.947352,8.9730972 8.0177498,8.734375 7,8.734375 Z"
     id="path1" />
</svg>
