<?xml version="1.0" encoding="UTF-8" standalone="no"?>
<svg
   width="16"
   height="16"
   viewBox="0 0 16 16"
   fill="none"
   version="1.1"
   id="svg4"
   sodipodi:docname="user-edit.svg"
   inkscape:version="1.3.2 (091e20e, 2023-11-25, custom)"
   xmlns:inkscape="http://www.inkscape.org/namespaces/inkscape"
   xmlns:sodipodi="http://sodipodi.sourceforge.net/DTD/sodipodi-0.dtd"
   xmlns="http://www.w3.org/2000/svg"
   xmlns:svg="http://www.w3.org/2000/svg">
  <defs
     id="defs4" />
  <sodipodi:namedview
     id="namedview4"
     pagecolor="#ffffff"
     bordercolor="#cccccc"
     borderopacity="1"
     inkscape:showpageshadow="0"
     inkscape:pageopacity="1"
     inkscape:pagecheckerboard="0"
     inkscape:deskcolor="#d1d1d1"
     inkscape:zoom="73.8125"
     inkscape:cx="7.9932261"
     inkscape:cy="8"
     inkscape:window-width="3440"
     inkscape:window-height="1377"
     inkscape:window-x="-8"
     inkscape:window-y="-8"
     inkscape:window-maximized="1"
     inkscape:current-layer="svg4" />
  <path
     style="color:#000000;fill:#94a3b8;stroke-linecap:round;stroke-linejoin:round;-inkscape-stroke:none"
     d="m 8,0.734375 c -2.1652026,0 -3.9335937,1.7664276 -3.9335938,3.9316406 0,2.1652131 1.7683912,3.9335938 3.9335938,3.9335938 2.165211,0 3.933594,-1.7683894 3.933594,-3.9335938 C 11.933594,2.5008113 10.165211,0.734375 8,0.734375 Z m 0,1.1992187 c 1.5166855,0 2.732422,1.21573 2.732422,2.7324219 0,1.516692 -1.2157365,2.734375 -2.732422,2.734375 -1.5166737,0 -2.7324219,-1.2176917 -2.7324219,-2.734375 C 5.2675781,3.1493323 6.4833263,1.9335937 8,1.9335937 Z"
     id="path1" />
  <path
     style="color:#000000;fill:#94a3b8;stroke-linecap:round;stroke-linejoin:round;stroke-miterlimit:10;-inkscape-stroke:none"
     d="m 13.412109,9.5175781 c -0.449474,0.046171 -0.777313,0.2987979 -1.029296,0.5507809 l -2.361329,2.361329 c -0.2245651,0.224565 -0.3186848,0.415394 -0.3671871,0.722656 a 0.60006002,0.60006002 0 0 0 -0.00195,0.01172 L 9.5253906,14.0625 c -0.04536,0.317229 0.047523,0.666695 0.2832032,0.902344 0.2356802,0.235648 0.5851142,0.328549 0.9023442,0.283203 l 0.898437,-0.126953 a 0.60006002,0.60006002 0 0 0 0.01172,-0.002 c 0.304044,-0.048 0.495861,-0.123892 0.738281,-0.384766 l 2.345703,-2.34375 c 0.25195,-0.252012 0.504158,-0.58204 0.548828,-1.033203 C 15.298577,10.906259 15.083649,10.441071 14.705078,10.0625 14.328934,9.686381 13.861584,9.4714069 13.412109,9.5175781 Z m 0.123047,1.1933599 c 0.03717,-0.0038 0.103058,-0.01802 0.320313,0.199218 0.221428,0.221429 0.208757,0.292917 0.205078,0.330078 -0.0037,0.03716 -0.05043,0.148047 -0.205078,0.302735 l -2.359375,2.359375 a 0.60006002,0.60006002 0 0 0 -0.01563,0.01563 c 0.05522,-0.05942 -0.02247,-0.005 -0.03711,0.01367 h -0.0059 c 0.0014,7.37e-4 -0.0083,0.0027 -0.0039,0.002 l -0.691406,0.09766 0.09766,-0.701172 v 0.0098 c -0.0085,0.05386 0.06921,-0.100466 0.03125,-0.0625 l 2.359375,-2.359375 c 0.154616,-0.154617 0.267512,-0.203213 0.304687,-0.207031 z"
     id="path2" />
  <path
     style="color:#000000;fill:#94a3b8;stroke-linecap:round;stroke-linejoin:round;stroke-miterlimit:10;-inkscape-stroke:none"
     d="m 12.306641,10.255859 a 0.60000002,0.60000002 0 0 0 -0.417969,0.738282 c 0.255829,0.920985 0.975499,1.642608 1.896484,1.898437 a 0.60000002,0.60000002 0 0 0 0.740235,-0.417969 0.60000002,0.60000002 0 0 0 -0.417969,-0.738281 c -0.519014,-0.14417 -0.91833,-0.543486 -1.0625,-1.0625 a 0.60000002,0.60000002 0 0 0 -0.738281,-0.417969 z"
     id="path3" />
  <path
     style="color:#000000;fill:#94a3b8;stroke-linecap:round;stroke-linejoin:round;-inkscape-stroke:none"
     d="m 8,9.4003906 c -3.4241358,0 -6.3261719,2.2876934 -6.3261719,5.2656254 a 0.60000002,0.60000002 0 0 0 0.5996094,0.601562 0.60000002,0.60000002 0 0 0 0.5996094,-0.601562 c 0,-2.182063 2.2310952,-4.066407 5.1269531,-4.066407 0.6356368,0 1.2437046,0.0922 1.8066406,0.261719 A 0.60000002,0.60000002 0 0 0 10.554688,10.458984 0.60000002,0.60000002 0 0 0 10.152344,9.7128906 C 9.475281,9.5090074 8.7510218,9.4003906 8,9.4003906 Z"
     id="path4" />
</svg>
