<svg width="17" height="16" viewBox="0 0 17 16" fill="none" xmlns="http://www.w3.org/2000/svg">
<path d="M12.3392 9.19402C12.3081 9.17906 11.1416 8.60467 10.9344 8.53007C10.8497 8.49968 10.7591 8.47002 10.6627 8.47002C10.5052 8.47002 10.3729 8.54851 10.2698 8.70269C10.1533 8.87589 9.80054 9.2882 9.69155 9.41137C9.67732 9.42763 9.65789 9.44706 9.64625 9.44706C9.63581 9.44706 9.45529 9.37272 9.40064 9.34898C8.14937 8.80545 7.1996 7.49838 7.06937 7.27796C7.05077 7.24628 7.04999 7.23189 7.04984 7.23189C7.05441 7.21511 7.09649 7.17293 7.1182 7.15116C7.18173 7.0883 7.25056 7.00544 7.31716 6.92529C7.34869 6.88731 7.38028 6.84929 7.41129 6.81344C7.50792 6.70103 7.55093 6.61376 7.6008 6.51267L7.62693 6.46015C7.74869 6.21822 7.64469 6.01407 7.61108 5.94815C7.5835 5.89298 7.09098 4.7043 7.03862 4.57942C6.91269 4.27807 6.7463 4.13776 6.51508 4.13776C6.49363 4.13776 6.51508 4.13776 6.42511 4.14155C6.31555 4.14617 5.71893 4.22472 5.45514 4.391C5.1754 4.56737 4.70215 5.12955 4.70215 6.11822C4.70215 7.00804 5.26682 7.8482 5.50927 8.16773C5.51529 8.17578 5.52636 8.19215 5.54241 8.21563C6.47088 9.57157 7.62833 10.5765 8.80168 11.0452C9.93129 11.4964 10.4662 11.5486 10.7703 11.5486H10.7704C10.8981 11.5486 11.0004 11.5385 11.0907 11.5297L11.1479 11.5242C11.5381 11.4896 12.3957 11.0452 12.5908 10.5032C12.7444 10.0762 12.785 9.6097 12.6827 9.44041C12.6127 9.32529 12.492 9.26737 12.3392 9.19402Z" fill="white"/>
<path d="M8.64201 0C4.30871 0 0.783313 3.49891 0.783313 7.79964C0.783313 9.19065 1.15557 10.5523 1.86077 11.7439L0.511001 15.7255C0.485858 15.7997 0.504559 15.8818 0.559468 15.9377C0.599105 15.9782 0.652871 16 0.70778 16C0.728819 16 0.750014 15.9968 0.770689 15.9902L4.92238 14.671C6.05848 15.278 7.34253 15.5984 8.64207 15.5984C12.9749 15.5984 16.5 12.0999 16.5 7.79964C16.5 3.49891 12.9749 0 8.64201 0ZM8.64201 13.9737C7.41921 13.9737 6.23484 13.6206 5.21677 12.9526C5.18253 12.9301 5.14279 12.9185 5.10279 12.9185C5.08165 12.9185 5.06046 12.9218 5.03983 12.9283L2.96009 13.5894L3.63147 11.6087C3.65318 11.5446 3.64233 11.4739 3.60233 11.4192C2.82705 10.3599 2.41723 9.10831 2.41723 7.79964C2.41723 4.39481 5.20965 1.62473 8.64196 1.62473C12.0739 1.62473 14.866 4.39481 14.866 7.79964C14.866 11.2041 12.074 13.9737 8.64201 13.9737Z" fill="white"/>
</svg>
