<svg width="150" height="24" viewBox="0 0 150 24" fill="none" xmlns="http://www.w3.org/2000/svg">
<g clip-path="url(#clip0_138_51560)">
<path d="M120.602 5.13864V18.9962H123.592V13.3346H129.965V18.9962H132.955V5.13864H129.965V10.8208H123.592V5.13864H120.602Z" fill="#21A049"/>
<path d="M139.687 13.4077H141.546L146.135 18.9962H150L143.883 11.8304L149.228 5.13977H145.791L141.337 11.0777H139.687V5.13977H136.695V18.9962H139.687V13.4077Z" fill="#21A049"/>
<path d="M115.459 18.995H118.607L112.77 5.13864H109.72L103.742 18.995H106.771L107.973 16.2048H114.328L115.459 18.995ZM108.867 13.8931L111.183 8.32977L113.36 13.8931H108.867Z" fill="#21A049"/>
<path d="M97.4883 10.5398H93.8495V7.44575H101.67L101.677 5.13864H90.8594V18.995H97.1023C100.604 18.995 102.613 17.4086 102.613 14.6423C102.613 11.9972 100.793 10.5398 97.4883 10.5398ZM96.9675 16.6879H93.8495V12.8469H96.9675C98.8657 12.8469 99.7497 13.4899 99.7497 14.768C99.7497 16.0734 98.8132 16.6879 96.9675 16.6879Z" fill="#21A049"/>
<path d="M67.0739 7.44575L70.2034 5.13864H59.7266V18.9962H70.2034V16.6891H62.7167V13.1416H69.1035V10.8345H62.7167V7.44575H67.0739Z" fill="#21A049"/>
<path d="M51.8164 10.5398H48.1776V7.44575H53.9854L57.116 5.13864H45.1875V18.9962H51.4304C54.9322 18.9962 56.9401 17.4086 56.9401 14.6423C56.9401 11.9972 55.1206 10.5398 51.8164 10.5398ZM51.2956 16.6879H48.1776V12.8469H51.2956C53.1927 12.8469 54.0767 13.4899 54.0767 14.768C54.0767 16.0734 53.1413 16.6879 51.2956 16.6879Z" fill="#21A049"/>
<path d="M78.6882 5.13864H72.9844V18.995H75.9733V15.0706H78.6882C82.3282 15.0706 84.5896 13.1564 84.5896 10.0978C84.5896 7.03916 82.3282 5.13864 78.6882 5.13864ZM78.622 12.7635H75.9733V7.44575H78.622C80.5385 7.44575 81.5915 8.3903 81.5915 10.1046C81.5915 11.819 80.5373 12.7635 78.622 12.7635Z" fill="#21A049"/>
<path d="M40.0574 15.9958C39.2651 16.425 38.3773 16.6473 37.4762 16.6422C34.7808 16.6422 32.8243 14.7177 32.8243 12.0668C32.8243 9.41592 34.7808 7.49714 37.4762 7.49714C38.4505 7.48296 39.4036 7.7816 40.1956 8.34917L42.3405 6.76845L42.1989 6.64396C40.9426 5.54408 39.2739 4.96274 37.3608 4.96274C35.2856 4.96274 33.4022 5.66172 32.0579 6.93292C30.7136 8.20412 29.9609 10.0087 29.9609 11.996C29.9609 13.9833 30.7033 15.8176 32.051 17.1356C33.3988 18.4536 35.281 19.1846 37.3414 19.1846C39.4966 19.1846 41.3789 18.4331 42.6558 17.0659L40.7198 15.6394L40.0574 15.9958Z" fill="#21A049"/>
<path d="M22.8404 11.9994C22.8406 11.3135 22.7795 10.6289 22.6577 9.95388L20.1987 11.7653C20.1987 11.843 20.1987 11.9218 20.1987 11.9937C20.2014 13.9591 19.5456 15.8687 18.3361 17.4179C17.1266 18.967 15.4331 20.0664 13.5258 20.5405C11.6184 21.0146 9.60725 20.8362 7.81318 20.0336C6.01912 19.2311 4.54558 17.8508 3.62773 16.1129C2.70988 14.375 2.40062 12.3797 2.74931 10.4455C3.09799 8.51133 4.08452 6.74967 5.55146 5.4417C7.0184 4.13372 8.8812 3.35482 10.8426 3.22929C12.8039 3.10377 14.7508 3.63886 16.3725 4.74917L18.594 3.11135C16.5782 1.48467 14.0693 0.591494 11.4791 0.578393C8.8889 0.565293 6.37115 1.43304 4.33902 3.03925C2.3069 4.64546 0.881109 6.89472 0.295613 9.41794C-0.289884 11.9412 -0.000306072 14.5885 1.11683 16.9254C2.23396 19.2624 4.1123 21.1502 6.4436 22.2791C8.77491 23.4081 11.4207 23.711 13.9469 23.1382C16.473 22.5655 18.7294 21.151 20.3459 19.127C21.9623 17.103 22.8427 14.5897 22.8427 11.9994H22.8404Z" fill="#21A049"/>
<path d="M20.4639 5.01642C21.0069 5.71782 21.4669 6.47975 21.8345 7.28698L11.4262 14.9576L7.07812 12.2313V8.95221L11.4262 11.6773L20.4639 5.01642Z" fill="#21A049"/>
</g>
<defs>
<clipPath id="clip0_138_51560">
<rect width="150" height="22.8438" fill="white" transform="translate(0 0.578094)"/>
</clipPath>
</defs>
</svg>
