<svg width="32" height="20" viewBox="0 0 32 20" fill="none" xmlns="http://www.w3.org/2000/svg">
<g clip-path="url(#clip0_2001_6460)">
<path d="M6.25518 0H14.2275C15.3404 0 16.0325 0.907081 15.7729 2.02364L12.0612 17.9593C11.7993 19.072 10.6851 19.9799 9.57142 19.9799H1.59988C0.488568 19.9799 -0.205151 19.072 0.0544592 17.9593L3.7677 2.02364C4.02731 0.907081 5.14095 0 6.25518 0Z" fill="#E21836"/>
<path d="M13.5641 0H22.7321C23.8448 0 23.343 0.907081 23.0813 2.02364L19.3702 17.9593C19.1098 19.072 19.191 19.9799 18.076 19.9799H8.90805C7.79305 19.9799 7.10302 19.072 7.36496 17.9593L11.0759 2.02364C11.3394 0.907081 12.4507 0 13.5641 0Z" fill="#00447C"/>
<path d="M22.3684 0H30.3408C31.4552 0 32.1473 0.907081 31.8856 2.02364L28.1745 17.9593C27.9126 19.072 26.7975 19.9799 25.6833 19.9799H17.7147C16.5997 19.9799 15.9081 19.072 16.1693 17.9593L19.881 2.02364C20.1406 0.907081 21.2534 0 22.3684 0Z" fill="#007B84"/>
<path d="M8.33719 5.10675C7.51736 5.11511 7.27524 5.10675 7.1979 5.08848C7.16817 5.22975 6.61495 7.78174 6.61339 7.78388C6.49427 8.30019 6.40761 8.66823 6.11321 8.90588C5.9461 9.04404 5.751 9.11069 5.52482 9.11069C5.16125 9.11069 4.94944 8.93017 4.91388 8.58778L4.90708 8.47022C4.90708 8.47022 5.01784 7.77864 5.01784 7.77475C5.01784 7.77475 5.59846 5.44914 5.70242 5.14173C5.70786 5.12424 5.70942 5.11511 5.71078 5.10675C4.58062 5.11666 4.38028 5.10675 4.36648 5.08848C4.3589 5.11355 4.33092 5.25774 4.33092 5.25774L3.73805 7.8789L3.68714 8.10121L3.58862 8.82835C3.58862 9.04404 3.63098 9.22009 3.71532 9.36894C3.98542 9.84094 4.7559 9.91167 5.19175 9.91167C5.75334 9.91167 6.28013 9.79236 6.63613 9.57453C7.25406 9.20941 7.41573 8.63869 7.55992 8.13152L7.62676 7.87133C7.62676 7.87133 8.22488 5.45594 8.32651 5.14173C8.33039 5.12424 8.33195 5.11511 8.33719 5.10675ZM10.3722 7.05526C10.2281 7.05526 9.96456 7.09024 9.72788 7.20625C9.64199 7.25036 9.56076 7.30127 9.47507 7.35199L9.55241 7.07275L9.51005 7.02573C9.00812 7.12736 8.8958 7.14096 8.43216 7.20625L8.39329 7.23209C8.33947 7.67844 8.29167 8.01403 8.0921 8.89138C8.01612 9.21473 7.93723 9.54119 7.85814 9.86376L7.87952 9.90476C8.35462 9.87969 8.49881 9.87969 8.91174 9.88649L8.94516 9.85015C8.99763 9.58141 9.00443 9.51845 9.12063 8.97416C9.17523 8.71611 9.2891 8.14909 9.34526 7.94719C9.44845 7.89939 9.55027 7.85236 9.64743 7.85236C9.87886 7.85236 9.85069 8.05426 9.84175 8.13471C9.83184 8.26976 9.7475 8.71086 9.66103 9.08959L9.60332 9.33404C9.56309 9.51456 9.51898 9.69003 9.47876 9.869L9.49625 9.90476C9.96456 9.87969 10.1074 9.87969 10.5073 9.88649L10.5543 9.85015C10.6266 9.43042 10.6478 9.31811 10.776 8.70697L10.8405 8.42618C10.9659 7.87665 11.0288 7.598 10.934 7.37103C10.8337 7.11667 10.5932 7.05526 10.3722 7.05526ZM12.6456 7.63062C12.3967 7.67843 12.2379 7.71029 12.0801 7.73089C11.9237 7.75596 11.7712 7.77869 11.5306 7.81212L11.5116 7.82941L11.4941 7.84321C11.469 8.02237 11.4515 8.17724 11.4183 8.35932C11.3901 8.54761 11.3468 8.76156 11.2762 9.06897C11.2216 9.30429 11.1935 9.38629 11.1624 9.46907C11.1321 9.55185 11.0986 9.6323 11.0372 9.86374L11.0516 9.88511L11.0637 9.90474C11.2885 9.89405 11.4356 9.88647 11.5868 9.88511C11.7378 9.87967 11.8942 9.88511 12.1363 9.88647L12.1575 9.86918L12.1802 9.85013C12.2152 9.64143 12.2204 9.58528 12.2418 9.48345C12.263 9.37425 12.2995 9.22307 12.3891 8.81927C12.4315 8.62962 12.4787 8.44054 12.5226 8.247C12.5683 8.05424 12.6161 7.86439 12.6615 7.67473L12.6547 7.6518L12.6456 7.63062ZM12.6509 6.85486C12.4247 6.72137 12.0277 6.76373 11.7605 6.94814C11.4941 7.12885 11.4638 7.38535 11.6892 7.5206C11.9115 7.6504 12.3101 7.61173 12.5749 7.42577C12.8408 7.24117 12.874 6.987 12.6509 6.85486ZM14.0188 9.94657C14.4764 9.94657 14.9455 9.82046 15.2986 9.4462C15.5703 9.14268 15.6948 8.69108 15.738 8.50512C15.8785 7.88874 15.7691 7.60095 15.6317 7.42567C15.423 7.15849 15.0542 7.07279 14.6715 7.07279C14.4415 7.07279 13.8935 7.09553 13.4654 7.49019C13.158 7.77487 13.0159 8.16117 12.9303 8.53154C12.8438 8.90891 12.7443 9.58825 13.369 9.84106C13.5618 9.92384 13.8397 9.94657 14.0188 9.94657ZM13.9831 8.55972C14.0886 8.09297 14.2131 7.70122 14.5311 7.70122C14.7802 7.70122 14.7982 7.9927 14.6875 8.46101C14.6677 8.56497 14.5767 8.95147 14.4537 9.11605C14.3678 9.2375 14.2662 9.31115 14.1539 9.31115C14.1205 9.31115 13.9217 9.31115 13.9186 9.01598C13.917 8.87024 13.9467 8.72139 13.9831 8.55972ZM16.8819 9.88655L16.9177 9.85021C16.9684 9.58147 16.9768 9.51831 17.0891 8.97422C17.1452 8.71617 17.2614 8.14914 17.316 7.94725C17.4194 7.89925 17.5195 7.85222 17.6198 7.85222C17.8496 7.85222 17.8216 8.05412 17.8125 8.13457C17.8042 8.26982 17.7198 8.71073 17.6318 9.08945L17.5772 9.33391C17.5354 9.51462 17.4899 9.6899 17.4497 9.86906L17.4672 9.90481C17.9371 9.87975 18.0745 9.87975 18.4767 9.88655L18.5253 9.85021C18.5958 9.43029 18.6149 9.31797 18.747 8.70703L18.81 8.42605C18.9359 7.87651 18.9996 7.59805 18.9063 7.37109C18.8032 7.11673 18.561 7.05532 18.3432 7.05532C18.1988 7.05532 17.934 7.09011 17.6986 7.20631C17.6145 7.25042 17.5302 7.30114 17.4474 7.35205L17.5195 7.07281L17.4808 7.02559C16.9791 7.12741 16.8644 7.14102 16.4014 7.20631L16.3658 7.23215C16.3097 7.6785 16.264 8.0139 16.0644 8.89144C15.9884 9.21479 15.9095 9.54124 15.8307 9.86381L15.8518 9.90481C16.3277 9.87975 16.4698 9.87975 16.8819 9.88655ZM20.3341 9.90472C20.3636 9.76053 20.5391 8.90592 20.5407 8.90592C20.5407 8.90592 20.6901 8.27885 20.6992 8.25612C20.6992 8.25612 20.7462 8.19082 20.7933 8.16498H20.8624C21.5152 8.16498 22.2522 8.16498 22.8299 7.74C23.223 7.44853 23.4918 7.01811 23.6117 6.495C23.6428 6.36675 23.6657 6.21421 23.6657 6.06167C23.6657 5.86133 23.6255 5.66312 23.5093 5.50825C23.2147 5.0961 22.628 5.08852 21.9508 5.08541C21.9487 5.08541 21.617 5.08852 21.617 5.08852C20.7501 5.09921 20.4025 5.0961 20.2597 5.07861C20.2476 5.14177 20.2249 5.25408 20.2249 5.25408C20.2249 5.25408 19.9144 6.69321 19.9144 6.69554C19.9144 6.69554 19.1713 9.75529 19.1363 9.89947C19.8932 9.89034 20.2035 9.89034 20.3341 9.90472ZM20.9095 7.34826C20.9095 7.34826 21.2396 5.91205 21.2381 5.91749L21.2488 5.84384L21.2534 5.78768L21.3854 5.80129C21.3854 5.80129 22.0663 5.85977 22.0822 5.86133C22.3509 5.96529 22.4617 6.23326 22.3844 6.58303C22.3138 6.90268 22.1065 7.17143 21.8401 7.30123C21.6207 7.41122 21.3519 7.42035 21.075 7.42035H20.8959L20.9095 7.34826ZM22.9651 8.58632C22.8778 8.95825 22.7775 9.63759 23.3992 9.87971C23.5974 9.96404 23.775 9.98911 23.9555 9.97998C24.1461 9.96968 24.3228 9.87407 24.4864 9.7365C24.4716 9.79304 24.4568 9.84959 24.4421 9.90633L24.4703 9.94267C24.9174 9.92382 25.0561 9.92382 25.5406 9.92751L25.5845 9.89409C25.6552 9.47825 25.7219 9.07445 25.9057 8.27891C25.9953 7.89785 26.0847 7.52048 26.1766 7.14098L26.1622 7.0992C25.662 7.19189 25.5283 7.21171 25.0472 7.27992L25.0107 7.30965C25.0058 7.34832 25.0007 7.38543 24.9961 7.42255C24.9213 7.30168 24.8128 7.1985 24.6455 7.13418C24.4316 7.05004 23.9291 7.15847 23.4971 7.55177C23.1936 7.83256 23.0478 8.21731 22.9651 8.58632ZM24.0155 8.60906C24.1226 8.15066 24.2456 7.7628 24.5643 7.7628C24.7658 7.7628 24.8719 7.94876 24.8503 8.26589C24.8332 8.34498 24.8148 8.42834 24.7928 8.52259C24.761 8.6588 24.7264 8.79385 24.6927 8.9291C24.6585 9.0216 24.6187 9.10885 24.575 9.16695C24.493 9.28315 24.2979 9.35524 24.1856 9.35524C24.1537 9.35524 23.9571 9.35524 23.9503 9.06532C23.9487 8.92094 23.9784 8.77229 24.0155 8.60906ZM29.5013 7.09549L29.4626 7.05138C28.9677 7.15165 28.8781 7.16758 28.4234 7.22899L28.39 7.26241C28.3884 7.26785 28.387 7.2762 28.3847 7.28378L28.3832 7.2762C28.0447 8.05717 28.0546 7.8887 27.779 8.50352C27.7775 8.47554 27.7775 8.45805 27.7759 8.42832L27.7069 7.09549L27.6636 7.05138C27.1451 7.15165 27.1329 7.16758 26.6541 7.22899L26.6168 7.26241C26.6115 7.27834 26.6115 7.29583 26.6084 7.31487L26.6115 7.32168C26.6714 7.62753 26.657 7.55933 26.7171 8.04202C26.745 8.27889 26.7824 8.51712 26.8103 8.75108C26.8576 9.14264 26.884 9.3354 26.9417 9.93293C26.6183 10.4665 26.5418 10.6684 26.2305 11.1367L26.2326 11.1414L26.0134 11.4881C25.9884 11.5246 25.9656 11.5497 25.9338 11.5604C25.8988 11.5776 25.8533 11.5808 25.7902 11.5808H25.6687L25.4882 12.1812L26.1075 12.1919C26.4711 12.1903 26.6996 12.0203 26.8226 11.7918L27.212 11.1245H27.2058L27.2468 11.0775C27.5087 10.5136 29.5013 7.09549 29.5013 7.09549ZM22.965 14.9814H22.7023L23.6747 11.7653H23.9973L24.0997 11.4339L24.1096 11.8024C24.0975 12.0301 24.2767 12.232 24.7473 12.1986H25.2916L25.4789 11.5793H25.2741C25.1564 11.5793 25.1018 11.5496 25.1086 11.4858L25.0987 11.111H24.0907V11.1129C23.7649 11.1197 22.7917 11.1442 22.5947 11.1967C22.3562 11.2581 22.105 11.4388 22.105 11.4388L22.2037 11.1071H21.2609L21.0644 11.7653L20.079 15.0306H19.8878L19.7003 15.6454H21.5782L21.5152 15.8504H22.4406L22.502 15.6454H22.7616L22.965 14.9814ZM22.1946 12.4188C22.0436 12.4605 21.7626 12.5872 21.7626 12.5872L22.0125 11.7653H22.7616L22.5809 12.3642C22.5809 12.3642 22.3494 12.3778 22.1946 12.4188ZM22.2089 13.593C22.2089 13.593 21.9736 13.6226 21.8188 13.6575C21.6662 13.7038 21.3802 13.8495 21.3802 13.8495L21.6382 12.9941H22.3912L22.2089 13.593ZM21.7892 14.989H21.0378L21.2556 14.2671H22.0047L21.7892 14.989ZM23.5988 12.9941H24.682L24.5263 13.4982H23.4288L23.264 14.0493H24.2243L23.4972 15.0732C23.4463 15.1484 23.4006 15.175 23.3499 15.1962C23.299 15.222 23.2321 15.2523 23.1548 15.2523H22.8884L22.7053 15.8559H23.4022C23.7644 15.8559 23.9783 15.6911 24.1363 15.4748L24.6349 14.7924L24.742 15.4853C24.7647 15.6151 24.858 15.6911 24.9212 15.7206C24.9909 15.7556 25.063 15.8156 25.1648 15.8246C25.2741 15.8292 25.3529 15.8329 25.4054 15.8329H25.7478L25.9534 15.1575H25.8183C25.7408 15.1575 25.6073 15.1445 25.5846 15.1202C25.5618 15.0906 25.5618 15.0452 25.5496 14.976L25.441 14.2815H24.9962L25.1913 14.0493H26.2866L26.4551 13.4982H25.441L25.599 12.9941H26.61L26.7975 12.3725H23.7832L23.5988 12.9941ZM14.4506 15.1294L14.7035 14.2884H15.7425L15.9323 13.6628H14.8923L15.0511 13.1452H16.0674L16.2557 12.5395H13.7128L13.5284 13.1452H14.1061L13.952 13.6628H13.3728L13.1808 14.299H13.7583L13.4213 15.4117C13.3759 15.559 13.4427 15.6152 13.4851 15.6836C13.5284 15.7502 13.5723 15.7943 13.671 15.8194C13.7729 15.8421 13.8426 15.8557 13.9374 15.8557H15.1088L15.3175 15.1628L14.7983 15.2341C14.698 15.2341 14.4203 15.2221 14.4506 15.1294ZM14.5698 11.1033L14.3065 11.5792C14.2502 11.6832 14.1994 11.7477 14.1538 11.7774C14.1136 11.8025 14.0339 11.813 13.9185 11.813H13.7811L13.5974 12.4218H14.0537C14.2731 12.4218 14.4416 12.3413 14.522 12.3011C14.6085 12.2548 14.6312 12.2813 14.6981 12.2168L14.8522 12.0833H16.2769L16.466 11.4494H15.4231L15.6052 11.1033H14.5698ZM16.6732 15.1416C16.6489 15.1066 16.6664 15.045 16.7035 14.9168L17.0929 13.6278H18.4782C18.6801 13.6249 18.8259 13.6226 18.9207 13.6158C19.0225 13.6051 19.1333 13.5688 19.254 13.5035C19.3785 13.4351 19.4423 13.363 19.4961 13.2802C19.5561 13.1976 19.6525 13.0169 19.7353 12.7383L20.2248 11.1071L18.7872 11.1155C18.7872 11.1155 18.3445 11.1808 18.1496 11.2529C17.953 11.3333 17.672 11.558 17.672 11.558L17.8018 11.1108H16.9138L15.6705 15.2341C15.6264 15.3942 15.5969 15.5104 15.5901 15.5802C15.5877 15.6554 15.6849 15.7298 15.7479 15.786C15.8223 15.8421 15.9323 15.833 16.0378 15.8421C16.1487 15.8505 16.3065 15.8557 16.5244 15.8557H17.2068L17.4163 15.1484L16.8053 15.2061C16.7401 15.2061 16.6928 15.1711 16.6732 15.1416ZM17.3442 12.7573H18.7992L18.7068 13.0472C18.6937 13.054 18.6626 13.0328 18.5146 13.0503H17.2546L17.3442 12.7573ZM17.6357 11.7849H19.103L18.9975 12.1341C18.9975 12.1341 18.3059 12.1273 18.1951 12.1477C17.7078 12.2321 17.4231 12.4924 17.4231 12.4924L17.6357 11.7849ZM18.7393 14.0181C18.7273 14.0614 18.7082 14.0879 18.6816 14.1077C18.6521 14.1267 18.6043 14.1335 18.533 14.1335H18.3256L18.3379 13.7804H17.4755L17.4405 15.5066C17.4391 15.6311 17.4512 15.7032 17.5423 15.7609C17.6335 15.833 17.9142 15.8422 18.2922 15.8422H18.8326L19.0277 15.1961L18.5572 15.2219L18.4008 15.231C18.3794 15.2219 18.359 15.2135 18.3363 15.1908C18.3165 15.1712 18.2831 15.1832 18.2885 15.0587L18.2922 14.6162L18.7856 14.5958C19.052 14.5958 19.1659 14.5091 19.263 14.4266C19.3557 14.3475 19.386 14.2565 19.421 14.1335L19.5038 13.7418H18.8258L18.7393 14.0181Z" fill="#FEFEFE"/>
</g>
<defs>
<clipPath id="clip0_2001_6460">
<rect width="32" height="20" fill="white"/>
</clipPath>
</defs>
</svg>
