<svg width="68" height="20" viewBox="0 0 68 20" fill="none" xmlns="http://www.w3.org/2000/svg">
<path d="M5.66663 2.16667H11.1666C11.6666 2.16667 13.1666 2 13.8333 4.33333C14.3333 5.83333 15 8.16667 16 11.6667H16.3333C17.3333 8 18.1666 5.5 18.5 4.33333C19.1666 2 20.8333 2.16667 21.5 2.16667H26.6666V18.1667H21.3333V8.66667H21L18.1666 18.1667H14.1666L11.3333 8.66667H10.8333V18.1667H5.66663M28.8333 2.16667H34.1666V11.6667H34.6666L38.1666 3.83333C38.8333 2.33333 40.3333 2.16667 40.3333 2.16667H45.3333V18.1667H40V8.66667H39.6666L36.1666 16.5C35.5 18 33.8333 18.1667 33.8333 18.1667H28.8333M52.5 13.3333V18.1667H47.5V9.83333H63.8333C63.1666 11.8333 60.8333 13.3333 58.1666 13.3333" fill="#0F754E"/>
<path d="M64.1666 8.83317C64.8333 5.83317 62.8333 2.1665 58.5 2.1665H47.1666C47.5 5.6665 50.5 8.83317 53.6666 8.83317" fill="url(#paint0_linear_2001_6435)"/>
<defs>
<linearGradient id="paint0_linear_2001_6435" x1="62.1666" y1="-0.000162629" x2="48.8333" y2="-0.000162629" gradientUnits="userSpaceOnUse">
<stop stop-color="#1F5CD7"/>
<stop offset="1" stop-color="#02AEFF"/>
</linearGradient>
</defs>
</svg>
