<svg width="40" height="20" viewBox="0 0 40 20" fill="none" xmlns="http://www.w3.org/2000/svg">
<g clip-path="url(#clip0_2001_6438)">
<path d="M34.6108 5.70883V10.5985H32.8648V7.1685H31.1836V10.5985H29.4376V5.7085H34.6108V5.70883Z" fill="white"/>
<path fill-rule="evenodd" clip-rule="evenodd" d="M25.8517 10.7736C27.4147 10.7736 28.5754 9.81525 28.5754 8.36242C28.5754 6.95625 27.719 6.04325 26.2879 6.04325C25.6274 6.04325 25.0824 6.27575 24.6719 6.67692C24.7699 5.84775 25.471 5.24242 26.243 5.24242C26.4212 5.24242 27.7625 5.23959 27.7625 5.23959L28.521 3.78809C28.521 3.78809 26.837 3.82642 26.0542 3.82642C24.2655 3.85759 23.0574 5.48342 23.0574 7.45809C23.0574 9.75859 24.2357 10.7736 25.8517 10.7736ZM25.8612 7.32892C26.4415 7.32892 26.8439 7.71025 26.8439 8.36225C26.8439 8.94909 26.4864 9.43259 25.8612 9.43392C25.2632 9.43392 24.8609 8.98592 24.8609 8.37225C24.8609 7.72009 25.2632 7.32892 25.8612 7.32892Z" fill="white"/>
<path d="M21.6362 8.96165C21.6362 8.96165 21.2238 9.19932 20.608 9.24432C19.9 9.26532 19.2692 8.81816 19.2692 8.02365C19.2692 7.24865 19.8258 6.80449 20.5902 6.80449C21.0588 6.80449 21.6788 7.12932 21.6788 7.12932C21.6788 7.12932 22.1325 6.29682 22.3675 5.88049C21.9372 5.55432 21.364 5.37549 20.6973 5.37549C19.0148 5.37549 17.7117 6.47249 17.7117 8.01382C17.7117 9.57482 18.9365 10.6463 20.6973 10.614C21.1895 10.5957 21.8685 10.4228 22.2823 10.157L21.6362 8.96165Z" fill="white"/>
<path d="M0.166626 4.35352L2.58863 8.68268V11.3233L0.169459 15.644L0.166626 4.35352Z" fill="#5B57A2"/>
<path d="M9.46606 7.10725L11.7356 5.71625L16.3802 5.71191L9.46606 9.94758V7.10725Z" fill="#D90751"/>
<path d="M9.45329 4.32783L9.46612 10.0595L7.03845 8.56783V0L9.45329 4.32783Z" fill="#FAB718"/>
<path d="M16.3803 5.71183L11.7355 5.71617L9.45329 4.32783L7.03845 0L16.3803 5.71183Z" fill="#ED6F26"/>
<path d="M9.46612 15.668V12.8872L7.03845 11.4238L7.03979 20.0002L9.46612 15.668Z" fill="#63B22F"/>
<path d="M11.73 14.2897L2.58846 8.68268L0.166626 4.35352L16.3705 14.284L11.73 14.2897Z" fill="#1487C9"/>
<path d="M7.03992 19.9999L9.46592 15.6677L11.7297 14.2894L16.3702 14.2837L7.03992 19.9999Z" fill="#017F36"/>
<path d="M0.169434 15.6439L7.05827 11.4239L4.74227 10.0029L2.5886 11.3233L0.169434 15.6439Z" fill="#984995"/>
<path d="M19.2697 13.8892C19.2163 13.9572 19.1462 14.0086 19.062 14.0432C18.9757 14.0784 18.8833 14.0963 18.79 14.0959C18.6973 14.0971 18.6051 14.0817 18.5178 14.0502C18.4395 14.0218 18.3679 13.9774 18.3075 13.9199C18.2479 13.8623 18.2011 13.7928 18.1702 13.7159C18.1367 13.6317 18.12 13.5417 18.121 13.4511C18.121 13.3611 18.1365 13.2777 18.1687 13.1987C18.1995 13.1196 18.2443 13.0517 18.3005 12.9947C18.3567 12.9366 18.424 12.8922 18.4997 12.8576C18.5768 12.8242 18.661 12.8062 18.7535 12.8062C18.8532 12.8062 18.9457 12.8187 19.0298 12.8436C19.114 12.8686 19.1855 12.9102 19.2443 12.9686L19.142 13.1419C19.0925 13.097 19.0342 13.063 18.9708 13.0419C18.9106 13.0225 18.8477 13.0127 18.7843 13.0129C18.7283 13.0129 18.675 13.0239 18.6232 13.0447C18.5721 13.0653 18.5254 13.0955 18.4857 13.1336C18.4451 13.1728 18.413 13.22 18.3917 13.2722C18.3678 13.3262 18.3567 13.3859 18.3567 13.4524C18.3567 13.5204 18.3692 13.5814 18.393 13.6341C18.417 13.6882 18.4492 13.7341 18.4898 13.7727C18.5305 13.8117 18.5782 13.8407 18.6328 13.8602C18.6877 13.8811 18.7452 13.8907 18.8068 13.8907C18.8825 13.8907 18.9513 13.8754 19.0102 13.8462C19.0685 13.8181 19.1209 13.779 19.1645 13.7312L19.2697 13.8892ZM19.5585 14.0667V12.8326H19.7802V13.7521L20.501 12.8326H20.7227V14.0669H20.501V13.1474L19.7802 14.0669L19.5585 14.0667ZM22.191 13.8892C22.1365 13.9578 22.0649 14.0109 21.9835 14.0432C21.8971 14.0784 21.8046 14.0963 21.7113 14.0959C21.6187 14.0971 21.5265 14.0817 21.4393 14.0502C21.3609 14.0218 21.2893 13.9774 21.2288 13.9199C21.1692 13.8623 21.1225 13.7928 21.0915 13.7159C21.058 13.6317 21.0413 13.5417 21.0423 13.4511C21.0423 13.3611 21.0578 13.2777 21.09 13.1987C21.121 13.1196 21.1658 13.0517 21.2218 12.9947C21.278 12.9366 21.3453 12.8922 21.421 12.8576C21.5009 12.8224 21.5875 12.8049 21.6748 12.8062C21.7745 12.8062 21.867 12.8187 21.9512 12.8436C22.0353 12.8686 22.1068 12.9102 22.1658 12.9686L22.0633 13.1419C22.0139 13.097 21.9557 13.0629 21.8923 13.0419C21.8321 13.0225 21.7692 13.0127 21.7058 13.0129C21.5944 13.0133 21.4874 13.0565 21.407 13.1336C21.3667 13.173 21.3348 13.2202 21.313 13.2722C21.2892 13.3262 21.278 13.3859 21.278 13.4524C21.278 13.5204 21.2907 13.5814 21.3145 13.6341C21.3383 13.6882 21.3705 13.7341 21.4112 13.7727C21.4518 13.8117 21.4997 13.8407 21.5543 13.8602C21.609 13.8796 21.6665 13.8907 21.7282 13.8907C21.804 13.8907 21.8713 13.8754 21.9315 13.8462C21.9898 13.8181 22.0422 13.779 22.0858 13.7312L22.191 13.8892ZM22.3047 12.8326H23.442V13.0517H22.9848V14.0667H22.7632V13.0517H22.306V12.8326H22.3047Z" fill="white"/>
<path fill-rule="evenodd" clip-rule="evenodd" d="M24.4773 14.0547C24.5615 14.0284 24.633 13.988 24.6946 13.9327L24.6273 13.7607C24.5866 13.7969 24.532 13.8274 24.4661 13.8524C24.4001 13.8774 24.3258 13.8897 24.2445 13.8897C24.1225 13.8897 24.0215 13.8579 23.9415 13.7927C23.8616 13.7274 23.8181 13.636 23.8083 13.5194H24.7676C24.7775 13.4764 24.7816 13.4279 24.7816 13.371C24.7816 13.2864 24.7661 13.2102 24.7353 13.1409C24.7066 13.0735 24.6646 13.0127 24.612 12.9619C24.5585 12.9115 24.4956 12.8724 24.4268 12.8469C24.3548 12.8189 24.2782 12.8048 24.201 12.8052C24.0971 12.8052 24.006 12.8232 23.9261 12.8565C23.8506 12.8883 23.7824 12.935 23.7255 12.9939C23.6702 13.0524 23.6277 13.1218 23.6008 13.1977C23.5712 13.2785 23.5564 13.364 23.5573 13.45C23.5573 13.5472 23.5741 13.6359 23.605 13.715C23.635 13.7917 23.6808 13.8612 23.7396 13.9189C23.7971 13.9755 23.8671 14.0187 23.95 14.0492C24.0386 14.0806 24.1322 14.0961 24.2263 14.0949C24.3115 14.0943 24.3961 14.0807 24.4773 14.0547ZM23.9163 13.1047C23.985 13.0424 24.0761 13.0119 24.1911 13.0119C24.2991 13.0119 24.3861 13.041 24.4493 13.0994C24.5125 13.1575 24.546 13.238 24.5516 13.3405H23.7943C23.805 13.2498 23.8484 13.1658 23.9163 13.1047Z" fill="white"/>
<path d="M25.083 12.833H25.285L25.7647 13.4447L26.219 12.833H26.4153V14.0673H26.1938V13.1673L25.7618 13.74H25.7533L25.3047 13.1672V14.0672H25.083V12.833Z" fill="white"/>
<path fill-rule="evenodd" clip-rule="evenodd" d="M27.0184 12.837C26.9511 12.8546 26.8868 12.8821 26.8277 12.9187L26.8865 13.0937C26.937 13.0687 26.9875 13.0478 27.038 13.0298C27.0885 13.0117 27.153 13.0033 27.2302 13.0033C27.2919 13.0033 27.341 13.0132 27.3789 13.0325C27.4167 13.0505 27.4447 13.0783 27.4644 13.1117C27.484 13.145 27.4967 13.1865 27.5037 13.235C27.5107 13.2835 27.5135 13.3362 27.5135 13.3932C27.4682 13.3615 27.4165 13.3402 27.362 13.3307C27.3094 13.3202 27.2559 13.3146 27.2022 13.314C27.1362 13.314 27.0745 13.3238 27.0155 13.3403C26.9567 13.357 26.9062 13.382 26.8655 13.4153C26.824 13.4486 26.7905 13.4907 26.7674 13.5387C26.7427 13.5911 26.7302 13.6485 26.7309 13.7065C26.7309 13.8272 26.766 13.9215 26.836 13.9882C26.9062 14.0547 26.9987 14.0878 27.1137 14.0878C27.2175 14.0878 27.3004 14.0698 27.3634 14.0338C27.4265 13.9977 27.477 13.9562 27.5135 13.909V14.0685H27.721V13.3113C27.721 13.1503 27.686 13.0257 27.6145 12.9382C27.5444 12.8508 27.4195 12.8065 27.2429 12.8065C27.1642 12.8065 27.0899 12.8175 27.0184 12.837ZM27.3889 13.837C27.3384 13.873 27.2724 13.8895 27.191 13.8895C27.1195 13.8895 27.0634 13.8715 27.0242 13.8368C26.9849 13.8008 26.9652 13.7537 26.9652 13.6953C26.9652 13.6608 26.9722 13.6317 26.9877 13.6053C27.0032 13.579 27.0242 13.5582 27.048 13.5415C27.0741 13.5241 27.103 13.5114 27.1335 13.504C27.1659 13.4957 27.198 13.4915 27.2317 13.4915C27.3412 13.4915 27.435 13.5178 27.5122 13.5733V13.73C27.4758 13.7707 27.4344 13.8068 27.3889 13.837ZM29.6777 12.3987C29.7225 12.378 29.7645 12.3433 29.8039 12.292L29.6832 12.1187C29.6524 12.1603 29.6174 12.1893 29.578 12.2047C29.5363 12.2209 29.4931 12.233 29.449 12.2407L29.407 12.2482C29.3705 12.2545 29.3314 12.2615 29.2892 12.2685C29.2216 12.281 29.1557 12.3015 29.0929 12.3295C28.9932 12.3725 28.9134 12.4307 28.853 12.5042C28.7927 12.5777 28.745 12.6608 28.7127 12.7525C28.6799 12.8453 28.6579 12.9416 28.6469 13.0395C28.6355 13.1395 28.63 13.235 28.63 13.3265C28.63 13.4445 28.6454 13.5512 28.6762 13.6468C28.7072 13.7427 28.7505 13.823 28.808 13.8882C28.8655 13.9548 28.9344 14.0048 29.0157 14.0408C29.097 14.0768 29.1882 14.0948 29.2905 14.0948C29.3845 14.0948 29.4715 14.0768 29.55 14.0435C29.6257 14.0115 29.6943 13.9648 29.752 13.9063C29.808 13.8493 29.853 13.7813 29.8839 13.7052C29.916 13.6288 29.9315 13.547 29.9315 13.461C29.9315 13.3682 29.9175 13.2837 29.8909 13.2087C29.8663 13.1372 29.8271 13.0715 29.7759 13.016C29.7245 12.9614 29.6617 12.9187 29.592 12.891C29.5153 12.8607 29.4334 12.8457 29.3509 12.8467C29.2975 12.8467 29.2457 12.8537 29.1952 12.8675C29.1461 12.8813 29.0989 12.9014 29.0549 12.9272C29.0121 12.9516 28.973 12.9819 28.9385 13.0172C28.9049 13.052 28.8769 13.0908 28.8572 13.1352H28.8515C28.8559 13.0783 28.8629 13.0202 28.8754 12.9605C28.888 12.9008 28.9062 12.8438 28.9302 12.7898C28.954 12.7358 28.9849 12.6872 29.0227 12.6428C29.0633 12.5981 29.113 12.5626 29.1685 12.5388C29.2296 12.5097 29.2942 12.4888 29.3607 12.4765L29.4047 12.4685C29.4485 12.4605 29.4904 12.4528 29.5304 12.4445C29.5837 12.4335 29.6327 12.4193 29.6777 12.3987ZM28.8979 13.5845C28.8762 13.5145 28.8658 13.4414 28.867 13.3682C28.8764 13.3261 28.8935 13.2861 28.9175 13.2503C28.9414 13.2128 28.9722 13.1797 29.0087 13.1503C29.0911 13.0858 29.1929 13.0511 29.2975 13.052C29.428 13.052 29.5262 13.0922 29.5949 13.1713C29.6637 13.2517 29.6974 13.3515 29.6974 13.4722C29.6974 13.5318 29.686 13.586 29.6665 13.6358C29.6476 13.685 29.6189 13.7298 29.5823 13.7677C29.5457 13.8056 29.5019 13.8357 29.4534 13.8563C29.4029 13.8785 29.348 13.8897 29.2864 13.8897C29.2247 13.8897 29.1685 13.8772 29.1167 13.8522C29.0652 13.8277 29.0197 13.7922 28.9834 13.7482C28.9454 13.6991 28.9164 13.6437 28.8979 13.5845ZM31.6314 12.8328H31.4097V14.0672H31.6314V12.8328ZM30.2512 12.8328H30.4729V13.2032H30.6777C30.7744 13.2032 30.8529 13.2157 30.916 13.2392C30.9792 13.2628 31.0297 13.2947 31.0675 13.3335C31.1054 13.3723 31.132 13.4182 31.1475 13.4693C31.1629 13.5207 31.1714 13.5733 31.1714 13.6288C31.1714 13.6843 31.1629 13.7372 31.1447 13.7898C31.1279 13.8425 31.0984 13.8882 31.059 13.9298C31.0199 13.9715 30.9665 14.0048 30.8992 14.0298C30.8319 14.0547 30.7505 14.0685 30.6524 14.0685H30.2499V12.8328H30.2512ZM30.4729 13.4097V13.8618H30.6342C30.745 13.8618 30.8235 13.8425 30.8684 13.8035C30.9134 13.7647 30.9357 13.7093 30.9357 13.6358C30.9357 13.5608 30.9119 13.5042 30.867 13.4652C30.8207 13.4263 30.7435 13.4068 30.637 13.4068H30.4729V13.4097Z" fill="white"/>
<path d="M33.0971 13.8892C33.0437 13.9572 32.9736 14.0086 32.8894 14.0432C32.803 14.0784 32.7106 14.0963 32.6174 14.0959C32.5247 14.0972 32.4325 14.0817 32.3452 14.0502C32.2669 14.0218 32.1952 13.9774 32.1349 13.9199C32.0753 13.8623 32.0285 13.7928 31.9974 13.7159C31.9641 13.6316 31.9474 13.5417 31.9484 13.4511C31.9484 13.3611 31.9637 13.2777 31.9961 13.1987C32.0269 13.1196 32.0717 13.0517 32.1279 12.9947C32.1841 12.9366 32.2512 12.8922 32.3271 12.8576C32.407 12.8224 32.4936 12.8048 32.5809 12.8062C32.6804 12.8062 32.7731 12.8187 32.8572 12.8436C32.9414 12.8686 33.0129 12.9102 33.0717 12.9686L32.9694 13.1419C32.9199 13.097 32.8616 13.063 32.7982 13.0419C32.738 13.0225 32.675 13.0127 32.6117 13.0129C32.5557 13.0129 32.5024 13.0239 32.4504 13.0447C32.3994 13.0653 32.3528 13.0955 32.3131 13.1336C32.2727 13.173 32.2408 13.2202 32.2191 13.2722C32.1952 13.3262 32.1841 13.3859 32.1841 13.4524C32.1841 13.5204 32.1966 13.5814 32.2204 13.6341C32.2442 13.6882 32.2766 13.7341 32.3172 13.7727C32.3579 13.8117 32.4056 13.8407 32.4602 13.8602C32.5151 13.8796 32.5726 13.8907 32.6342 13.8907C32.7099 13.8907 32.7772 13.8754 32.8376 13.8462C32.8959 13.8181 32.9483 13.779 32.9919 13.7312L33.0971 13.8892ZM33.2106 12.8326H34.3481V13.0517H33.8907V14.0667H33.6692V13.0517H33.2121V12.8326H33.2106Z" fill="white"/>
<path fill-rule="evenodd" clip-rule="evenodd" d="M34.8109 12.8331H34.5892V14.6164H34.8109V14.0104C34.8557 14.0396 34.9091 14.0604 34.9707 14.0743C35.0324 14.0881 35.0969 14.0949 35.1629 14.0949C35.2611 14.0949 35.3494 14.0769 35.4294 14.0438C35.5061 14.0109 35.5757 13.9634 35.6341 13.9038C35.6916 13.8439 35.7351 13.7746 35.7659 13.6928C35.7967 13.6111 35.8122 13.5236 35.8122 13.4308C35.8122 13.3391 35.7982 13.2546 35.7716 13.1783C35.7465 13.1058 35.7074 13.0389 35.6566 12.9814C35.6067 12.9254 35.5448 12.8813 35.4756 12.8524C35.3999 12.8199 35.3181 12.8038 35.2357 12.8053C35.1489 12.8053 35.0676 12.8219 34.9904 12.8553C34.9132 12.8886 34.8529 12.9286 34.8109 12.9786V12.8331ZM34.9652 13.0619C35.0284 13.0286 35.0971 13.0119 35.1714 13.0119C35.2359 13.0119 35.2934 13.0216 35.3454 13.0424C35.3959 13.0633 35.4379 13.0924 35.4731 13.1313C35.5081 13.1701 35.5347 13.2146 35.5516 13.2671C35.5697 13.3198 35.5782 13.3768 35.5782 13.4391C35.5782 13.5058 35.5669 13.5653 35.5474 13.6208C35.529 13.6734 35.4998 13.7216 35.4617 13.7623C35.4235 13.8025 35.3771 13.8341 35.3257 13.8551C35.2685 13.8791 35.2068 13.8909 35.1447 13.8898C35.0846 13.8898 35.0284 13.8829 34.9751 13.8691C34.9167 13.8532 34.8613 13.8279 34.8111 13.7941V13.1824C34.8502 13.1354 34.9022 13.0953 34.9652 13.0619ZM37.5121 12.8329H37.2904V14.0673H37.5121V12.8329ZM36.1306 12.8329H36.3522V13.2033H36.5569C36.6537 13.2033 36.7322 13.2158 36.7954 13.2393C36.8586 13.2629 36.9091 13.2948 36.9469 13.3336C36.9847 13.3724 37.0114 13.4183 37.0267 13.4694C37.0422 13.5208 37.0506 13.5734 37.0506 13.6289C37.0506 13.6844 37.0422 13.7373 37.0241 13.7899C37.0072 13.8426 36.9777 13.8883 36.9384 13.9299C36.8992 13.9716 36.8459 14.0049 36.7786 14.0299C36.7112 14.0548 36.6299 14.0686 36.5317 14.0686H36.1292V12.8329H36.1306ZM36.3537 13.4098V13.8619H36.5151C36.6257 13.8619 36.7044 13.8426 36.7492 13.8036C36.7941 13.7648 36.8166 13.7094 36.8166 13.6359C36.8166 13.5609 36.7927 13.5043 36.7479 13.4653C36.7016 13.4264 36.6244 13.4069 36.5179 13.4069H36.3537V13.4098Z" fill="white"/>
<path d="M38.5752 13.428L39.0492 14.0673H38.7772L38.411 13.568L38.0394 14.0673H37.7814L38.2525 13.439L37.8094 12.833H38.0815L38.4195 13.299L38.763 12.833H39.0212L38.5752 13.428ZM19.1057 15.5928H18.4255V16.6218H18.2039V15.3877H19.3272V16.6218H19.1057V15.5928ZM20.5852 15.6067H20.1477L20.1335 15.8147C20.1182 15.9908 20.0972 16.1323 20.0677 16.2403C20.0382 16.3487 20.0017 16.4318 19.9597 16.49C19.9177 16.5483 19.8685 16.5885 19.8124 16.608C19.7544 16.629 19.6931 16.6394 19.6315 16.6385L19.6147 16.4248C19.6385 16.4262 19.6665 16.4207 19.6974 16.4068C19.7284 16.393 19.7592 16.3625 19.7885 16.3168C19.818 16.2695 19.8447 16.203 19.8685 16.117C19.8924 16.0297 19.9079 15.916 19.9162 15.773L19.9387 15.3888H20.8069V16.6232H20.5852V15.6067Z" fill="white"/>
<path fill-rule="evenodd" clip-rule="evenodd" d="M21.4044 15.3904C21.3327 15.4097 21.2682 15.4374 21.2135 15.472L21.2725 15.6469C21.323 15.6219 21.3735 15.601 21.4239 15.583C21.4744 15.565 21.539 15.5567 21.616 15.5567C21.6779 15.5567 21.7269 15.5664 21.7647 15.5857C21.8027 15.6039 21.8307 15.6315 21.8504 15.6649C21.8699 15.6982 21.8825 15.7399 21.8895 15.7882C21.8965 15.8369 21.8994 15.8895 21.8994 15.9464C21.854 15.9148 21.8023 15.8935 21.7479 15.884C21.6952 15.8736 21.6417 15.868 21.588 15.8674C21.5222 15.8674 21.4604 15.877 21.4015 15.8937C21.3425 15.9104 21.292 15.9354 21.2514 15.9687C21.2098 16.002 21.1763 16.0441 21.1532 16.092C21.1285 16.1445 21.1161 16.2019 21.1169 16.2599C21.1169 16.3804 21.1519 16.4749 21.222 16.5414C21.292 16.6079 21.3847 16.6412 21.4997 16.6412C21.6035 16.6412 21.6862 16.6232 21.7494 16.587C21.8124 16.551 21.8629 16.5094 21.8994 16.4622V16.6217H22.107V15.8645C22.107 15.7037 22.0719 15.5789 22.0004 15.4915C21.9302 15.404 21.8054 15.3599 21.6287 15.3599C21.5529 15.3599 21.4774 15.3703 21.4044 15.3904ZM21.776 16.39C21.7257 16.4262 21.6597 16.4429 21.5784 16.4429C21.5054 16.4429 21.4507 16.4249 21.4115 16.39C21.3722 16.354 21.3525 16.3069 21.3525 16.2487C21.3525 16.214 21.3595 16.1849 21.375 16.1585C21.3904 16.1322 21.4115 16.1114 21.4354 16.0947C21.4592 16.078 21.4885 16.0655 21.5209 16.0572C21.5529 16.0489 21.5859 16.0448 21.619 16.0449C21.7284 16.0449 21.8224 16.0712 21.8995 16.1265V16.2832C21.8631 16.3239 21.8216 16.3599 21.776 16.39Z" fill="white"/>
<path d="M22.3242 15.3872H23.4617V15.6062H23.0044V16.6214H22.7829V15.6064H22.3257V15.3872H22.3242Z" fill="white"/>
<path fill-rule="evenodd" clip-rule="evenodd" d="M24.4969 16.609C24.581 16.5827 24.6525 16.5423 24.7142 16.487L24.6469 16.315C24.6062 16.3512 24.5515 16.3817 24.4855 16.4067C24.4197 16.4317 24.3454 16.444 24.264 16.444C24.142 16.444 24.041 16.4122 23.961 16.347C23.881 16.2818 23.8377 16.1903 23.8279 16.0737H24.7872C24.7969 16.0308 24.8012 15.9822 24.8012 15.9253C24.8012 15.8408 24.7857 15.7645 24.7549 15.6952C24.7261 15.6279 24.6841 15.567 24.6314 15.5163C24.578 15.4659 24.5151 15.4268 24.4464 15.4012C24.3744 15.3733 24.2977 15.3591 24.2205 15.3595C24.1167 15.3595 24.0255 15.3775 23.9457 15.4108C23.8702 15.4425 23.8019 15.4893 23.745 15.5482C23.6898 15.6068 23.6473 15.6762 23.6202 15.752C23.5906 15.8328 23.5759 15.9183 23.5767 16.0043C23.5767 16.1015 23.5935 16.1902 23.6244 16.2693C23.6554 16.3483 23.7015 16.4163 23.759 16.4732C23.8165 16.53 23.8867 16.573 23.9695 16.6035C24.0581 16.635 24.1516 16.6505 24.2457 16.6493C24.3285 16.6493 24.4127 16.6353 24.4969 16.609ZM23.9345 15.6577C24.0032 15.5953 24.0944 15.5648 24.2094 15.5648C24.3189 15.5648 24.4044 15.5953 24.4675 15.6522C24.5305 15.7105 24.5642 15.7908 24.5699 15.8935H23.8125C23.8232 15.8027 23.8666 15.7189 23.9345 15.6577ZM24.9092 15.3873H25.1897L25.6174 15.9823L25.1602 16.6215H24.8882L25.3677 15.9822L24.9092 15.3873ZM25.672 15.3873H25.8937V16.6215H25.672V15.3873ZM26.686 16.6215L26.198 15.9822L26.6539 15.3872H26.3789L25.9484 15.9822L26.4112 16.6215H26.686ZM27.6987 16.609C27.7829 16.5827 27.8544 16.5423 27.916 16.487L27.8487 16.315C27.808 16.3512 27.7534 16.3817 27.6875 16.4067C27.6215 16.4317 27.5472 16.444 27.4659 16.444C27.3439 16.444 27.2429 16.4122 27.1629 16.347C27.083 16.2818 27.0395 16.1903 27.0297 16.0737H27.989C27.9989 16.0308 28.003 15.9822 28.003 15.9253C28.003 15.8408 27.9877 15.7645 27.9567 15.6952C27.928 15.6279 27.886 15.5671 27.8334 15.5163C27.78 15.4659 27.717 15.4268 27.6482 15.4012C27.5762 15.3732 27.4996 15.3591 27.4224 15.3595C27.3187 15.3595 27.2275 15.3775 27.1475 15.4108C27.0721 15.4426 27.0039 15.4893 26.947 15.5482C26.8917 15.6067 26.8491 15.6761 26.8222 15.752C26.7926 15.8328 26.7778 15.9183 26.7787 16.0043C26.7787 16.1015 26.7955 16.1902 26.8264 16.2693C26.8572 16.3483 26.9035 16.4163 26.961 16.4732C27.0185 16.53 27.0885 16.573 27.1714 16.6035C27.26 16.635 27.3536 16.6505 27.4477 16.6493C27.5329 16.6487 27.6176 16.6351 27.6987 16.609ZM27.1364 15.6577C27.2052 15.5953 27.2964 15.5648 27.4114 15.5648C27.5194 15.5648 27.6062 15.5953 27.6694 15.6522C27.7325 15.7105 27.7662 15.7908 27.7717 15.8935H27.0144C27.0251 15.8027 27.0684 15.7189 27.1364 15.6577ZM28.9022 14.9727C28.7717 14.9727 28.7002 14.9005 28.689 14.7563H28.48C28.48 14.8117 28.4899 14.8617 28.508 14.9088C28.5264 14.956 28.553 14.9962 28.588 15.0295C28.623 15.0628 28.668 15.0892 28.7199 15.1098C28.7717 15.1307 28.832 15.1403 28.9007 15.1403C28.9639 15.1403 29.02 15.1307 29.0705 15.1098C29.121 15.0905 29.163 15.0628 29.1995 15.0295C29.2345 14.9962 29.2627 14.956 29.2822 14.9088C29.3019 14.8617 29.3117 14.8117 29.3117 14.7563H29.1042C29.0944 14.9005 29.0255 14.9727 28.9022 14.9727ZM28.3032 15.3872V16.6215H28.5249L29.2457 15.702V16.6215H29.4674V15.3872H29.2457L28.5249 16.3067V15.3872H28.3032Z" fill="white"/>
</g>
<defs>
<clipPath id="clip0_2001_6438">
<rect width="39.8333" height="20" fill="white" transform="translate(0.166626)"/>
</clipPath>
</defs>
</svg>
