<svg width="150" height="42" viewBox="0 0 150 42" fill="none" xmlns="http://www.w3.org/2000/svg">
<g clip-path="url(#clip0_138_51573)">
<path d="M45.6245 19.682L46.1893 17.7992L44.2437 17.8619C44.0554 17.8619 42.863 17.7992 41.7333 16.9833C41.796 16.9833 41.9215 16.9833 41.9843 16.9833C43.1768 16.9833 44.3692 16.2301 44.8086 15.226L45.6245 13.3431C44.5575 13.3431 43.6161 13.2176 43.6161 13.2176C43.6161 13.2176 42.863 13.0921 41.9843 12.2134C41.3567 11.5858 40.6036 11.2092 39.7249 11.2092C39.3483 11.2092 39.0345 11.272 38.7207 11.3975C38.7835 11.272 38.7835 11.0837 38.8462 10.9582C39.0973 9.20086 37.9676 7.88286 37.9676 7.88286L36.5241 6.06278L35.5826 8.19667C35.5826 8.19667 35.3316 8.69876 34.955 8.94981C34.8295 8.32219 34.5157 7.63182 33.8881 6.94144C32.6328 5.68621 31.1266 5.43517 30.3734 5.43517C29.9969 5.43517 29.7458 5.49793 29.6831 5.49793L27.9257 5.87449C28.0513 5.49793 28.2395 4.80755 28.6161 4.17993L29.6203 2.6109L27.1726 2.86194L26.3567 1.10462L24.8504 1.92052L23.4697 0.539764L22.0889 1.92052L20.5826 1.10462L19.8295 2.79918L17.3818 2.48537L18.386 4.05441C18.7626 4.68203 19.0136 5.3724 19.0764 5.74897L17.3818 5.43517H17.319C17.2563 5.43517 17.0052 5.3724 16.6287 5.3724C15.8755 5.3724 14.3692 5.56069 13.114 6.87868C12.4864 7.56906 12.1726 8.25943 12.0471 8.88705C11.6077 8.636 11.4195 8.13391 11.4195 8.13391L10.478 5.93726L8.97176 7.75734C8.78348 8.00839 7.90481 9.26362 8.15586 10.8327C8.15586 11.0209 8.21862 11.1465 8.28138 11.272C7.96757 11.2092 7.65377 11.0837 7.2772 11.0837C6.4613 11.0837 5.6454 11.3975 5.01778 12.0879C4.13912 12.9665 3.38598 13.0921 3.38598 13.0921C3.38598 13.0921 2.57008 13.2176 1.37761 13.2176L2.19352 15.1004C2.63285 16.1674 3.82532 16.8578 5.01778 16.8578C5.08055 16.8578 5.20606 16.8578 5.26883 16.8578C4.07636 17.7364 2.88389 17.7364 2.75837 17.7364L0.75 17.6737L1.37761 19.5565C1.69142 20.5607 2.6956 22.1925 4.64121 22.318C4.45293 23.1967 3.95084 24.2009 2.94665 24.6402L1.44038 25.2678L2.25628 26.7113C2.69561 27.4645 3.76255 28.4059 5.33159 28.4059C5.6454 28.4059 5.95921 28.3431 6.27301 28.2804C6.33578 28.6569 6.4613 28.9707 6.58682 29.3473C7.02615 30.7281 6.64959 31.6695 6.64959 31.6695L5.89644 33.2385L7.52824 33.6779C7.52824 33.6779 8.03034 33.8034 8.65795 33.8034C8.909 33.8034 9.22281 33.8034 9.47385 33.7406C9.66214 33.6779 9.85042 33.6151 10.0387 33.5523C10.227 33.9289 10.478 34.3055 10.7918 34.6193C11.8588 35.6862 13.3023 36.2511 15.1851 36.2511H16.5031L13.7416 37.4435L15.8755 38.4477C16.6287 38.8243 17.5701 39.2636 18.4487 39.6402L18.1977 40.3933L18.9508 40.7071C19.0136 40.7071 20.3943 41.3975 22.7165 41.523C22.7165 41.523 23.2814 41.523 23.5952 41.523C23.909 41.523 24.4738 41.523 24.4738 41.523C26.796 41.3975 28.1768 40.7699 28.2395 40.7071L28.9927 40.3933L28.7416 39.6402C29.6831 39.2636 30.6245 38.8243 31.3776 38.4477L33.4487 37.4435L30.6872 36.2511H32.068C33.9508 36.2511 35.4571 35.6862 36.4613 34.6193C36.7751 34.3055 37.0261 33.9289 37.2144 33.5523C37.4027 33.6151 37.591 33.6779 37.7793 33.7406C38.0303 33.8034 38.2814 33.8034 38.5952 33.8034C39.2228 33.8034 39.7249 33.6779 39.7249 33.6779L41.3567 33.2385L40.6663 31.7322C40.6663 31.6695 40.227 30.7281 40.7291 29.3473C40.8546 28.9707 40.9174 28.6569 41.0429 28.2804C41.3567 28.3431 41.6705 28.4059 41.9843 28.4059C43.9299 28.4059 44.8713 27.0251 45.0596 26.7113L45.8755 25.3306L44.3692 24.703C43.3651 24.2636 42.863 23.2594 42.6747 22.3808C44.2437 22.318 45.3107 20.6862 45.6245 19.682Z" fill="#FFFFFE"/>
<path d="M23.4032 6.31381C21.8341 6.31381 20.6417 6.8159 20.3906 7.44352L23.4032 8.63599L26.4157 7.44352C26.1647 6.8159 24.9722 6.31381 23.4032 6.31381Z" fill="#FFFFFE"/>
<path d="M23.4686 38.0084C22.4644 38.0084 21.1464 37.8201 20.5188 37.6318L19.7656 39.703C20.2677 39.8913 21.9623 40.2051 23.4686 40.2051C24.9748 40.2051 26.6694 39.8913 27.1715 39.703L26.4183 37.6318C25.728 37.8201 24.41 38.0084 23.4686 38.0084Z" fill="#FFFFFE"/>
<path d="M29.1826 35.9373C28.6177 36.2511 27.3625 36.7532 26.6094 36.9414L27.237 38.636C28.3667 38.3222 29.3081 37.9456 30.0613 37.5691L28.806 37.1297L29.1826 35.9373Z" fill="#FFFFFE"/>
<path d="M17.6365 35.9373L18.013 37.1925L16.7578 37.6318C17.511 38.0084 18.4524 38.385 19.5821 38.6988L20.2097 37.0042C19.4566 36.7532 18.2013 36.2511 17.6365 35.9373Z" fill="#FFFFFE"/>
<path d="M23.4048 4.36822C24.5972 4.36822 25.7269 4.68203 26.6683 5.18412C26.7311 4.93308 26.8566 4.55651 27.0449 4.2427L26.7311 4.30546L26.3545 4.36822L26.229 4.05442L25.7897 3.11299L24.9738 3.55232L24.66 3.74061L24.4089 3.48956L23.5303 2.6109L22.6516 3.48956L22.4006 3.74061L22.0868 3.55232L21.2709 3.11299L20.8315 4.05442L20.706 4.36822L20.3294 4.30546L20.0156 4.2427C20.1411 4.61927 20.2667 4.93308 20.3922 5.18412C21.0826 4.61927 22.2123 4.36822 23.4048 4.36822Z" fill="#FFFFFE"/>
<path d="M41.4808 15.477C41.6063 15.5398 41.7946 15.5398 41.9201 15.5398C42.6105 15.5398 43.2381 15.1004 43.4891 14.5983C43.4891 14.5983 42.2339 14.5356 40.9159 13.1548C40.4766 12.7155 40.0373 12.59 39.6607 12.59C39.0958 12.59 38.5938 12.9038 38.5938 12.9038C40.2883 13.7824 40.6021 15.1632 41.4808 15.477Z" fill="#FFFFFE"/>
<path d="M4.82711 15.5398C4.95263 15.5398 5.14091 15.5398 5.26643 15.477C6.20786 15.1632 6.52166 13.7824 8.0907 12.9665C8.0907 12.9665 7.65137 12.6527 7.02376 12.6527C6.64719 12.6527 6.20786 12.7783 5.76853 13.2176C4.45054 14.5983 3.19531 14.6611 3.19531 14.6611C3.50912 15.1004 4.19949 15.5398 4.82711 15.5398Z" fill="#FFFFFE"/>
<path d="M41.0463 25.3306C39.7911 24.703 39.038 23.0712 38.8497 22.5063C38.6614 25.7071 37.0923 27.9665 35.2723 30.1632C34.3308 31.2929 34.017 32.3599 34.017 32.3599C34.017 32.3599 34.2053 31.1046 35.0212 30.1004C36.7158 28.0293 38.3476 25.4561 38.4731 22.5063C38.5359 20.4352 38.0338 18.7406 37.2179 17.3599C37.6572 18.8034 37.5944 20.5607 36.0254 22.2553C36.0254 22.2553 39.1635 18.4896 34.7702 14.5983C33.0128 13.1548 31.13 12.2134 30.1258 11.5858C33.7032 12.7783 35.3978 11.4603 35.3978 11.4603C34.2681 12.4645 32.7618 12.4645 31.8831 12.2762C32.1342 12.4017 32.3852 12.5272 32.6363 12.6527C35.6488 14.2845 38.3476 16.9833 38.7869 20.749C39.4773 24.3891 41.0463 25.3306 41.0463 25.3306ZM41.925 21.0628H41.9877C43.6823 21.0628 44.2472 19.2427 44.2472 19.2427H44.1844C43.8706 19.2427 41.3601 19.1799 39.6028 16.9205C38.4731 15.4142 37.4689 14.159 35.6488 13.5942L35.4605 13.5314L35.3978 13.3431C35.335 13.0293 35.5233 12.7783 35.9626 12.4645C38.5359 10.7699 36.7785 8.57324 36.7785 8.57324C36.7785 8.57324 36.0254 10.3306 34.3936 10.3306C34.3308 10.3306 34.3308 10.3306 34.2681 10.3306C34.0798 10.3306 33.8915 10.3306 33.7032 10.2678L33.3894 10.205C33.3894 10.205 33.8915 8.88705 32.699 7.75734C31.8204 6.87868 30.8162 6.6904 30.1886 6.6904C29.8748 6.6904 29.6865 6.75316 29.6865 6.75316C30.2513 7.5063 30.6907 8.76153 30.0003 9.51467C29.4354 10.205 28.0547 10.205 28.0547 11.2092C28.0547 11.6486 28.4313 12.0879 29.1216 12.5272C31.1928 13.8452 33.2639 15.6025 34.1426 17.9875C35.2095 20.9373 34.017 22.8829 32.2597 24.0126C32.2597 24.0126 32.8246 24.5147 33.5777 24.5774C33.766 24.5774 33.8915 24.5774 34.017 24.5774C35.7116 24.5774 36.5275 23.7615 36.5275 23.7615C36.5275 23.7615 36.402 24.8285 35.5233 25.8327C34.7074 26.7741 33.7032 27.3389 32.0714 27.3389C32.0714 27.3389 32.0087 28.0921 32.699 28.7197C33.1384 29.159 34.2053 29.2845 34.2053 29.2845C34.2053 29.2845 32.2597 29.6611 32.0087 32.6109C31.8831 34.1799 31.5066 34.7448 31.5066 34.7448H31.5693C36.1509 34.7448 36.0254 30.7908 36.0254 30.7908C36.0254 30.7908 36.3392 31.9833 37.5944 32.2343C37.72 32.2971 37.9082 32.2971 38.0965 32.2971C38.5359 32.2971 38.8497 32.1716 38.8497 32.1716C38.8497 32.1716 38.1593 30.7281 38.8497 28.7824C39.4145 27.1507 39.289 25.8954 39.289 25.8954C39.289 25.8954 39.9166 26.8368 41.4229 26.8368C42.6781 26.8368 43.243 25.8954 43.243 25.8954C40.2304 24.6402 40.4815 20.4979 40.4815 20.4979C40.4815 20.4979 41.1718 21 41.925 21.0628Z" fill="#FFFFFE"/>
<path d="M11.6093 30.1632C9.78919 28.0293 8.22015 25.7699 8.03187 22.5063C7.84358 23.0712 7.09045 24.703 5.83522 25.3306C5.83522 25.3306 7.40425 24.3891 8.09462 20.6862C8.53395 16.9205 11.2327 14.2218 14.2453 12.59C14.4963 12.4645 14.8101 12.3389 14.9984 12.2134C14.057 12.3389 12.6135 12.4017 11.4838 11.3975C11.4838 11.3975 13.2411 12.7155 16.7557 11.523C15.7515 12.1506 13.8687 13.0921 12.1114 14.5356C7.71806 18.4268 10.8561 22.1925 10.8561 22.1925C9.2871 20.5607 9.22433 18.7406 9.66366 17.2971C8.84776 18.6778 8.28291 20.3724 8.40843 22.4435C8.53395 25.3933 10.1658 27.9666 11.8603 30.0377C12.6762 31.0419 12.8645 32.2971 12.8645 32.2971C12.8645 32.2971 12.5507 31.2302 11.6093 30.1632ZM12.2997 29.4101C12.2997 29.4101 13.3666 29.2845 13.8059 28.8452C14.4963 28.2176 14.4335 27.4645 14.4335 27.4645C12.8017 27.4645 11.7976 26.8996 10.9817 25.9582C10.103 24.954 9.97747 23.8871 9.97747 23.8871C9.97747 23.8871 10.8561 24.703 12.4879 24.703C12.6135 24.703 12.8017 24.703 12.9273 24.703C13.7432 24.6402 14.2453 24.1381 14.2453 24.1381C12.4879 23.0084 11.2955 21.0628 12.3624 18.113C13.2411 15.7281 15.3122 13.9707 17.3833 12.6527C18.0737 12.2134 18.4503 11.7113 18.4503 11.3347C18.4503 10.3306 17.0695 10.3306 16.5047 9.64019C15.8143 8.88705 16.2536 7.63182 16.8185 6.87868C16.8185 6.87868 16.6302 6.81592 16.3164 6.81592C15.6888 6.81592 14.6846 6.94144 13.8059 7.88286C12.6762 9.07533 13.1155 10.3306 13.1155 10.3306L12.8017 10.3933C12.6135 10.4561 12.4252 10.4561 12.2369 10.4561C12.1741 10.4561 12.1741 10.4561 12.1114 10.4561C10.4796 10.4561 9.72643 8.69876 9.72643 8.69876C9.72643 8.69876 7.96911 10.8954 10.5423 12.59C10.9817 12.9038 11.1699 13.1548 11.1072 13.4686L11.0444 13.6569L10.8561 13.7197C8.97329 14.2218 8.03187 15.5398 6.90216 17.046C5.14484 19.3055 2.63438 19.3682 2.32057 19.3682H2.25781C2.25781 19.3682 2.82266 21.1883 4.51722 21.1883H4.57999C5.33312 21.1883 5.77245 20.8745 5.77245 20.8745C5.77245 20.8745 6.08626 24.954 3.01095 26.272C3.01095 26.272 3.5758 27.2134 4.83103 27.2134C6.3373 27.2134 6.96492 26.272 6.96492 26.272C6.96492 26.272 6.90216 27.4645 7.40425 29.159C8.09463 31.1674 7.40425 32.5481 7.40425 32.5481C7.40425 32.5481 7.78082 32.6737 8.15739 32.6737C8.34567 32.6737 8.4712 32.6737 8.65948 32.6109C9.91471 32.2971 10.2285 31.1674 10.2285 31.1674C10.2285 31.1674 10.103 35.1214 14.6846 35.1214H14.7473C14.7473 35.1214 14.3708 34.5565 14.2453 32.9875C14.308 29.8494 12.2997 29.4101 12.2997 29.4101Z" fill="#FFFFFE"/>
<path d="M22.4053 14.9121H24.5392V15.6653C24.2881 15.3515 23.786 15.4142 23.786 15.4142V16.4812C23.786 16.4812 23.786 16.9833 23.9743 17.2343H22.9074C23.0956 16.9833 23.0956 16.4812 23.0956 16.4812V15.4142C23.0956 15.4142 22.5936 15.3515 22.3425 15.6653V14.9121H22.4053ZM20.0203 15.0377C20.0831 15.1004 20.1458 15.226 20.2086 15.2887L20.2714 15.3515C20.3341 15.4142 20.3969 15.5398 20.4597 15.6025C20.4597 15.6025 20.4597 15.6653 20.5224 15.6653C20.5852 15.7908 20.6479 15.9163 20.7735 16.0419C21.4011 17.1716 22.468 17.8619 23.4095 17.8619C24.3509 17.8619 25.4178 17.1716 26.0454 16.0419C26.1082 15.9163 26.171 15.7908 26.2965 15.6653C26.2965 15.6653 26.2965 15.6025 26.3592 15.6025C26.422 15.477 26.4848 15.4142 26.5475 15.2887C26.5475 15.2887 26.5475 15.226 26.6103 15.226C26.673 15.1632 26.7358 15.0377 26.8613 14.9749C26.8613 14.9749 26.8613 14.9749 26.9241 14.9121C27.2379 14.5356 27.6772 14.2845 28.1793 14.159L27.9283 14.0335L26.9869 13.4686L26.0454 12.9038L23.535 14.2845L21.0245 12.9038L20.0831 13.4686L19.1417 14.0335L18.8906 14.159C19.2672 14.4101 19.6438 14.6611 20.0203 15.0377Z" fill="#FFFFFE"/>
<path d="M22.5948 10.2051V10.8954L22.4693 10.8327C22.4693 10.8327 22.281 10.7699 21.9044 10.5189C21.3396 10.0795 21.3396 9.70296 21.3396 9.70296L22.5948 10.2051ZM23.2224 13.4687V9.13811L20.4609 8.19669L21.2141 12.4017L23.2224 13.4687Z" fill="#FFFFFE"/>
<path d="M24.2211 10.2051L25.4763 9.70296C25.4763 9.70296 25.4763 10.0795 24.9115 10.5189C24.5977 10.7699 24.3466 10.8327 24.3466 10.8327L24.2211 10.8954V10.2051ZM25.6646 12.4017L26.4178 8.19669L23.6562 9.13811V13.4687L25.6646 12.4017Z" fill="#FFFFFE"/>
<path d="M19.3293 23.5732C19.5803 23.6988 19.8941 23.6988 20.0824 23.6988V23.636C20.0824 23.5732 20.0824 23.5105 20.1452 23.5105C20.2079 23.2594 20.2079 23.0084 20.2079 22.8201C20.0824 22.7573 19.9569 22.6318 19.8314 22.4435C19.7059 22.2553 19.5803 22.1297 19.392 22.1297C19.141 22.1297 18.8272 22.318 18.7017 22.3808C18.5761 22.8829 19.0155 23.4477 19.3293 23.5732Z" fill="#FFFFFE"/>
<path d="M25.3563 21.2511C24.8542 21.8159 23.8501 22.7573 23.7873 22.8201L23.7245 22.8829L20.5865 22.8201C20.5865 23.1339 20.5237 23.385 20.4609 23.5732C20.4609 23.636 20.4609 23.636 20.4609 23.6988L24.2266 24.3891C24.6032 24.1381 25.6701 23.3222 26.1095 23.0084C25.7957 22.5691 25.7957 22.0042 25.8584 21.6904C25.6701 21.5649 25.4819 21.3766 25.3563 21.2511Z" fill="#FFFFFE"/>
<path d="M25.7882 17.4226C25.035 18.1758 24.3446 18.4268 23.717 18.4896C23.5915 18.4896 23.466 18.4896 23.4032 18.4896C23.2777 18.4896 23.1522 18.4896 23.0894 18.4896C22.9639 18.4896 22.8384 18.4896 22.7756 18.4268C22.7128 18.6151 22.7128 18.9289 22.8384 19.2427C22.9639 19.5565 23.2149 19.7448 23.6543 19.8703L23.7798 19.9331V20.0586C23.7798 20.1214 23.8425 21 24.784 21.3138C24.9723 21.1256 25.0978 21 25.2233 20.8745C25.035 20.3724 25.0978 19.8703 25.4116 19.682C25.4116 19.7448 25.2861 20.9373 26.2275 21.3766L26.4158 21.4394L26.353 21.6276C26.353 21.6904 26.0392 22.8829 27.1689 23.3222L27.3572 23.385L27.2944 23.5733C27.2944 23.636 26.7923 24.703 27.922 25.2678H30.2442V23.385C29.4283 23.2594 29.0517 22.6318 28.989 22.1297C28.6124 22.067 28.2986 21.8787 28.1103 21.6276C27.6082 21 28.0476 20.3724 28.0476 20.3724C28.0476 20.3724 28.0476 21 28.4241 21.3766C28.6124 21.5649 28.8635 21.6904 29.1773 21.7532H29.3656V21.9415C29.3656 22.0042 29.4911 22.8201 30.2442 22.9456V19.1172C30.2442 18.5523 30.4325 17.9247 30.6208 17.3599H25.7882" fill="#FFFFFE"/>
<path d="M19.5159 19.1799L19.4531 21.6276H19.7042L20.3945 19.3055L20.018 18.6151L19.5159 19.1799Z" fill="#FFFFFE"/>
<path d="M20.9559 28.2176C20.8931 28.2176 20.8304 28.1548 20.8304 28.0921C20.8304 28.0293 20.8931 27.9666 20.9559 27.9666C21.0187 27.9666 21.0814 28.0293 21.0814 28.0921C21.0814 28.1548 21.0187 28.2176 20.9559 28.2176ZM26.9182 30.3515H26.981C27.4203 30.477 27.4831 31.9833 28.2362 32.1088C28.299 32.1088 28.3618 32.1088 28.4245 32.1088C28.6128 32.1088 28.7383 32.0461 28.9266 31.8578C28.9266 31.8578 28.55 31.2929 28.299 30.8536C27.9224 30.3515 27.6714 29.7239 26.981 29.7239H26.9182C26.6672 29.7239 26.5417 29.8494 26.5417 29.8494C26.2906 29.6611 25.9768 29.5984 25.7885 29.5984C25.3492 29.5984 25.0354 29.7866 24.8471 29.7866L23.3408 29.6611C23.0898 29.6611 22.9015 29.4101 22.8387 29.2846V29.2218C22.8387 29.159 22.8387 29.159 22.8387 29.0963C22.776 27.841 21.8346 27.2762 21.458 27.2762C21.458 27.2762 21.5208 27.0251 21.3952 26.9624L21.0814 27.4017L19.9517 26.8369L20.7676 27.7783L20.0772 28.5314C20.0145 28.5942 20.0145 28.7197 20.0145 28.7825L20.3283 29.0335L20.7049 28.7825H20.7676C20.8931 28.7825 21.0187 28.7825 21.1442 28.7825C21.2697 28.7825 21.3952 28.7197 21.458 28.5942C21.3952 29.0335 20.9559 29.8494 21.2697 30.477L21.458 30.9791L20.14 30.7908L19.5124 31.8578C19.3241 32.2343 19.2613 32.6109 19.4496 32.7992L19.7007 33.113C19.7007 33.113 20.0145 32.7364 20.0772 32.5482L19.9517 32.4226C19.889 32.2971 19.889 32.2343 19.9517 32.1088L20.3283 31.4184L21.8973 31.795L21.9601 31.6695C22.0856 31.4812 22.2111 31.4184 22.3994 31.4184C22.4622 31.4184 22.5249 31.4184 22.5877 31.4184C22.9015 31.4812 23.3408 31.544 23.8429 31.544C24.345 31.544 24.9099 31.4184 25.1609 31.1046C25.7258 31.9833 26.9182 32.1088 26.7927 32.5482L26.4789 34.0544C26.6672 34.0544 26.8555 34.0544 27.0438 33.9917L27.3576 32.4854C27.4203 32.2971 27.4203 32.1088 27.4203 32.1088C27.2948 31.9833 27.0438 31.7323 26.8555 31.4812C26.6672 31.1046 26.73 30.8536 26.5417 30.3515C26.73 30.477 26.7927 30.3515 26.9182 30.3515Z" fill="#FFFFFE"/>
<path d="M18.7628 31.7322C18.7628 31.7322 19.2649 31.544 19.3277 31.3557L19.2649 31.1674C19.2022 31.0419 19.2022 30.9163 19.3277 30.8536L19.8925 30.477L20.834 30.6653C20.834 30.6653 20.6457 30.477 20.7084 30.1632L19.8298 29.9749L18.9511 30.477C18.5745 30.7281 18.5746 31.2301 18.7001 31.4812L18.7628 31.7322Z" fill="#FFFFFE"/>
<path d="M25.5391 34.2427C25.7273 34.2427 25.9156 34.2427 26.1039 34.2427C26.1039 34.2427 26.606 32.7992 26.606 32.7364C26.355 32.6109 25.7901 32.2971 25.5391 32.1716C25.6646 32.3599 26.0412 32.6109 25.9784 32.8619L25.5391 34.2427Z" fill="#FFFFFE"/>
<path d="M30.1815 25.7072H16.625V30.8536C16.625 32.9247 18.1313 34.2427 20.3279 34.2427C22.2108 34.2427 22.6501 34.3055 23.3405 34.9959C23.8426 34.4938 24.2191 34.3682 25.035 34.2427V34.18L25.4744 32.862L24.784 32.0461C24.533 32.1088 24.2819 32.1716 23.9053 32.1716C23.5288 32.1716 23.0267 32.1088 22.5873 32.0461C22.5246 32.0461 22.4618 32.0461 22.4618 32.0461C22.3991 32.0461 22.3991 32.0461 22.3991 32.1088L22.3363 32.2344L22.2108 32.4854L21.897 32.4226L20.579 32.1088L20.3907 32.4226V32.4854L20.579 32.6737L20.5162 32.9247C20.3907 33.2385 20.1396 33.5523 20.0141 33.6779L19.7003 34.0544L19.3865 33.6779L19.1355 33.4268C18.8844 33.1758 18.8217 32.7364 19.0099 32.3599L18.6334 32.4854L18.4451 32.1088L18.3196 31.8578C18.1313 31.4185 18.194 30.7281 18.7589 30.3515L19.8258 29.7867L20.83 29.9749C20.83 29.8494 20.8928 29.5356 20.8928 29.4728H20.83L20.2652 29.6611L19.7003 29.2846C19.7003 29.2846 19.512 29.0963 19.7003 28.8452L20.2652 28.0293L18.8844 26.3348L20.9555 27.2134L21.0811 27.0251L21.3321 26.7113L21.6459 27.0251C21.7087 27.0879 21.7714 27.2134 21.8342 27.339C22.3991 27.59 23.466 28.2176 23.5288 29.2846L23.215 29.4101C23.2777 29.4728 23.3405 29.5356 23.3405 29.5356L24.8468 29.6611C24.9095 29.6611 24.9095 29.6611 24.9723 29.5984C25.1606 29.5356 25.4116 29.4728 25.7882 29.4728C26.0392 29.4728 26.2903 29.5356 26.5413 29.6611C26.6041 29.5984 26.7296 29.5984 26.8551 29.5984H26.9179C27.7338 29.5984 28.1104 30.226 28.4242 30.6653C28.4869 30.7281 28.5497 30.8536 28.6124 30.9164C28.8635 31.2929 29.2401 31.9205 29.2401 31.9205L29.4284 32.1716L29.2401 32.4226C29.1145 32.6109 28.8635 32.7992 28.4242 32.7992C28.3614 32.7992 28.2359 32.7992 28.1731 32.7992C28.1104 32.7992 27.9848 32.7364 27.9221 32.7364C27.9221 32.7992 27.9221 32.9247 27.8593 32.9875L27.6083 34.3682C29.1773 33.9917 30.1815 32.7992 30.1815 31.1046V25.7072Z" fill="#FFE52B"/>
<path d="M16.6263 25.2678H27.1702C26.6682 24.703 26.6681 24.0126 26.7937 23.5732C26.6681 23.5105 26.5426 23.385 26.4171 23.3222C25.9778 23.636 24.7225 24.5774 24.4087 24.7657L24.346 24.8285L20.2037 24.0753H20.141C20.0154 24.0753 19.8899 24.0753 19.7644 24.0753C19.7016 24.2636 19.5761 24.3891 19.3878 24.3891H19.3251C19.1995 24.3891 19.1368 24.3264 19.074 24.2009C19.0112 24.1381 19.0112 24.0126 19.0112 23.8871V23.8243C18.5719 23.5105 18.1953 22.8201 18.3836 22.1297V22.067L18.4464 22.0042C18.4464 22.0042 18.5092 21.9414 18.6347 21.8787L18.3209 21.8159C18.1953 21.8159 18.1326 21.6904 18.1326 21.5649C18.1326 21.4394 18.2581 21.3766 18.3836 21.3766L19.074 21.5021L19.1368 18.9917L20.2037 17.862L20.8941 19.2427L20.2037 21.6904L20.8313 21.8159C20.9568 21.8159 21.0196 21.9414 21.0196 22.067C21.0196 22.1925 20.8941 22.2553 20.8313 22.2553C20.8313 22.2553 20.8313 22.2553 20.7686 22.2553L20.2665 22.1925C20.2665 22.1925 20.2665 22.1925 20.2665 22.2553C20.3292 22.3808 20.4548 22.4435 20.5175 22.5063L23.6556 22.5691C23.7811 22.4435 24.0949 22.1297 24.4715 21.7532C23.7184 21.4394 23.4045 20.8117 23.3418 20.3097C22.9025 20.1214 22.5887 19.8703 22.4631 19.4937C22.2748 19.0544 22.3376 18.6151 22.4004 18.364C21.961 18.2385 21.5217 17.9247 21.0824 17.4854H16.3125C16.5008 18.0502 16.6891 18.6151 16.6891 19.2427V25.2678" fill="#FFE52B"/>
<path d="M20.9615 27.9038C20.8987 27.9038 20.8359 27.9665 20.8359 28.0293C20.8359 28.0921 20.8987 28.1548 20.9615 28.1548C21.0242 28.1548 21.087 28.0921 21.087 28.0293C21.087 27.9665 21.087 27.9038 20.9615 27.9038Z" fill="#1A1919"/>
<path d="M27.2343 38.6988L26.6067 37.0042C27.3598 36.7532 28.6151 36.3138 29.1799 36L28.8033 37.2553L30.0586 37.6946C29.3054 38.0084 28.364 38.385 27.2343 38.6988ZM23.4059 40.205C21.8996 40.205 20.205 39.8285 19.7029 39.703L20.4561 37.6318C21.0837 37.8201 22.4017 38.0084 23.3431 38.0084H23.4059C24.3473 38.0084 25.6653 37.8201 26.2929 37.6318L27.046 39.703C26.6067 39.8912 24.9121 40.205 23.4059 40.205ZM16.6904 37.6318L17.9456 37.1925L17.569 35.9373C18.1339 36.2511 19.3891 36.7532 20.1423 36.9414L19.5146 38.636C18.4477 38.385 17.5063 38.0084 16.6904 37.6318ZM30.1841 37.2553L29.431 36.9414L29.6192 36.1255L29.8703 35.2469C29.8703 35.2469 28.4895 36 26.5439 36.5649C25.9791 36.7532 25.6025 36.8159 25.6025 36.8159V37.4435C25.6025 37.4435 24.5356 37.6318 23.5314 37.6318H23.4686C22.4017 37.6318 21.3975 37.4435 21.3975 37.4435V36.8159C21.3975 36.8159 20.9582 36.7532 20.4561 36.5649C18.5105 36 17.1297 35.2469 17.1297 35.2469L17.3808 36.1255L17.6318 36.9414L16.8787 37.2553L16 37.5691C17.0042 38.0712 18.3849 38.7615 19.6402 39.0753L19.3264 39.8912C19.3264 39.8912 20.8954 40.6444 23.5941 40.6444H23.6569C26.2929 40.6444 27.9247 39.8912 27.9247 39.8912L27.6109 39.0753C28.8661 38.6988 30.2469 38.0084 31.251 37.5691L30.1841 37.2553Z" fill="#1A1919"/>
<path d="M20.1456 4.17992L20.5222 4.24269L20.6477 3.92888L21.087 2.98746L21.9029 3.42679L22.2167 3.61507L23.3464 2.48536L24.2251 3.36402L24.4761 3.61507L24.7899 3.42679L25.6058 2.98746L26.0452 3.92888L26.1707 4.24269L26.5473 4.17992L26.8611 4.11716C26.7356 4.49373 26.61 4.80754 26.4845 5.05858C25.6058 4.55649 24.4134 4.24269 23.2209 4.24269C22.0284 4.24269 20.8987 4.55649 19.9573 5.05858C19.8946 4.80754 19.769 4.43097 19.5807 4.11716L20.1456 4.17992ZM23.4092 4.8703C24.9782 4.8703 26.2962 5.37239 26.9866 5.93725C26.9866 5.93725 27.1749 4.68202 27.928 3.55231L26.6728 3.67783L25.9824 2.23432L24.7272 2.92469L23.472 1.66946L22.2167 2.92469L20.8987 2.23432L20.2084 3.67783L18.9531 3.55231C19.6435 4.68202 19.8945 5.93725 19.8945 5.93725C20.5849 5.37239 21.8402 4.8703 23.4092 4.8703Z" fill="#1A1919"/>
<path d="M43.4875 26.0837C43.4875 26.0837 42.9227 27.0251 41.6674 27.0251C40.1612 27.0251 39.5335 26.0837 39.5335 26.0837C39.5335 26.0837 39.5963 27.2762 39.0942 28.9707C38.4038 30.9791 39.0942 32.3598 39.0942 32.3598C39.0942 32.3598 38.7176 32.4854 38.3411 32.4854C38.2155 32.4854 38.0273 32.4854 37.839 32.4226C36.5838 32.1088 36.2699 30.9791 36.2699 30.9791C36.2699 30.9791 36.3955 34.9331 31.8139 34.9331H31.7511C31.7511 34.9331 32.1277 34.3682 32.2532 32.7992C32.4415 29.8494 34.4499 29.4728 34.4499 29.4728C34.4499 29.4728 33.3829 29.3473 32.9436 28.908C32.2532 28.2803 32.2532 27.5272 32.2532 27.5272C33.885 27.5272 34.8892 26.9624 35.7051 26.0209C36.5838 25.0168 36.7093 23.9498 36.7093 23.9498C36.7093 23.9498 35.8306 24.7657 34.1988 24.7657C34.0733 24.7657 33.885 24.7657 33.7595 24.7657C32.9436 24.7029 32.4415 24.2008 32.4415 24.2008C34.1988 23.0711 35.3913 21.1255 34.3243 18.1757C33.4457 15.7908 31.3745 14.0335 29.3034 12.7155C28.613 12.2762 28.2365 11.7741 28.2365 11.3975C28.2365 10.3933 29.6172 10.3933 30.1821 9.70294C30.8725 8.9498 30.4331 7.69457 29.8683 6.94143C29.8683 6.94143 30.0566 6.87867 30.3704 6.87867C30.998 6.87867 32.0022 7.0042 32.8808 7.94562C34.0105 9.13809 33.5712 10.3933 33.5712 10.3933L33.885 10.4561C34.0733 10.5188 34.2616 10.5188 34.4499 10.5188C34.5126 10.5188 34.5126 10.5188 34.5754 10.5188C36.2072 10.5188 36.9603 8.76152 36.9603 8.76152C36.9603 8.76152 38.7176 10.9582 36.1444 12.6527C35.7051 12.9665 35.5168 13.2176 35.5796 13.5314L35.6423 13.7197L35.8306 13.7824C37.7135 14.2845 38.6549 15.6025 39.7846 17.1088C41.5419 19.3682 44.0524 19.431 44.3662 19.431H44.4289C44.4289 19.431 43.8641 21.2511 42.1695 21.2511H42.1068C41.3536 21.2511 40.9143 20.9373 40.9143 20.9373C40.9143 20.9373 40.475 24.8285 43.4875 26.0837ZM42.044 21.6276C44.1151 21.6276 44.8055 19.4937 44.8055 19.431L45.0566 18.6778H44.3034C44.0524 18.6778 41.793 18.6151 40.1612 16.5439L40.0356 16.3557C38.9687 15.0377 37.9645 13.7197 36.2072 13.1548C36.2699 13.0921 36.3327 13.0293 36.4582 12.9665C37.3996 12.3389 37.9645 11.5858 38.09 10.7071C38.2783 9.38913 37.4624 8.32219 37.3996 8.25943L36.8348 7.56905L36.4582 8.38495C36.4582 8.44771 35.8306 9.7657 34.5754 9.7657H34.4499C34.3871 9.7657 34.2616 9.7657 34.1988 9.7657C34.2616 9.13809 34.136 8.25942 33.3202 7.38076C32.316 6.31382 31.0607 6.18829 30.4331 6.18829C30.0566 6.18829 29.8683 6.25106 29.8055 6.25106L28.9268 6.43934L29.4289 7.12972C29.8683 7.69457 30.2448 8.69876 29.8055 9.20085C29.68 9.38913 29.3662 9.51465 29.1151 9.64018C28.5503 9.89122 27.7344 10.2678 27.7344 11.272C27.7344 11.8996 28.2365 12.5272 29.0524 13.0921C31.6256 14.7239 33.1946 16.4184 33.885 18.2385C34.952 21.1255 33.5712 22.7573 32.2532 23.636L31.6256 24.0126L32.1277 24.5147C32.1904 24.5774 32.8181 25.1423 33.7595 25.205C33.9478 25.205 34.136 25.205 34.2616 25.205C34.8892 25.205 35.3913 25.0795 35.8306 24.954C35.7051 25.1423 35.5796 25.3933 35.3913 25.5816C34.6381 26.4603 33.6967 26.8996 32.316 26.8996H31.8139L31.7511 27.4017C31.7511 27.5272 31.6884 28.4686 32.567 29.2218C32.6925 29.3473 32.8808 29.4728 33.0063 29.5356C32.3787 30.1004 31.8139 31.0419 31.6884 32.6737C31.5628 34.0544 31.249 34.5565 31.249 34.5565L30.6842 35.4352H31.6884C33.3202 35.4352 34.6381 34.9958 35.5168 34.0544C36.0189 33.4896 36.3327 32.9247 36.521 32.3598C36.8348 32.6109 37.2114 32.7992 37.6507 32.9247C37.839 32.9875 38.0273 32.9875 38.2783 32.9875C38.7176 32.9875 39.157 32.8619 39.157 32.8619L39.7846 32.6737L39.4708 32.046C39.4708 31.9833 38.9059 30.7908 39.4708 29.0962C39.7218 28.3431 39.8473 27.7155 39.9101 27.1506C40.2867 27.3389 40.8515 27.5272 41.5419 27.5272C43.1109 27.5272 43.8013 26.3347 43.8641 26.272L44.1779 25.7071L43.7386 25.5816C41.8557 24.7657 41.4164 22.6946 41.3536 21.5021C41.5419 21.5649 41.7302 21.5649 41.9185 21.5649L42.044 21.6276Z" fill="#1A1919"/>
<path d="M39.7276 12.59C40.1042 12.59 40.5435 12.7155 40.9829 13.1548C42.3009 14.5356 43.5561 14.5983 43.5561 14.5983C43.305 15.1004 42.6774 15.5398 41.9871 15.5398C41.8615 15.5398 41.6732 15.5398 41.5477 15.477C40.6063 15.1632 40.2925 13.7824 38.7235 12.9665C38.6607 12.9038 39.1 12.59 39.7276 12.59ZM38.4096 13.4059C39.1628 13.8452 39.6021 14.3473 40.0415 14.8494C40.418 15.3515 40.7946 15.7908 41.3594 15.9791C41.5477 16.0419 41.7988 16.1046 41.9871 16.1046C42.8657 16.1046 43.6816 15.6025 44.0582 14.8494L44.372 14.0962L43.5561 14.0335C43.4933 14.0335 42.4891 13.908 41.3594 12.7783C40.9201 12.2762 40.3553 12.0251 39.7276 12.0251C38.9745 12.0251 38.4096 12.4017 38.3469 12.4644L37.5938 12.9665L38.4096 13.4059Z" fill="#1A1919"/>
<path d="M38.7861 20.6862C38.3468 16.9833 35.648 14.2845 32.6355 12.6527C32.3844 12.5272 32.0706 12.4017 31.8823 12.2762C32.8237 12.4017 34.2673 12.4645 35.397 11.4603C35.397 11.4603 33.6396 12.7783 30.125 11.5858C31.1292 12.2134 33.012 13.1548 34.7694 14.5983C39.1627 18.4896 36.0246 22.2552 36.0246 22.2552C37.5936 20.6234 37.6564 18.8034 37.2171 17.3598C38.033 18.7406 38.5978 20.4352 38.4723 22.5063C38.3468 25.4561 36.715 28.0293 35.0204 30.1004C34.2045 31.1046 34.0162 32.3599 34.0162 32.3599C34.0162 32.3599 34.33 31.2929 35.2714 30.1632C37.0915 28.0293 38.6606 25.7699 38.8489 22.5063C39.0371 23.0711 39.7903 24.7029 41.0455 25.3306C41.0455 25.3306 39.4765 24.3891 38.7861 20.6862Z" fill="#1A1919"/>
<path d="M15 34.8703C10.4184 34.8703 10.5439 30.9163 10.5439 30.9163C10.5439 30.9163 10.2301 32.1088 8.97486 32.3599C8.78658 32.4854 8.66106 32.4854 8.47277 32.4854C8.03344 32.4854 7.71964 32.3599 7.71964 32.3599C7.71964 32.3599 8.41001 30.9163 7.71964 28.9707C7.15478 27.3389 7.28031 26.0837 7.28031 26.0837C7.28031 26.0837 6.65269 27.0251 5.14641 27.0251C3.89118 27.0251 3.32633 26.0837 3.32633 26.0837C6.33888 24.8285 6.08783 20.6862 6.08783 20.6862C6.08783 20.6862 5.71127 21 4.89537 21H4.8326C3.13804 21 2.57319 19.1799 2.57319 19.1799H2.63595C2.94976 19.1799 5.46022 19.1172 7.21754 16.8578C8.34725 15.3515 9.35143 14.0963 11.1715 13.5314L11.3598 13.4686L11.4226 13.2804C11.4853 12.9666 11.297 12.7155 10.8577 12.4017C8.28449 10.7071 10.0418 8.51048 10.0418 8.51048C10.0418 8.51048 10.7949 10.2678 12.4267 10.2678C12.4895 10.2678 12.4895 10.2678 12.5523 10.2678C12.7406 10.2678 12.9288 10.2678 13.1171 10.205L13.4309 10.1423C13.4309 10.1423 12.9288 8.82429 14.1213 7.69458C15 6.81592 16.0042 6.62764 16.6318 6.62764C16.9456 6.62764 17.1339 6.6904 17.1339 6.6904C16.569 7.44354 16.1297 8.69877 16.8201 9.45191C17.3849 10.1423 18.7657 10.1423 18.7657 11.1465C18.7657 11.5858 18.3891 12.0251 17.6987 12.4645C15.6276 13.7825 13.5565 15.5398 12.6778 17.9247C11.6108 20.8745 12.8033 22.8201 14.5606 23.9498C14.5606 23.9498 13.9958 24.4519 13.2426 24.5147C13.0544 24.5147 12.9288 24.5147 12.8033 24.5147C11.1088 24.5147 10.2929 23.6988 10.2929 23.6988C10.2929 23.6988 10.4184 24.7657 11.297 25.7699C12.1129 26.7113 13.1799 27.2762 14.7489 27.2762C14.7489 27.2762 14.8117 28.0293 14.1213 28.6569C13.682 29.0963 12.615 29.2218 12.615 29.2218C12.615 29.2218 14.5606 29.5984 14.8117 32.5481C14.6234 34.3055 15 34.8703 15 34.8703ZM15.5021 34.5565C15.5021 34.5565 15.1883 34.0544 15.0627 32.6737C14.9372 31.0419 14.3096 30.1004 13.7447 29.5356C13.933 29.4728 14.0585 29.3473 14.1841 29.2218C15.0627 28.4686 15.0627 27.5272 15.0627 27.4645L15 26.9624H14.4979C13.1799 26.9624 12.2385 26.523 11.4226 25.6444C11.2343 25.4561 11.1088 25.205 10.9832 25.0168C11.4226 25.1423 11.9247 25.2678 12.5523 25.2678C12.7406 25.2678 12.8661 25.2678 13.0544 25.2678C13.9958 25.205 14.6234 24.6402 14.6862 24.5774L15.1883 24.0753L14.5606 23.6988C13.2426 22.8201 11.8619 21.1883 12.9288 18.3013C13.6192 16.4184 15.1883 14.7239 17.7615 13.1548C18.6401 12.59 19.0795 11.9624 19.0795 11.3348C19.0795 10.3933 18.2636 10.0168 17.6987 9.70295C17.3849 9.57743 17.1339 9.45191 17.0083 9.26362C16.569 8.76153 16.9456 7.75734 17.3849 7.19249L17.9498 6.50211L17.0711 6.31383C17.0711 6.31383 16.8201 6.25107 16.4435 6.25107C15.8159 6.25107 14.5606 6.43935 13.5565 7.44354C12.7406 8.3222 12.615 9.26362 12.6778 9.82848C12.615 9.82848 12.4895 9.82848 12.4267 9.82848H12.364C11.1088 9.82848 10.4811 8.44772 10.4811 8.44772L10.1046 7.63182L9.53971 8.3222C9.47695 8.38496 8.66106 9.45191 8.84934 10.7699C8.97487 11.6486 9.53971 12.4017 10.4811 13.0293C10.6067 13.0921 10.6694 13.1548 10.7322 13.2176C8.97487 13.7825 7.97068 15.1004 6.90373 16.4184L6.77821 16.6067C5.14641 18.6779 2.88699 18.7406 2.63595 18.7406H1.88281L2.13385 19.4937C2.13385 19.5565 2.82424 21.6904 4.89537 21.6904H5.02089C5.20917 21.6904 5.46021 21.6276 5.58574 21.6276C5.52298 22.7573 5.08365 24.8912 3.20081 25.7071L2.63595 25.9582L2.94976 26.523C2.94976 26.5858 3.70289 27.7783 5.27193 27.7783C5.96231 27.7783 6.52716 27.59 6.90373 27.4017C6.96649 27.9038 7.09202 28.5942 7.34306 29.3473C7.90792 31.0419 7.40582 32.2971 7.34306 32.2971L7.02925 32.9247L7.65687 33.113C7.71963 33.113 8.09621 33.2385 8.53554 33.2385C8.72382 33.2385 8.97487 33.2385 9.16315 33.1758C9.66524 33.0502 10.0418 32.862 10.2929 32.6109C10.4811 33.1758 10.7949 33.7406 11.297 34.3055C12.1757 35.2469 13.4309 35.6862 15.1255 35.6862H16.1297L15.5021 34.5565Z" fill="#1A1919"/>
<path d="M5.83469 13.1548C6.27402 12.7155 6.71336 12.59 7.08992 12.59C7.65478 12.59 8.15687 12.9038 8.15687 12.9038C6.58783 13.7824 6.21126 15.1632 5.3326 15.4142C5.20708 15.477 5.0188 15.477 4.89327 15.477C4.2029 15.477 3.57528 15.0377 3.32423 14.5356C3.32423 14.5983 4.5167 14.5356 5.83469 13.1548ZM4.83051 16.1046C5.08155 16.1046 5.26984 16.0419 5.45812 15.9791C6.02298 15.7908 6.39955 15.3515 6.77612 14.8494C7.15269 14.3473 7.59202 13.7824 8.34515 13.4059L9.16106 12.9665L8.40791 12.4644C8.34515 12.4017 7.7803 12.0251 7.02716 12.0251C6.39954 12.0251 5.8347 12.2762 5.39537 12.7783C4.26566 13.9707 3.26148 14.0335 3.19871 14.0335L2.38281 14.0962L2.69662 14.8494C3.13595 15.5398 4.01461 16.1046 4.83051 16.1046Z" fill="#1A1919"/>
<path d="M8.40915 22.5063C8.34639 20.4352 8.84848 18.7406 9.66438 17.3598C9.22505 18.8034 9.28782 20.5607 10.8569 22.2552C10.8569 22.2552 7.71878 18.4896 12.1121 14.5983C13.8694 13.1548 15.7523 12.2134 16.7564 11.5858C13.179 12.7783 11.4845 11.4603 11.4845 11.4603C12.6142 12.4645 14.1205 12.4644 14.9991 12.2762C14.7481 12.4017 14.497 12.5272 14.246 12.6527C11.2334 14.2845 8.53468 16.9833 8.09535 20.749C7.40497 24.4519 5.83594 25.3933 5.83594 25.3933C7.09117 24.7657 7.84431 23.1339 8.03259 22.5691C8.22088 25.7699 9.78991 28.0293 11.61 30.226C12.5514 31.3557 12.8652 32.4226 12.8652 32.4226C12.8652 32.4226 12.6769 31.1674 11.861 30.1632C10.1665 28.0293 8.53468 25.4561 8.40915 22.5063Z" fill="#1A1919"/>
<path d="M22.4062 14.9122V15.6653C22.6573 15.3515 23.1594 15.4143 23.1594 15.4143V16.4812C23.1594 16.4812 23.1594 16.9833 22.9711 17.2343H24.0381C23.8498 16.9833 23.8498 16.4812 23.8498 16.4812V15.4143C23.8498 15.4143 24.3519 15.3515 24.6029 15.6653V14.9122H22.4062Z" fill="#1A1919"/>
<path d="M21.9008 10.5188C22.2146 10.7699 22.4656 10.8326 22.4656 10.8326L22.5912 10.8954V10.205L21.3359 9.70294C21.3359 9.64018 21.3359 10.0795 21.9008 10.5188Z" fill="#1A1919"/>
<path d="M24.9169 10.5188C25.4818 10.0795 25.4818 9.70294 25.4818 9.70294L24.2266 10.205V10.8954L24.3521 10.8326C24.3521 10.8326 24.5404 10.7699 24.9169 10.5188Z" fill="#1A1919"/>
<path d="M23.4087 8.63601L20.3962 7.44354C20.6472 6.81593 21.8397 6.31383 23.4087 6.31383C24.9778 6.31383 26.1702 6.81593 26.4213 7.44354L23.4087 8.63601ZM25.6682 12.4017L23.6598 13.4686V9.1381L26.4213 8.19668L25.6682 12.4017ZM26.9234 13.5314L27.8648 14.0963L28.1159 14.2218C27.6138 14.3473 27.1744 14.6611 26.8606 14.9749C26.8606 14.9749 26.8606 14.9749 26.7979 15.0377C26.7351 15.1005 26.6723 15.226 26.5468 15.2887C26.5468 15.2887 26.5468 15.3515 26.484 15.3515C26.4213 15.4143 26.3585 15.5398 26.2958 15.6653C26.2958 15.6653 26.2958 15.7281 26.233 15.7281C26.1702 15.8536 26.1075 15.9791 25.982 16.1046C25.3543 17.2343 24.2874 17.9247 23.346 17.9247C22.4046 17.9247 21.3376 17.2343 20.71 16.1046C20.6472 15.9791 20.5845 15.8536 20.459 15.7281C20.459 15.7281 20.4589 15.6653 20.3962 15.6653C20.3334 15.5398 20.2707 15.477 20.2079 15.4143L20.1451 15.3515C20.0824 15.2887 20.0196 15.1632 19.9569 15.1004C19.9569 15.1004 19.9569 15.1005 19.8941 15.0377C19.5803 14.6611 19.141 14.4101 18.6389 14.2845L18.8899 14.159L19.8313 13.5942L20.7728 13.0293L23.2832 14.4101L25.7937 13.0293L26.9234 13.5314ZM30.5635 17.4226C30.3753 17.9875 30.187 18.5523 30.187 19.1799V23.0084C29.3711 22.8829 29.3083 22.0042 29.3083 22.0042V21.8159H29.12C28.8062 21.7532 28.5552 21.6276 28.3669 21.4394C27.9903 21.0628 27.9903 20.4352 27.9903 20.4352C27.9903 20.4979 27.551 21.0628 28.0531 21.6904C28.2414 21.9415 28.5552 22.1297 28.9317 22.1925C28.9945 22.6946 29.3711 23.3222 30.187 23.4477V25.3306H27.8648C26.7979 24.703 27.2372 23.636 27.2372 23.636L27.2999 23.4477L27.1117 23.385C25.9192 22.9456 26.2958 21.7532 26.2958 21.7532L26.3585 21.5649L26.1702 21.5021C25.2288 21.0628 25.3543 19.8076 25.3543 19.8076C25.0405 20.0586 24.9778 20.5607 25.1661 21C25.0405 21.1256 24.915 21.2511 24.7267 21.4394C23.7225 21.1883 23.7225 20.2469 23.7225 20.1841V20.0586L23.597 19.9958C23.2205 19.8703 22.9694 19.6193 22.7811 19.3682C22.6556 19.0544 22.6556 18.6779 22.7184 18.5523C22.8439 18.5523 22.9694 18.6151 23.0322 18.6151C23.1577 18.6151 23.2832 18.6151 23.346 18.6151C23.4715 18.6151 23.597 18.6151 23.6598 18.6151C24.2874 18.5523 24.9778 18.3013 25.7309 17.5482H30.5635V17.4226ZM27.6138 34.1172L27.8648 32.7364C27.8648 32.6737 27.8648 32.5482 27.9276 32.4854C27.9903 32.4854 28.0531 32.5482 28.1786 32.5482C28.3041 32.5482 28.3669 32.5482 28.4297 32.5482C28.8062 32.5482 29.0573 32.3599 29.2456 32.1716L29.4338 31.9205L29.2456 31.6695C29.2456 31.6695 28.869 31.0419 28.6179 30.6653C28.5552 30.6025 28.4924 30.5398 28.4297 30.4143C28.1159 29.9122 27.7393 29.3473 26.9234 29.3473H26.8606C26.7351 29.3473 26.6096 29.4101 26.5468 29.4101C26.2958 29.2846 26.0447 29.2218 25.7937 29.2218C25.4799 29.2218 25.1661 29.2846 24.9778 29.3473C24.915 29.3473 24.8523 29.4101 24.8523 29.4101L23.346 29.2846C23.346 29.2846 23.2832 29.2218 23.2205 29.159L23.5343 29.0335C23.4715 27.9666 22.4046 27.2762 21.8397 27.0879C21.8397 26.9624 21.7769 26.8996 21.6514 26.7741L21.3376 26.4603L21.0866 26.7741L20.961 26.9624L18.8899 26.0837L20.2707 27.7783L19.7058 28.5942C19.5175 28.7825 19.7058 29.0335 19.7058 29.0335L20.2707 29.4101L20.8355 29.2218H20.8983C20.8983 29.2846 20.8355 29.6611 20.8355 29.7239L19.8313 29.5356L18.7644 30.1005C18.1995 30.477 18.1368 31.1674 18.3251 31.6067L18.4506 31.8578L18.6389 32.2343L19.0154 32.1088C18.8899 32.5482 18.9527 32.9247 19.141 33.1758L19.392 33.4268L19.7058 33.8034L20.0196 33.4268C20.1451 33.3013 20.3962 32.9875 20.5217 32.6737L20.5845 32.4226L20.3962 32.2343V32.1716L20.5845 31.8578L21.9025 32.1716L22.2163 32.2343L22.3418 31.9833L22.4046 31.8578C22.4046 31.8578 22.4046 31.795 22.4673 31.795C22.5301 31.795 22.5301 31.795 22.5928 31.795C23.0949 31.8578 23.5343 31.9205 23.9108 31.9205C24.2874 31.9205 24.5384 31.9205 24.7895 31.795L25.4799 32.6109L25.0405 33.9289V33.9917C24.2246 34.0544 23.8481 34.2427 23.346 34.7448C22.6556 34.0544 22.1535 33.9917 20.3334 33.9917C18.1368 33.9917 16.6305 32.6737 16.6305 30.6026V25.4561H30.187V30.6026C30.187 32.5482 29.1828 33.7406 27.6138 34.1172ZM19.2665 31.2302L19.3292 31.4184C19.2665 31.544 18.7644 31.795 18.7644 31.795L18.6389 31.544C18.5133 31.2929 18.5133 30.8536 18.8899 30.5398L19.7686 30.0377L20.6472 30.226C20.6472 30.5398 20.7728 30.7281 20.7728 30.7281L19.8313 30.5398L19.2665 30.9164C19.2665 30.9791 19.2665 31.1046 19.2665 31.2302ZM27.4882 32.6737L27.1744 34.18C26.9861 34.18 26.7979 34.2427 26.6096 34.2427L26.9234 32.7992C26.9861 32.3599 25.8564 32.2344 25.2916 31.3557C25.0405 31.6695 24.4757 31.795 23.9736 31.795C23.4715 31.795 23.0322 31.7323 22.7184 31.6695C22.6556 31.6695 22.5928 31.6695 22.5301 31.6695C22.3418 31.6695 22.2163 31.7323 22.0907 31.9205L22.028 32.0461L20.459 31.6695L20.0824 32.3599C20.0196 32.4854 20.0196 32.5482 20.0824 32.6737L20.2079 32.7992C20.1451 33.0502 19.8313 33.3641 19.8313 33.3641L19.5803 33.0503C19.392 32.862 19.4548 32.4226 19.643 32.1088L20.2707 31.0419L21.5886 31.2302L21.4004 30.7281C21.1493 30.1005 21.5259 29.2846 21.5886 28.8452C21.5886 28.9708 21.4631 29.0335 21.2748 29.0335C21.1493 29.0335 20.961 29.0335 20.8983 29.0335C20.8355 29.0335 20.8355 29.0335 20.8355 29.0335L20.459 29.2846L20.1451 29.0335C20.0824 28.9707 20.0824 28.8452 20.2079 28.7825L20.8983 28.0293L20.0824 27.0879L21.2121 27.6528L21.5259 27.2134C21.5887 27.2762 21.5886 27.5272 21.5886 27.5272C21.9025 27.5272 22.9066 28.0921 22.9694 29.3473C22.9694 29.4101 22.9694 29.4101 22.9694 29.4728C22.9694 29.4728 22.9694 29.4728 22.9694 29.5356C23.0322 29.6611 23.2205 29.8494 23.4715 29.9122L24.9778 30.0377C25.1661 30.0377 25.4799 29.8494 25.9192 29.8494C26.1702 29.8494 26.4213 29.9122 26.6723 30.1005C26.6723 30.1005 26.7979 29.9749 27.0489 29.9749H27.1117C27.802 29.9749 28.0531 30.6025 28.4297 31.1046C28.6807 31.4812 29.0573 32.1088 29.0573 32.1088C28.9318 32.2971 28.8062 32.3599 28.5552 32.3599C28.4924 32.3599 28.4297 32.3599 28.3669 32.3599C27.6138 32.2344 27.551 30.7281 27.1117 30.6026H27.0489C26.9234 30.6026 26.8606 30.7281 26.8606 30.7281C27.0489 31.2302 26.9234 31.4812 27.1744 31.8578C27.3 32.1716 27.6138 32.4226 27.7393 32.4854C27.551 32.2344 27.4882 32.4854 27.4882 32.6737ZM26.1075 34.2427C25.9192 34.2427 25.7309 34.2427 25.5426 34.2427L25.982 32.862C26.0447 32.6737 25.6681 32.4226 25.5426 32.1716C25.7937 32.2971 26.3585 32.6109 26.6096 32.7364C26.5468 32.7992 26.1075 34.2427 26.1075 34.2427ZM19.4548 21.6277L19.5175 19.1799L20.0824 18.6151L20.3962 19.3055L19.7058 21.6277H19.4548ZM19.8313 22.3808C19.8941 22.5691 20.0824 22.6946 20.2079 22.7574C20.2079 22.9456 20.2079 23.1967 20.1451 23.4477C20.1451 23.5105 20.1451 23.5733 20.0824 23.5733V23.636C19.8941 23.636 19.5803 23.636 19.3292 23.5105C19.0154 23.385 18.5761 22.8829 18.7016 22.2553C18.8271 22.1925 19.141 22.0042 19.392 22.0042C19.5803 22.067 19.7058 22.1297 19.8313 22.3808ZM26.1075 23.0084C25.6681 23.3222 24.6012 24.1381 24.2246 24.3892L20.459 23.6988C20.459 23.636 20.459 23.636 20.459 23.5733C20.5217 23.385 20.5845 23.1339 20.5845 22.8201L23.7225 22.8829L23.7853 22.8201C23.8481 22.7574 24.8523 21.8159 25.3543 21.2511C25.4799 21.3766 25.6054 21.5649 25.8564 21.6904C25.7937 22.067 25.7937 22.5691 26.1075 23.0084ZM21.0238 17.4226C21.4631 17.862 21.9025 18.1758 22.3418 18.3013C22.279 18.4896 22.2163 18.9917 22.4046 19.431C22.5928 19.8076 22.8439 20.0586 23.2832 20.2469C23.346 20.6862 23.597 21.3766 24.4129 21.6904C24.0991 22.067 23.7225 22.3808 23.597 22.5063L20.459 22.4436C20.3962 22.3808 20.2707 22.318 20.2079 22.1925C20.2079 22.1925 20.2079 22.1925 20.2079 22.1297L20.71 22.1925C20.71 22.1925 20.71 22.1925 20.7728 22.1925C20.8983 22.1925 20.961 22.1297 20.961 22.0042C20.961 21.8787 20.8983 21.7532 20.7728 21.7532L20.1451 21.6277L20.8355 19.1799L20.1451 17.7992L19.0782 18.9289L19.0154 21.4394L18.3251 21.3138C18.1995 21.3138 18.1368 21.3766 18.074 21.5021C18.074 21.6276 18.1368 21.6904 18.2623 21.7532L18.5761 21.8159C18.4506 21.8787 18.3878 21.9415 18.3878 21.9415L18.3251 22.0042V22.067C18.1368 22.7574 18.5133 23.4477 18.9527 23.7615V23.8243C18.9527 23.9498 18.9527 24.0126 19.0154 24.1381C19.0782 24.2009 19.141 24.2636 19.2665 24.3264H19.3292C19.5175 24.3264 19.643 24.2009 19.7058 24.0126C19.8941 24.0126 20.0196 24.0126 20.0824 24.0126H20.1451L24.2874 24.7657L24.3502 24.703C24.664 24.4519 25.9192 23.5733 26.3585 23.2594C26.4841 23.385 26.6096 23.4477 26.7351 23.5105C26.6096 23.9498 26.6096 24.6402 27.1117 25.2051H16.5677V19.0544C16.5677 18.4896 16.3795 17.862 16.1912 17.2971H21.0238V17.4226ZM20.459 8.19668L23.2205 9.1381V13.4686L21.2121 12.4017L20.459 8.19668ZM27.1744 7.69459C27.1744 6.62764 25.4171 5.68622 23.4715 5.68622C21.5259 5.68622 19.7686 6.62764 19.7686 7.69459L19.8313 7.94564L20.5845 12.4645L19.8313 12.9038L17.823 14.0963C17.823 14.0963 17.3836 14.3473 17.1326 14.4728C16.3795 15.0377 16.1912 15.7908 16.6305 16.1046C16.756 15.477 17.2581 14.7866 18.1995 14.7866C18.8899 14.7866 19.392 15.1632 19.8313 15.6653C19.9569 15.7908 20.0196 15.9163 20.1451 16.1046C20.2707 16.2929 20.3962 16.4812 20.5217 16.6067H15.3125C15.6891 17.3599 16.0656 18.2385 16.0656 19.1172V30.7908C16.0656 33.6151 18.1995 34.9331 20.5217 34.9331C22.3418 34.9331 22.5928 34.8703 23.5343 35.8745C24.5384 34.8703 24.7895 34.9331 26.5468 34.9331C28.869 34.9331 31.0029 33.6151 31.0029 30.7908V19.1172C31.0029 18.2385 31.3794 17.4226 31.756 16.6067H26.5468C26.6723 16.4184 26.7979 16.2929 26.9234 16.1046C27.0489 15.9791 27.1117 15.7908 27.2372 15.6653C27.6765 15.1632 28.1786 14.7866 28.869 14.7866C29.8104 14.7866 30.3125 15.477 30.438 16.1046C30.8774 15.7908 30.7518 14.9749 29.9359 14.4728C29.7476 14.3473 29.2456 14.0963 29.2456 14.0963L27.2372 12.9038L26.484 12.4645L27.2372 7.94564L27.1744 7.69459Z" fill="#1A1919"/>
<path d="M114.662 22.5063V27.3389H118.428C119.306 27.3389 119.997 27.1506 120.436 26.7113C120.875 26.272 121.064 25.7071 121.064 24.954C121.064 24.2009 120.813 23.5732 120.311 23.1967C119.808 22.7573 119.181 22.5691 118.365 22.5691H114.662V22.5063ZM114.662 17.2343V21.1255H118.365C119.055 21.1255 119.62 20.9373 119.997 20.5607C120.373 20.1841 120.562 19.682 120.562 19.1799C120.562 18.6151 120.373 18.113 120.059 17.7992C119.683 17.4226 119.181 17.2971 118.49 17.2971H114.662V17.2343ZM122.507 24.8912C122.507 26.0837 122.131 27.0251 121.44 27.7155C120.687 28.3431 119.683 28.7197 118.365 28.7197H113.281V15.9791H118.49C119.557 15.9791 120.436 16.2301 121.064 16.795C121.691 17.3598 122.068 18.113 122.068 19.1172C122.068 19.682 121.88 20.2469 121.566 20.749C121.252 21.2511 120.813 21.5649 120.185 21.8159V21.8787C120.499 21.9414 120.813 22.067 121.126 22.2552C121.44 22.4435 121.691 22.6946 121.88 22.9456C122.068 23.1967 122.256 23.5105 122.382 23.887C122.444 24.1381 122.507 24.4519 122.507 24.8912Z" fill="#1A1919"/>
<path d="M129.979 24.5774C129.602 24.3264 129.226 24.2009 128.787 24.0753C128.41 23.9498 127.908 23.8871 127.406 23.8871C126.778 23.8871 126.276 24.0753 125.837 24.3891C125.397 24.703 125.209 25.205 125.209 25.8327C125.209 26.4603 125.397 26.9624 125.774 27.2762C126.151 27.59 126.653 27.7783 127.343 27.7783C127.845 27.7783 128.347 27.59 128.787 27.3389C129.226 27.0879 129.665 26.7741 129.979 26.4603V24.5774ZM127.908 18.9289C129.038 18.9289 129.853 19.1799 130.418 19.682C130.983 20.1841 131.297 21 131.297 22.0042V28.6569H129.916V27.7155C129.414 28.1548 128.912 28.4686 128.41 28.5942C127.908 28.7197 127.406 28.7825 126.966 28.7825C126.59 28.7825 126.213 28.7197 125.837 28.5942C125.46 28.4686 125.146 28.2804 124.833 28.0921C124.519 27.841 124.268 27.5272 124.079 27.1507C123.891 26.7741 123.766 26.3348 123.766 25.7699C123.766 25.3306 123.828 24.8912 124.017 24.5147C124.205 24.1381 124.456 23.8243 124.77 23.5732C125.084 23.3222 125.46 23.0712 125.9 22.9456C126.339 22.8201 126.841 22.7573 127.343 22.7573C127.782 22.7573 128.159 22.8201 128.598 22.8829C129.038 22.9456 129.477 23.1339 129.916 23.385V22.1925C129.916 21.4394 129.728 20.9373 129.351 20.5607C128.975 20.2469 128.41 20.0586 127.72 20.0586C127.28 20.0586 126.841 20.1214 126.402 20.2469C126.025 20.3724 125.586 20.4979 125.209 20.6862L124.77 19.6193C125.209 19.431 125.711 19.2427 126.213 19.1172C126.715 18.9917 127.28 18.9289 127.908 18.9289Z" fill="#1A1919"/>
<path d="M140.898 28.6569H139.517V22.8829C139.517 22.0042 139.329 21.3138 139.015 20.8117C138.639 20.3096 138.074 20.1213 137.321 20.1213C136.756 20.1213 136.254 20.3096 135.814 20.6862C135.375 21.0628 135.124 21.5649 134.998 22.067C134.936 22.318 134.873 22.6318 134.873 22.8829V28.5942H133.492V19.0544H134.873V20.4352H134.936C135.312 19.8703 135.689 19.4937 136.254 19.2427C136.756 18.9916 137.258 18.8661 137.76 18.8661C138.89 18.8661 139.643 19.1799 140.208 19.8075C140.71 20.4352 141.024 21.3766 141.024 22.6318V28.6569" fill="#1A1919"/>
<path d="M145.668 23.5105L149.936 19.1172H148.367L144.287 23.3222V15.1004L142.906 15.728V28.6569H144.287V23.7615L148.429 28.6569H150.061L145.668 23.5105Z" fill="#1A1919"/>
<path d="M49.6406 17.2343H53.3436V28.6569H55.9795V17.2343H59.5569V15.0377H49.6406V17.2343Z" fill="#1A1919"/>
<path d="M85.6697 19.1172H82.7827L79.3935 23.1967V15.2887L76.8203 16.2301V28.6569H79.3935V24.0126L82.7199 28.6569H85.6697L81.9668 23.5105L85.6697 19.1172Z" fill="#1A1919"/>
<path d="M92.5665 25.0168C92.5038 25.3933 92.3155 25.7071 92.19 25.9582C92.0017 26.2092 91.8134 26.4603 91.5623 26.5858C91.2485 26.7113 90.9347 26.8368 90.6209 26.8368C89.9305 26.8368 89.4284 26.5858 89.0519 26.0837C88.6753 25.5816 88.487 24.8285 88.487 23.8871C88.487 23.0712 88.6753 22.3808 88.9891 21.8159C89.3657 21.2511 89.8678 21 90.4954 21C91.1858 21 91.7506 21.2511 92.1272 21.8159C92.5038 22.3808 92.692 23.0712 92.692 23.9498C92.692 24.3264 92.6293 24.703 92.5665 25.0168ZM93.9473 20.2469C93.5707 19.8076 93.0686 19.4937 92.5038 19.2427C91.9389 18.9917 91.3113 18.9289 90.6209 18.9289C89.9305 18.9289 89.3029 19.0544 88.7381 19.2427C88.1732 19.4937 87.6711 19.8076 87.2318 20.2469C86.7925 20.6862 86.4787 21.1883 86.2904 21.8159C86.0393 22.4435 85.9766 23.1339 85.9766 23.9498C85.9766 24.703 86.1021 25.3933 86.2904 26.0209C86.4787 26.6486 86.7925 27.1507 87.2318 27.59C87.6084 28.0293 88.1105 28.3431 88.6753 28.5942C89.2402 28.8452 89.8678 28.9707 90.5582 28.9707C91.2485 28.9707 91.8761 28.8452 92.441 28.6569C93.0059 28.4059 93.5079 28.0921 93.9473 27.6527C94.3866 27.2134 94.7004 26.7113 94.8887 26.0837C95.1397 25.4561 95.2653 24.7657 95.2653 23.9498C95.2653 23.1967 95.1397 22.5063 94.9515 21.8787C94.7004 21.1883 94.3866 20.6862 93.9473 20.2469Z" fill="#1A1919"/>
<path d="M62.0688 15.0377C61.6294 15.0377 61.2529 15.1632 61.0018 15.477C60.688 15.7908 60.5625 16.1046 60.5625 16.544C60.5625 16.9205 60.688 17.2971 61.0018 17.5482C61.3156 17.862 61.6294 17.9875 62.0688 17.9875C62.4453 17.9875 62.8219 17.862 63.1357 17.5482C63.4495 17.2343 63.5751 16.9205 63.5751 16.544C63.5751 16.1046 63.4495 15.7908 63.1357 15.477C62.8219 15.1632 62.5081 15.0377 62.0688 15.0377Z" fill="#1A1919"/>
<path d="M60.8125 28.6569H63.323V19.1172H60.8125V28.6569Z" fill="#1A1919"/>
<path d="M71.1709 18.9917C69.3508 18.8661 68.2839 19.8703 68.2839 19.8703V19.0544H65.7734V28.5942H68.2839V22.8829C68.2839 21.9415 69.0998 21.1256 70.104 21.1256C71.1082 21.1256 71.9241 21.9415 71.9241 22.8829V28.5942H74.4345V22.9456C74.4345 19.9958 72.6772 19.1172 71.1709 18.9917Z" fill="#1A1919"/>
<path d="M97.6547 18.9289V19.1172H96.1484V21.0628H97.6547V28.6569H100.165C100.165 28.6569 100.165 24.0753 100.165 21.0628H101.671V19.1172H100.165V18.9289C100.165 17.6109 100.793 16.9833 101.985 17.1716L102.362 15.226C98.5334 14.6611 97.6547 16.7322 97.6547 18.9289Z" fill="#1A1919"/>
<path d="M104.241 18.9289V19.1172H102.734V21.0628H104.241V28.6569H106.751C106.751 28.6569 106.751 24.0753 106.751 21.0628H108.257V19.1172H106.751V18.9289C106.751 17.6109 107.379 16.9833 108.571 17.1716L108.948 15.226C105.119 14.6611 104.241 16.7322 104.241 18.9289Z" fill="#1A1919"/>
</g>
<defs>
<clipPath id="clip0_138_51573">
<rect width="150" height="41.046" fill="white" transform="translate(0 0.47699)"/>
</clipPath>
</defs>
</svg>
