<?xml version="1.0" standalone="no"?>
<!DOCTYPE svg PUBLIC "-//W3C//DTD SVG 20010904//EN"
 "http://www.w3.org/TR/2001/REC-SVG-20010904/DTD/svg10.dtd">
<svg version="1.0" xmlns="http://www.w3.org/2000/svg"
 width="920.000000pt" height="920.000000pt" viewBox="0 0 920.000000 920.000000"
 preserveAspectRatio="xMidYMid meet">
<metadata>
Created by potrace 1.14, written by Peter Selinger 2001-2017
</metadata>
<g transform="translate(0.000000,920.000000) scale(0.100000,-0.100000)"
fill="#000000" stroke="none">
<path d="M2375 7033 c4 -367 10 -671 14 -675 3 -4 562 -9 1241 -10 1393 -4
1276 3 1459 -85 171 -82 305 -244 340 -411 38 -184 -31 -405 -168 -543 -101
-101 -223 -155 -416 -184 -84 -13 -282 -15 -1272 -15 l-1172 0 -8 -47 c-4 -27
-8 -820 -8 -1763 l0 -1715 773 -3 772 -2 -7 827 c-5 456 -8 943 -8 1083 l0
255 40 9 c22 5 272 10 555 11 546 2 647 8 874 52 864 166 1483 851 1567 1733
67 709 -289 1461 -853 1804 -251 153 -565 263 -904 318 -138 22 -146 22 -1482
25 l-1344 4 7 -668z"/>
<path d="M6020 3726 c-53 -18 -159 -62 -235 -99 -161 -76 -269 -110 -422 -131
-110 -15 -420 -35 -619 -39 l-111 -2 443 -935 443 -935 871 -3 c777 -2 870 0
870 13 0 51 -163 372 -526 1037 -319 584 -491 914 -544 1046 -27 66 -38 82
-54 82 -12 -1 -64 -16 -116 -34z"/>
</g>
</svg>
