<svg width="37" height="28" viewBox="0 0 37 28" fill="none" xmlns="http://www.w3.org/2000/svg">
<g clip-path="url(#clip0_522_49483)">
<rect x="36" y="27.25" width="35" height="26.25" transform="rotate(-180 36 27.25)" fill="#EE5757"/>
<path d="M8.29175 3.91666L9.274 6.93971L12.4526 6.93971L9.88106 8.80806L10.8633 11.8311L8.29175 9.96276L5.72019 11.8311L6.70244 8.80806L4.13088 6.93971L7.3095 6.93971L8.29175 3.91666Z" fill="#FCD95E"/>
<path d="M13.7605 2.45834L14.0061 3.21411L14.8007 3.21411L14.1578 3.68119L14.4034 4.43696L13.7605 3.96987L13.1176 4.43696L13.3632 3.68119L12.7203 3.21411L13.5149 3.21411L13.7605 2.45834Z" fill="#FCD95E"/>
<path d="M13.7605 11.2083L14.0061 11.9641L14.8007 11.9641L14.1578 12.4312L14.4034 13.187L13.7605 12.7199L13.1176 13.187L13.3632 12.4312L12.7203 11.9641L13.5149 11.9641L13.7605 11.2083Z" fill="#FCD95E"/>
<path d="M13.7605 11.2083L14.0061 11.9641L14.8007 11.9641L14.1578 12.4312L14.4034 13.187L13.7605 12.7199L13.1176 13.187L13.3632 12.4312L12.7203 11.9641L13.5149 11.9641L13.7605 11.2083Z" fill="#FCD95E"/>
<path d="M16.677 8.29166L16.9226 9.04742L17.7172 9.04742L17.0743 9.51451L17.3199 10.2703L16.677 9.80318L16.0341 10.2703L16.2797 9.51451L15.6368 9.04742L16.4314 9.04742L16.677 8.29166Z" fill="#FCD95E"/>
<path d="M16.677 5.375L16.9226 6.13076L17.7172 6.13076L17.0743 6.59785L17.3199 7.35361L16.677 6.88653L16.0341 7.35361L16.2797 6.59785L15.6368 6.13076L16.4314 6.13076L16.677 5.375Z" fill="#FCD95E"/>
</g>
<rect x="0.5" y="0.5" width="35.6667" height="27" stroke="#F1F2F4"/>
<defs>
<clipPath id="clip0_522_49483">
<rect x="1" y="1" width="34.6667" height="26" fill="white"/>
</clipPath>
</defs>
</svg>
