<?xml version="1.0" standalone="no"?>
<!DOCTYPE svg PUBLIC "-//W3C//DTD SVG 20010904//EN"
 "http://www.w3.org/TR/2001/REC-SVG-20010904/DTD/svg10.dtd">
<svg version="1.0" xmlns="http://www.w3.org/2000/svg"
 width="600.000000pt" height="600.000000pt" viewBox="0 0 600.000000 600.000000"
 preserveAspectRatio="xMidYMid meet">
<metadata>
Created by potrace 1.14, written by Peter Selinger 2001-2017
</metadata>
<g transform="translate(0.000000,600.000000) scale(0.100000,-0.100000)"
fill="#000000" stroke="none">
<path d="M2859 5996 c-2 -2 -38 -6 -79 -10 -41 -3 -84 -8 -95 -10 -11 -2 -42
-7 -70 -10 -438 -62 -892 -246 -1291 -524 -178 -125 -456 -385 -588 -552 -37
-47 -73 -92 -79 -100 -7 -8 -34 -49 -62 -90 -27 -41 -52 -77 -56 -80 -10 -9
-126 -215 -164 -290 -102 -206 -225 -560 -241 -700 -3 -19 -7 -45 -10 -57 -2
-13 -5 -25 -5 -28 0 -2 -4 -19 -9 -36 -5 -17 -12 -57 -15 -88 -4 -31 -8 -67
-11 -81 -16 -102 -23 -476 -9 -585 4 -33 8 -71 10 -85 10 -100 17 -156 20
-160 2 -3 6 -24 9 -46 33 -216 131 -518 248 -762 83 -173 234 -418 330 -537
105 -129 150 -179 262 -290 72 -71 147 -143 166 -160 83 -71 350 -265 365
-265 2 0 29 -16 59 -35 80 -51 274 -147 401 -198 159 -65 423 -144 545 -163
14 -2 41 -7 60 -10 35 -6 59 -10 115 -19 130 -20 495 -27 665 -13 47 4 91 8
98 8 31 0 -2 18 -45 25 -85 12 -265 62 -368 100 -714 266 -1282 893 -1465
1615 -21 82 -45 220 -55 315 -7 67 -7 311 0 365 2 19 7 55 10 80 12 94 17 118
41 213 168 678 717 1082 1479 1087 142 1 212 -10 325 -51 305 -112 539 -442
524 -740 -13 -251 -95 -457 -243 -612 -25 -26 -40 -47 -34 -47 6 0 18 -6 25
-13 26 -26 185 -116 265 -151 179 -76 375 -129 563 -151 30 -3 73 -9 95 -11
108 -15 349 -4 486 21 38 7 155 38 164 43 6 4 17 8 25 9 30 4 175 86 242 134
127 95 249 247 322 404 33 70 92 238 100 285 2 14 9 47 15 74 37 159 45 504
16 656 -2 14 -7 41 -9 60 -26 202 -132 528 -239 735 -80 155 -210 348 -320
473 -40 45 -239 244 -293 293 -32 29 -157 129 -219 177 -48 36 -226 152 -233
152 -6 0 -12 3 -14 8 -9 22 -302 167 -464 230 -187 72 -345 117 -553 157 -14
2 -61 9 -105 15 -45 6 -92 13 -106 16 -28 6 -496 15 -501 10z"/>
<path d="M2450 3583 c-8 -3 -55 -24 -105 -48 -383 -180 -621 -532 -690 -1020
-12 -88 -13 -414 -2 -482 23 -131 28 -156 51 -248 71 -288 255 -623 476 -869
96 -106 195 -197 325 -299 256 -200 614 -359 925 -411 131 -22 368 -28 509
-13 92 10 280 57 368 93 75 29 249 119 274 140 8 8 19 14 22 14 12 0 168 104
260 173 126 95 187 147 317 277 140 140 157 159 293 335 48 62 78 107 75 110
-2 2 -33 -5 -68 -16 -144 -45 -386 -106 -485 -123 -315 -53 -397 -61 -640 -61
-227 0 -392 16 -560 55 -27 6 -57 13 -65 15 -91 19 -266 79 -368 126 -46 22
-86 39 -88 39 -10 0 -212 125 -264 163 -310 226 -543 532 -677 887 -13 36 -26
72 -28 80 -2 8 -11 41 -20 73 -43 160 -68 449 -46 537 4 19 14 60 21 90 28
122 87 241 172 343 21 26 38 47 36 46 -2 0 -10 -3 -18 -6z"/>
</g>
</svg>
