<svg width="37" height="28" viewBox="0 0 37 28" fill="none" xmlns="http://www.w3.org/2000/svg">
<g clip-path="url(#clip0_522_49406)">
<rect x="-0.846191" y="21" width="37.3334" height="2" fill="#EE5757"/>
<rect x="-0.846191" y="19" width="37.3334" height="2" fill="white"/>
<rect x="-0.846191" y="25" width="37.3334" height="2" fill="#EE5757"/>
<rect x="-0.846191" y="17" width="37.3334" height="2" fill="#EE5757"/>
<rect x="-0.846191" y="23" width="37.3334" height="2" fill="white"/>
<rect x="-0.846191" y="15" width="37.3334" height="2" fill="white"/>
<rect x="-0.846191" y="13" width="37.3334" height="2" fill="#EE5757"/>
<rect x="-0.846191" y="11.0001" width="37.3334" height="2" fill="white"/>
<rect x="-0.846191" y="8.99997" width="37.3334" height="2" fill="#EE5757"/>
<rect x="-0.846191" y="6.99997" width="37.3334" height="2" fill="white"/>
<rect x="-0.846191" y="4.99998" width="37.3334" height="2" fill="#EE5757"/>
<rect x="-0.846191" y="2.99998" width="37.3334" height="2" fill="white"/>
<rect x="-0.846191" y="1" width="37.3334" height="2" fill="#EE5757"/>
<rect x="0.487061" y="1" width="19.5" height="13.9967" fill="#2E50A6"/>
<path d="M1.15028 2.08333L1.65267 3.62952L0.337402 2.67392H1.96317L0.647896 3.62952L1.15028 2.08333Z" fill="white"/>
<path d="M1.15028 4.64737L1.65267 6.19356L0.337402 5.23796H1.96317L0.647896 6.19356L1.15028 4.64737Z" fill="white"/>
<path d="M1.15028 7.21161L1.65267 8.7578L0.337402 7.8022H1.96317L0.647896 8.7578L1.15028 7.21161Z" fill="white"/>
<path d="M1.15028 9.77576L1.65267 11.322L0.337402 10.3664H1.96317L0.647896 11.322L1.15028 9.77576Z" fill="white"/>
<path d="M1.15028 12.3399L1.65267 13.8861L0.337402 12.9305H1.96317L0.647896 13.8861L1.15028 12.3399Z" fill="white"/>
<path d="M18.452 2.08333L18.9544 3.62952L17.6392 2.67392H19.2649L17.9497 3.62952L18.452 2.08333Z" fill="white"/>
<path d="M18.452 4.64737L18.9544 6.19356L17.6392 5.23796H19.2649L17.9497 6.19356L18.452 4.64737Z" fill="white"/>
<path d="M16.828 3.36536L17.3304 4.91155L16.0151 3.95595H17.6409L16.3256 4.91155L16.828 3.36536Z" fill="white"/>
<path d="M16.828 5.97229L17.3304 7.51848L16.0151 6.56288H17.6409L16.3256 7.51848L16.828 5.97229Z" fill="white"/>
<path d="M16.828 8.57913L17.3304 10.1253L16.0151 9.16973H17.6409L16.3256 10.1253L16.828 8.57913Z" fill="white"/>
<path d="M16.828 11.1861L17.3304 12.7323L16.0151 11.7767H17.6409L16.3256 12.7323L16.828 11.1861Z" fill="white"/>
<path d="M18.452 7.21161L18.9544 8.7578L17.6392 7.8022H19.2649L17.9497 8.7578L18.452 7.21161Z" fill="white"/>
<path d="M18.452 9.77576L18.9544 11.322L17.6392 10.3664H19.2649L17.9497 11.322L18.452 9.77576Z" fill="white"/>
<path d="M18.452 12.3399L18.9544 13.8861L17.6392 12.9305H19.2649L17.9497 13.8861L18.452 12.3399Z" fill="white"/>
<path d="M14.9904 2.08333L15.4928 3.62952L14.1775 2.67392H15.8033L14.488 3.62952L14.9904 2.08333Z" fill="white"/>
<path d="M14.9904 4.64737L15.4928 6.19356L14.1775 5.23796H15.8033L14.488 6.19356L14.9904 4.64737Z" fill="white"/>
<path d="M13.3663 3.36536L13.8687 4.91155L12.5535 3.95595H14.1792L12.864 4.91155L13.3663 3.36536Z" fill="white"/>
<path d="M13.3663 5.97229L13.8687 7.51848L12.5535 6.56288H14.1792L12.864 7.51848L13.3663 5.97229Z" fill="white"/>
<path d="M13.3663 8.57913L13.8687 10.1253L12.5535 9.16973H14.1792L12.864 10.1253L13.3663 8.57913Z" fill="white"/>
<path d="M13.3663 11.1861L13.8687 12.7323L12.5535 11.7767H14.1792L12.864 12.7323L13.3663 11.1861Z" fill="white"/>
<path d="M14.9904 7.21161L15.4928 8.7578L14.1775 7.8022H15.8033L14.488 8.7578L14.9904 7.21161Z" fill="white"/>
<path d="M14.9904 9.77576L15.4928 11.322L14.1775 10.3664H15.8033L14.488 11.322L14.9904 9.77576Z" fill="white"/>
<path d="M14.9904 12.3399L15.4928 13.8861L14.1775 12.9305H15.8033L14.488 13.8861L14.9904 12.3399Z" fill="white"/>
<path d="M11.5287 2.08333L12.0311 3.62952L10.7158 2.67392H12.3416L11.0263 3.62952L11.5287 2.08333Z" fill="white"/>
<path d="M11.5287 4.64737L12.0311 6.19356L10.7158 5.23796H12.3416L11.0263 6.19356L11.5287 4.64737Z" fill="white"/>
<path d="M9.90492 3.36536L10.4073 4.91155L9.09204 3.95595H10.7178L9.40253 4.91155L9.90492 3.36536Z" fill="white"/>
<path d="M9.90492 5.97229L10.4073 7.51848L9.09204 6.56288H10.7178L9.40253 7.51848L9.90492 5.97229Z" fill="white"/>
<path d="M9.90492 8.57913L10.4073 10.1253L9.09204 9.16973H10.7178L9.40253 10.1253L9.90492 8.57913Z" fill="white"/>
<path d="M9.90492 11.1861L10.4073 12.7323L9.09204 11.7767H10.7178L9.40253 12.7323L9.90492 11.1861Z" fill="white"/>
<path d="M11.5287 7.21161L12.0311 8.7578L10.7158 7.8022H12.3416L11.0263 8.7578L11.5287 7.21161Z" fill="white"/>
<path d="M11.5287 9.77576L12.0311 11.322L10.7158 10.3664H12.3416L11.0263 11.322L11.5287 9.77576Z" fill="white"/>
<path d="M11.5287 12.3399L12.0311 13.8861L10.7158 12.9305H12.3416L11.0263 13.8861L11.5287 12.3399Z" fill="white"/>
<path d="M8.06728 2.08333L8.56967 3.62952L7.25439 2.67392H8.88016L7.56489 3.62952L8.06728 2.08333Z" fill="white"/>
<path d="M8.06728 4.64737L8.56967 6.19356L7.25439 5.23796H8.88016L7.56489 6.19356L8.06728 4.64737Z" fill="white"/>
<path d="M6.44325 3.36536L6.94564 4.91155L5.63037 3.95595H7.25614L5.94086 4.91155L6.44325 3.36536Z" fill="white"/>
<path d="M6.44325 5.97229L6.94564 7.51848L5.63037 6.56288H7.25614L5.94086 7.51848L6.44325 5.97229Z" fill="white"/>
<path d="M6.44325 8.57913L6.94564 10.1253L5.63037 9.16973H7.25614L5.94086 10.1253L6.44325 8.57913Z" fill="white"/>
<path d="M6.44325 11.1861L6.94564 12.7323L5.63037 11.7767H7.25614L5.94086 12.7323L6.44325 11.1861Z" fill="white"/>
<path d="M8.06728 7.21161L8.56967 8.7578L7.25439 7.8022H8.88016L7.56489 8.7578L8.06728 7.21161Z" fill="white"/>
<path d="M8.06728 9.77576L8.56967 11.322L7.25439 10.3664H8.88016L7.56489 11.322L8.06728 9.77576Z" fill="white"/>
<path d="M8.06728 12.3399L8.56967 13.8861L7.25439 12.9305H8.88016L7.56489 13.8861L8.06728 12.3399Z" fill="white"/>
<path d="M4.60561 2.08333L5.108 3.62952L3.79272 2.67392H5.41849L4.10322 3.62952L4.60561 2.08333Z" fill="white"/>
<path d="M4.60561 4.64737L5.108 6.19356L3.79272 5.23796H5.41849L4.10322 6.19356L4.60561 4.64737Z" fill="white"/>
<path d="M2.98158 3.36536L3.48397 4.91155L2.1687 3.95595H3.79447L2.47919 4.91155L2.98158 3.36536Z" fill="white"/>
<path d="M2.98158 5.97229L3.48397 7.51848L2.1687 6.56288H3.79447L2.47919 7.51848L2.98158 5.97229Z" fill="white"/>
<path d="M2.98158 8.57913L3.48397 10.1253L2.1687 9.16973H3.79447L2.47919 10.1253L2.98158 8.57913Z" fill="white"/>
<path d="M2.98158 11.1861L3.48397 12.7323L2.1687 11.7767H3.79447L2.47919 12.7323L2.98158 11.1861Z" fill="white"/>
<path d="M4.60561 7.21161L5.108 8.7578L3.79272 7.8022H5.41849L4.10322 8.7578L4.60561 7.21161Z" fill="white"/>
<path d="M4.60561 9.77576L5.108 11.322L3.79272 10.3664H5.41849L4.10322 11.322L4.60561 9.77576Z" fill="white"/>
<path d="M4.60561 12.3399L5.108 13.8861L3.79272 12.9305H5.41849L4.10322 13.8861L4.60561 12.3399Z" fill="white"/>
</g>
<rect x="0.5" y="0.5" width="35.6667" height="27" stroke="#F1F2F4"/>
<defs>
<clipPath id="clip0_522_49406">
<rect x="1" y="1" width="34.6667" height="26" fill="white"/>
</clipPath>
</defs>
</svg>
