<svg width="300" height="250" viewBox="0 0 300 250" fill="none" xmlns="http://www.w3.org/2000/svg">
<path opacity="0.62" d="M117.9 235.8C173.626 235.8 218.8 233.114 218.8 229.8C218.8 226.486 173.626 223.8 117.9 223.8C62.1745 223.8 17 226.486 17 229.8C17 233.114 62.1745 235.8 117.9 235.8Z" fill="#F7CE46"/>
<path d="M19.5 174V194.6C19.5 196.6 21.1 198.2 23.1 198.2H212.8C214.8 198.2 216.4 196.6 216.4 194.6V174H19.5Z" fill="#F0F0F0"/>
<path d="M216.3 60C216.3 58 214.7 56.4 212.7 56.4H23.1C21.1 56.4 19.5 58 19.5 60V174H216.3V60Z" fill="#475569"/>
<path d="M152.2 198.2H84.5V219H152.2V198.2Z" fill="#D6D6D6"/>
<path d="M167.499 219H68.1992V228.7H167.499V219Z" fill="#F0F0F0"/>
<path d="M152.2 198.2H84.5V205.7H152.2V198.2Z" fill="#BDBDBD"/>
<path d="M206.199 66.6H29.6992V163.5H206.199V66.6Z" fill="#F7CE46"/>
<path d="M99.1992 85.6L86.8992 97.9L74.5992 85.6L69.6992 90.5L81.9992 102.8L69.6992 115.1L74.5992 120L86.8992 107.7L99.1992 120L104.099 115.1L91.7992 102.8L104.099 90.5L99.1992 85.6Z" fill="#475569"/>
<path d="M166.099 90.5L161.199 85.6L148.899 97.9L136.599 85.6L131.699 90.5L143.999 102.8L131.699 115.1L136.599 120L148.899 107.7L161.199 120L166.099 115.1L153.799 102.8L166.099 90.5Z" fill="#475569"/>
<path d="M144.199 150C118.199 132.1 91.8992 149.8 91.5992 150L88.1992 145.1C88.4992 144.9 118.199 124.8 147.599 145.1L144.199 150Z" fill="#475569"/>
<path d="M279.199 14H190.199C187.999 14 186.199 15.8 186.199 18V75.5C186.199 77.7 187.999 79.5 190.199 79.5H200.499L190.399 98.7L224.599 79.5H279.199C281.399 79.5 283.199 77.7 283.199 75.5V18C283.199 15.8 281.399 14 279.199 14Z" fill="white"/>
<path d="M213.798 50.9C213.498 50.9 213.298 50.8 213.098 50.6C212.898 50.4 212.798 50.2 212.798 49.9V45.6H201.598C201.298 45.6 201.098 45.5 200.898 45.3C200.698 45.1 200.598 44.9 200.598 44.6V42C200.598 41.7 200.698 41.4 200.798 41.1C200.998 40.8 201.098 40.6 201.398 40.3L212.398 26.5C212.898 25.9 213.398 25.6 213.898 25.6H216.598C216.898 25.6 217.098 25.7 217.298 25.9C217.498 26.1 217.598 26.3 217.598 26.6V41H220.698C220.998 41 221.198 41.1 221.398 41.3C221.598 41.5 221.698 41.7 221.698 42V44.6C221.698 44.9 221.598 45.1 221.398 45.3C221.198 45.5 220.998 45.6 220.698 45.6H217.598V50C217.598 50.3 217.498 50.5 217.298 50.7C217.098 50.9 216.898 51 216.598 51H213.798V50.9ZM212.898 41.1V33.4L206.698 41.1H212.898Z" fill="#475569"/>
<path d="M244.397 35.1C244.397 35.6 244.397 36.1 244.397 36.6C244.397 37.2 244.397 37.7 244.397 38.3C244.397 38.9 244.397 39.4 244.397 40C244.397 40.6 244.397 41.1 244.397 41.5C244.297 42.9 244.097 44.2 243.797 45.4C243.497 46.6 242.897 47.6 242.097 48.5C241.297 49.4 240.397 50.1 239.097 50.6C237.897 51.1 236.397 51.3 234.597 51.3C232.797 51.3 231.297 51.1 230.097 50.6C228.897 50.1 227.897 49.4 227.197 48.5C226.397 47.6 225.897 46.6 225.497 45.4C225.197 44.2 224.897 42.9 224.897 41.5C224.897 40.6 224.797 39.5 224.797 38.4C224.797 37.2 224.797 36.2 224.897 35.3C224.997 33.9 225.197 32.6 225.497 31.4C225.797 30.2 226.397 29.1 227.197 28.2C227.997 27.3 228.897 26.6 230.097 26.1C231.297 25.6 232.797 25.3 234.597 25.3C236.397 25.3 237.797 25.5 239.097 26C240.297 26.5 241.297 27.2 242.097 28.1C242.897 29 243.397 30 243.797 31.2C244.097 32.4 244.397 33.7 244.397 35.1ZM229.897 41.3C229.997 43 230.397 44.4 231.097 45.3C231.797 46.3 232.997 46.7 234.697 46.7C236.397 46.7 237.597 46.2 238.297 45.3C238.997 44.4 239.397 43 239.497 41.3C239.497 40.4 239.597 39.4 239.597 38.3C239.597 37.2 239.597 36.2 239.497 35.3C239.397 33.6 238.997 32.2 238.297 31.3C237.597 30.3 236.397 29.9 234.697 29.9C232.997 29.9 231.797 30.4 231.097 31.3C230.397 32.2 229.997 33.6 229.897 35.3C229.897 36.2 229.797 37.2 229.797 38.3C229.797 39.4 229.797 40.4 229.897 41.3Z" fill="#475569"/>
<path d="M260.696 50.9C260.396 50.9 260.196 50.8 259.996 50.6C259.796 50.4 259.696 50.2 259.696 49.9V45.6H248.496C248.196 45.6 247.996 45.5 247.796 45.3C247.596 45.1 247.496 44.9 247.496 44.6V42C247.496 41.7 247.596 41.4 247.696 41.1C247.896 40.8 247.996 40.6 248.296 40.3L259.296 26.5C259.796 25.9 260.296 25.6 260.796 25.6H263.496C263.796 25.6 263.996 25.7 264.196 25.9C264.396 26.1 264.496 26.3 264.496 26.6V41H267.596C267.896 41 268.096 41.1 268.296 41.3C268.496 41.5 268.596 41.7 268.596 42V44.6C268.596 44.9 268.496 45.1 268.296 45.3C268.096 45.5 267.896 45.6 267.596 45.6H264.496V50C264.496 50.3 264.396 50.5 264.196 50.7C263.996 50.9 263.796 51 263.496 51H260.696V50.9ZM259.696 41.1V33.4L253.496 41.1H259.696Z" fill="#475569"/>
<path d="M215.799 65.9C215.899 65.9 215.999 65.9 216.099 66C216.199 66.1 216.199 66.2 216.199 66.3V66.8C216.199 66.9 216.199 67 216.099 67.1C215.999 67.2 215.899 67.2 215.799 67.2H210.099C209.999 67.2 209.899 67.2 209.799 67.1C209.699 67 209.699 66.9 209.699 66.8V57.6C209.699 57.5 209.699 57.4 209.799 57.3C209.899 57.2 209.999 57.2 210.099 57.2H215.699C215.799 57.2 215.899 57.2 215.999 57.3C216.099 57.4 216.099 57.5 216.099 57.6V58.1C216.099 58.2 216.099 58.3 215.999 58.4C215.899 58.5 215.799 58.5 215.699 58.5H211.099V61.5H215.399C215.499 61.5 215.599 61.5 215.699 61.6C215.799 61.7 215.799 61.8 215.799 61.9V62.4C215.799 62.5 215.799 62.6 215.699 62.7C215.599 62.8 215.499 62.8 215.399 62.8H211.099V65.9H215.799Z" fill="#475569"/>
<path d="M223.3 57.3C223.8 57.3 224.2 57.4 224.6 57.5C225 57.6 225.4 57.8 225.7 58C226 58.2 226.3 58.5 226.4 58.9C226.6 59.3 226.7 59.7 226.7 60.2C226.7 61 226.5 61.6 226.1 62C225.7 62.5 225.2 62.8 224.6 63L226.7 66.7C226.7 66.8 226.7 66.8 226.7 66.9C226.7 67 226.7 67.1 226.6 67.1C226.5 67.2 226.5 67.2 226.4 67.2H225.9C225.7 67.2 225.6 67.2 225.5 67.1C225.4 67 225.3 66.9 225.3 66.9L223.3 63.3H220.9V66.9C220.9 67 220.9 67.1 220.8 67.2C220.7 67.3 220.6 67.3 220.5 67.3H219.9C219.8 67.3 219.7 67.3 219.6 67.2C219.5 67.1 219.5 67 219.5 66.9V57.6C219.5 57.5 219.5 57.4 219.6 57.3C219.7 57.2 219.8 57.2 219.9 57.2H223.3V57.3ZM220.8 61.9H223.2C223.9 61.9 224.4 61.8 224.8 61.5C225.2 61.2 225.4 60.8 225.4 60.2C225.4 59.6 225.2 59.2 224.8 58.9C224.4 58.7 223.9 58.5 223.2 58.5H220.8V61.9Z" fill="#475569"/>
<path d="M233.9 57.3C234.4 57.3 234.8 57.4 235.2 57.5C235.6 57.6 236 57.8 236.3 58C236.6 58.2 236.9 58.5 237 58.9C237.2 59.3 237.3 59.7 237.3 60.2C237.3 61 237.1 61.6 236.7 62C236.3 62.5 235.8 62.8 235.2 63L237.3 66.7C237.3 66.8 237.3 66.8 237.3 66.9C237.3 67 237.3 67.1 237.2 67.1C237.1 67.2 237.1 67.2 237 67.2H236.4C236.2 67.2 236.1 67.2 236 67.1C235.9 67 235.8 66.9 235.8 66.9L233.8 63.3H231.4V66.9C231.4 67 231.4 67.1 231.3 67.2C231.2 67.3 231.1 67.3 231 67.3H230.4C230.3 67.3 230.2 67.3 230.1 67.2C230 67.1 230 67 230 66.9V57.6C230 57.5 230 57.4 230.1 57.3C230.2 57.2 230.3 57.2 230.4 57.2H233.9V57.3ZM231.4 61.9H233.8C234.5 61.9 235 61.8 235.4 61.5C235.8 61.2 236 60.8 236 60.2C236 59.6 235.8 59.2 235.4 58.9C235 58.7 234.5 58.5 233.8 58.5H231.4V61.9Z" fill="#475569"/>
<path d="M240.301 60.9C240.301 60.4 240.401 59.9 240.601 59.4C240.801 58.9 241.001 58.5 241.401 58.2C241.701 57.9 242.101 57.6 242.601 57.4C243.101 57.2 243.601 57.1 244.301 57.1C244.901 57.1 245.501 57.2 246.001 57.4C246.501 57.6 246.901 57.9 247.201 58.2C247.501 58.5 247.801 58.9 248.001 59.4C248.201 59.9 248.301 60.4 248.301 60.9C248.301 61.7 248.301 62.6 248.301 63.4C248.301 63.9 248.201 64.4 248.001 64.9C247.801 65.4 247.601 65.8 247.201 66.1C246.901 66.4 246.501 66.7 246.001 66.9C245.501 67.1 245.001 67.2 244.401 67.2C243.801 67.2 243.201 67.1 242.801 66.9C242.301 66.7 241.901 66.4 241.601 66.1C241.301 65.8 241.001 65.3 240.801 64.9C240.601 64.4 240.501 63.9 240.501 63.4C240.301 62.6 240.301 61.8 240.301 60.9ZM246.801 61C246.801 60.6 246.701 60.2 246.601 59.8C246.501 59.5 246.301 59.2 246.101 59C245.901 58.8 245.601 58.6 245.301 58.5C245.001 58.4 244.701 58.3 244.301 58.3C243.901 58.3 243.601 58.4 243.301 58.5C243.001 58.6 242.701 58.8 242.501 59C242.301 59.2 242.101 59.5 242.001 59.8C241.901 60.1 241.801 60.5 241.801 61C241.801 61.4 241.801 61.8 241.801 62.2C241.801 62.6 241.801 63 241.801 63.4C241.801 63.8 241.901 64.2 242.001 64.6C242.101 64.9 242.301 65.2 242.501 65.4C242.701 65.6 243.001 65.8 243.301 65.9C243.601 66 243.901 66.1 244.301 66.1C244.701 66.1 245.001 66 245.301 65.9C245.601 65.8 245.901 65.6 246.101 65.4C246.301 65.2 246.501 64.9 246.601 64.6C246.701 64.3 246.801 63.9 246.801 63.4C246.801 63 246.801 62.6 246.801 62.2C246.801 61.8 246.801 61.4 246.801 61Z" fill="#475569"/>
<path d="M255.4 57.3C255.9 57.3 256.3 57.4 256.7 57.5C257.1 57.6 257.5 57.8 257.8 58C258.1 58.2 258.4 58.5 258.5 58.9C258.7 59.3 258.8 59.7 258.8 60.2C258.8 61 258.6 61.6 258.2 62C257.8 62.5 257.3 62.8 256.7 63L258.8 66.7C258.8 66.8 258.8 66.8 258.8 66.9C258.8 67 258.8 67.1 258.7 67.1C258.6 67.2 258.6 67.2 258.5 67.2H257.9C257.7 67.2 257.6 67.2 257.5 67.1C257.4 67 257.3 66.9 257.3 66.9L255.3 63.3H252.9V66.9C252.9 67 252.9 67.1 252.8 67.2C252.7 67.3 252.6 67.3 252.5 67.3H251.9C251.8 67.3 251.7 67.3 251.6 67.2C251.5 67.1 251.5 67 251.5 66.9V57.6C251.5 57.5 251.5 57.4 251.6 57.3C251.7 57.2 251.8 57.2 251.9 57.2H255.4V57.3ZM252.9 61.9H255.3C256 61.9 256.5 61.8 256.9 61.5C257.3 61.2 257.5 60.8 257.5 60.2C257.5 59.6 257.3 59.2 256.9 58.9C256.5 58.7 256 58.5 255.3 58.5H252.9V61.9Z" fill="#475569"/>
</svg>
