<svg width="432" height="364" viewBox="0 0 432 364" fill="none" xmlns="http://www.w3.org/2000/svg">
<path opacity="0.7" d="M409.481 128.453C409.481 128.453 392.581 60.7535 290.481 18.1535C188.281 -24.5465 97.0806 15.0535 76.1806 64.9535C55.3806 114.953 77.1806 141.953 63.2806 184.653C49.3806 227.353 -22.0194 281.453 6.78058 347.053C35.4806 412.553 170.381 431.253 279.481 417.753C388.581 404.253 473.981 254.353 409.481 128.453Z" fill="#303030"/>
<path d="M168.678 210.253V345.453H162.178V210.253H158.078V349.653H158.978H162.178H168.678H172.778V345.453V210.253H168.678Z" fill="#1A2E35" stroke="#1A2E35" stroke-miterlimit="10" stroke-linecap="round" stroke-linejoin="round"/>
<path d="M290.983 210.253V345.453H285.083V210.253H280.883V349.653H280.983H285.083H290.983H294.783H295.083V210.253H290.983Z" fill="#1A2E35" stroke="#1A2E35" stroke-miterlimit="10" stroke-linecap="round" stroke-linejoin="round"/>
<path d="M285.98 167.153H167.18C164.38 167.153 162.18 169.353 162.18 172.153V255.453C162.18 258.253 164.38 260.453 167.18 260.453H285.88C288.68 260.453 290.88 258.253 290.88 255.453V172.153C290.98 169.453 288.68 167.153 285.98 167.153Z" fill="#808080" stroke="#1A2E35" stroke-miterlimit="10" stroke-linecap="round" stroke-linejoin="round"/>
<path d="M290.68 280.453H161.88C160.38 280.453 159.18 279.253 159.18 277.753V258.853C159.18 257.353 160.38 256.153 161.88 256.153L222.38 258.853C226.98 259.053 231.58 259.053 236.18 258.853L290.58 256.153C292.08 256.153 293.28 257.353 293.28 258.853V277.753C293.28 279.253 292.08 280.453 290.68 280.453Z" fill="#808080" stroke="#1A2E35" stroke-miterlimit="10" stroke-linecap="round" stroke-linejoin="round"/>
<path d="M201.68 218.253L203.38 256.953C203.38 256.953 232.08 261.253 250.38 257.653C268.68 253.953 260.38 225.653 260.08 222.653C259.78 219.653 258.78 218.353 258.78 218.353H201.68V218.253Z" fill="#1A2E35" stroke="#1A2E35" stroke-miterlimit="10" stroke-linecap="round" stroke-linejoin="round"/>
<path d="M211.977 220.854H244.877L243.577 142.354L241.277 140.554L220.777 142.854L220.277 144.454L211.977 220.854Z" fill="white" stroke="#1A2E35" stroke-miterlimit="10" stroke-linecap="round" stroke-linejoin="round"/>
<path d="M221.283 141.854L219.983 149.354L216.083 220.654H191.683L183.883 201.954C183.883 201.954 190.083 157.853 192.983 154.053C195.883 150.153 221.283 141.854 221.283 141.854Z" fill="#F7CE46" stroke="#1A2E35" stroke-miterlimit="10" stroke-linecap="round" stroke-linejoin="round"/>
<path d="M219.984 149.354L221.284 141.854C221.284 141.854 217.084 143.253 211.984 145.053C211.184 150.753 209.784 163.154 211.784 174.454C213.384 183.854 215.784 193.454 217.384 199.454L219.984 149.354Z" fill="#F7CE46" stroke="#1A2E35" stroke-miterlimit="10" stroke-linecap="round" stroke-linejoin="round"/>
<path d="M197.984 172.953L198.484 167.753" stroke="#1A2E35" stroke-miterlimit="10" stroke-linecap="round" stroke-linejoin="round"/>
<path d="M194.586 206.354L197.486 178.354" stroke="#1A2E35" stroke-miterlimit="10" stroke-linecap="round" stroke-linejoin="round"/>
<path d="M208.085 98.2535C208.085 98.2535 208.585 115.654 209.385 118.754C210.185 121.854 214.785 135.054 216.585 136.654C218.385 138.254 220.785 138.754 220.785 138.754L219.985 149.354C219.985 149.354 224.085 156.354 228.785 156.354C233.485 156.354 240.485 147.754 241.185 145.454C241.985 143.154 240.185 120.554 240.185 120.554C240.185 120.554 244.585 117.954 244.885 113.054C245.185 108.154 241.785 106.854 241.785 106.854C241.785 106.854 245.385 94.9535 243.385 91.5535C241.285 88.1535 226.785 80.1535 214.385 82.7535C201.985 85.3535 202.985 94.4535 203.785 95.1535C204.485 95.9535 208.085 98.2535 208.085 98.2535Z" fill="white" stroke="#1A2E35" stroke-miterlimit="10" stroke-linecap="round" stroke-linejoin="round"/>
<path d="M214.283 82.7535C201.883 85.3535 202.883 94.4535 203.683 95.1535C204.183 95.6535 205.683 96.6535 206.783 97.4535L207.483 97.2535C207.483 97.2535 208.283 97.7535 209.083 97.7535C209.883 97.7535 211.383 96.1535 211.383 96.1535C211.383 96.1535 216.583 99.0535 217.883 98.7535C219.183 98.4535 221.283 95.3535 223.583 95.3535C225.883 95.3535 232.683 95.0535 231.383 98.2535C230.083 101.354 227.483 102.654 230.383 104.454C233.283 106.254 235.783 106.254 236.083 108.354C236.383 110.454 234.283 115.354 236.383 115.654C238.483 115.954 239.983 112.054 240.283 110.254C240.583 108.454 241.883 106.854 241.883 106.854C241.883 106.854 245.483 94.9535 243.483 91.5535C241.283 88.1535 226.783 80.1535 214.283 82.7535Z" fill="#1A2E35" stroke="#1A2E35" stroke-miterlimit="10" stroke-linecap="round" stroke-linejoin="round"/>
<path d="M215.086 113.554L215.386 124.954H220.786" stroke="#1A2E35" stroke-miterlimit="10" stroke-linecap="round" stroke-linejoin="round"/>
<path d="M212.78 115.654C212.78 116.654 212.48 117.454 211.98 117.454C211.58 117.454 211.18 116.654 211.18 115.654C211.18 114.654 211.48 113.854 211.98 113.854C212.38 113.854 212.78 114.654 212.78 115.654Z" fill="#1A2E35"/>
<path d="M223.084 115.354C223.084 116.354 222.784 117.154 222.284 117.154C221.884 117.154 221.484 116.354 221.484 115.354C221.484 114.354 221.784 113.554 222.284 113.554C222.784 113.554 223.084 114.354 223.084 115.354Z" fill="#1A2E35"/>
<path d="M214.28 119.054H206.48C205.78 119.054 205.18 118.454 205.18 117.754V114.154C205.18 113.454 205.78 112.854 206.48 112.854H214.28V119.054Z" stroke="#1A2E35" stroke-miterlimit="10" stroke-linecap="round" stroke-linejoin="round"/>
<path d="M217.383 119.054H226.483C227.183 119.054 227.783 118.454 227.783 117.754V114.154C227.783 113.454 227.183 112.854 226.483 112.854H217.383V119.054Z" stroke="#1A2E35" stroke-miterlimit="10" stroke-linecap="round" stroke-linejoin="round"/>
<path d="M214.281 112.753H217.381" stroke="#1A2E35" stroke-miterlimit="10" stroke-linecap="round" stroke-linejoin="round"/>
<path d="M227.781 114.054H238.381" stroke="#1A2E35" stroke-miterlimit="10" stroke-linecap="round" stroke-linejoin="round"/>
<path d="M218.68 110.454C218.68 110.454 223.38 108.854 226.48 111.254" stroke="#1A2E35" stroke-miterlimit="10" stroke-linecap="round" stroke-linejoin="round"/>
<path d="M213.78 110.953C213.78 110.953 212.78 109.153 209.68 110.953" stroke="#1A2E35" stroke-miterlimit="10" stroke-linecap="round" stroke-linejoin="round"/>
<path d="M215.58 127.253C215.58 127.253 219.48 127.553 222.28 126.753C225.08 125.953 228.98 123.853 228.98 126.753C228.98 129.653 227.18 134.053 225.88 135.553C225.38 136.153 224.48 136.753 223.48 137.353C221.18 138.653 218.28 138.453 216.48 136.653C216.08 136.253 215.78 135.853 215.48 135.353C214.28 132.753 211.18 126.553 215.58 127.253Z" stroke="#1A2E35" stroke-width="2" stroke-miterlimit="10" stroke-linecap="round" stroke-linejoin="round"/>
<path d="M215.586 129.654C215.586 129.654 220.986 131.954 226.686 128.054" stroke="#1A2E35" stroke-miterlimit="10" stroke-linecap="round" stroke-linejoin="round"/>
<path d="M220.781 138.754C220.781 138.754 226.181 137.954 230.581 134.854C234.981 131.754 235.781 130.954 235.781 130.954L220.281 144.454L220.781 138.754Z" fill="#1A2E35" stroke="#1A2E35" stroke-miterlimit="10" stroke-linecap="round" stroke-linejoin="round"/>
<path d="M241.277 140.554L239.977 219.854L263.777 220.354L267.177 207.654L285.077 206.654C285.077 206.654 278.877 174.554 276.477 165.454C274.177 156.354 274.177 154.354 270.477 151.154C266.877 148.054 241.277 140.554 241.277 140.554Z" fill="#F7CE46" stroke="#1A2E35" stroke-miterlimit="10" stroke-linecap="round" stroke-linejoin="round"/>
<path d="M240.375 194.054C241.975 191.654 244.475 187.254 246.975 181.454C250.275 173.654 249.875 149.754 249.675 143.054C244.975 141.554 241.275 140.454 241.275 140.454L240.375 194.054Z" fill="#F7CE46" stroke="#1A2E35" stroke-miterlimit="10" stroke-linecap="round" stroke-linejoin="round"/>
<path d="M261.277 164.953L260.977 160.253" stroke="#1A2E35" stroke-miterlimit="10" stroke-linecap="round" stroke-linejoin="round"/>
<path d="M263.578 206.054L261.578 170.454" stroke="#1A2E35" stroke-miterlimit="10" stroke-linecap="round" stroke-linejoin="round"/>
<path d="M261.586 205.053C261.586 205.053 265.086 202.054 267.686 201.454C270.286 200.954 278.586 201.754 282.086 202.454C285.586 203.154 287.886 208.153 289.286 211.553C290.586 215.053 289.086 221.054 286.286 222.654C283.486 224.154 278.186 224.553 278.186 224.553L261.586 205.053Z" fill="#F7CE46" stroke="#1A2E35" stroke-miterlimit="10" stroke-linecap="round" stroke-linejoin="round"/>
<path d="M284.583 209.553C281.583 205.853 252.883 203.653 252.883 203.653C247.283 203.153 241.883 202.753 241.183 202.753C239.583 202.753 224.983 213.953 223.083 214.853C222.683 215.053 222.483 215.353 222.483 215.653L218.383 221.453L228.683 220.653C231.783 221.453 236.383 219.453 237.583 218.753C238.983 217.953 243.583 213.253 243.583 213.253L264.683 222.253C265.283 222.753 265.783 223.153 266.083 223.353C268.783 225.153 277.283 226.953 281.683 225.053C286.183 223.153 288.083 213.953 284.583 209.553Z" fill="white" stroke="#1A2E35" stroke-miterlimit="10" stroke-linecap="round" stroke-linejoin="round"/>
<path d="M235.282 253.854C235.282 253.854 233.582 251.554 231.282 245.154C228.982 238.854 237.582 203.854 237.582 203.854L263.582 194.554C263.582 194.554 266.882 205.254 267.582 218.254C268.282 231.254 268.582 248.254 264.582 252.954C260.582 257.654 242.882 258.954 237.882 257.954" fill="#1A2E35"/>
<path d="M235.282 253.854C235.282 253.854 233.582 251.554 231.282 245.154C228.982 238.854 237.582 203.854 237.582 203.854L263.582 194.554C263.582 194.554 266.882 205.254 267.582 218.254C268.282 231.254 268.582 248.254 264.582 252.954C260.582 257.654 242.882 258.954 237.882 257.954" stroke="#1A2E35" stroke-miterlimit="10" stroke-linecap="round" stroke-linejoin="round"/>
<path d="M162.977 144.553L172.277 170.854L184.277 168.854L175.977 141.854L162.977 144.553Z" fill="#1A2E35" stroke="#1A2E35" stroke-miterlimit="10" stroke-linecap="round" stroke-linejoin="round"/>
<path d="M168.473 161.554C168.473 161.554 161.873 153.754 163.773 152.954C165.673 152.154 169.273 150.454 170.973 151.554C172.673 152.654 172.373 154.554 172.373 154.554L168.173 154.854L170.973 160.654L168.473 161.554Z" fill="white" stroke="#1A2E35" stroke-miterlimit="10" stroke-linecap="round" stroke-linejoin="round"/>
<path d="M177.273 155.253C177.273 155.253 164.273 159.553 164.673 160.753C165.073 161.953 173.673 180.253 173.673 180.253L175.873 215.653L191.973 207.753L178.373 178.853C178.373 178.853 178.973 175.553 177.973 173.953C176.973 172.353 175.973 170.053 175.973 170.053C175.973 170.053 181.673 168.853 181.673 167.853C181.573 166.853 177.273 155.253 177.273 155.253Z" fill="white" stroke="#1A2E35" stroke-miterlimit="10" stroke-linecap="round" stroke-linejoin="round"/>
<path d="M178.277 159.354L167.477 163.754" stroke="#1A2E35" stroke-miterlimit="10" stroke-linecap="round" stroke-linejoin="round"/>
<path d="M179.473 163.954L169.773 167.854" stroke="#1A2E35" stroke-miterlimit="10" stroke-linecap="round" stroke-linejoin="round"/>
<path d="M265.381 204.553C265.381 204.553 261.481 181.253 256.081 180.153C250.681 179.153 172.881 211.753 167.681 213.553C162.481 215.353 157.581 216.653 157.581 216.653C157.581 216.653 146.981 214.853 141.281 211.753C135.581 208.653 132.181 204.453 130.181 209.453C128.081 214.353 133.281 225.253 136.381 227.353C139.481 229.453 148.081 235.353 150.381 236.453C152.681 237.553 164.381 231.053 168.481 228.953C172.581 226.853 210.981 215.953 224.481 213.653C237.981 211.353 250.381 208.453 256.081 204.353" fill="#1A2E35"/>
<path d="M265.381 204.553C265.381 204.553 261.481 181.253 256.081 180.153C250.681 179.153 172.881 211.753 167.681 213.553C162.481 215.353 157.581 216.653 157.581 216.653C157.581 216.653 146.981 214.853 141.281 211.753C135.581 208.653 132.181 204.453 130.181 209.453C128.081 214.353 133.281 225.253 136.381 227.353C139.481 229.453 148.081 235.353 150.381 236.453C152.681 237.553 164.381 231.053 168.481 228.953C172.581 226.853 210.981 215.953 224.481 213.653C237.981 211.353 250.381 208.453 256.081 204.353" stroke="#1A2E35" stroke-miterlimit="10" stroke-linecap="round" stroke-linejoin="round"/>
<path d="M170.583 228.053L165.783 214.253C161.383 215.753 157.683 216.653 157.683 216.653C157.683 216.653 147.083 214.853 141.383 211.753C135.683 208.653 132.283 204.454 130.283 209.454C128.183 214.354 133.383 225.253 136.483 227.354C139.583 229.454 148.183 235.354 150.483 236.454C152.783 237.454 164.483 231.054 168.583 228.954C168.883 228.654 169.583 228.453 170.583 228.053Z" fill="white" stroke="#1A2E35" stroke-miterlimit="10" stroke-linecap="round" stroke-linejoin="round"/>
<path d="M130.08 209.453C127.98 214.353 133.18 225.253 136.28 227.353C139.38 229.453 147.98 235.353 150.28 236.453C152.08 237.253 159.38 233.653 164.58 230.953L160.98 226.053C160.98 226.053 161.98 222.953 162.58 220.053C163.08 217.153 157.68 216.653 157.68 216.653C157.68 216.653 147.08 214.853 141.38 211.753C135.58 208.653 132.18 204.553 130.08 209.453Z" fill="white" stroke="#1A2E35" stroke-miterlimit="10" stroke-linecap="round" stroke-linejoin="round"/>
<path d="M150.78 236.554C150.88 236.554 150.88 236.554 150.98 236.554C151.08 236.554 151.28 236.554 151.48 236.554C151.58 236.554 151.58 236.554 151.68 236.554C151.88 236.554 152.08 236.454 152.38 236.454H152.48C152.78 236.354 153.08 236.254 153.48 236.154H153.58C151.68 234.854 141.68 227.954 136.58 221.854C132.48 216.954 132.08 210.554 132.28 207.454C131.48 207.554 130.68 208.254 130.08 209.654C127.98 214.554 133.18 225.454 136.28 227.554C139.38 229.654 147.98 235.554 150.28 236.654C150.48 236.454 150.58 236.454 150.78 236.554Z" fill="white" stroke="#1A2E35" stroke-miterlimit="10" stroke-linecap="round" stroke-linejoin="round"/>
<path d="M199.675 349.654C200.075 348.254 200.275 345.854 200.275 343.854C200.275 340.554 198.275 323.554 198.575 320.554C198.875 317.554 211.575 239.554 211.575 239.554L225.275 241.554C225.275 241.554 220.275 223.254 214.575 216.854C208.875 210.554 193.575 210.554 187.575 213.154C181.575 215.754 180.875 231.854 181.575 246.454C182.275 261.154 183.875 324.754 183.875 324.754C183.875 324.754 177.575 340.054 175.575 344.054C174.075 347.054 172.775 348.554 173.075 349.554H199.675V349.654Z" fill="#1A2E35" stroke="#1A2E35" stroke-miterlimit="10" stroke-linecap="round" stroke-linejoin="round"/>
<path d="M172.977 349.654H199.677C200.077 348.254 200.277 345.854 200.277 343.854C200.277 340.554 198.277 323.554 198.577 320.554C198.577 320.254 198.777 319.254 198.977 317.554H183.777C183.877 322.154 183.977 324.854 183.977 324.854C183.977 324.854 177.677 340.154 175.677 344.154C174.277 346.854 173.077 348.654 172.977 349.654Z" fill="white" stroke="#1A2E35" stroke-miterlimit="10" stroke-linecap="round" stroke-linejoin="round"/>
<path d="M199.677 349.654C200.077 348.254 200.277 345.854 200.277 343.854C200.277 342.054 199.677 336.454 199.277 331.054L196.977 330.854C196.977 330.854 196.277 325.154 191.677 323.854C186.977 322.554 183.977 324.854 183.977 324.854C183.977 324.854 177.677 340.154 175.677 344.154C174.377 346.754 173.077 348.654 172.977 349.654H199.677Z" fill="white" stroke="#1A2E35" stroke-miterlimit="10" stroke-linecap="round" stroke-linejoin="round"/>
<path d="M199.677 349.654C199.877 348.954 200.077 347.954 200.177 346.854H174.177C173.477 348.154 172.977 349.054 172.977 349.654H199.677Z" fill="white" stroke="#1A2E35" stroke-miterlimit="10" stroke-linecap="round" stroke-linejoin="round"/>
</svg>
