<svg width="509" height="41" viewBox="0 0 509 41" fill="none" xmlns="http://www.w3.org/2000/svg">
<path d="M10.3902 34.451C7.95751 34.451 6.04417 33.9727 4.65017 33.016C3.28351 32.0593 2.32684 30.761 1.78017 29.121C1.23351 27.4537 0.960172 25.5403 0.960172 23.381V11.532C0.960172 9.26333 1.23351 7.29533 1.78017 5.628C2.32684 3.96067 3.28351 2.676 4.65017 1.774C6.04417 0.871998 7.95751 0.420997 10.3902 0.420997C12.6862 0.420997 14.4765 0.817331 15.7612 1.61C17.0732 2.37533 18.0025 3.48233 18.5492 4.931C19.0958 6.37967 19.3692 8.06067 19.3692 9.974V12.762H13.5472V9.892C13.5472 8.96267 13.4925 8.11533 13.3832 7.35C13.3012 6.58467 13.0415 5.98333 12.6042 5.546C12.1942 5.08133 11.4698 4.849 10.4312 4.849C9.39251 4.849 8.62717 5.095 8.13517 5.587C7.67051 6.05166 7.36984 6.694 7.23317 7.514C7.09651 8.30667 7.02817 9.20866 7.02817 10.22V24.652C7.02817 25.8547 7.12384 26.8523 7.31517 27.645C7.50651 28.4103 7.84817 28.998 8.34017 29.408C8.85951 29.7907 9.55651 29.982 10.4312 29.982C11.4425 29.982 12.1532 29.7497 12.5632 29.285C13.0005 28.793 13.2738 28.1507 13.3832 27.358C13.4925 26.5653 13.5472 25.677 13.5472 24.693V21.7H19.3692V24.365C19.3692 26.333 19.1095 28.0823 18.5902 29.613C18.0708 31.1163 17.1552 32.3053 15.8432 33.18C14.5585 34.0273 12.7408 34.451 10.3902 34.451ZM31.0148 34V5.259H25.7258V0.789997H42.2898V5.259H37.0828V34H31.0148ZM49.411 34V0.789997H59.169C61.1643 0.789997 62.777 1.159 64.007 1.897C65.2643 2.635 66.18 3.71466 66.754 5.136C67.3553 6.53 67.656 8.22466 67.656 10.22C67.656 12.3793 67.287 14.1287 66.549 15.468C65.811 16.78 64.7723 17.7367 63.433 18.338C62.121 18.9393 60.563 19.24 58.759 19.24H55.479V34H49.411ZM55.479 14.976H57.775C58.8683 14.976 59.7156 14.8257 60.317 14.525C60.9456 14.197 61.3693 13.6913 61.588 13.008C61.834 12.2973 61.957 11.3543 61.957 10.179C61.957 8.97633 61.8613 8.006 61.67 7.268C61.506 6.50267 61.1233 5.94233 60.522 5.587C59.948 5.23167 59.0323 5.054 57.775 5.054H55.479V14.976ZM72.8505 34L79.4925 0.789997H85.9705L92.6125 34H86.9955L85.6835 26.333H79.9025L78.5495 34H72.8505ZM80.5175 22.479H85.0275L82.7725 8.539L80.5175 22.479ZM100.134 34V0.789997H106.161V14.689H112.926V0.789997H118.994V34H112.926V18.994H106.161V34H100.134ZM128.258 34V0.789997H133.219V21.741L142.321 0.789997H146.38V34H141.378V12.721L132.235 34H128.258ZM174.521 40.601L173.865 34H155.661V0.789997H161.688V29.818H169.15V0.789997H175.177V29.818H179.031V40.601H174.521ZM184.864 34L191.506 0.789997H197.984L204.626 34H199.009L197.697 26.333H191.916L190.563 34H184.864ZM192.531 22.479H197.041L194.786 8.539L192.531 22.479ZM226.135 34V0.789997H234.294C235.77 0.789997 237.096 0.926665 238.271 1.2C239.474 1.47333 240.499 1.938 241.346 2.594C242.221 3.22267 242.891 4.08367 243.355 5.177C243.82 6.27033 244.052 7.65066 244.052 9.318C244.052 10.6573 243.861 11.8053 243.478 12.762C243.123 13.7187 242.59 14.484 241.879 15.058C241.169 15.6047 240.28 15.9737 239.214 16.165C240.526 16.3837 241.606 16.8483 242.453 17.559C243.328 18.2423 243.97 19.1443 244.38 20.265C244.818 21.3857 245.036 22.7387 245.036 24.324C245.036 25.9093 244.831 27.317 244.421 28.547C244.039 29.7497 243.451 30.761 242.658 31.581C241.893 32.3737 240.923 32.975 239.747 33.385C238.599 33.795 237.246 34 235.688 34H226.135ZM232.203 29.736H234.499C236.331 29.736 237.574 29.2987 238.23 28.424C238.886 27.522 239.214 26.1417 239.214 24.283C239.214 22.9437 239.05 21.864 238.722 21.044C238.422 20.1967 237.902 19.568 237.164 19.158C236.454 18.748 235.497 18.543 234.294 18.543H232.203V29.736ZM232.203 14.361H234.253C235.456 14.361 236.385 14.1833 237.041 13.828C237.697 13.4727 238.148 12.926 238.394 12.188C238.668 11.45 238.804 10.5207 238.804 9.4C238.804 8.22467 238.599 7.32267 238.189 6.694C237.807 6.038 237.219 5.60066 236.426 5.382C235.634 5.136 234.622 5.013 233.392 5.013H232.203V14.361ZM267.127 34V0.789997H276.885C278.881 0.789997 280.493 1.159 281.723 1.897C282.981 2.635 283.896 3.71466 284.47 5.136C285.072 6.53 285.372 8.22466 285.372 10.22C285.372 12.3793 285.003 14.1287 284.265 15.468C283.527 16.78 282.489 17.7367 281.149 18.338C279.837 18.9393 278.279 19.24 276.475 19.24H273.195V34H267.127ZM273.195 14.976H275.491C276.585 14.976 277.432 14.8257 278.033 14.525C278.662 14.197 279.086 13.6913 279.304 13.008C279.55 12.2973 279.673 11.3543 279.673 10.179C279.673 8.97633 279.578 8.006 279.386 7.268C279.222 6.50267 278.84 5.94233 278.238 5.587C277.664 5.23167 276.749 5.054 275.491 5.054H273.195V14.976ZM290.567 34L297.209 0.789997H303.687L310.329 34H304.712L303.4 26.333H297.619L296.266 34H290.567ZM298.234 22.479H302.744L300.489 8.539L298.234 22.479ZM325.641 34.492C323.591 34.492 321.923 34.1093 320.639 33.344C319.381 32.5513 318.466 31.4443 317.892 30.023C317.318 28.5743 317.031 26.8933 317.031 24.98V23.832H322.689C322.689 23.9687 322.689 24.16 322.689 24.406C322.689 24.6247 322.689 24.8433 322.689 25.062C322.716 26.5927 322.935 27.7543 323.345 28.547C323.755 29.3397 324.547 29.736 325.723 29.736C326.57 29.736 327.199 29.531 327.609 29.121C328.046 28.711 328.333 28.1233 328.47 27.358C328.634 26.5653 328.716 25.6223 328.716 24.529C328.716 22.8343 328.401 21.495 327.773 20.511C327.171 19.4997 325.955 18.953 324.124 18.871C324.042 18.8437 323.905 18.83 323.714 18.83C323.55 18.83 323.358 18.83 323.14 18.83C322.921 18.83 322.716 18.83 322.525 18.83V14.812C322.689 14.812 322.853 14.812 323.017 14.812C323.181 14.812 323.345 14.812 323.509 14.812C323.7 14.812 323.85 14.812 323.96 14.812C325.818 14.73 327.076 14.238 327.732 13.336C328.388 12.434 328.716 11.122 328.716 9.4C328.716 8.006 328.47 6.91267 327.978 6.12C327.513 5.32733 326.666 4.931 325.436 4.931C324.288 4.931 323.468 5.341 322.976 6.161C322.511 6.981 322.238 8.06067 322.156 9.4C322.156 9.50933 322.156 9.71433 322.156 10.015C322.156 10.2883 322.156 10.5753 322.156 10.876H316.498V9.277C316.498 7.391 316.853 5.792 317.564 4.48C318.274 3.14066 319.286 2.12933 320.598 1.446C321.937 0.735331 323.536 0.379998 325.395 0.379998C327.281 0.379998 328.88 0.735331 330.192 1.446C331.531 2.12933 332.556 3.127 333.267 4.439C333.977 5.72367 334.333 7.309 334.333 9.195C334.333 11.163 333.909 12.7893 333.062 14.074C332.242 15.3587 331.203 16.1787 329.946 16.534C330.793 16.862 331.545 17.354 332.201 18.01C332.884 18.6387 333.403 19.486 333.759 20.552C334.141 21.5907 334.333 22.889 334.333 24.447C334.333 26.4423 334.046 28.2053 333.472 29.736C332.898 31.2393 331.968 32.4147 330.684 33.262C329.426 34.082 327.745 34.492 325.641 34.492ZM342.529 34V0.789997H352.287C354.282 0.789997 355.895 1.159 357.125 1.897C358.382 2.635 359.298 3.71466 359.872 5.136C360.473 6.53 360.774 8.22466 360.774 10.22C360.774 12.3793 360.405 14.1287 359.667 15.468C358.929 16.78 357.89 17.7367 356.551 18.338C355.239 18.9393 353.681 19.24 351.877 19.24H348.597V34H342.529ZM348.597 14.976H350.893C351.986 14.976 352.834 14.8257 353.435 14.525C354.064 14.197 354.487 13.6913 354.706 13.008C354.952 12.2973 355.075 11.3543 355.075 10.179C355.075 8.97633 354.979 8.006 354.788 7.268C354.624 6.50267 354.241 5.94233 353.64 5.587C353.066 5.23167 352.15 5.054 350.893 5.054H348.597V14.976ZM365.968 34L372.61 0.789997H379.088L385.73 34H380.113L378.801 26.333H373.02L371.667 34H365.968ZM373.635 22.479H378.145L375.89 8.539L373.635 22.479ZM393.252 34V0.789997H408.668V5.3H399.279V14.73H400.591C402.833 14.73 404.705 15.0443 406.208 15.673C407.739 16.2743 408.887 17.2857 409.652 18.707C410.418 20.101 410.8 21.987 410.8 24.365C410.8 26.2237 410.568 27.7817 410.103 29.039C409.639 30.269 408.942 31.253 408.012 31.991C407.11 32.729 406.017 33.2483 404.732 33.549C403.448 33.8497 401.985 34 400.345 34H393.252ZM399.279 29.9H400.386C401.534 29.9 402.464 29.736 403.174 29.408C403.885 29.08 404.404 28.506 404.732 27.686C405.06 26.8387 405.211 25.6907 405.183 24.242C405.156 22.52 404.801 21.208 404.117 20.306C403.461 19.404 402.19 18.953 400.304 18.953H399.279V29.9ZM427.831 34.451C425.481 34.451 423.608 34.0137 422.214 33.139C420.82 32.2643 419.823 31.007 419.221 29.367C418.62 27.727 418.319 25.7863 418.319 23.545V11.122C418.319 8.88067 418.62 6.96733 419.221 5.382C419.823 3.76933 420.82 2.53933 422.214 1.692C423.608 0.844664 425.481 0.420997 427.831 0.420997C430.237 0.420997 432.123 0.844664 433.489 1.692C434.883 2.53933 435.881 3.76933 436.482 5.382C437.111 6.96733 437.425 8.88067 437.425 11.122V23.586C437.425 25.8 437.111 27.727 436.482 29.367C435.881 30.9797 434.883 32.237 433.489 33.139C432.123 34.0137 430.237 34.451 427.831 34.451ZM427.831 29.982C428.843 29.982 429.581 29.7633 430.045 29.326C430.537 28.8887 430.865 28.2873 431.029 27.522C431.193 26.7567 431.275 25.923 431.275 25.021V9.728C431.275 8.79867 431.193 7.965 431.029 7.227C430.865 6.489 430.537 5.915 430.045 5.505C429.581 5.06767 428.843 4.849 427.831 4.849C426.875 4.849 426.15 5.06767 425.658 5.505C425.166 5.915 424.838 6.489 424.674 7.227C424.51 7.965 424.428 8.79867 424.428 9.728V25.021C424.428 25.923 424.497 26.7567 424.633 27.522C424.797 28.2873 425.125 28.8887 425.617 29.326C426.109 29.7633 426.847 29.982 427.831 29.982ZM449.335 34V5.259H444.046V0.789997H460.61V5.259H455.403V34H449.335ZM467.813 34V0.789997H473.84V14.73H475.07L480.441 0.789997H486.468L480.154 16.452L486.96 34H480.81L475.07 18.707H473.84V34H467.813ZM494.013 34V0.789997H507.953V5.054H500.081V14.607H506.272V18.83H500.081V29.818H508.035V34H494.013Z" fill="#EDEDED"/>
</svg>
