<svg width="464" height="444" viewBox="0 0 464 444" fill="none" xmlns="http://www.w3.org/2000/svg">
<g clip-path="url(#clip0_756_140994)">
<path d="M441.003 106.8C414.403 56.1003 364.003 21.0003 309.703 7.70028C257.903 -4.99972 195.503 -4.39972 156.503 37.4003C130.803 64.9003 120.503 103.3 97.9031 133C86.6031 147.8 72.5031 154.5 57.8031 164.9C21.8031 190.1 -4.69686 230.7 1.10314 276.6C10.8031 353.3 80.8031 394.5 151.103 399.1C244.003 405.2 310.303 392.8 366.603 356.8C395.803 338.1 425.003 315.9 442.903 285.2C469.903 238.8 468.803 180.3 451.303 130.4C448.403 122.3 444.903 114.4 441.003 106.8Z" fill="#EAEEF4"/>
<path opacity="0.8" d="M441.003 106.8C414.403 56.1003 364.003 21.0003 309.703 7.70028C257.903 -4.99972 195.503 -4.39972 156.503 37.4003C130.803 64.9003 120.503 103.3 97.9031 133C86.6031 147.8 72.5031 154.5 57.8031 164.9C21.8031 190.1 -4.69686 230.7 1.10314 276.6C10.8031 353.3 80.8031 394.5 151.103 399.1C244.003 405.2 310.303 392.8 366.603 356.8C395.803 338.1 425.003 315.9 442.903 285.2C469.903 238.8 468.803 180.3 451.303 130.4C448.403 122.3 444.903 114.4 441.003 106.8Z" fill="#EAEEF4"/>
<path d="M187.598 57.5996H144.298H137.798H94.4976C91.4976 57.5996 88.6976 58.8996 86.7976 60.9996C84.6976 62.9996 83.3976 65.8996 83.4976 69.0996L85.4976 112V226.9C85.4976 232.1 89.6976 236.3 94.8976 236.3H134.998H145.998H185.998C188.698 236.3 191.198 235.1 192.898 233.2C194.798 231.5 195.998 229 195.998 226.3V111.3L197.998 68.3996C198.298 62.4996 193.498 57.5996 187.598 57.5996Z" stroke="#1A2E35" stroke-width="0.6284" stroke-miterlimit="10" stroke-linecap="round" stroke-linejoin="round"/>
<path d="M94.5938 73.6992V104.999H186.994V73.6992H94.5938ZM182.394 100.399H99.0938V78.2992H182.394V100.399Z" fill="#1A2E35" stroke="#1A2E35" stroke-width="0.6284" stroke-miterlimit="10" stroke-linecap="round" stroke-linejoin="round"/>
<path d="M138.297 136.399H97.8969C96.1969 136.399 94.7969 134.999 94.7969 133.299V125.899C94.7969 124.199 96.1969 122.799 97.8969 122.799H138.297C139.997 122.799 141.397 124.199 141.397 125.899V133.299C141.397 134.999 139.997 136.399 138.297 136.399Z" stroke="#1A2E35" stroke-width="0.6284" stroke-miterlimit="10" stroke-linecap="round" stroke-linejoin="round"/>
<path d="M104.594 122.898V136.398" stroke="#1A2E35" stroke-width="0.6284" stroke-miterlimit="10" stroke-linecap="round" stroke-linejoin="round"/>
<path d="M114 122.898V136.398" stroke="#1A2E35" stroke-width="0.6284" stroke-miterlimit="10" stroke-linecap="round" stroke-linejoin="round"/>
<path d="M123.398 122.898V136.398" stroke="#1A2E35" stroke-width="0.6284" stroke-miterlimit="10" stroke-linecap="round" stroke-linejoin="round"/>
<path d="M132.797 122.898V136.398" stroke="#1A2E35" stroke-width="0.6284" stroke-miterlimit="10" stroke-linecap="round" stroke-linejoin="round"/>
<path d="M155.703 140.999H167.303C168.703 140.999 169.803 139.899 169.803 138.499V132.699C169.803 131.299 168.703 130.199 167.303 130.199H155.703C154.303 130.199 153.203 131.299 153.203 132.699V138.499C153.203 139.899 154.303 140.999 155.703 140.999Z" fill="#F7CE46"/>
<path d="M109.1 145.1H97.5C96.1 145.1 95 146.2 95 147.6V155.3C95 156.7 96.1 157.8 97.5 157.8H109.1C110.5 157.8 111.6 156.7 111.6 155.3V147.6C111.6 146.2 110.5 145.1 109.1 145.1Z" fill="#1A2E35" stroke="#1A2E35" stroke-width="0.6284" stroke-miterlimit="10" stroke-linecap="round" stroke-linejoin="round"/>
<path d="M128.6 145.1H117C115.6 145.1 114.5 146.2 114.5 147.6V155.3C114.5 156.7 115.6 157.8 117 157.8H128.6C130 157.8 131.1 156.7 131.1 155.3V147.6C131.1 146.2 130 145.1 128.6 145.1Z" fill="#1A2E35" stroke="#1A2E35" stroke-width="0.6284" stroke-miterlimit="10" stroke-linecap="round" stroke-linejoin="round"/>
<path d="M147.998 145.1H136.398C134.998 145.1 133.898 146.2 133.898 147.6V155.3C133.898 156.7 134.998 157.8 136.398 157.8H147.998C149.398 157.8 150.498 156.7 150.498 155.3V147.6C150.498 146.2 149.398 145.1 147.998 145.1Z" fill="#1A2E35" stroke="#1A2E35" stroke-width="0.6284" stroke-miterlimit="10" stroke-linecap="round" stroke-linejoin="round"/>
<path d="M167.498 145.1H155.898C154.498 145.1 153.398 146.2 153.398 147.6V155.3C153.398 156.7 154.498 157.8 155.898 157.8H167.498C168.898 157.8 169.998 156.7 169.998 155.3V147.6C169.998 146.2 168.798 145.1 167.498 145.1Z" fill="#1A2E35" stroke="#1A2E35" stroke-width="0.6284" stroke-miterlimit="10" stroke-linecap="round" stroke-linejoin="round"/>
<path d="M186.897 145.1H175.297C173.897 145.1 172.797 146.2 172.797 147.6V155.3C172.797 156.7 173.897 157.8 175.297 157.8H186.897C188.297 157.8 189.397 156.7 189.397 155.3V147.6C189.397 146.2 188.297 145.1 186.897 145.1Z" fill="#1A2E35" stroke="#1A2E35" stroke-width="0.6284" stroke-miterlimit="10" stroke-linecap="round" stroke-linejoin="round"/>
<path d="M109.1 162.1H97.5C96.1 162.1 95 163.2 95 164.6V172.3C95 173.7 96.1 174.8 97.5 174.8H109.1C110.5 174.8 111.6 173.7 111.6 172.3V164.6C111.6 163.2 110.5 162.1 109.1 162.1Z" fill="#1A2E35" stroke="#1A2E35" stroke-width="0.6284" stroke-miterlimit="10" stroke-linecap="round" stroke-linejoin="round"/>
<path d="M128.6 162.1H117C115.6 162.1 114.5 163.2 114.5 164.6V172.3C114.5 173.7 115.6 174.8 117 174.8H128.6C130 174.8 131.1 173.7 131.1 172.3V164.6C131.1 163.2 130 162.1 128.6 162.1Z" fill="#1A2E35" stroke="#1A2E35" stroke-width="0.6284" stroke-miterlimit="10" stroke-linecap="round" stroke-linejoin="round"/>
<path d="M147.998 162.1H136.398C134.998 162.1 133.898 163.2 133.898 164.6V172.3C133.898 173.7 134.998 174.8 136.398 174.8H147.998C149.398 174.8 150.498 173.7 150.498 172.3V164.6C150.498 163.2 149.398 162.1 147.998 162.1Z" fill="#1A2E35" stroke="#1A2E35" stroke-width="0.6284" stroke-miterlimit="10" stroke-linecap="round" stroke-linejoin="round"/>
<path d="M167.498 162.1H155.898C154.498 162.1 153.398 163.2 153.398 164.6V172.3C153.398 173.7 154.498 174.8 155.898 174.8H167.498C168.898 174.8 169.998 173.7 169.998 172.3V164.6C169.998 163.2 168.798 162.1 167.498 162.1Z" fill="#1A2E35" stroke="#1A2E35" stroke-width="0.6284" stroke-miterlimit="10" stroke-linecap="round" stroke-linejoin="round"/>
<path d="M186.897 162.1H175.297C173.897 162.1 172.797 163.2 172.797 164.6V172.3C172.797 173.7 173.897 174.8 175.297 174.8H186.897C188.297 174.8 189.397 173.7 189.397 172.3V164.6C189.397 163.2 188.297 162.1 186.897 162.1Z" fill="#1A2E35" stroke="#1A2E35" stroke-width="0.6284" stroke-miterlimit="10" stroke-linecap="round" stroke-linejoin="round"/>
<path d="M109.1 179.1H97.5C96.1 179.1 95 180.2 95 181.6V189.3C95 190.7 96.1 191.8 97.5 191.8H109.1C110.5 191.8 111.6 190.7 111.6 189.3V181.6C111.6 180.2 110.5 179.1 109.1 179.1Z" fill="#1A2E35" stroke="#1A2E35" stroke-width="0.6284" stroke-miterlimit="10" stroke-linecap="round" stroke-linejoin="round"/>
<path d="M128.6 179.1H117C115.6 179.1 114.5 180.2 114.5 181.6V189.3C114.5 190.7 115.6 191.8 117 191.8H128.6C130 191.8 131.1 190.7 131.1 189.3V181.6C131.1 180.2 130 179.1 128.6 179.1Z" fill="#1A2E35" stroke="#1A2E35" stroke-width="0.6284" stroke-miterlimit="10" stroke-linecap="round" stroke-linejoin="round"/>
<path d="M147.998 179.1H136.398C134.998 179.1 133.898 180.2 133.898 181.6V189.3C133.898 190.7 134.998 191.8 136.398 191.8H147.998C149.398 191.8 150.498 190.7 150.498 189.3V181.6C150.498 180.2 149.398 179.1 147.998 179.1Z" fill="#1A2E35" stroke="#1A2E35" stroke-width="0.6284" stroke-miterlimit="10" stroke-linecap="round" stroke-linejoin="round"/>
<path d="M167.498 179.1H155.898C154.498 179.1 153.398 180.2 153.398 181.6V189.3C153.398 190.7 154.498 191.8 155.898 191.8H167.498C168.898 191.8 169.998 190.7 169.998 189.3V181.6C169.998 180.2 168.798 179.1 167.498 179.1Z" fill="#1A2E35" stroke="#1A2E35" stroke-width="0.6284" stroke-miterlimit="10" stroke-linecap="round" stroke-linejoin="round"/>
<path d="M186.897 179.1H175.297C173.897 179.1 172.797 180.2 172.797 181.6V189.3C172.797 190.7 173.897 191.8 175.297 191.8H186.897C188.297 191.8 189.397 190.7 189.397 189.3V181.6C189.397 180.2 188.297 179.1 186.897 179.1Z" fill="#1A2E35" stroke="#1A2E35" stroke-width="0.6284" stroke-miterlimit="10" stroke-linecap="round" stroke-linejoin="round"/>
<path d="M109.1 196.1H97.5C96.1 196.1 95 197.2 95 198.6V206.3C95 207.7 96.1 208.8 97.5 208.8H109.1C110.5 208.8 111.6 207.7 111.6 206.3V198.6C111.6 197.2 110.5 196.1 109.1 196.1Z" fill="#1A2E35" stroke="#1A2E35" stroke-width="0.6284" stroke-miterlimit="10" stroke-linecap="round" stroke-linejoin="round"/>
<path d="M128.6 196.1H117C115.6 196.1 114.5 197.2 114.5 198.6V206.3C114.5 207.7 115.6 208.8 117 208.8H128.6C130 208.8 131.1 207.7 131.1 206.3V198.6C131.1 197.2 130 196.1 128.6 196.1Z" fill="#1A2E35" stroke="#1A2E35" stroke-width="0.6284" stroke-miterlimit="10" stroke-linecap="round" stroke-linejoin="round"/>
<path d="M147.998 196.1H136.398C134.998 196.1 133.898 197.2 133.898 198.6V206.3C133.898 207.7 134.998 208.8 136.398 208.8H147.998C149.398 208.8 150.498 207.7 150.498 206.3V198.6C150.498 197.2 149.398 196.1 147.998 196.1Z" fill="#1A2E35" stroke="#1A2E35" stroke-width="0.6284" stroke-miterlimit="10" stroke-linecap="round" stroke-linejoin="round"/>
<path d="M167.498 196.1H155.898C154.498 196.1 153.398 197.2 153.398 198.6V206.3C153.398 207.7 154.498 208.8 155.898 208.8H167.498C168.898 208.8 169.998 207.7 169.998 206.3V198.6C169.998 197.2 168.798 196.1 167.498 196.1Z" fill="#1A2E35" stroke="#1A2E35" stroke-width="0.6284" stroke-miterlimit="10" stroke-linecap="round" stroke-linejoin="round"/>
<path d="M109.1 213H97.5C96.1 213 95 214.1 95 215.5V223.2C95 224.6 96.1 225.7 97.5 225.7H109.1C110.5 225.7 111.6 224.6 111.6 223.2V215.5C111.6 214.2 110.5 213 109.1 213Z" fill="#1A2E35" stroke="#1A2E35" stroke-width="0.6284" stroke-miterlimit="10" stroke-linecap="round" stroke-linejoin="round"/>
<path d="M128.6 213H117C115.6 213 114.5 214.1 114.5 215.5V223.2C114.5 224.6 115.6 225.7 117 225.7H128.6C130 225.7 131.1 224.6 131.1 223.2V215.5C131.1 214.2 130 213 128.6 213Z" fill="#1A2E35" stroke="#1A2E35" stroke-width="0.6284" stroke-miterlimit="10" stroke-linecap="round" stroke-linejoin="round"/>
<path d="M147.998 213H136.398C134.998 213 133.898 214.1 133.898 215.5V223.2C133.898 224.6 134.998 225.7 136.398 225.7H147.998C149.398 225.7 150.498 224.6 150.498 223.2V215.5C150.498 214.2 149.398 213 147.998 213Z" fill="#1A2E35" stroke="#1A2E35" stroke-width="0.6284" stroke-miterlimit="10" stroke-linecap="round" stroke-linejoin="round"/>
<path d="M167.498 213H155.898C154.498 213 153.398 214.1 153.398 215.5V223.2C153.398 224.6 154.498 225.7 155.898 225.7H167.498C168.898 225.7 169.998 224.6 169.998 223.2V215.5C169.998 214.2 168.798 213 167.498 213Z" fill="#1A2E35" stroke="#1A2E35" stroke-width="0.6284" stroke-miterlimit="10" stroke-linecap="round" stroke-linejoin="round"/>
<path d="M186.897 196.1H175.297C173.897 196.1 172.797 197.2 172.797 198.6V202.1V206.2V223.2C172.797 224.6 173.897 225.7 175.297 225.7H186.897C188.297 225.7 189.397 224.6 189.397 223.2V206.2V202.1V198.6C189.397 197.2 188.297 196.1 186.897 196.1Z" fill="#1A2E35" stroke="#1A2E35" stroke-width="0.6284" stroke-miterlimit="10" stroke-linecap="round" stroke-linejoin="round"/>
<path d="M186.897 130.199H175.297C173.897 130.199 172.797 131.299 172.797 132.699V138.499C172.797 139.899 173.897 140.999 175.297 140.999H186.897C188.297 140.999 189.397 139.899 189.397 138.499V132.699C189.397 131.399 188.297 130.199 186.897 130.199Z" fill="#F7CE46"/>
<path d="M142.395 89.0004C142.695 88.4004 143.195 88.1004 143.895 88.1004C145.195 88.1004 145.795 89.1004 145.795 90.5004V92.5004C145.795 94.1004 144.995 95.1004 143.495 95.1004C141.895 95.1004 141.195 94.1004 141.195 92.5004V92.0004H142.295V92.8004C142.295 93.7004 142.695 94.3004 143.495 94.3004C144.295 94.3004 144.695 93.7004 144.695 92.8004V90.8004C144.695 89.9004 144.295 89.3004 143.495 89.3004C142.895 89.3004 142.395 89.7004 142.295 90.4004V90.6004H141.195L141.495 84.9004H145.595V85.9004H142.595L142.395 89.0004Z" fill="#1A2E35"/>
<path d="M147.392 95.1988H146.992V93.7988H148.092V95.0988L147.492 96.4988H146.992L147.392 95.1988Z" fill="#1A2E35"/>
<path d="M153.995 87.2998V87.5998C153.995 88.5998 153.595 89.3998 152.795 89.6998C153.695 89.9998 153.995 90.7998 153.995 91.8998V92.6998C153.995 94.2998 153.195 95.2998 151.595 95.2998C149.995 95.2998 149.195 94.2998 149.195 92.6998V91.8998C149.195 90.8998 149.495 90.0998 150.395 89.6998C149.595 89.3998 149.195 88.5998 149.195 87.5998V87.2998C149.195 85.6998 149.995 84.7998 151.595 84.7998C153.095 84.6998 153.995 85.6998 153.995 87.2998ZM150.295 87.2998V87.7998C150.295 88.7998 150.795 89.1998 151.595 89.1998C152.395 89.1998 152.895 88.7998 152.895 87.7998V87.2998C152.895 86.1998 152.395 85.7998 151.595 85.7998C150.695 85.7998 150.295 86.2998 150.295 87.2998ZM150.295 91.7998V92.6998C150.295 93.7998 150.795 94.2998 151.595 94.2998C152.395 94.2998 152.895 93.7998 152.895 92.6998V91.7998C152.895 90.7998 152.495 90.2998 151.595 90.2998C150.695 90.2998 150.295 90.7998 150.295 91.7998Z" fill="#1A2E35"/>
<path d="M159.692 87.2988V92.5988C159.692 94.1988 158.992 95.2988 157.292 95.2988C155.692 95.2988 154.992 94.2988 154.992 92.6988V92.4988H156.092V92.7988C156.092 93.6988 156.492 94.2988 157.292 94.2988C158.192 94.2988 158.592 93.6988 158.592 92.5988V90.2988C158.292 90.9988 157.792 91.3988 156.892 91.3988C155.592 91.3988 154.992 90.4988 154.992 88.9988V87.3988C154.992 85.7988 155.792 84.7988 157.392 84.7988C158.992 84.7988 159.692 85.7988 159.692 87.2988ZM156.092 87.2988V88.7988C156.092 89.6988 156.492 90.2988 157.292 90.2988C158.092 90.2988 158.492 89.6988 158.492 88.7988V87.2988C158.492 86.3988 158.092 85.7988 157.292 85.7988C156.492 85.7988 156.092 86.2988 156.092 87.2988Z" fill="#1A2E35"/>
<path d="M165.397 87.2992C165.397 90.3992 161.897 91.4992 161.897 93.8992V94.0992H165.297V95.0992H160.797V94.1992C160.797 90.8992 164.297 90.1992 164.297 87.2992C164.297 86.1992 163.897 85.6992 163.097 85.6992C162.297 85.6992 161.897 86.2992 161.897 87.1992V88.0992H160.797V87.2992C160.797 85.6992 161.497 84.6992 163.097 84.6992C164.697 84.6992 165.397 85.7992 165.397 87.2992Z" fill="#1A2E35"/>
<path d="M167.592 93.6992V95.0992H166.492V93.6992H167.592Z" fill="#1A2E35"/>
<path d="M169.895 89.0004C170.195 88.4004 170.695 88.1004 171.395 88.1004C172.695 88.1004 173.295 89.1004 173.295 90.5004V92.5004C173.295 94.1004 172.495 95.1004 170.995 95.1004C169.395 95.1004 168.695 94.1004 168.695 92.5004V92.0004H169.795V92.8004C169.795 93.7004 170.195 94.3004 170.995 94.3004C171.795 94.3004 172.195 93.7004 172.195 92.8004V90.8004C172.195 89.9004 171.795 89.3004 170.995 89.3004C170.395 89.3004 169.895 89.7004 169.795 90.4004V90.6004H168.695L168.995 84.9004H173.095V85.9004H170.095L169.895 89.0004Z" fill="#1A2E35"/>
<path d="M179.097 87.2996V87.4996H177.997V87.1996C177.997 86.2996 177.597 85.6996 176.797 85.6996C175.897 85.6996 175.497 86.2996 175.497 87.3996V89.6996C175.797 88.9996 176.297 88.5996 177.197 88.5996C178.497 88.5996 179.097 89.5996 179.097 90.9996V92.5996C179.097 94.1996 178.297 95.1996 176.697 95.1996C175.097 95.1996 174.297 94.1996 174.297 92.5996V87.2996C174.297 85.6996 174.997 84.5996 176.697 84.5996C178.297 84.6996 179.097 85.6996 179.097 87.2996ZM175.497 91.1996V92.6996C175.497 93.5996 175.897 94.1996 176.697 94.1996C177.497 94.1996 177.897 93.5996 177.897 92.6996V91.1996C177.897 90.2996 177.497 89.6996 176.697 89.6996C175.897 89.6996 175.497 90.2996 175.497 91.1996Z" fill="#1A2E35"/>
<path d="M247.397 204.801C247.397 204.801 247.597 204.801 248.097 204.701C250.997 204.301 262.397 202.801 268.897 200.201C276.397 197.201 293.497 198.801 293.497 198.801L300.997 204.201L292.497 209.801C292.497 209.801 280.497 205.801 272.097 206.101C263.697 206.401 259.697 208.901 254.497 208.501C249.297 208.201 242.797 204.701 242.797 204.701H247.397V204.801Z" fill="#1A2E35" stroke="#263238" stroke-miterlimit="10" stroke-linecap="round" stroke-linejoin="round"/>
<path d="M215.297 187.8V199.1H233.797V186.1L215.297 187.8Z" fill="white" stroke="#263238" stroke-miterlimit="10" stroke-linecap="round" stroke-linejoin="round"/>
<path d="M210.298 176.901C210.298 176.901 205.898 174.001 207.398 179.101C208.898 184.201 210.298 186.201 212.498 185.901C214.698 185.701 215.898 184.901 215.198 183.001C214.398 181.101 210.298 176.901 210.298 176.901Z" fill="white" stroke="#263238" stroke-miterlimit="10" stroke-linecap="round" stroke-linejoin="round"/>
<path d="M239.599 176.901C239.599 176.901 243.999 174.001 242.499 179.101C240.999 184.201 239.599 186.201 237.399 185.901C235.199 185.701 233.999 184.901 234.699 183.001C235.399 181.101 239.599 176.901 239.599 176.901Z" fill="white" stroke="#263238" stroke-miterlimit="10" stroke-linecap="round" stroke-linejoin="round"/>
<path d="M219.798 153.6C219.798 153.6 212.498 156 210.098 162.9C207.698 169.7 209.898 178 211.098 181.4C212.298 184.8 218.198 191.4 218.198 191.4H231.298C231.298 191.4 236.198 186.8 238.798 180.7C241.498 174.6 241.498 166.1 241.498 166.1C241.498 166.1 243.698 166.8 243.698 163.9C243.698 161 236.898 155.4 236.898 155.4C236.898 155.4 240.098 154.2 237.898 152.5C235.698 150.8 227.898 151.5 227.898 151.5C227.898 151.5 226.798 146.3 219.798 153.6Z" fill="#1A2E35" stroke="#263238" stroke-miterlimit="10" stroke-linecap="round" stroke-linejoin="round"/>
<path d="M248.599 433.301L250.599 434.501C250.599 434.501 252.799 434.501 254.099 435.701C255.399 436.901 254.899 443.201 254.899 443.201C254.899 443.201 253.899 443.901 249.199 443.901C244.499 443.901 233.999 445.101 232.999 443.301C231.999 441.501 233.199 434.201 233.199 434.201L248.599 433.301Z" fill="#858585" stroke="#263238" stroke-miterlimit="10" stroke-linecap="round" stroke-linejoin="round"/>
<path d="M193.8 276.1C193.8 276.1 192.3 287.1 192.3 289.3C192.3 291.5 191.8 311.1 191.8 311.1C191.8 311.1 192 362.4 192 363.4C192 364.4 187.8 378.4 189.2 387.9C190.6 397.4 193.7 433.9 193.7 433.9C193.7 433.9 192.7 441.9 193.5 442.7C194.3 443.5 203.5 444.5 205.5 443.5C207.5 442.5 206.3 432.7 206.3 432.7C206.3 432.7 207.5 428.5 207.5 425.5C207.5 422.5 207.5 420 207.5 417.5C207.5 415 208.7 392.7 210 384C211.3 375.3 212 363.5 212 363.5L217.2 309.5L221.2 309.3C221.2 309.3 226.2 367.3 226.4 371.6C226.6 375.9 225.6 384.4 227.9 394.1C230.2 403.8 231.4 430.3 231.4 430.3C231.4 430.3 230.9 432.8 231.4 433.8C231.9 434.8 233.2 437.8 233.2 437.8C233.2 437.8 235.2 438 238.5 437.8C241.2 437.6 242.9 437.3 246.5 435.6C248.3 434 249.1 431.7 248.1 429.4C246.6 425.7 245.9 425 245.9 425C245.9 425 248.1 393.5 248.1 385.8C248.1 378.1 246.9 368.6 246.9 367.8C246.9 367 248.4 310.8 248.4 305C248.4 299.2 247.9 283.8 245.4 277C242.9 270.2 202.9 272 198.9 272.2C194.9 272.4 193.8 276.1 193.8 276.1Z" fill="#1A2E35" stroke="#263238" stroke-miterlimit="10" stroke-linecap="round" stroke-linejoin="round"/>
<path d="M208.602 308.9L230.102 307.9" stroke="#757575" stroke-miterlimit="10" stroke-linecap="round" stroke-linejoin="round"/>
<path d="M221.098 198.6L207.598 201.8C207.598 201.8 188.098 211.3 183.798 213.8C179.498 216.3 162.798 250.1 163.598 251.8C164.398 253.5 167.598 255.8 170.798 256.3C173.998 256.8 190.598 238.1 190.598 238.1C190.598 238.1 195.398 261.6 195.398 262.6C195.398 263.6 192.598 275.6 193.898 277.6C195.198 279.6 243.198 277.6 243.198 277.6C243.198 277.6 246.698 277.8 247.198 274.6C247.698 271.4 246.198 261.8 246.198 261.8L251.698 233C251.698 233 262.198 248.9 264.598 251.5C268.698 256 273.798 254.1 276.498 250.7C278.898 247.8 276.698 242.2 275.998 240.5C275.298 238.8 261.998 209 257.998 207.7C253.998 206.4 237.198 200.5 237.198 200.5L221.098 198.6Z" fill="white" stroke="#263238" stroke-miterlimit="10" stroke-linecap="round" stroke-linejoin="round"/>
<path d="M207.594 201.8C207.594 201.8 224.094 201.5 226.894 201.5C229.694 201.5 239.694 201.4 239.694 201.4L237.194 196C237.194 196 231.994 194.5 223.994 194.5C215.994 194.5 209.994 197 209.994 197L207.594 201.8Z" fill="white" stroke="#263238" stroke-miterlimit="10" stroke-linecap="round" stroke-linejoin="round"/>
<path d="M185.497 224.9L190.597 238.1L181.797 229.3" stroke="#263238" stroke-miterlimit="10" stroke-linecap="round" stroke-linejoin="round"/>
<path d="M183.797 220.6L184.397 222.1" stroke="#263238" stroke-miterlimit="10" stroke-linecap="round" stroke-linejoin="round"/>
<path d="M211.998 260.4C211.098 261.1 210.298 261.8 209.398 262.3" stroke="#263238" stroke-miterlimit="10" stroke-linecap="round" stroke-linejoin="round"/>
<path d="M234.798 222.6C234.798 222.6 225.698 247.6 213.398 259.1" stroke="#263238" stroke-miterlimit="10" stroke-linecap="round" stroke-linejoin="round"/>
<path d="M257.294 218.801L251.594 233.101L260.794 223.101" stroke="#263238" stroke-miterlimit="10" stroke-linecap="round" stroke-linejoin="round"/>
<path d="M161.297 258.1C161.297 258.1 163.097 263.9 168.497 268.1C173.897 272.3 188.697 286.3 188.697 286.3C188.697 286.3 188.497 287.3 188.697 288.5C188.897 289.7 192.897 293 192.897 293V290.5L193.897 288.5L194.897 286C194.897 286 197.397 285 198.097 284.5C198.797 284 199.297 283.3 199.297 283.3C199.297 283.3 202.097 283.8 203.797 283.8C205.497 283.8 207.997 282 206.597 281.6C205.197 281.2 203.597 281.6 201.597 280.6C199.597 279.6 198.597 278.6 196.597 278.6C194.597 278.6 191.397 278.6 191.397 278.6L177.597 256.1L161.297 258.1Z" fill="white" stroke="#263238" stroke-miterlimit="10" stroke-linecap="round" stroke-linejoin="round"/>
<path d="M167.197 242.701C167.197 242.701 164.297 243.601 163.497 244.301C162.697 245.001 158.997 250.801 159.697 253.801C160.397 256.801 161.497 261.001 167.897 262.301C174.297 263.601 177.897 260.801 178.397 260.101C178.897 259.401 180.097 250.501 179.097 250.501C178.097 250.501 175.397 253.801 175.397 253.801C175.397 253.801 167.997 252.101 166.497 250.901C164.997 249.701 167.197 242.701 167.197 242.701Z" fill="white" stroke="#263238" stroke-miterlimit="10" stroke-linecap="round" stroke-linejoin="round"/>
<path d="M281.896 258.101C281.896 258.101 280.096 263.901 274.696 268.101C269.296 272.301 254.496 286.301 254.496 286.301C254.496 286.301 254.696 287.301 254.496 288.501C254.296 289.701 248.696 293.601 248.696 293.601V290.001L248.296 287.701L248.196 286.101C248.196 286.101 245.696 285.101 244.996 284.601C244.296 284.101 243.796 283.401 243.796 283.401C243.796 283.401 240.996 283.901 239.296 283.901C237.596 283.901 235.096 282.101 236.496 281.701C237.896 281.301 239.496 281.701 241.496 280.701C243.496 279.701 244.496 278.701 246.496 278.701C248.496 278.701 251.696 278.701 251.696 278.701L265.496 256.201L281.896 258.101Z" fill="white" stroke="#263238" stroke-miterlimit="10" stroke-linecap="round" stroke-linejoin="round"/>
<path d="M277.095 243.901C277.095 243.901 278.995 243.501 279.695 244.301C280.395 245.101 284.195 250.801 283.495 253.801C282.795 256.801 281.695 261.001 275.295 262.301C268.895 263.601 265.295 260.801 264.795 260.101C264.295 259.401 263.895 250.801 264.595 251.601C265.795 253.001 267.795 253.801 267.795 253.801C267.795 253.801 275.595 253.401 276.795 249.001C277.195 247.201 277.095 243.901 277.095 243.901Z" fill="white" stroke="#263238" stroke-miterlimit="10" stroke-linecap="round" stroke-linejoin="round"/>
<path d="M205.595 443.301C207.195 442.501 206.695 436.301 206.495 433.701C205.195 434.301 203.195 435.001 200.895 435.301C196.695 435.801 193.895 433.801 193.895 433.801C193.895 433.801 193.095 442.401 193.795 443.301C194.395 444.201 203.595 444.301 205.595 443.301Z" fill="#858585" stroke="#263238" stroke-miterlimit="10" stroke-linecap="round" stroke-linejoin="round"/>
</g>
<defs>
<clipPath id="clip0_756_140994">
<rect width="464" height="444" fill="white"/>
</clipPath>
</defs>
</svg>
