<svg width="300" height="300" viewBox="0 0 300 300" fill="none" xmlns="http://www.w3.org/2000/svg">
<path opacity="0.62" d="M117.9 260.8C173.626 260.8 218.8 258.114 218.8 254.8C218.8 251.486 173.626 248.8 117.9 248.8C62.1745 248.8 17 251.486 17 254.8C17 258.114 62.1745 260.8 117.9 260.8Z" fill="#F7CE46"/>
<path d="M19.5 199V219.6C19.5 221.6 21.1 223.2 23.1 223.2H212.8C214.8 223.2 216.4 221.6 216.4 219.6V199H19.5Z" fill="#F0F0F0"/>
<path d="M216.3 84.9999C216.3 82.9999 214.7 81.3999 212.7 81.3999H23.1C21.1 81.3999 19.5 82.9999 19.5 84.9999V199H216.3V84.9999Z" fill="#475569"/>
<path d="M152.2 223.2H84.5V244H152.2V223.2Z" fill="#D6D6D6"/>
<path d="M167.5 244H68.2V253.7H167.5V244Z" fill="#F0F0F0"/>
<path d="M152.2 223.2H84.5V230.7H152.2V223.2Z" fill="#BDBDBD"/>
<path d="M206.2 91.5999H29.7V188.5H206.2V91.5999Z" fill="#F7CE46"/>
<path d="M99.2 110.6L86.8999 122.9L74.5999 110.6L69.7 115.5L82 127.8L69.7 140.1L74.5999 145L86.8999 132.7L99.2 145L104.1 140.1L91.7999 127.8L104.1 115.5L99.2 110.6Z" fill="#475569"/>
<path d="M166.1 115.5L161.2 110.6L148.9 122.9L136.6 110.6L131.7 115.5L144 127.8L131.7 140.1L136.6 145L148.9 132.7L161.2 145L166.1 140.1L153.8 127.8L166.1 115.5Z" fill="#475569"/>
<path d="M144.2 175C118.2 157.1 91.8999 174.8 91.5999 175L88.2 170.1C88.5 169.9 118.2 149.8 147.6 170.1L144.2 175Z" fill="#475569"/>
<path d="M200.942 104.733L201.327 104H200.499H190.199C188.275 104 186.699 102.424 186.699 100.5V43C186.699 41.0761 188.275 39.5 190.199 39.5H279.199C281.123 39.5 282.699 41.0761 282.699 43V100.5C282.699 102.424 281.123 104 279.199 104H224.599H224.468L224.354 104.064L191.629 122.436L200.942 104.733Z" fill="white" stroke="#E8E8E8"/>
<path d="M233.405 84.2917C240.395 84.2917 246.062 78.7698 246.062 71.9583C246.062 65.1468 240.395 59.625 233.405 59.625C226.414 59.625 220.747 65.1468 220.747 71.9583C220.747 78.7698 226.414 84.2917 233.405 84.2917Z" stroke="#475569" stroke-width="2" stroke-linecap="round" stroke-linejoin="round"/>
<path d="M249.227 87.3749L242.898 81.2083" stroke="#475569" stroke-width="2" stroke-linecap="round" stroke-linejoin="round"/>
<path d="M222 54.5H250C252.485 54.5 254.5 56.5147 254.5 59V87C254.5 89.4853 252.485 91.5 250 91.5H222C219.515 91.5 217.5 89.4853 217.5 87V59C217.5 56.5147 219.515 54.5 222 54.5Z" fill="white"/>
<path d="M222 54.5H250C252.485 54.5 254.5 56.5147 254.5 59V87C254.5 89.4853 252.485 91.5 250 91.5H222C219.515 91.5 217.5 89.4853 217.5 87V59C217.5 56.5147 219.515 54.5 222 54.5Z" stroke="#F7CE46"/>
<path d="M236 66.3333L238.06 70.5066L242.667 71.1799L239.333 74.4266L240.12 79.0133L236 76.8466L231.88 79.0133L232.667 74.4266L229.333 71.1799L233.94 70.5066L236 66.3333Z" stroke="#475569" stroke-linecap="round" stroke-linejoin="round"/>
</svg>
