<svg width="54" height="54" viewBox="0 0 54 54" fill="none" xmlns="http://www.w3.org/2000/svg">
<path d="M45.4022 15.9464L43.9156 17.2843L45.4022 15.9464ZM39.2706 9.13348L37.784 10.4714L39.2706 9.13348ZM7.24047 44.7929L5.45846 45.7009H5.45846L7.24047 44.7929ZM9.20654 46.7595L10.1145 44.9774H10.1145L9.20654 46.7595ZM9.20654 7.24047L10.1145 9.02248L9.20654 7.24047ZM7.24047 9.20709L9.02248 10.1151L7.24047 9.20709ZM37.6117 7.50229L38.7187 5.83662L38.7187 5.83662L37.6117 7.50229ZM36.24 6.89145L36.7375 4.95432L36.24 6.89145ZM47.1412 18.7454L45.1894 19.1816L47.1412 18.7454ZM46.6712 17.5184L44.9286 18.4999L46.6712 17.5184ZM46.76 44.7929L44.978 43.885L46.76 44.7929ZM44.7925 46.7595L43.8845 44.9774L44.7925 46.7595ZM38.25 47.25L38.25 49.25C38.7804 49.25 39.2891 49.0393 39.6642 48.6642C40.0393 48.2892 40.25 47.7805 40.25 47.25H38.25ZM15.75 47.25H13.75C13.75 48.3546 14.6454 49.25 15.75 49.25L15.75 47.25ZM16.2405 33.9571L18.0225 34.8651L16.2405 33.9571ZM18.2065 31.9905L19.1145 33.7725L18.2065 31.9905ZM37.76 33.9571L35.978 34.8651L37.76 33.9571ZM35.7925 31.9905L36.7005 30.2085L35.7925 31.9905ZM33.75 17.75C34.8546 17.75 35.75 16.8546 35.75 15.75C35.75 14.6454 34.8546 13.75 33.75 13.75V17.75ZM20.25 13.75C19.1454 13.75 18.25 14.6454 18.25 15.75C18.25 16.8546 19.1454 17.75 20.25 17.75V13.75ZM49.25 40.05V20.7629H45.25V40.05H49.25ZM46.8888 14.6085L40.7572 7.79555L37.784 10.4714L43.9156 17.2843L46.8888 14.6085ZM33.9188 4.75H13.9504V8.75H33.9188V4.75ZM4.75 13.95V40.05H8.75V13.95H4.75ZM13.9504 49.25H40.0504V45.25H13.9504V49.25ZM4.75 40.05C4.75 41.2771 4.74844 42.3178 4.81795 43.1685C4.88937 44.0425 5.04562 44.8907 5.45846 45.7009L9.02248 43.885C8.94485 43.7326 8.85587 43.4694 8.80467 42.8427C8.75156 42.1927 8.75 41.3431 8.75 40.05H4.75ZM13.9504 45.25C12.6574 45.25 11.8075 45.2484 11.1572 45.1953C10.5302 45.1441 10.2668 45.055 10.1145 44.9774L8.29856 48.5415C9.10888 48.9544 9.95737 49.1106 10.8315 49.182C11.6825 49.2515 12.7233 49.25 13.9504 49.25V45.25ZM5.45846 45.7009C6.08142 46.9235 7.07508 47.9181 8.29856 48.5415L10.1145 44.9774C9.64455 44.738 9.26239 44.3558 9.02248 43.885L5.45846 45.7009ZM13.9504 4.75C12.7233 4.75 11.6825 4.74845 10.8316 4.81795C9.95743 4.88934 9.10892 5.04556 8.29856 5.45846L10.1145 9.02248C10.2668 8.94491 10.5301 8.85589 11.1572 8.80467C11.8075 8.75155 12.6573 8.75 13.9504 8.75V4.75ZM8.75 13.95C8.75 12.6569 8.75156 11.8074 8.80467 11.1573C8.85587 10.5306 8.94485 10.2674 9.02248 10.1151L5.45846 8.29911C5.04562 9.10935 4.88937 9.95752 4.81795 10.8316C4.74844 11.6823 4.75 12.7229 4.75 13.95H8.75ZM8.29856 5.45846C7.07499 6.0819 6.08137 7.07657 5.45846 8.29911L9.02248 10.1151C9.26243 9.64415 9.64464 9.2619 10.1145 9.02248L8.29856 5.45846ZM40.7572 7.79555C40.0352 6.99336 39.4517 6.32376 38.7187 5.83662L36.5047 9.16796C36.7189 9.31032 36.9263 9.51832 37.784 10.4714L40.7572 7.79555ZM33.9188 8.75C35.2021 8.75 35.4936 8.76467 35.7425 8.82858L36.7375 4.95432C35.8848 4.73533 34.997 4.75 33.9188 4.75V8.75ZM38.7187 5.83662C38.1123 5.43357 37.4424 5.13535 36.7375 4.95432L35.7425 8.82858C36.0138 8.89828 36.2716 9.01309 36.5047 9.16796L38.7187 5.83662ZM49.25 20.7629C49.25 19.8275 49.2606 19.059 49.0931 18.3093L45.1894 19.1816C45.2385 19.4013 45.25 19.6547 45.25 20.7629H49.25ZM43.9156 17.2843C44.6578 18.1089 44.8183 18.304 44.9286 18.4999L48.4138 16.5369C48.0366 15.8673 47.5138 15.3029 46.8888 14.6085L43.9156 17.2843ZM49.0931 18.3093C48.9549 17.6906 48.7272 17.0932 48.4138 16.5369L44.9286 18.4999C45.0476 18.7111 45.1355 18.9405 45.1894 19.1816L49.0931 18.3093ZM45.25 40.05C45.25 41.3433 45.2486 42.1929 45.1955 42.843C45.1444 43.4698 45.0555 43.7328 44.978 43.885L48.542 45.7009C48.955 44.8905 49.111 44.0421 49.1823 43.1681C49.2517 42.3176 49.25 41.2769 49.25 40.05H45.25ZM40.0504 49.25C41.2776 49.25 42.318 49.2515 43.1685 49.182C44.0426 49.1106 44.8904 48.9542 45.7005 48.5415L43.8845 44.9774C43.732 45.0552 43.469 45.1441 42.8426 45.1953C42.1929 45.2484 41.3435 45.25 40.0504 45.25V49.25ZM44.978 43.885C44.7388 44.3545 44.3559 44.7373 43.8845 44.9774L45.7005 48.5415C46.9226 47.9188 47.9184 46.9249 48.542 45.7009L44.978 43.885ZM36.25 38.7V47.25H40.25V38.7H36.25ZM38.25 45.25L15.75 45.25L15.75 49.25L38.25 49.25L38.25 45.25ZM17.75 47.25V38.7H13.75V47.25H17.75ZM22.9504 33.5H31.0504V29.5H22.9504V33.5ZM17.75 38.7C17.75 37.4069 17.7516 36.5574 17.8047 35.9073C17.8559 35.2806 17.9448 35.0174 18.0225 34.8651L14.4585 33.0491C14.0456 33.8593 13.8894 34.7075 13.818 35.5816C13.7484 36.4323 13.75 37.4729 13.75 38.7H17.75ZM22.9504 29.5C21.7233 29.5 20.6825 29.4984 19.8316 29.5679C18.9574 29.6393 18.1089 29.7956 17.2986 30.2085L19.1145 33.7725C19.2668 33.6949 19.5301 33.6059 20.1572 33.5547C20.8075 33.5016 21.6573 33.5 22.9504 33.5V29.5ZM18.0225 34.8651C18.2624 34.3942 18.6446 34.0119 19.1145 33.7725L17.2986 30.2085C16.075 30.8319 15.0814 31.8266 14.4585 33.0491L18.0225 34.8651ZM40.25 38.7C40.25 37.4731 40.2517 36.4325 40.1823 35.5819C40.111 34.7079 39.955 33.8596 39.542 33.0491L35.978 34.8651C36.0555 35.0172 36.1444 35.2802 36.1955 35.907C36.2486 36.5572 36.25 37.4067 36.25 38.7H40.25ZM31.0504 33.5C32.3436 33.5 33.1929 33.5016 33.8427 33.5547C34.469 33.6059 34.7321 33.6948 34.8845 33.7725L36.7005 30.2085C35.8904 29.7957 35.0425 29.6394 34.1685 29.568C33.318 29.4984 32.2775 29.5 31.0504 29.5V33.5ZM39.542 33.0491C38.9184 31.8252 37.9227 30.8312 36.7005 30.2085L34.8845 33.7725C35.3558 34.0126 35.7387 34.3955 35.978 34.8651L39.542 33.0491ZM33.75 13.75H20.25V17.75H33.75V13.75Z" fill="#10B981"/>
</svg>
