<svg width="171" height="38" viewBox="0 0 171 38" fill="none" xmlns="http://www.w3.org/2000/svg">
<g clip-path="url(#clip0_2001_26942)">
<path fill-rule="evenodd" clip-rule="evenodd" d="M28.6598 0.739555H0.00153351V28.8786H28.6598V0.739555Z" fill="#F7CE46"/>
<path fill-rule="evenodd" clip-rule="evenodd" d="M7.33154 9.57588L14.6265 9.58513C16.0835 9.63718 17.2165 10.8732 16.4982 12.3214C15.8458 13.637 14.1236 13.3622 12.4251 13.3624C10.7415 13.3627 9.05801 13.3625 7.37449 13.3625C7.24578 14.3917 7.33014 22.4627 7.33154 24.1643H12.078L12.0161 17.5564C13.4056 17.2276 15.9188 17.9722 18.2322 16.748C21.7547 14.8841 22.3768 10.3148 19.8351 7.4071C18.8627 6.29467 16.9336 5.45383 14.7387 5.45383H7.27718L7.33154 9.57588Z" fill="#1D1D1D"/>
<path fill-rule="evenodd" clip-rule="evenodd" d="M14.233 18.4201L16.9752 24.1757L22.3249 24.1756C22.2194 23.4603 19.2882 18.659 18.9156 17.4813C17.1681 17.9327 17.9418 18.4201 14.233 18.4201Z" fill="#1D1D1D"/>
<path fill-rule="evenodd" clip-rule="evenodd" d="M48.075 16.3645H43.5622L40.7612 10.5979H39.4497V16.3645H35.5595V0.870852H41.8281C43.5027 0.870852 44.8219 1.36052 45.7852 2.33972C46.7484 3.31891 47.2303 4.49038 47.2303 5.85404C47.2303 6.82606 46.9781 7.65663 46.4743 8.34578C45.9706 9.03481 45.3626 9.55339 44.6517 9.90159L48.075 16.3645ZM42.873 6.9639C43.1843 6.64472 43.3398 6.27483 43.3398 5.85404C43.3398 5.4334 43.1843 5.06707 42.873 4.75522C42.5616 4.44333 42.1543 4.28735 41.6505 4.28735H39.4497V7.42081H41.6505C42.1543 7.42081 42.5616 7.26857 42.873 6.9639ZM60.8125 16.3645H50.0531V0.870852H60.8125V4.26555H53.9437V6.85508H59.8123V10.2498H53.9437V12.9699H60.8125V16.3645ZM74.1952 11.6207C74.1952 13.144 73.6131 14.3372 72.4497 15.2004C71.2867 16.0635 69.8304 16.4951 68.0816 16.4951C66.7775 16.4951 65.6404 16.3465 64.6694 16.049C63.6988 15.7517 62.8357 15.2185 62.0796 14.4497L64.5697 12.0124C65.3105 12.7379 66.4887 13.1005 68.1042 13.1005C69.6155 13.1005 70.3715 12.6362 70.3715 11.7077C70.3715 11.316 70.2677 11.0114 70.0601 10.7938C69.8378 10.5763 69.4895 10.4383 69.0153 10.3804L67.1036 10.1192C65.6958 9.9161 64.6361 9.45911 63.9248 8.74828C63.1987 8.02297 62.8357 6.9857 62.8357 5.63651C62.8357 4.20025 63.3579 3.02516 64.4027 2.11123C65.4476 1.19733 66.8518 0.740265 68.6153 0.740265C70.9122 0.740265 72.6909 1.35689 73.9503 2.58997L71.5053 4.98367C71.1197 4.60653 70.7013 4.35982 70.2492 4.24385C69.7972 4.12778 69.2155 4.06976 68.5041 4.06976C67.8818 4.06976 67.4076 4.21476 67.0815 4.50492C66.7554 4.79508 66.5925 5.12877 66.5925 5.50592C66.5925 5.7816 66.6959 6.02094 66.9035 6.22401C67.1554 6.4706 67.5184 6.62303 67.993 6.68103L69.9046 6.94221C71.2978 7.13076 72.3352 7.55873 73.0166 8.22607C73.8022 8.9804 74.1952 10.112 74.1952 11.6207ZM87.4885 4.26555H83.5983V16.3645H79.7082V4.26555H75.818V0.870852H87.4885V4.26555ZM101.027 6.72449C101.056 7.14524 101.071 7.77627 101.071 8.61769C101.071 9.45911 101.06 10.0902 101.038 10.511C101.016 10.9316 100.96 11.4394 100.871 12.0342C100.782 12.629 100.619 13.144 100.382 13.5792C100.145 14.0144 99.8337 14.4206 99.4481 14.7979C98.2921 15.9293 96.8251 16.4951 95.0464 16.4951C93.2685 16.4951 91.8011 15.9293 90.6451 14.7979C90.2599 14.4206 89.9486 14.0144 89.7115 13.5792C89.4744 13.144 89.3115 12.629 89.2225 12.0342C89.1335 11.4394 89.0781 10.9316 89.0559 10.511C89.0334 10.0902 89.0223 9.45911 89.0223 8.61769C89.0223 7.77627 89.0334 7.14524 89.0559 6.72449C89.0781 6.30381 89.1335 5.79611 89.2225 5.20125C89.3115 4.60653 89.4744 4.09145 89.7115 3.6563C89.9486 3.22104 90.2599 2.81488 90.6451 2.43758C91.8011 1.30611 93.2685 0.740265 95.0464 0.740265C96.8251 0.740265 98.2921 1.30611 99.4481 2.43758C99.8337 2.81488 100.145 3.22104 100.382 3.6563C100.619 4.09145 100.782 4.60653 100.871 5.20125C100.96 5.79611 101.012 6.30381 101.027 6.72449ZM97.0475 11.2942C97.1361 10.8156 97.1808 9.92339 97.1808 8.61769C97.1808 7.31203 97.1361 6.41619 97.0475 5.93026C96.9585 5.44429 96.8104 5.07077 96.6028 4.80959C96.2472 4.35982 95.7282 4.13507 95.0464 4.13507C94.365 4.13507 93.8461 4.35982 93.4905 4.80959C93.2833 5.07077 93.1348 5.44429 93.0462 5.93026C92.9571 6.41619 92.9125 7.31203 92.9125 8.61769C92.9125 9.92339 92.9571 10.8156 93.0462 11.2942C93.1348 11.773 93.2833 12.143 93.4905 12.4042C93.8461 12.8683 94.365 13.1005 95.0464 13.1005C95.7282 13.1005 96.2472 12.8683 96.6028 12.4042C96.8104 12.143 96.9585 11.773 97.0475 11.2942ZM116.276 16.3645H111.764L108.962 10.5979H107.651V16.3645H103.761V0.870852H110.03C111.704 0.870852 113.023 1.36052 113.987 2.33972C114.95 3.31891 115.432 4.49038 115.432 5.85404C115.432 6.82606 115.18 7.65663 114.676 8.34578C114.172 9.03481 113.564 9.55339 112.853 9.90159L116.276 16.3645ZM111.074 6.9639C111.386 6.64472 111.541 6.27483 111.541 5.85404C111.541 5.4334 111.386 5.06707 111.074 4.75522C110.763 4.44333 110.356 4.28735 109.852 4.28735H107.651V7.42081H109.852C110.356 7.42081 110.763 7.26857 111.074 6.9639ZM131.17 16.3645H127.102L126.369 14.0579H121.5L120.722 16.3645H116.654L122.412 0.870852H125.413L131.17 16.3645ZM125.346 10.8808L124.012 6.74633L122.59 10.8808H125.346ZM141.952 4.26555H138.062V16.3645H134.171V4.26555H130.281V0.870852H141.952V4.26555ZM155.49 6.72449C155.52 7.14524 155.535 7.77627 155.535 8.61769C155.535 9.45911 155.523 10.0902 155.501 10.511C155.479 10.9316 155.423 11.4394 155.334 12.0342C155.245 12.629 155.083 13.144 154.845 13.5792C154.608 14.0144 154.297 14.4206 153.912 14.7979C152.756 15.9293 151.288 16.4951 149.51 16.4951C147.732 16.4951 146.264 15.9293 145.108 14.7979C144.723 14.4206 144.412 14.0144 144.175 13.5792C143.938 13.144 143.775 12.629 143.686 12.0342C143.597 11.4394 143.541 10.9316 143.519 10.511C143.497 10.0902 143.486 9.45911 143.486 8.61769C143.486 7.77627 143.497 7.14524 143.519 6.72449C143.541 6.30381 143.597 5.79611 143.686 5.20125C143.775 4.60653 143.938 4.09145 144.175 3.6563C144.412 3.22104 144.723 2.81488 145.108 2.43758C146.264 1.30611 147.732 0.740265 149.51 0.740265C151.288 0.740265 152.756 1.30611 153.912 2.43758C154.297 2.81488 154.608 3.22104 154.845 3.6563C155.083 4.09145 155.245 4.60653 155.334 5.20125C155.423 5.79611 155.475 6.30381 155.49 6.72449ZM151.511 11.2942C151.6 10.8156 151.644 9.92339 151.644 8.61769C151.644 7.31203 151.6 6.41619 151.511 5.93026C151.422 5.44429 151.274 5.07077 151.066 4.80959C150.71 4.35982 150.192 4.13507 149.51 4.13507C148.828 4.13507 148.31 4.35982 147.954 4.80959C147.747 5.07077 147.598 5.44429 147.509 5.93026C147.42 6.41619 147.376 7.31203 147.376 8.61769C147.376 9.92339 147.42 10.8156 147.509 11.2942C147.598 11.773 147.747 12.143 147.954 12.4042C148.31 12.8683 148.828 13.1005 149.51 13.1005C150.192 13.1005 150.71 12.8683 151.066 12.4042C151.274 12.143 151.422 11.773 151.511 11.2942ZM170.74 16.3645H166.227L163.426 10.5979H162.115V16.3645H158.224V0.870852H164.493C166.168 0.870852 167.487 1.36052 168.45 2.33972C169.413 3.31891 169.895 4.49038 169.895 5.85404C169.895 6.82606 169.643 7.65663 169.139 8.34578C168.635 9.03481 168.028 9.55339 167.316 9.90159L170.74 16.3645ZM165.538 6.9639C165.849 6.64472 166.005 6.27483 166.005 5.85404C166.005 5.4334 165.849 5.06707 165.538 4.75522C165.227 4.44333 164.819 4.28735 164.315 4.28735H162.115V7.42081H164.315C164.819 7.42081 165.227 7.26857 165.538 6.9639Z" fill="#1D1D1D"/>
<path fill-rule="evenodd" clip-rule="evenodd" d="M39.8352 26.5177C39.8352 27.4579 39.6406 28.1217 39.2517 28.5092C38.9729 28.7824 38.5836 28.9189 38.0842 28.9189C37.514 28.9189 37.0634 28.7157 36.7327 28.3091V30.958H36.0324V24.1738H36.7327V24.7265C37.0634 24.32 37.514 24.1167 38.0842 24.1167C38.5836 24.1167 38.9729 24.2532 39.2517 24.5263C39.6406 24.9075 39.8352 25.5713 39.8352 26.5177ZM39.0862 27.1943C39.1187 27.0037 39.1346 26.7782 39.1346 26.5177C39.1346 26.2574 39.1202 26.0318 39.091 25.8413C39.0619 25.6507 39.0083 25.4649 38.9304 25.2838C38.8528 25.1029 38.7295 24.9647 38.5611 24.8694C38.3926 24.7742 38.1851 24.7265 37.9387 24.7265C37.7374 24.7265 37.5624 24.7598 37.4135 24.8265C37.2643 24.8932 37.1461 24.9805 37.0586 25.0886C36.9711 25.1966 36.9029 25.3331 36.8542 25.4982C36.8056 25.6634 36.7732 25.8238 36.7569 25.9795C36.7408 26.135 36.7327 26.3146 36.7327 26.5177C36.7327 26.721 36.7408 26.9005 36.7569 27.0561C36.7732 27.2118 36.8056 27.3721 36.8542 27.5373C36.9029 27.7025 36.9711 27.839 37.0586 27.947C37.1461 28.055 37.2643 28.1424 37.4135 28.209C37.5624 28.2758 37.7374 28.3091 37.9387 28.3091C38.1851 28.3091 38.3926 28.2615 38.5611 28.1661C38.7295 28.0709 38.8528 27.9327 38.9304 27.7518C39.0083 27.5707 39.0604 27.3849 39.0862 27.1943ZM44.5224 24.5549L44.0072 25.0694C43.8776 24.9425 43.7527 24.8535 43.6327 24.8027C43.5127 24.7518 43.362 24.7265 43.1806 24.7265C42.8368 24.7265 42.5598 24.8456 42.3489 25.0837C42.1384 25.322 42.0331 25.6221 42.0331 25.9842V28.8618H41.3329V24.1738H42.0331V24.7456C42.1628 24.5487 42.3489 24.3946 42.5923 24.2833C42.8353 24.1722 43.0964 24.1167 43.3749 24.1167C43.8417 24.1167 44.2244 24.2628 44.5224 24.5549ZM48.7919 26.5177C48.7919 27.3753 48.5976 27.9978 48.2083 28.3854C47.8582 28.741 47.4013 28.9189 46.8374 28.9189C46.2734 28.9189 45.8162 28.741 45.4661 28.3854C45.0768 27.9978 44.8825 27.3753 44.8825 26.5177C44.8825 25.6539 45.0768 25.0314 45.4661 24.6502C45.8162 24.2946 46.2734 24.1167 46.8374 24.1167C47.4013 24.1167 47.8582 24.2946 48.2083 24.6502C48.5976 25.0314 48.7919 25.6539 48.7919 26.5177ZM48.092 26.5177C48.092 25.8 47.9653 25.3172 47.7127 25.0694C47.4789 24.8408 47.1871 24.7265 46.8374 24.7265C46.4935 24.7265 46.2051 24.8408 45.9717 25.0694C45.7124 25.3235 45.5828 25.8063 45.5828 26.5177C45.5828 27.2292 45.7124 27.712 45.9717 27.966C46.2051 28.1947 46.4935 28.3091 46.8374 28.3091C47.1871 28.3091 47.4789 28.1947 47.7127 27.966C47.9653 27.712 48.092 27.2292 48.092 26.5177ZM52.1668 24.6979H51.1456V28.8618H50.4454V24.6979H49.8327V24.1738H50.4454V23.3163C50.4454 22.9479 50.5506 22.6462 50.7615 22.4111C50.972 22.176 51.2719 22.0585 51.6608 22.0585H52.1668V22.6493H51.7875C51.3595 22.6493 51.1456 22.8779 51.1456 23.3353V24.1738H52.1668V24.6979ZM56.864 26.6988H53.6353C53.6353 27.2197 53.7553 27.6199 53.995 27.8994C54.2347 28.1789 54.5852 28.3186 55.0454 28.3186C55.3176 28.3186 55.5462 28.2774 55.7309 28.1947C55.9159 28.1122 56.1054 27.9757 56.3 27.7851L56.7764 28.1947C56.5172 28.4489 56.2579 28.6331 55.9983 28.7474C55.739 28.8618 55.4147 28.9189 55.0258 28.9189C54.3647 28.9189 53.8506 28.7204 53.4846 28.3233C53.1182 27.9264 52.935 27.3245 52.935 26.5177C52.935 25.7619 53.1101 25.1727 53.4602 24.7503C53.8103 24.3279 54.2901 24.1167 54.8995 24.1167C55.5155 24.1167 55.9968 24.3183 56.3436 24.7217C56.6904 25.1251 56.864 25.6825 56.864 26.3939V26.6988ZM56.1733 26.1843C56.1475 25.8222 56.0958 25.5618 56.0178 25.403C55.7911 24.9329 55.418 24.6979 54.8995 24.6979C54.381 24.6979 54.0079 24.9329 53.7812 25.403C53.7032 25.5682 53.6545 25.8286 53.6353 26.1843H56.1733ZM61.8045 27.4896C61.8045 27.9344 61.628 28.2837 61.2745 28.5378C60.9211 28.7919 60.4494 28.9189 59.8592 28.9189C59.0164 28.9189 58.3616 28.6934 57.8948 28.2424L58.3616 27.7851C58.7117 28.1472 59.2077 28.3282 59.8496 28.3282C60.2515 28.3282 60.5643 28.2583 60.7881 28.1185C61.0119 27.9788 61.1235 27.7723 61.1235 27.4992C61.1235 27.0863 60.8579 26.8576 60.3261 26.8132L59.5383 26.7464C58.5854 26.6702 58.1086 26.251 58.1086 25.4888C58.1086 25.0694 58.2711 24.736 58.595 24.4883C58.9193 24.2405 59.344 24.1167 59.8692 24.1167C60.5887 24.1167 61.1626 24.285 61.5903 24.6216L61.1334 25.0694C60.8025 24.8217 60.3781 24.6979 59.8592 24.6979C59.5158 24.6979 59.2513 24.7646 59.0667 24.8979C58.882 25.0314 58.7897 25.222 58.7897 25.4697C58.7897 25.6793 58.8576 25.8381 58.9939 25.9461C59.1298 26.0541 59.3473 26.1239 59.6454 26.1557L60.3944 26.2225C60.8479 26.2669 61.1966 26.3844 61.4396 26.5749C61.683 26.7655 61.8045 27.0704 61.8045 27.4896ZM66.5796 27.4896C66.5796 27.9344 66.403 28.2837 66.0496 28.5378C65.6961 28.7919 65.2245 28.9189 64.6347 28.9189C63.7919 28.9189 63.1367 28.6934 62.6698 28.2424L63.1367 27.7851C63.4868 28.1472 63.9828 28.3282 64.6247 28.3282C65.0269 28.3282 65.3397 28.2583 65.5632 28.1185C65.787 27.9788 65.8989 27.7723 65.8989 27.4992C65.8989 27.0863 65.633 26.8576 65.1015 26.8132L64.3137 26.7464C63.3605 26.6702 62.8841 26.251 62.8841 25.4888C62.8841 25.0694 63.0462 24.736 63.3701 24.4883C63.6944 24.2405 64.1191 24.1167 64.6443 24.1167C65.3641 24.1167 65.9377 24.285 66.3657 24.6216L65.9085 25.0694C65.5779 24.8217 65.1532 24.6979 64.6347 24.6979C64.2908 24.6979 64.0268 24.7646 63.8421 24.8979C63.6571 25.0314 63.5647 25.222 63.5647 25.4697C63.5647 25.6793 63.6327 25.8381 63.769 25.9461C63.9052 26.0541 64.1224 26.1239 64.4205 26.1557L65.1695 26.2225C65.6234 26.2669 65.9717 26.3844 66.215 26.5749C66.4581 26.7655 66.5796 27.0704 66.5796 27.4896ZM68.6511 28.8618H67.9509V24.1738H68.6511V28.8618ZM68.6999 22.8399H67.9121V22.0681H68.6999V22.8399ZM74.0585 26.5177C74.0585 27.3753 73.8639 27.9978 73.475 28.3854C73.1248 28.741 72.6676 28.9189 72.1036 28.9189C71.5397 28.9189 71.0825 28.741 70.7323 28.3854C70.3434 27.9978 70.1488 27.3753 70.1488 26.5177C70.1488 25.6539 70.3434 25.0314 70.7323 24.6502C71.0825 24.2946 71.5397 24.1167 72.1036 24.1167C72.6676 24.1167 73.1248 24.2946 73.475 24.6502C73.8639 25.0314 74.0585 25.6539 74.0585 26.5177ZM73.3583 26.5177C73.3583 25.8 73.232 25.3172 72.979 25.0694C72.7455 24.8408 72.4538 24.7265 72.1036 24.7265C71.7602 24.7265 71.4714 24.8408 71.2379 25.0694C70.9787 25.3235 70.849 25.8063 70.849 26.5177C70.849 27.2292 70.9787 27.712 71.2379 27.966C71.4714 28.1947 71.7602 28.3091 72.1036 28.3091C72.4538 28.3091 72.7455 28.1947 72.979 27.966C73.232 27.712 73.3583 27.2292 73.3583 26.5177ZM79.3196 28.8618H78.6194V25.9747C78.6194 25.5681 78.516 25.2584 78.3084 25.0457C78.1008 24.8328 77.8124 24.7265 77.4427 24.7265C77.0734 24.7265 76.7831 24.8345 76.5722 25.0504C76.3617 25.2663 76.2564 25.5745 76.2564 25.9747V28.8618H75.5562V24.1738H76.2564V24.6884C76.5936 24.3072 77.0409 24.1167 77.5985 24.1167C78.1171 24.1167 78.5256 24.2628 78.8236 24.5549C79.1545 24.8726 79.3196 25.3077 79.3196 25.8604V28.8618ZM84.4352 28.8618H83.735V28.414C83.547 28.5981 83.3494 28.7284 83.1418 28.8046C82.9343 28.8808 82.6717 28.9189 82.354 28.9189C81.7513 28.9189 81.3004 28.776 81.0023 28.4901C80.7622 28.2615 80.6426 27.9438 80.6426 27.5373C80.6426 27.1181 80.7866 26.7878 81.0754 26.5464C81.3639 26.305 81.7738 26.1843 82.3057 26.1843H83.735V25.7365C83.735 25.3871 83.6393 25.1282 83.4484 24.9599C83.2571 24.7916 82.9442 24.7074 82.5099 24.7074C82.2115 24.7074 81.9733 24.7487 81.7949 24.8313C81.6165 24.9139 81.4529 25.0536 81.3037 25.2505L80.8272 24.8217C81.0282 24.5549 81.2582 24.3708 81.5179 24.269C81.7772 24.1674 82.111 24.1167 82.5195 24.1167C83.7966 24.1167 84.4352 24.6376 84.4352 25.6793V28.8618ZM83.735 27.2038V26.6988H82.4028C81.683 26.6988 81.3232 26.9751 81.3232 27.5278C81.3232 28.0614 81.6929 28.3282 82.432 28.3282C82.9051 28.3282 83.2585 28.2233 83.492 28.0137C83.6541 27.8612 83.735 27.5914 83.735 27.2038ZM87.839 28.8618H87.3334C86.9315 28.8618 86.6283 28.7474 86.4241 28.5187C86.2198 28.29 86.1179 27.9883 86.1179 27.6136V22.0776H86.8181V27.585C86.8181 27.82 86.8665 27.9931 86.964 28.1043C87.0612 28.2154 87.2266 28.271 87.4597 28.271H87.839V28.8618ZM95.4346 28.8618H94.5693L93.0521 26.4606L92.1184 27.5088V28.8618H91.4182V22.0776H92.1184V26.6131L94.2775 24.1738H95.1528L93.5285 25.9652L95.4346 28.8618ZM97.3311 28.8618H96.6309V24.1738H97.3311V28.8618ZM97.3799 22.8399H96.5921V22.0681H97.3799V22.8399ZM100.92 28.8618H100.424C100.028 28.8618 99.7251 28.7442 99.5146 28.5092C99.3037 28.2742 99.1985 27.9724 99.1985 27.604V24.6979H98.5954V24.1738H99.1985V22.735H99.8987V24.1738H100.92V24.6979H99.8987V27.585C99.8987 28.0423 100.116 28.271 100.55 28.271H100.92V28.8618ZM105.695 28.2233C105.449 28.4838 105.209 28.6649 104.975 28.7665C104.742 28.8681 104.457 28.9189 104.119 28.9189C103.49 28.9189 102.98 28.7125 102.588 28.2996C102.196 27.8867 101.999 27.2927 101.999 26.5177C101.999 25.7428 102.196 25.1489 102.588 24.736C102.98 24.3231 103.49 24.1167 104.119 24.1167C104.457 24.1167 104.742 24.1674 104.975 24.269C105.209 24.3708 105.449 24.5518 105.695 24.8122L105.218 25.2505C105.037 25.0536 104.865 24.9171 104.703 24.8408C104.541 24.7646 104.346 24.7265 104.119 24.7265C103.633 24.7265 103.264 24.9044 103.011 25.2601C102.803 25.546 102.7 25.9652 102.7 26.5177C102.7 27.0704 102.803 27.4896 103.011 27.7755C103.264 28.1313 103.633 28.3091 104.119 28.3091C104.346 28.3091 104.541 28.2694 104.703 28.19C104.865 28.1106 105.037 27.9724 105.218 27.7755L105.695 28.2233ZM110.791 28.8618H110.091V25.9652C110.091 25.5586 109.988 25.2505 109.784 25.0409C109.58 24.8313 109.293 24.7265 108.924 24.7265C108.548 24.7265 108.254 24.8313 108.044 25.0409C107.833 25.2505 107.727 25.5586 107.727 25.9652V28.8618H107.027V22.0776H107.727V24.6884C108.078 24.3072 108.525 24.1167 109.07 24.1167C109.608 24.1167 110.029 24.2722 110.334 24.5835C110.638 24.8948 110.791 25.3172 110.791 25.8508V28.8618ZM116.159 26.6988H112.931C112.931 27.2197 113.051 27.6199 113.29 27.8994C113.53 28.1789 113.88 28.3186 114.341 28.3186C114.613 28.3186 114.841 28.2774 115.027 28.1947C115.211 28.1122 115.401 27.9757 115.595 27.7851L116.072 28.1947C115.812 28.4489 115.553 28.6331 115.294 28.7474C115.035 28.8618 114.71 28.9189 114.321 28.9189C113.66 28.9189 113.146 28.7204 112.78 28.3233C112.413 27.9264 112.23 27.3245 112.23 26.5177C112.23 25.7619 112.405 25.1727 112.755 24.7503C113.106 24.3279 113.585 24.1167 114.195 24.1167C114.811 24.1167 115.292 24.3183 115.639 24.7217C115.986 25.1251 116.159 25.6825 116.159 26.3939V26.6988ZM115.469 26.1843C115.443 25.8222 115.391 25.5618 115.313 25.403C115.086 24.9329 114.714 24.6979 114.195 24.6979C113.676 24.6979 113.304 24.9329 113.076 25.403C112.999 25.5682 112.95 25.8286 112.931 26.1843H115.469ZM121.411 28.8618H120.711V25.9747C120.711 25.5681 120.607 25.2584 120.4 25.0457C120.192 24.8328 119.904 24.7265 119.534 24.7265C119.164 24.7265 118.874 24.8345 118.664 25.0504C118.453 25.2663 118.348 25.5745 118.348 25.9747V28.8618H117.647V24.1738H118.348V24.6884C118.685 24.3072 119.132 24.1167 119.69 24.1167C120.208 24.1167 120.617 24.2628 120.915 24.5549C121.246 24.8726 121.411 25.3077 121.411 25.8604V28.8618ZM129.201 26.6988H125.972C125.972 27.2197 126.092 27.6199 126.332 27.8994C126.572 28.1789 126.922 28.3186 127.382 28.3186C127.655 28.3186 127.883 28.2774 128.068 28.1947C128.253 28.1122 128.442 27.9757 128.637 27.7851L129.114 28.1947C128.854 28.4489 128.595 28.6331 128.336 28.7474C128.076 28.8618 127.752 28.9189 127.363 28.9189C126.702 28.9189 126.188 28.7204 125.821 28.3233C125.455 27.9264 125.272 27.3245 125.272 26.5177C125.272 25.7619 125.447 25.1727 125.797 24.7503C126.147 24.3279 126.627 24.1167 127.237 24.1167C127.853 24.1167 128.334 24.3183 128.681 24.7217C129.028 25.1251 129.201 25.6825 129.201 26.3939V26.6988ZM128.51 26.1843C128.485 25.8222 128.433 25.5618 128.355 25.403C128.128 24.9329 127.755 24.6979 127.237 24.6979C126.718 24.6979 126.345 24.9329 126.118 25.403C126.04 25.5682 125.992 25.8286 125.972 26.1843H128.51ZM134.239 30.958H133.538V28.3091C133.208 28.7157 132.757 28.9189 132.187 28.9189C131.687 28.9189 131.298 28.7824 131.02 28.5092C130.631 28.1217 130.436 27.4579 130.436 26.5177C130.436 25.5713 130.631 24.9075 131.02 24.5263C131.298 24.2532 131.687 24.1167 132.187 24.1167C132.764 24.1167 133.218 24.32 133.548 24.7265V24.1738H134.239V30.958ZM133.49 27.1943C133.522 27.0037 133.538 26.7782 133.538 26.5177C133.538 26.2574 133.524 26.0318 133.495 25.8413C133.466 25.6507 133.412 25.4649 133.334 25.2838C133.256 25.1029 133.133 24.9647 132.965 24.8694C132.796 24.7742 132.589 24.7265 132.342 24.7265C132.141 24.7265 131.966 24.7598 131.817 24.8265C131.668 24.8932 131.55 24.9805 131.462 25.0886C131.375 25.1966 131.307 25.3331 131.258 25.4982C131.209 25.6634 131.177 25.8238 131.161 25.9795C131.144 26.135 131.136 26.3146 131.136 26.5177C131.136 26.721 131.144 26.9005 131.161 27.0561C131.177 27.2118 131.209 27.3721 131.258 27.5373C131.307 27.7025 131.375 27.839 131.462 27.947C131.55 28.055 131.668 28.1424 131.817 28.209C131.966 28.2758 132.141 28.3091 132.342 28.3091C132.589 28.3091 132.796 28.2615 132.965 28.1661C133.133 28.0709 133.256 27.9327 133.334 27.7518C133.412 27.5707 133.464 27.3849 133.49 27.1943ZM139.704 28.8618H139.014V28.3376C138.67 28.7252 138.22 28.9189 137.662 28.9189C137.137 28.9189 136.725 28.7728 136.427 28.4806C136.103 28.1693 135.941 27.7311 135.941 27.1658V24.1738H136.641V27.0609C136.641 27.4674 136.743 27.7772 136.947 27.9899C137.152 28.2028 137.438 28.3091 137.808 28.3091C138.177 28.3091 138.469 28.2011 138.683 27.9852C138.897 27.7691 139.004 27.4611 139.004 27.0609V24.1738H139.704V28.8618ZM142.155 28.8618H141.455V24.1738H142.155V28.8618ZM142.204 22.8399H141.416V22.0681H142.204V22.8399ZM147.709 26.5177C147.709 27.4579 147.514 28.1217 147.125 28.5092C146.846 28.7824 146.457 28.9189 145.958 28.9189C145.387 28.9189 144.937 28.7157 144.606 28.3091V30.958H143.906V24.1738H144.606V24.7265C144.937 24.32 145.387 24.1167 145.958 24.1167C146.457 24.1167 146.846 24.2532 147.125 24.5263C147.514 24.9075 147.709 25.5713 147.709 26.5177ZM146.96 27.1943C146.992 27.0037 147.008 26.7782 147.008 26.5177C147.008 26.2574 146.994 26.0318 146.964 25.8413C146.935 25.6507 146.882 25.4649 146.804 25.2838C146.726 25.1029 146.603 24.9647 146.434 24.8694C146.266 24.7742 146.058 24.7265 145.812 24.7265C145.611 24.7265 145.436 24.7598 145.287 24.8265C145.138 24.8932 145.019 24.9805 144.932 25.0886C144.844 25.1966 144.776 25.3331 144.727 25.4982C144.679 25.6634 144.646 25.8238 144.63 25.9795C144.614 26.135 144.606 26.3146 144.606 26.5177C144.606 26.721 144.614 26.9005 144.63 27.0561C144.646 27.2118 144.679 27.3721 144.727 27.5373C144.776 27.7025 144.844 27.839 144.932 27.947C145.019 28.055 145.138 28.1424 145.287 28.209C145.436 28.2758 145.611 28.3091 145.812 28.3091C146.058 28.3091 146.266 28.2615 146.434 28.1661C146.603 28.0709 146.726 27.9327 146.804 27.7518C146.882 27.5707 146.934 27.3849 146.96 27.1943ZM156.052 28.8618H155.352V25.9747C155.352 25.5681 155.249 25.2584 155.041 25.0457C154.834 24.8328 154.545 24.7265 154.176 24.7265C153.819 24.7265 153.531 24.8313 153.31 25.0409C153.09 25.2505 152.979 25.5364 152.979 25.8984V28.8618H152.279V25.9747C152.279 25.5681 152.176 25.2584 151.968 25.0457C151.76 24.8328 151.472 24.7265 151.102 24.7265C150.733 24.7265 150.441 24.8345 150.227 25.0504C150.013 25.2663 149.906 25.5745 149.906 25.9747V28.8618H149.206V24.1738H149.906V24.6884C150.243 24.3072 150.694 24.1167 151.258 24.1167C151.939 24.1167 152.428 24.3771 152.727 24.8979C153.103 24.3771 153.628 24.1167 154.302 24.1167C154.814 24.1167 155.226 24.2628 155.537 24.5549C155.881 24.8789 156.052 25.3141 156.052 25.8604V28.8618ZM161.421 26.6988H158.192C158.192 27.2197 158.312 27.6199 158.552 27.8994C158.792 28.1789 159.142 28.3186 159.602 28.3186C159.875 28.3186 160.103 28.2774 160.288 28.1947C160.473 28.1122 160.662 27.9757 160.857 27.7851L161.334 28.1947C161.074 28.4489 160.815 28.6331 160.555 28.7474C160.296 28.8618 159.972 28.9189 159.583 28.9189C158.922 28.9189 158.408 28.7204 158.041 28.3233C157.675 27.9264 157.492 27.3245 157.492 26.5177C157.492 25.7619 157.667 25.1727 158.017 24.7503C158.367 24.3279 158.847 24.1167 159.457 24.1167C160.072 24.1167 160.554 24.3183 160.901 24.7217C161.247 25.1251 161.421 25.6825 161.421 26.3939V26.6988ZM160.73 26.1843C160.705 25.8222 160.653 25.5618 160.575 25.403C160.348 24.9329 159.975 24.6979 159.457 24.6979C158.938 24.6979 158.565 24.9329 158.338 25.403C158.26 25.5682 158.212 25.8286 158.192 26.1843H160.73ZM166.673 28.8618H165.972V25.9747C165.972 25.5681 165.869 25.2584 165.661 25.0457C165.454 24.8328 165.165 24.7265 164.796 24.7265C164.426 24.7265 164.136 24.8345 163.925 25.0504C163.715 25.2663 163.609 25.5745 163.609 25.9747V28.8618H162.909V24.1738H163.609V24.6884C163.946 24.3072 164.394 24.1167 164.951 24.1167C165.47 24.1167 165.879 24.2628 166.177 24.5549C166.507 24.8726 166.673 25.3077 166.673 25.8604V28.8618ZM170.213 28.8618H169.717C169.321 28.8618 169.018 28.7442 168.807 28.5092C168.597 28.2742 168.491 27.9724 168.491 27.604V24.6979H167.888V24.1738H168.491V22.735H169.191V24.1738H170.213V24.6979H169.191V27.585C169.191 28.0423 169.409 28.271 169.843 28.271H170.213V28.8618Z" fill="#1D1D1D"/>
<path fill-rule="evenodd" clip-rule="evenodd" d="M0.00139618 34.5822H170.744V37.3154H0.00139618V34.5822Z" fill="#F7CE46"/>
</g>
<defs>
<clipPath id="clip0_2001_26942">
<rect width="171" height="37" fill="white" transform="translate(0 0.5)"/>
</clipPath>
</defs>
</svg>
