<svg width="517" height="67" viewBox="0 0 517 67" fill="none" xmlns="http://www.w3.org/2000/svg">
<path d="M0.797176 66V1.2H19.8372C23.7305 1.2 26.8772 1.92 29.2772 3.36C31.7305 4.8 33.5172 6.90666 34.6372 9.68C35.8105 12.4 36.3972 15.7067 36.3972 19.6C36.3972 23.8133 35.6772 27.2267 34.2372 29.84C32.7972 32.4 30.7705 34.2667 28.1572 35.44C25.5972 36.6133 22.5572 37.2 19.0372 37.2H12.6372V66H0.797176ZM12.6372 28.88H17.1172C19.2505 28.88 20.9038 28.5867 22.0772 28C23.3038 27.36 24.1305 26.3733 24.5572 25.04C25.0372 23.6533 25.2772 21.8133 25.2772 19.52C25.2772 17.1733 25.0905 15.28 24.7172 13.84C24.3972 12.3467 23.6505 11.2533 22.4772 10.56C21.3572 9.86666 19.5705 9.52 17.1172 9.52H12.6372V28.88ZM56.0378 66V1.2H83.2378V9.52H67.8778V28.16H79.9578V36.4H67.8778V57.84H83.3978V66H56.0378ZM120.75 66.88C116.003 66.88 112.27 65.9467 109.55 64.08C106.883 62.2133 105.016 59.68 103.95 56.48C102.883 53.2267 102.35 49.4933 102.35 45.28V22.16C102.35 17.7333 102.883 13.8933 103.95 10.64C105.016 7.38666 106.883 4.88 109.55 3.12C112.27 1.36 116.003 0.479995 120.75 0.479995C125.23 0.479995 128.723 1.25333 131.23 2.8C133.79 4.29333 135.603 6.45333 136.67 9.28C137.736 12.1067 138.27 15.3867 138.27 19.12V24.56H126.91V18.96C126.91 17.1467 126.803 15.4933 126.59 14C126.43 12.5067 125.923 11.3333 125.07 10.48C124.27 9.57333 122.856 9.12 120.83 9.12C118.803 9.12 117.31 9.6 116.35 10.56C115.443 11.4667 114.856 12.72 114.59 14.32C114.323 15.8667 114.19 17.6267 114.19 19.6V47.76C114.19 50.1067 114.376 52.0533 114.75 53.6C115.123 55.0933 115.79 56.24 116.75 57.04C117.763 57.7867 119.123 58.16 120.83 58.16C122.803 58.16 124.19 57.7067 124.99 56.8C125.843 55.84 126.376 54.5867 126.59 53.04C126.803 51.4933 126.91 49.76 126.91 47.84V42H138.27V47.2C138.27 51.04 137.763 54.4533 136.75 57.44C135.736 60.3733 133.95 62.6933 131.39 64.4C128.883 66.0533 125.336 66.88 120.75 66.88ZM166.046 66V9.92H155.726V1.2H188.046V9.92H177.886V66H166.046ZM224.594 66.88C220.007 66.88 216.354 66.0267 213.634 64.32C210.914 62.6133 208.967 60.16 207.794 56.96C206.621 53.76 206.034 49.9733 206.034 45.6V21.36C206.034 16.9867 206.621 13.2533 207.794 10.16C208.967 7.01333 210.914 4.61333 213.634 2.96C216.354 1.30666 220.007 0.479995 224.594 0.479995C229.287 0.479995 232.967 1.30666 235.634 2.96C238.354 4.61333 240.301 7.01333 241.474 10.16C242.701 13.2533 243.314 16.9867 243.314 21.36V45.68C243.314 50 242.701 53.76 241.474 56.96C240.301 60.1067 238.354 62.56 235.634 64.32C232.967 66.0267 229.287 66.88 224.594 66.88ZM224.594 58.16C226.567 58.16 228.007 57.7333 228.914 56.88C229.874 56.0267 230.514 54.8533 230.834 53.36C231.154 51.8667 231.314 50.24 231.314 48.48V18.64C231.314 16.8267 231.154 15.2 230.834 13.76C230.514 12.32 229.874 11.2 228.914 10.4C228.007 9.54666 226.567 9.12 224.594 9.12C222.727 9.12 221.314 9.54666 220.354 10.4C219.394 11.2 218.754 12.32 218.434 13.76C218.114 15.2 217.954 16.8267 217.954 18.64V48.48C217.954 50.24 218.087 51.8667 218.354 53.36C218.674 54.8533 219.314 56.0267 220.274 56.88C221.234 57.7333 222.674 58.16 224.594 58.16ZM265.125 66V1.2H284.165C288.059 1.2 291.205 1.92 293.605 3.36C296.059 4.8 297.845 6.90666 298.965 9.68C300.139 12.4 300.725 15.7067 300.725 19.6C300.725 23.8133 300.005 27.2267 298.565 29.84C297.125 32.4 295.099 34.2667 292.485 35.44C289.925 36.6133 286.885 37.2 283.365 37.2H276.965V66H265.125ZM276.965 28.88H281.445C283.579 28.88 285.232 28.5867 286.405 28C287.632 27.36 288.459 26.3733 288.885 25.04C289.365 23.6533 289.605 21.8133 289.605 19.52C289.605 17.1733 289.419 15.28 289.045 13.84C288.725 12.3467 287.979 11.2533 286.805 10.56C285.685 9.86666 283.899 9.52 281.445 9.52H276.965V28.88ZM317.086 66L330.046 1.2H342.686L355.646 66H344.686L342.126 51.04H330.846L328.206 66H317.086ZM332.046 43.52H340.846L336.446 16.32L332.046 43.52ZM381.696 66V9.92H371.376V1.2H403.696V9.92H393.536V66H381.696ZM440.244 66.88C435.657 66.88 432.004 66.0267 429.284 64.32C426.564 62.6133 424.617 60.16 423.444 56.96C422.271 53.76 421.684 49.9733 421.684 45.6V21.36C421.684 16.9867 422.271 13.2533 423.444 10.16C424.617 7.01333 426.564 4.61333 429.284 2.96C432.004 1.30666 435.657 0.479995 440.244 0.479995C444.937 0.479995 448.617 1.30666 451.284 2.96C454.004 4.61333 455.951 7.01333 457.124 10.16C458.351 13.2533 458.964 16.9867 458.964 21.36V45.68C458.964 50 458.351 53.76 457.124 56.96C455.951 60.1067 454.004 62.56 451.284 64.32C448.617 66.0267 444.937 66.88 440.244 66.88ZM440.244 58.16C442.217 58.16 443.657 57.7333 444.564 56.88C445.524 56.0267 446.164 54.8533 446.484 53.36C446.804 51.8667 446.964 50.24 446.964 48.48V18.64C446.964 16.8267 446.804 15.2 446.484 13.76C446.164 12.32 445.524 11.2 444.564 10.4C443.657 9.54666 442.217 9.12 440.244 9.12C438.377 9.12 436.964 9.54666 436.004 10.4C435.044 11.2 434.404 12.32 434.084 13.76C433.764 15.2 433.604 16.8267 433.604 18.64V48.48C433.604 50.24 433.737 51.8667 434.004 53.36C434.324 54.8533 434.964 56.0267 435.924 56.88C436.884 57.7333 438.324 58.16 440.244 58.16ZM480.775 66V1.2H499.815C503.709 1.2 506.855 1.92 509.255 3.36C511.709 4.8 513.495 6.90666 514.615 9.68C515.789 12.4 516.375 15.7067 516.375 19.6C516.375 23.8133 515.655 27.2267 514.215 29.84C512.775 32.4 510.749 34.2667 508.135 35.44C505.575 36.6133 502.535 37.2 499.015 37.2H492.615V66H480.775ZM492.615 28.88H497.095C499.229 28.88 500.882 28.5867 502.055 28C503.282 27.36 504.109 26.3733 504.535 25.04C505.015 23.6533 505.255 21.8133 505.255 19.52C505.255 17.1733 505.069 15.28 504.695 13.84C504.375 12.3467 503.629 11.2533 502.455 10.56C501.335 9.86666 499.549 9.52 497.095 9.52H492.615V28.88Z" fill="#EDEDED"/>
</svg>
