<svg width="300" height="250" viewBox="0 0 300 250" fill="none" xmlns="http://www.w3.org/2000/svg">
<path opacity="0.62" d="M117.9 235.8C173.626 235.8 218.8 233.114 218.8 229.8C218.8 226.486 173.626 223.8 117.9 223.8C62.1745 223.8 17 226.486 17 229.8C17 233.114 62.1745 235.8 117.9 235.8Z" fill="#F7CE46"/>
<path d="M19.5 174V194.6C19.5 196.6 21.1 198.2 23.1 198.2H212.8C214.8 198.2 216.4 196.6 216.4 194.6V174H19.5Z" fill="#F0F0F0"/>
<path d="M216.3 60C216.3 58 214.7 56.4 212.7 56.4H23.1C21.1 56.4 19.5 58 19.5 60V174H216.3V60Z" fill="#475569"/>
<path d="M152.2 198.2H84.5V219H152.2V198.2Z" fill="#D6D6D6"/>
<path d="M167.503 219H68.2031V228.7H167.503V219Z" fill="#F0F0F0"/>
<path d="M152.2 198.2H84.5V205.7H152.2V198.2Z" fill="#BDBDBD"/>
<path d="M206.203 66.6H29.7031V163.5H206.203V66.6Z" fill="#F7CE46"/>
<path d="M159.472 144H75.9303C73.1913 144 71 141.809 71 139.07V90.9303C71 88.1913 73.1913 86 75.9303 86H159.541C162.28 86 164.471 88.1913 164.471 90.9303V139.07C164.403 141.809 162.211 144 159.472 144Z" fill="#475569" stroke="#475569" stroke-miterlimit="10" stroke-linecap="round" stroke-linejoin="round"/>
<path d="M87.9857 131.743H78.125V135.851H87.9857V131.743Z" fill="#F7CE46"/>
<path d="M101.126 131.743H91.2656V135.851H101.126V131.743Z" fill="#F7CE46"/>
<path d="M114.275 131.743H104.414V135.851H114.275V131.743Z" fill="#F7CE46"/>
<path d="M127.423 131.743H117.562V135.851H127.423V131.743Z" fill="#F7CE46"/>
<path d="M140.501 131.743H130.641V135.851H140.501V131.743Z" fill="#F7CE46"/>
<path d="M153.65 131.743H143.789V135.851H153.65V131.743Z" fill="#F7CE46"/>
<path d="M97.3611 122.156H80.4472C79.2146 122.156 78.1875 121.129 78.1875 119.896V108.46C78.1875 107.228 79.2146 106.201 80.4472 106.201H97.3611C98.5936 106.201 99.6208 107.228 99.6208 108.46V119.965C99.6208 121.197 98.5936 122.156 97.3611 122.156Z" fill="#F7CE46" stroke="#475569" stroke-miterlimit="10" stroke-linecap="round" stroke-linejoin="round"/>
<path d="M125.169 92.8477H78.125V95.2444H125.169V92.8477Z" fill="#F7CE46"/>
<path d="M279.203 14H190.203C188.003 14 186.203 15.8 186.203 18V75.5C186.203 77.7 188.003 79.5 190.203 79.5H200.503L190.403 98.7L224.603 79.5H279.203C281.403 79.5 283.203 77.7 283.203 75.5V18C283.203 15.8 281.403 14 279.203 14Z" fill="white"/>
<path d="M234.351 65.2001C244.486 65.2001 252.702 56.9841 252.702 46.8492C252.702 36.7143 244.486 28.4984 234.351 28.4984C224.216 28.4984 216 36.7143 216 46.8492C216 56.9841 224.216 65.2001 234.351 65.2001Z" fill="#F7CE46" stroke="#475569" stroke-miterlimit="10" stroke-linecap="round" stroke-linejoin="round"/>
<path d="M235.676 56.065C234.919 56.065 234.162 55.6866 233.595 55.1191L224.514 43.3897C223.757 42.2546 223.946 40.7411 224.892 39.7952C226.027 39.0384 227.541 39.2276 228.487 40.1735L235.676 49.4435L254.405 27.8766C255.351 26.7415 256.864 26.7415 257.999 27.6874C259.134 28.6333 259.134 30.1468 258.189 31.2819L237.568 55.1191C237 55.6866 236.432 56.065 235.676 56.065Z" fill="#475569"/>
</svg>
