<svg width="432" height="382" viewBox="0 0 432 382" fill="none" xmlns="http://www.w3.org/2000/svg">
<path opacity="0.7" d="M409.481 128.453C409.481 128.453 392.581 60.7535 290.481 18.1535C188.281 -24.5465 97.0806 15.0535 76.1806 64.9535C55.3806 114.953 77.1806 141.953 63.2806 184.653C49.3806 227.353 -22.0194 281.453 6.78058 347.053C35.4806 412.553 170.381 431.253 279.481 417.753C388.581 404.253 473.981 254.353 409.481 128.453Z" fill="#E6EBF1"/>
<path d="M168.678 210.253V345.453H162.178V210.253H158.078V349.653H158.978H162.178H168.678H172.778V345.453V210.253H168.678Z" fill="#1A2E35" stroke="#1A2E35" stroke-miterlimit="10" stroke-linecap="round" stroke-linejoin="round"/>
<path d="M290.979 210.253V345.453H285.079V210.253H280.879V349.653H280.979H285.079H290.979H294.779H295.079V210.253H290.979Z" fill="#1A2E35" stroke="#1A2E35" stroke-miterlimit="10" stroke-linecap="round" stroke-linejoin="round"/>
<path d="M285.98 167.153H167.18C164.38 167.153 162.18 169.353 162.18 172.153V255.453C162.18 258.253 164.38 260.453 167.18 260.453H285.88C288.68 260.453 290.88 258.253 290.88 255.453V172.153C290.98 169.453 288.68 167.153 285.98 167.153Z" fill="#F2F5F9" stroke="#1A2E35" stroke-miterlimit="10" stroke-linecap="round" stroke-linejoin="round"/>
<path d="M290.68 280.453H161.88C160.38 280.453 159.18 279.253 159.18 277.753V258.853C159.18 257.353 160.38 256.153 161.88 256.153L222.38 258.853C226.98 259.053 231.58 259.053 236.18 258.853L290.58 256.153C292.08 256.153 293.28 257.353 293.28 258.853V277.753C293.28 279.253 292.08 280.453 290.68 280.453Z" fill="#F2F5F9" stroke="#1A2E35" stroke-miterlimit="10" stroke-linecap="round" stroke-linejoin="round"/>
<path d="M201.68 218.253L203.38 256.953C203.38 256.953 232.08 261.253 250.38 257.653C268.68 253.953 260.38 225.653 260.08 222.653C259.78 219.653 258.78 218.353 258.78 218.353H201.68V218.253Z" fill="#1A2E35" stroke="#1A2E35" stroke-miterlimit="10" stroke-linecap="round" stroke-linejoin="round"/>
<path d="M211.98 220.854H244.88L243.58 142.354L241.28 140.554L220.78 142.854L220.28 144.454L211.98 220.854Z" fill="white" stroke="#1A2E35" stroke-miterlimit="10" stroke-linecap="round" stroke-linejoin="round"/>
<path d="M221.279 141.854L219.979 149.354L216.079 220.654H191.679L183.879 201.954C183.879 201.954 190.079 157.853 192.979 154.053C195.879 150.153 221.279 141.854 221.279 141.854Z" fill="#F7CE46" stroke="#1A2E35" stroke-miterlimit="10" stroke-linecap="round" stroke-linejoin="round"/>
<path d="M219.981 149.354L221.281 141.854C221.281 141.854 217.081 143.253 211.981 145.053C211.181 150.753 209.781 163.154 211.781 174.454C213.381 183.854 215.781 193.454 217.381 199.454L219.981 149.354Z" fill="#F7CE46" stroke="#1A2E35" stroke-miterlimit="10" stroke-linecap="round" stroke-linejoin="round"/>
<path d="M197.98 172.953L198.48 167.753" stroke="#1A2E35" stroke-miterlimit="10" stroke-linecap="round" stroke-linejoin="round"/>
<path d="M194.578 206.354L197.478 178.354" stroke="#1A2E35" stroke-miterlimit="10" stroke-linecap="round" stroke-linejoin="round"/>
<path d="M208.081 98.2535C208.081 98.2535 208.581 115.654 209.381 118.754C210.181 121.854 214.781 135.054 216.581 136.654C218.381 138.254 220.781 138.754 220.781 138.754L219.981 149.354C219.981 149.354 224.081 156.354 228.781 156.354C233.481 156.354 240.481 147.754 241.181 145.454C241.981 143.154 240.181 120.554 240.181 120.554C240.181 120.554 244.581 117.954 244.881 113.054C245.181 108.154 241.781 106.854 241.781 106.854C241.781 106.854 245.381 94.9535 243.381 91.5535C241.281 88.1535 226.781 80.1535 214.381 82.7535C201.981 85.3535 202.981 94.4535 203.781 95.1535C204.481 95.9535 208.081 98.2535 208.081 98.2535Z" fill="white" stroke="#1A2E35" stroke-miterlimit="10" stroke-linecap="round" stroke-linejoin="round"/>
<path d="M214.279 82.7535C201.879 85.3535 202.879 94.4535 203.679 95.1535C204.179 95.6535 205.679 96.6535 206.779 97.4535L207.479 97.2535C207.479 97.2535 208.279 97.7535 209.079 97.7535C209.879 97.7535 211.379 96.1535 211.379 96.1535C211.379 96.1535 216.579 99.0535 217.879 98.7535C219.179 98.4535 221.279 95.3535 223.579 95.3535C225.879 95.3535 232.679 95.0535 231.379 98.2535C230.079 101.354 227.479 102.654 230.379 104.454C233.279 106.254 235.779 106.254 236.079 108.354C236.379 110.454 234.279 115.354 236.379 115.654C238.479 115.954 239.979 112.054 240.279 110.254C240.579 108.454 241.879 106.854 241.879 106.854C241.879 106.854 245.479 94.9535 243.479 91.5535C241.279 88.1535 226.779 80.1535 214.279 82.7535Z" fill="#1A2E35" stroke="#1A2E35" stroke-miterlimit="10" stroke-linecap="round" stroke-linejoin="round"/>
<path d="M215.078 113.554L215.378 124.954H220.778" stroke="#1A2E35" stroke-miterlimit="10" stroke-linecap="round" stroke-linejoin="round"/>
<path d="M212.78 115.654C212.78 116.654 212.48 117.454 211.98 117.454C211.58 117.454 211.18 116.654 211.18 115.654C211.18 114.654 211.48 113.854 211.98 113.854C212.38 113.854 212.78 114.654 212.78 115.654Z" fill="#1A2E35"/>
<path d="M223.08 115.354C223.08 116.354 222.78 117.154 222.28 117.154C221.88 117.154 221.48 116.354 221.48 115.354C221.48 114.354 221.78 113.554 222.28 113.554C222.78 113.554 223.08 114.354 223.08 115.354Z" fill="#1A2E35"/>
<path d="M214.28 119.054H206.48C205.78 119.054 205.18 118.454 205.18 117.754V114.154C205.18 113.454 205.78 112.854 206.48 112.854H214.28V119.054Z" stroke="#1A2E35" stroke-miterlimit="10" stroke-linecap="round" stroke-linejoin="round"/>
<path d="M217.379 119.054H226.479C227.179 119.054 227.779 118.454 227.779 117.754V114.154C227.779 113.454 227.179 112.854 226.479 112.854H217.379V119.054Z" stroke="#1A2E35" stroke-miterlimit="10" stroke-linecap="round" stroke-linejoin="round"/>
<path d="M214.281 112.753H217.381" stroke="#1A2E35" stroke-miterlimit="10" stroke-linecap="round" stroke-linejoin="round"/>
<path d="M227.781 114.054H238.381" stroke="#1A2E35" stroke-miterlimit="10" stroke-linecap="round" stroke-linejoin="round"/>
<path d="M218.68 110.454C218.68 110.454 223.38 108.854 226.48 111.254" stroke="#1A2E35" stroke-miterlimit="10" stroke-linecap="round" stroke-linejoin="round"/>
<path d="M213.78 110.953C213.78 110.953 212.78 109.153 209.68 110.953" stroke="#1A2E35" stroke-miterlimit="10" stroke-linecap="round" stroke-linejoin="round"/>
<path d="M215.58 127.253C215.58 127.253 219.48 127.553 222.28 126.753C225.08 125.953 228.98 123.853 228.98 126.753C228.98 129.653 227.18 134.053 225.88 135.553C225.38 136.153 224.48 136.753 223.48 137.353C221.18 138.653 218.28 138.453 216.48 136.653C216.08 136.253 215.78 135.853 215.48 135.353C214.28 132.753 211.18 126.553 215.58 127.253Z" stroke="#1A2E35" stroke-width="2" stroke-miterlimit="10" stroke-linecap="round" stroke-linejoin="round"/>
<path d="M215.578 129.654C215.578 129.654 220.978 131.954 226.678 128.054" stroke="#1A2E35" stroke-miterlimit="10" stroke-linecap="round" stroke-linejoin="round"/>
<path d="M220.781 138.754C220.781 138.754 226.181 137.954 230.581 134.854C234.981 131.754 235.781 130.954 235.781 130.954L220.281 144.454L220.781 138.754Z" fill="#1A2E35" stroke="#1A2E35" stroke-miterlimit="10" stroke-linecap="round" stroke-linejoin="round"/>
<path d="M241.28 140.554L239.98 219.854L263.78 220.354L267.18 207.654L285.08 206.654C285.08 206.654 278.88 174.554 276.48 165.454C274.18 156.354 274.18 154.354 270.48 151.154C266.88 148.054 241.28 140.554 241.28 140.554Z" fill="#F7CE46" stroke="#1A2E35" stroke-miterlimit="10" stroke-linecap="round" stroke-linejoin="round"/>
<path d="M240.379 194.054C241.979 191.654 244.479 187.254 246.979 181.454C250.279 173.654 249.879 149.754 249.679 143.054C244.979 141.554 241.279 140.454 241.279 140.454L240.379 194.054Z" fill="#F7CE46" stroke="#1A2E35" stroke-miterlimit="10" stroke-linecap="round" stroke-linejoin="round"/>
<path d="M261.28 164.953L260.98 160.253" stroke="#1A2E35" stroke-miterlimit="10" stroke-linecap="round" stroke-linejoin="round"/>
<path d="M263.582 206.054L261.582 170.454" stroke="#1A2E35" stroke-miterlimit="10" stroke-linecap="round" stroke-linejoin="round"/>
<path d="M261.578 205.053C261.578 205.053 265.078 202.054 267.678 201.454C270.278 200.954 278.578 201.754 282.078 202.454C285.578 203.154 287.878 208.153 289.278 211.553C290.578 215.053 289.078 221.054 286.278 222.654C283.478 224.154 278.178 224.553 278.178 224.553L261.578 205.053Z" fill="#F7CE46" stroke="#1A2E35" stroke-miterlimit="10" stroke-linecap="round" stroke-linejoin="round"/>
<path d="M284.579 209.553C281.579 205.853 252.879 203.653 252.879 203.653C247.279 203.153 241.879 202.753 241.179 202.753C239.579 202.753 224.979 213.953 223.079 214.853C222.679 215.053 222.479 215.353 222.479 215.653L218.379 221.453L228.679 220.653C231.779 221.453 236.379 219.453 237.579 218.753C238.979 217.953 243.579 213.253 243.579 213.253L264.679 222.253C265.279 222.753 265.779 223.153 266.079 223.353C268.779 225.153 277.279 226.953 281.679 225.053C286.179 223.153 288.079 213.953 284.579 209.553Z" fill="white" stroke="#1A2E35" stroke-miterlimit="10" stroke-linecap="round" stroke-linejoin="round"/>
<path d="M235.282 253.854C235.282 253.854 233.582 251.554 231.282 245.154C228.982 238.854 237.582 203.854 237.582 203.854L263.582 194.554C263.582 194.554 266.882 205.254 267.582 218.254C268.282 231.254 268.582 248.254 264.582 252.954C260.582 257.654 242.882 258.954 237.882 257.954" fill="#1A2E35"/>
<path d="M235.282 253.854C235.282 253.854 233.582 251.554 231.282 245.154C228.982 238.854 237.582 203.854 237.582 203.854L263.582 194.554C263.582 194.554 266.882 205.254 267.582 218.254C268.282 231.254 268.582 248.254 264.582 252.954C260.582 257.654 242.882 258.954 237.882 257.954" stroke="#1A2E35" stroke-miterlimit="10" stroke-linecap="round" stroke-linejoin="round"/>
<path d="M162.98 144.553L172.28 170.854L184.28 168.854L175.98 141.854L162.98 144.553Z" fill="#1A2E35" stroke="#1A2E35" stroke-miterlimit="10" stroke-linecap="round" stroke-linejoin="round"/>
<path d="M168.481 161.554C168.481 161.554 161.881 153.754 163.781 152.954C165.681 152.154 169.281 150.454 170.981 151.554C172.681 152.654 172.381 154.554 172.381 154.554L168.181 154.854L170.981 160.654L168.481 161.554Z" fill="white" stroke="#1A2E35" stroke-miterlimit="10" stroke-linecap="round" stroke-linejoin="round"/>
<path d="M177.281 155.253C177.281 155.253 164.281 159.553 164.681 160.753C165.081 161.953 173.681 180.253 173.681 180.253L175.881 215.653L191.981 207.753L178.381 178.853C178.381 178.853 178.981 175.553 177.981 173.953C176.981 172.353 175.981 170.053 175.981 170.053C175.981 170.053 181.681 168.853 181.681 167.853C181.581 166.853 177.281 155.253 177.281 155.253Z" fill="white" stroke="#1A2E35" stroke-miterlimit="10" stroke-linecap="round" stroke-linejoin="round"/>
<path d="M178.28 159.354L167.48 163.754" stroke="#1A2E35" stroke-miterlimit="10" stroke-linecap="round" stroke-linejoin="round"/>
<path d="M179.481 163.954L169.781 167.854" stroke="#1A2E35" stroke-miterlimit="10" stroke-linecap="round" stroke-linejoin="round"/>
<path d="M265.381 204.553C265.381 204.553 261.481 181.253 256.081 180.153C250.681 179.153 172.881 211.753 167.681 213.553C162.481 215.353 157.581 216.653 157.581 216.653C157.581 216.653 146.981 214.853 141.281 211.753C135.581 208.653 132.181 204.453 130.181 209.453C128.081 214.353 133.281 225.253 136.381 227.353C139.481 229.453 148.081 235.353 150.381 236.453C152.681 237.553 164.381 231.053 168.481 228.953C172.581 226.853 210.981 215.953 224.481 213.653C237.981 211.353 250.381 208.453 256.081 204.353" fill="#1A2E35"/>
<path d="M265.381 204.553C265.381 204.553 261.481 181.253 256.081 180.153C250.681 179.153 172.881 211.753 167.681 213.553C162.481 215.353 157.581 216.653 157.581 216.653C157.581 216.653 146.981 214.853 141.281 211.753C135.581 208.653 132.181 204.453 130.181 209.453C128.081 214.353 133.281 225.253 136.381 227.353C139.481 229.453 148.081 235.353 150.381 236.453C152.681 237.553 164.381 231.053 168.481 228.953C172.581 226.853 210.981 215.953 224.481 213.653C237.981 211.353 250.381 208.453 256.081 204.353" stroke="#1A2E35" stroke-miterlimit="10" stroke-linecap="round" stroke-linejoin="round"/>
<path d="M170.579 228.053L165.779 214.253C161.379 215.753 157.679 216.653 157.679 216.653C157.679 216.653 147.079 214.853 141.379 211.753C135.679 208.653 132.279 204.454 130.279 209.454C128.179 214.354 133.379 225.254 136.479 227.354C139.579 229.454 148.179 235.354 150.479 236.454C152.779 237.454 164.479 231.054 168.579 228.954C168.879 228.654 169.579 228.453 170.579 228.053Z" fill="white" stroke="#1A2E35" stroke-miterlimit="10" stroke-linecap="round" stroke-linejoin="round"/>
<path d="M130.08 209.453C127.98 214.353 133.18 225.253 136.28 227.353C139.38 229.453 147.98 235.353 150.28 236.453C152.08 237.253 159.38 233.653 164.58 230.953L160.98 226.053C160.98 226.053 161.98 222.953 162.58 220.053C163.08 217.153 157.68 216.653 157.68 216.653C157.68 216.653 147.08 214.853 141.38 211.753C135.58 208.653 132.18 204.553 130.08 209.453Z" fill="white" stroke="#1A2E35" stroke-miterlimit="10" stroke-linecap="round" stroke-linejoin="round"/>
<path d="M150.78 236.554C150.88 236.554 150.88 236.554 150.98 236.554C151.08 236.554 151.28 236.554 151.48 236.554C151.58 236.554 151.58 236.554 151.68 236.554C151.88 236.554 152.08 236.454 152.38 236.454H152.48C152.78 236.354 153.08 236.254 153.48 236.154H153.58C151.68 234.854 141.68 227.954 136.58 221.854C132.48 216.954 132.08 210.554 132.28 207.454C131.48 207.554 130.68 208.254 130.08 209.654C127.98 214.554 133.18 225.454 136.28 227.554C139.38 229.654 147.98 235.554 150.28 236.654C150.48 236.454 150.58 236.454 150.78 236.554Z" fill="white" stroke="#1A2E35" stroke-miterlimit="10" stroke-linecap="round" stroke-linejoin="round"/>
<path d="M199.679 349.654C200.079 348.254 200.279 345.854 200.279 343.854C200.279 340.554 198.279 323.554 198.579 320.554C198.879 317.554 211.579 239.554 211.579 239.554L225.279 241.554C225.279 241.554 220.279 223.254 214.579 216.854C208.879 210.554 193.579 210.554 187.579 213.154C181.579 215.754 180.879 231.854 181.579 246.454C182.279 261.154 183.879 324.754 183.879 324.754C183.879 324.754 177.579 340.054 175.579 344.054C174.079 347.054 172.779 348.554 173.079 349.554H199.679V349.654Z" fill="#1A2E35" stroke="#1A2E35" stroke-miterlimit="10" stroke-linecap="round" stroke-linejoin="round"/>
<path d="M172.98 349.654H199.68C200.08 348.254 200.28 345.854 200.28 343.854C200.28 340.554 198.28 323.554 198.58 320.554C198.58 320.254 198.78 319.254 198.98 317.554H183.78C183.88 322.154 183.98 324.854 183.98 324.854C183.98 324.854 177.68 340.154 175.68 344.154C174.28 346.854 173.08 348.654 172.98 349.654Z" fill="white" stroke="#1A2E35" stroke-miterlimit="10" stroke-linecap="round" stroke-linejoin="round"/>
<path d="M199.68 349.654C200.08 348.254 200.28 345.854 200.28 343.854C200.28 342.054 199.68 336.454 199.28 331.054L196.98 330.854C196.98 330.854 196.28 325.154 191.68 323.854C186.98 322.554 183.98 324.854 183.98 324.854C183.98 324.854 177.68 340.154 175.68 344.154C174.38 346.754 173.08 348.654 172.98 349.654H199.68Z" fill="white" stroke="#1A2E35" stroke-miterlimit="10" stroke-linecap="round" stroke-linejoin="round"/>
<path d="M199.68 349.654C199.88 348.954 200.08 347.954 200.18 346.854H174.18C173.48 348.154 172.98 349.054 172.98 349.654H199.68Z" fill="white" stroke="#1A2E35" stroke-miterlimit="10" stroke-linecap="round" stroke-linejoin="round"/>
</svg>
