<svg width="300" height="300" viewBox="0 0 300 300" fill="none" xmlns="http://www.w3.org/2000/svg">
<path opacity="0.62" d="M117.9 260.8C173.626 260.8 218.8 258.114 218.8 254.8C218.8 251.486 173.626 248.8 117.9 248.8C62.1745 248.8 17 251.486 17 254.8C17 258.114 62.1745 260.8 117.9 260.8Z" fill="#F7CE46"/>
<path d="M19.5 199V219.6C19.5 221.6 21.1 223.2 23.1 223.2H212.8C214.8 223.2 216.4 221.6 216.4 219.6V199H19.5Z" fill="#F0F0F0"/>
<path d="M216.3 85C216.3 83 214.7 81.4 212.7 81.4H23.1C21.1 81.4 19.5 83 19.5 85V199H216.3V85Z" fill="#475569"/>
<path d="M152.2 223.2H84.5V244H152.2V223.2Z" fill="#D6D6D6"/>
<path d="M167.503 244H68.2031V253.7H167.503V244Z" fill="#F0F0F0"/>
<path d="M152.2 223.2H84.5V230.7H152.2V223.2Z" fill="#BDBDBD"/>
<path d="M206.203 91.6H29.7031V188.5H206.203V91.6Z" fill="#F7CE46"/>
<path d="M99.2031 110.6L86.9031 122.9L74.6031 110.6L69.7031 115.5L82.0031 127.8L69.7031 140.1L74.6031 145L86.9031 132.7L99.2031 145L104.103 140.1L91.8031 127.8L104.103 115.5L99.2031 110.6Z" fill="#475569"/>
<path d="M166.103 115.5L161.203 110.6L148.903 122.9L136.603 110.6L131.703 115.5L144.003 127.8L131.703 140.1L136.603 145L148.903 132.7L161.203 145L166.103 140.1L153.803 127.8L166.103 115.5Z" fill="#475569"/>
<path d="M144.203 175C118.203 157.1 91.9031 174.8 91.6031 175L88.2031 170.1C88.5031 169.9 118.203 149.8 147.603 170.1L144.203 175Z" fill="#475569"/>
<path d="M200.946 104.733L201.331 104H200.503H190.203C188.279 104 186.703 102.424 186.703 100.5V43C186.703 41.0761 188.279 39.5 190.203 39.5H279.203C281.127 39.5 282.703 41.0761 282.703 43V100.5C282.703 102.424 281.127 104 279.203 104H224.603H224.472L224.358 104.064L191.633 122.436L200.946 104.733Z" fill="white" stroke="#E8E8E8"/>
<path d="M233 86C241.837 86 249 78.8366 249 70C249 61.1634 241.837 54 233 54C224.163 54 217 61.1634 217 70C217 78.8366 224.163 86 233 86Z" stroke="#475569" stroke-width="3" stroke-linecap="round" stroke-linejoin="round"/>
<path d="M253 90L245 82" stroke="#475569" stroke-width="3" stroke-linecap="round" stroke-linejoin="round"/>
</svg>
