<svg width="300" height="300" viewBox="0 0 300 300" fill="none" xmlns="http://www.w3.org/2000/svg">
<path opacity="0.62" d="M117.9 260.8C173.626 260.8 218.8 258.114 218.8 254.8C218.8 251.486 173.626 248.8 117.9 248.8C62.1745 248.8 17 251.486 17 254.8C17 258.114 62.1745 260.8 117.9 260.8Z" fill="#F7CE46"/>
<path d="M19.5 199V219.6C19.5 221.6 21.1 223.2 23.1 223.2H212.8C214.8 223.2 216.4 221.6 216.4 219.6V199H19.5Z" fill="#F0F0F0"/>
<path d="M216.3 84.9999C216.3 82.9999 214.7 81.3999 212.7 81.3999H23.1C21.1 81.3999 19.5 82.9999 19.5 84.9999V199H216.3V84.9999Z" fill="#475569"/>
<path d="M152.2 223.2H84.5V244H152.2V223.2Z" fill="#D6D6D6"/>
<path d="M167.5 244H68.2V253.7H167.5V244Z" fill="#F0F0F0"/>
<path d="M152.2 223.2H84.5V230.7H152.2V223.2Z" fill="#BDBDBD"/>
<path d="M206.2 91.5999H29.7V188.5H206.2V91.5999Z" fill="#F7CE46"/>
<path d="M99.2 110.6L86.8999 122.9L74.5999 110.6L69.7 115.5L82 127.8L69.7 140.1L74.5999 145L86.8999 132.7L99.2 145L104.1 140.1L91.7999 127.8L104.1 115.5L99.2 110.6Z" fill="#475569"/>
<path d="M166.1 115.5L161.2 110.6L148.9 122.9L136.6 110.6L131.7 115.5L144 127.8L131.7 140.1L136.6 145L148.9 132.7L161.2 145L166.1 140.1L153.8 127.8L166.1 115.5Z" fill="#475569"/>
<path d="M144.2 175C118.2 157.1 91.8999 174.8 91.5999 175L88.2 170.1C88.5 169.9 118.2 149.8 147.6 170.1L144.2 175Z" fill="#475569"/>
<path d="M200.942 104.733L201.327 104H200.499H190.199C188.275 104 186.699 102.424 186.699 100.5V43C186.699 41.0761 188.275 39.5 190.199 39.5H279.199C281.123 39.5 282.699 41.0761 282.699 43V100.5C282.699 102.424 281.123 104 279.199 104H224.599H224.468L224.354 104.064L191.629 122.436L200.942 104.733Z" fill="white" stroke="#E8E8E8"/>
<path d="M233.405 84.2917C240.395 84.2917 246.062 78.7698 246.062 71.9583C246.062 65.1468 240.395 59.625 233.405 59.625C226.414 59.625 220.747 65.1468 220.747 71.9583C220.747 78.7698 226.414 84.2917 233.405 84.2917Z" stroke="#475569" stroke-width="2" stroke-linecap="round" stroke-linejoin="round"/>
<path d="M249.227 87.3749L242.898 81.2083" stroke="#475569" stroke-width="2" stroke-linecap="round" stroke-linejoin="round"/>
<path d="M223 51.5H251C253.485 51.5 255.5 53.5147 255.5 56V84C255.5 86.4853 253.485 88.5 251 88.5H223C220.515 88.5 218.5 86.4853 218.5 84V56C218.5 53.5147 220.515 51.5 223 51.5Z" fill="white"/>
<path d="M223 51.5H251C253.485 51.5 255.5 53.5147 255.5 56V84C255.5 86.4853 253.485 88.5 251 88.5H223C220.515 88.5 218.5 86.4853 218.5 84V56C218.5 53.5147 220.515 51.5 223 51.5Z" stroke="#F7CE46"/>
<g clip-path="url(#clip0_2065_1260)">
<path d="M242.333 77.1666C242.978 77.1666 243.5 76.6443 243.5 75.9999C243.5 75.3556 242.978 74.8333 242.333 74.8333C241.689 74.8333 241.167 75.3556 241.167 75.9999C241.167 76.6443 241.689 77.1666 242.333 77.1666Z" stroke="#475569" stroke-linecap="round" stroke-linejoin="round"/>
<path d="M235 77.1666C235.644 77.1666 236.167 76.6443 236.167 75.9999C236.167 75.3556 235.644 74.8333 235 74.8333C234.356 74.8333 233.833 75.3556 233.833 75.9999C233.833 76.6443 234.356 77.1666 235 77.1666Z" stroke="#475569" stroke-linecap="round" stroke-linejoin="round"/>
<path d="M229.667 62.6667H232.333L234.12 71.5934C234.181 71.9003 234.348 72.1761 234.592 72.3723C234.835 72.5685 235.14 72.6727 235.453 72.6667H241.933C242.246 72.6727 242.551 72.5685 242.795 72.3723C243.039 72.1761 243.206 71.9003 243.267 71.5934L244.333 66.0001H233" stroke="#475569" stroke-linecap="round" stroke-linejoin="round"/>
</g>
<defs>
<clipPath id="clip0_2065_1260">
<rect width="16" height="16" fill="white" transform="translate(229 62)"/>
</clipPath>
</defs>
</svg>
