<svg width="36" height="36" viewBox="0 0 36 36" fill="none" xmlns="http://www.w3.org/2000/svg">
<g clip-path="url(#clip0_2003_51991)">
<path fill-rule="evenodd" clip-rule="evenodd" d="M36 0H0V36H36V0Z" fill="#F7CE46"/>
<path fill-rule="evenodd" clip-rule="evenodd" d="M9.2077 11.3048L18.3715 11.3167C20.2017 11.3833 21.6249 12.9646 20.7227 14.8174C19.9032 16.5004 17.7398 16.1489 15.6061 16.1492C13.4913 16.1496 11.3765 16.1492 9.26165 16.1492C9.09997 17.466 9.20593 27.7917 9.2077 29.9687H15.1701L15.0924 21.5148C16.8378 21.0941 19.9948 22.0468 22.9009 20.4806C27.3258 18.0959 28.1072 12.2501 24.9145 8.53019C23.693 7.10699 21.2696 6.03125 18.5125 6.03125H9.1394L9.2077 11.3048Z" fill="#1E293B"/>
<path fill-rule="evenodd" clip-rule="evenodd" d="M17.8773 22.6195L21.3219 29.9831L28.0421 29.9829C27.9096 29.0678 24.2275 22.9252 23.7595 21.4185C21.5643 21.996 22.5363 22.6195 17.8773 22.6195Z" fill="#1E293B"/>
</g>
<defs>
<clipPath id="clip0_2003_51991">
<rect width="36" height="36" rx="4" fill="white"/>
</clipPath>
</defs>
</svg>
