<svg width="171" height="37" viewBox="0 0 171 37" fill="none" xmlns="http://www.w3.org/2000/svg">
<g clip-path="url(#clip0_2001_8672)">
<path fill-rule="evenodd" clip-rule="evenodd" d="M28.6598 0.239258H0.00152588V28.3783H28.6598V0.239258Z" fill="#F7CE46"/>
<path fill-rule="evenodd" clip-rule="evenodd" d="M7.33154 9.07616L14.6265 9.08541C16.0835 9.13746 17.2165 10.3735 16.4982 11.8217C15.8458 13.1372 14.1236 12.8625 12.4251 12.8627C10.7415 12.863 9.05801 12.8627 7.37449 12.8627C7.24578 13.892 7.33014 21.963 7.33154 23.6646H12.078L12.0161 17.0567C13.4056 16.7278 15.9188 17.4725 18.2322 16.2483C21.7547 14.3843 22.3768 9.81503 19.8351 6.90738C18.8627 5.79495 16.9336 4.9541 14.7387 4.9541H7.27718L7.33154 9.07616Z" fill="#1D1D1D"/>
<path fill-rule="evenodd" clip-rule="evenodd" d="M14.233 17.9203L16.9752 23.6759L22.3249 23.6758C22.2194 22.9605 19.2882 18.1592 18.9156 16.9814C17.1681 17.4329 17.9418 17.9203 14.233 17.9203Z" fill="#1D1D1D"/>
<path fill-rule="evenodd" clip-rule="evenodd" d="M48.075 15.8645H43.5622L40.7612 10.0979H39.4497V15.8645H35.5595V0.370821H41.8281C43.5027 0.370821 44.8219 0.860494 45.7852 1.83969C46.7484 2.81888 47.2303 3.99035 47.2303 5.35401C47.2303 6.32603 46.9781 7.1566 46.4743 7.84575C45.9706 8.53478 45.3626 9.05336 44.6517 9.40156L48.075 15.8645ZM42.873 6.46387C43.1843 6.14469 43.3398 5.7748 43.3398 5.35401C43.3398 4.93337 43.1843 4.56704 42.873 4.25519C42.5616 3.9433 42.1543 3.78732 41.6505 3.78732H39.4497V6.92078H41.6505C42.1543 6.92078 42.5616 6.76854 42.873 6.46387ZM60.8125 15.8645H50.0531V0.370821H60.8125V3.76552H53.9437V6.35504H59.8123V9.74976H53.9437V12.4699H60.8125V15.8645ZM74.1952 11.1207C74.1952 12.644 73.6131 13.8372 72.4497 14.7004C71.2867 15.5635 69.8304 15.9951 68.0816 15.9951C66.7775 15.9951 65.6404 15.8465 64.6694 15.549C63.6988 15.2516 62.8357 14.7184 62.0796 13.9496L64.5697 11.5124C65.3105 12.2378 66.4887 12.6005 68.1042 12.6005C69.6155 12.6005 70.3715 12.1362 70.3715 11.2077C70.3715 10.816 70.2677 10.5114 70.0601 10.2938C69.8378 10.0762 69.4895 9.93831 69.0153 9.88035L67.1036 9.61917C65.6958 9.41607 64.6361 8.95908 63.9248 8.24825C63.1987 7.52294 62.8357 6.48567 62.8357 5.13648C62.8357 3.70022 63.3579 2.52513 64.4027 1.6112C65.4476 0.697295 66.8518 0.240234 68.6153 0.240234C70.9122 0.240234 72.6909 0.856863 73.9503 2.08994L71.5053 4.48364C71.1197 4.1065 70.7013 3.85979 70.2492 3.74382C69.7972 3.62775 69.2155 3.56973 68.5041 3.56973C67.8818 3.56973 67.4076 3.71473 67.0815 4.00489C66.7554 4.29505 66.5925 4.62874 66.5925 5.00589C66.5925 5.28157 66.6959 5.52091 66.9035 5.72398C67.1554 5.97057 67.5184 6.123 67.993 6.181L69.9046 6.44218C71.2978 6.63073 72.3352 7.0587 73.0166 7.72604C73.8022 8.48037 74.1952 9.61195 74.1952 11.1207ZM87.4885 3.76552H83.5983V15.8645H79.7082V3.76552H75.818V0.370821H87.4885V3.76552ZM101.027 6.22446C101.056 6.64521 101.071 7.27624 101.071 8.11766C101.071 8.95908 101.06 9.59015 101.038 10.0109C101.016 10.4316 100.96 10.9393 100.871 11.5342C100.782 12.1289 100.619 12.644 100.382 13.0791C100.145 13.5144 99.8337 13.9206 99.4481 14.2978C98.2921 15.4293 96.8251 15.9951 95.0464 15.9951C93.2685 15.9951 91.8011 15.4293 90.6451 14.2978C90.2599 13.9206 89.9486 13.5144 89.7115 13.0791C89.4744 12.644 89.3115 12.1289 89.2225 11.5342C89.1335 10.9393 89.0781 10.4316 89.0559 10.0109C89.0334 9.59015 89.0223 8.95908 89.0223 8.11766C89.0223 7.27624 89.0334 6.64521 89.0559 6.22446C89.0781 5.80378 89.1335 5.29608 89.2225 4.70122C89.3115 4.1065 89.4744 3.59142 89.7115 3.15627C89.9486 2.72101 90.2599 2.31484 90.6451 1.93755C91.8011 0.806079 93.2685 0.240234 95.0464 0.240234C96.8251 0.240234 98.2921 0.806079 99.4481 1.93755C99.8337 2.31484 100.145 2.72101 100.382 3.15627C100.619 3.59142 100.782 4.1065 100.871 4.70122C100.96 5.29608 101.012 5.80378 101.027 6.22446ZM97.0475 10.7942C97.1361 10.3156 97.1808 9.42336 97.1808 8.11766C97.1808 6.812 97.1361 5.91616 97.0475 5.43023C96.9585 4.94426 96.8104 4.57074 96.6028 4.30956C96.2472 3.85979 95.7282 3.63504 95.0464 3.63504C94.365 3.63504 93.8461 3.85979 93.4905 4.30956C93.2833 4.57074 93.1348 4.94426 93.0462 5.43023C92.9571 5.91616 92.9125 6.812 92.9125 8.11766C92.9125 9.42336 92.9571 10.3156 93.0462 10.7942C93.1348 11.273 93.2833 11.643 93.4905 11.9041C93.8461 12.3683 94.365 12.6005 95.0464 12.6005C95.7282 12.6005 96.2472 12.3683 96.6028 11.9041C96.8104 11.643 96.9585 11.273 97.0475 10.7942ZM116.276 15.8645H111.764L108.962 10.0979H107.651V15.8645H103.761V0.370821H110.03C111.704 0.370821 113.023 0.860494 113.987 1.83969C114.95 2.81888 115.432 3.99035 115.432 5.35401C115.432 6.32603 115.18 7.1566 114.676 7.84575C114.172 8.53478 113.564 9.05336 112.853 9.40156L116.276 15.8645ZM111.074 6.46387C111.386 6.14469 111.541 5.7748 111.541 5.35401C111.541 4.93337 111.386 4.56704 111.074 4.25519C110.763 3.9433 110.356 3.78732 109.852 3.78732H107.651V6.92078H109.852C110.356 6.92078 110.763 6.76854 111.074 6.46387ZM131.17 15.8645H127.102L126.369 13.5579H121.5L120.722 15.8645H116.654L122.412 0.370821H125.413L131.17 15.8645ZM125.346 10.3808L124.012 6.24629L122.59 10.3808H125.346ZM141.952 3.76552H138.062V15.8645H134.171V3.76552H130.281V0.370821H141.952V3.76552ZM155.49 6.22446C155.52 6.64521 155.535 7.27624 155.535 8.11766C155.535 8.95908 155.523 9.59015 155.501 10.0109C155.479 10.4316 155.423 10.9393 155.334 11.5342C155.245 12.1289 155.083 12.644 154.845 13.0791C154.608 13.5144 154.297 13.9206 153.912 14.2978C152.756 15.4293 151.288 15.9951 149.51 15.9951C147.732 15.9951 146.264 15.4293 145.108 14.2978C144.723 13.9206 144.412 13.5144 144.175 13.0791C143.938 12.644 143.775 12.1289 143.686 11.5342C143.597 10.9393 143.541 10.4316 143.519 10.0109C143.497 9.59015 143.486 8.95908 143.486 8.11766C143.486 7.27624 143.497 6.64521 143.519 6.22446C143.541 5.80378 143.597 5.29608 143.686 4.70122C143.775 4.1065 143.938 3.59142 144.175 3.15627C144.412 2.72101 144.723 2.31484 145.108 1.93755C146.264 0.806079 147.732 0.240234 149.51 0.240234C151.288 0.240234 152.756 0.806079 153.912 1.93755C154.297 2.31484 154.608 2.72101 154.845 3.15627C155.083 3.59142 155.245 4.1065 155.334 4.70122C155.423 5.29608 155.475 5.80378 155.49 6.22446ZM151.511 10.7942C151.6 10.3156 151.644 9.42336 151.644 8.11766C151.644 6.812 151.6 5.91616 151.511 5.43023C151.422 4.94426 151.274 4.57074 151.066 4.30956C150.71 3.85979 150.192 3.63504 149.51 3.63504C148.828 3.63504 148.31 3.85979 147.954 4.30956C147.747 4.57074 147.598 4.94426 147.509 5.43023C147.42 5.91616 147.376 6.812 147.376 8.11766C147.376 9.42336 147.42 10.3156 147.509 10.7942C147.598 11.273 147.747 11.643 147.954 11.9041C148.31 12.3683 148.828 12.6005 149.51 12.6005C150.192 12.6005 150.71 12.3683 151.066 11.9041C151.274 11.643 151.422 11.273 151.511 10.7942ZM170.74 15.8645H166.227L163.426 10.0979H162.115V15.8645H158.224V0.370821H164.493C166.168 0.370821 167.487 0.860494 168.45 1.83969C169.413 2.81888 169.895 3.99035 169.895 5.35401C169.895 6.32603 169.643 7.1566 169.139 7.84575C168.635 8.53478 168.028 9.05336 167.316 9.40156L170.74 15.8645ZM165.538 6.46387C165.849 6.14469 166.005 5.7748 166.005 5.35401C166.005 4.93337 165.849 4.56704 165.538 4.25519C165.227 3.9433 164.819 3.78732 164.315 3.78732H162.115V6.92078H164.315C164.819 6.92078 165.227 6.76854 165.538 6.46387Z" fill="white"/>
<path fill-rule="evenodd" clip-rule="evenodd" d="M39.8353 26.0178C39.8353 26.9579 39.6406 27.6218 39.2517 28.0093C38.9729 28.2824 38.5836 28.419 38.0843 28.419C37.514 28.419 37.0634 28.2157 36.7327 27.8091V30.458H36.0324V23.6739H36.7327V24.2265C37.0634 23.8201 37.514 23.6167 38.0843 23.6167C38.5836 23.6167 38.9729 23.7533 39.2517 24.0264C39.6406 24.4076 39.8353 25.0714 39.8353 26.0178ZM39.0862 26.6944C39.1188 26.5038 39.1346 26.2783 39.1346 26.0178C39.1346 25.7575 39.1202 25.5319 39.0911 25.3413C39.0619 25.1508 39.0083 24.965 38.9304 24.7839C38.8528 24.6029 38.7295 24.4648 38.5611 24.3695C38.3926 24.2742 38.1851 24.2265 37.9387 24.2265C37.7375 24.2265 37.5624 24.2599 37.4136 24.3266C37.2643 24.3933 37.1462 24.4806 37.0586 24.5886C36.9711 24.6966 36.9029 24.8332 36.8542 24.9983C36.8056 25.1634 36.7732 25.3239 36.7569 25.4796C36.7408 25.6351 36.7327 25.8146 36.7327 26.0178C36.7327 26.2211 36.7408 26.4006 36.7569 26.5562C36.7732 26.7119 36.8056 26.8722 36.8542 27.0374C36.9029 27.2026 36.9711 27.3391 37.0586 27.4471C37.1462 27.5551 37.2643 27.6424 37.4136 27.7091C37.5624 27.7758 37.7375 27.8091 37.9387 27.8091C38.1851 27.8091 38.3926 27.7615 38.5611 27.6662C38.7295 27.571 38.8528 27.4328 38.9304 27.2518C39.0083 27.0708 39.0604 26.885 39.0862 26.6944ZM44.5224 24.055L44.0072 24.5695C43.8776 24.4425 43.7527 24.3536 43.6327 24.3028C43.5127 24.2519 43.362 24.2265 43.1806 24.2265C42.8368 24.2265 42.5598 24.3457 42.3489 24.5838C42.1384 24.8221 42.0331 25.1222 42.0331 25.4843V28.3618H41.3329V23.6739H42.0331V24.2456C42.1628 24.0487 42.3489 23.8947 42.5923 23.7834C42.8353 23.6723 43.0964 23.6167 43.3749 23.6167C43.8417 23.6167 44.2244 23.7629 44.5224 24.055ZM48.7919 26.0178C48.7919 26.8754 48.5976 27.4979 48.2083 27.8854C47.8582 28.2411 47.4014 28.419 46.8374 28.419C46.2734 28.419 45.8162 28.2411 45.4661 27.8854C45.0768 27.4979 44.8825 26.8754 44.8825 26.0178C44.8825 25.154 45.0768 24.5315 45.4661 24.1503C45.8162 23.7946 46.2734 23.6167 46.8374 23.6167C47.4014 23.6167 47.8582 23.7946 48.2083 24.1503C48.5976 24.5315 48.7919 25.154 48.7919 26.0178ZM48.092 26.0178C48.092 25.3001 47.9653 24.8173 47.7127 24.5695C47.4789 24.3409 47.1871 24.2265 46.8374 24.2265C46.4935 24.2265 46.2051 24.3409 45.9717 24.5695C45.7124 24.8236 45.5828 25.3064 45.5828 26.0178C45.5828 26.7293 45.7124 27.212 45.9717 27.4661C46.2051 27.6948 46.4935 27.8091 46.8374 27.8091C47.1871 27.8091 47.4789 27.6948 47.7127 27.4661C47.9653 27.212 48.092 26.7293 48.092 26.0178ZM52.1668 24.1979H51.1456V28.3618H50.4454V24.1979H49.8327V23.6739H50.4454V22.8163C50.4454 22.4479 50.5506 22.1462 50.7615 21.9112C50.972 21.6761 51.2719 21.5586 51.6608 21.5586H52.1668V22.1494H51.7875C51.3595 22.1494 51.1456 22.378 51.1456 22.8354V23.6739H52.1668V24.1979ZM56.864 26.1989H53.6353C53.6353 26.7198 53.7553 27.12 53.995 27.3995C54.2347 27.679 54.5852 27.8187 55.0454 27.8187C55.3176 27.8187 55.5462 27.7775 55.7309 27.6948C55.9159 27.6122 56.1054 27.4757 56.3 27.2852L56.7764 27.6948C56.5172 27.949 56.2579 28.1331 55.9983 28.2475C55.739 28.3618 55.4147 28.419 55.0258 28.419C54.3647 28.419 53.8506 28.2204 53.4846 27.8234C53.1182 27.4264 52.935 26.8246 52.935 26.0178C52.935 25.262 53.1101 24.6728 53.4602 24.2503C53.8103 23.828 54.2901 23.6167 54.8995 23.6167C55.5155 23.6167 55.9968 23.8184 56.3436 24.2218C56.6904 24.6252 56.864 25.1826 56.864 25.894V26.1989ZM56.1733 25.6843C56.1475 25.3223 56.0958 25.0618 56.0178 24.9031C55.7911 24.433 55.418 24.1979 54.8995 24.1979C54.381 24.1979 54.0079 24.433 53.7812 24.9031C53.7032 25.0682 53.6545 25.3287 53.6353 25.6843H56.1733ZM61.8045 26.9897C61.8045 27.4344 61.628 27.7838 61.2745 28.0379C60.9211 28.2919 60.4494 28.419 59.8592 28.419C59.0164 28.419 58.3616 28.1935 57.8948 27.7425L58.3616 27.2852C58.7117 27.6472 59.2077 27.8283 59.8496 27.8283C60.2515 27.8283 60.5643 27.7583 60.7881 27.6186C61.0119 27.4788 61.1235 27.2724 61.1235 26.9993C61.1235 26.5863 60.8579 26.3576 60.3261 26.3132L59.5383 26.2465C58.5854 26.1703 58.1086 25.7511 58.1086 24.9889C58.1086 24.5695 58.2711 24.2361 58.595 23.9884C58.9193 23.7405 59.344 23.6167 59.8692 23.6167C60.5887 23.6167 61.1626 23.7851 61.5903 24.1217L61.1334 24.5695C60.8025 24.3218 60.3782 24.1979 59.8592 24.1979C59.5158 24.1979 59.2513 24.2646 59.0667 24.398C58.882 24.5315 58.7897 24.7221 58.7897 24.9697C58.7897 25.1794 58.8576 25.3381 58.9939 25.4462C59.1298 25.5542 59.3474 25.624 59.6454 25.6558L60.3944 25.7225C60.8479 25.7669 61.1966 25.8844 61.4396 26.075C61.683 26.2656 61.8045 26.5705 61.8045 26.9897ZM66.5796 26.9897C66.5796 27.4344 66.403 27.7838 66.0496 28.0379C65.6961 28.2919 65.2245 28.419 64.6347 28.419C63.7919 28.419 63.1367 28.1935 62.6698 27.7425L63.1367 27.2852C63.4868 27.6472 63.9828 27.8283 64.6247 27.8283C65.0269 27.8283 65.3397 27.7583 65.5632 27.6186C65.787 27.4788 65.8989 27.2724 65.8989 26.9993C65.8989 26.5863 65.633 26.3576 65.1015 26.3132L64.3137 26.2465C63.3605 26.1703 62.8841 25.7511 62.8841 24.9889C62.8841 24.5695 63.0462 24.2361 63.3701 23.9884C63.6944 23.7405 64.1191 23.6167 64.6443 23.6167C65.3641 23.6167 65.9377 23.7851 66.3657 24.1217L65.9085 24.5695C65.578 24.3218 65.1532 24.1979 64.6347 24.1979C64.2908 24.1979 64.0268 24.2646 63.8421 24.398C63.6571 24.5315 63.5647 24.7221 63.5647 24.9697C63.5647 25.1794 63.6327 25.3381 63.769 25.4462C63.9053 25.5542 64.1224 25.624 64.4205 25.6558L65.1695 25.7225C65.6234 25.7669 65.9717 25.8844 66.215 26.075C66.4581 26.2656 66.5796 26.5705 66.5796 26.9897ZM68.6512 28.3618H67.9509V23.6739H68.6512V28.3618ZM68.6999 22.3399H67.9121V21.5682H68.6999V22.3399ZM74.0585 26.0178C74.0585 26.8754 73.8639 27.4979 73.475 27.8854C73.1249 28.2411 72.6676 28.419 72.1037 28.419C71.5397 28.419 71.0825 28.2411 70.7323 27.8854C70.3434 27.4979 70.1488 26.8754 70.1488 26.0178C70.1488 25.154 70.3434 24.5315 70.7323 24.1503C71.0825 23.7946 71.5397 23.6167 72.1037 23.6167C72.6676 23.6167 73.1249 23.7946 73.475 24.1503C73.8639 24.5315 74.0585 25.154 74.0585 26.0178ZM73.3583 26.0178C73.3583 25.3001 73.232 24.8173 72.979 24.5695C72.7456 24.3409 72.4538 24.2265 72.1037 24.2265C71.7602 24.2265 71.4714 24.3409 71.2379 24.5695C70.9787 24.8236 70.849 25.3064 70.849 26.0178C70.849 26.7293 70.9787 27.212 71.2379 27.4661C71.4714 27.6948 71.7602 27.8091 72.1037 27.8091C72.4538 27.8091 72.7456 27.6948 72.979 27.4661C73.232 27.212 73.3583 26.7293 73.3583 26.0178ZM79.3196 28.3618H78.6194V25.4748C78.6194 25.0682 78.516 24.7585 78.3084 24.5458C78.1008 24.3329 77.8124 24.2265 77.4427 24.2265C77.0734 24.2265 76.7831 24.3346 76.5722 24.5505C76.3617 24.7664 76.2564 25.0746 76.2564 25.4748V28.3618H75.5562V23.6739H76.2564V24.1885C76.5936 23.8073 77.0409 23.6167 77.5986 23.6167C78.1171 23.6167 78.5256 23.7629 78.8236 24.055C79.1545 24.3727 79.3196 24.8078 79.3196 25.3605V28.3618ZM84.4352 28.3618H83.735V27.914C83.547 28.0982 83.3494 28.2285 83.1418 28.3047C82.9343 28.3809 82.6717 28.419 82.3541 28.419C81.7513 28.419 81.3004 28.2761 81.0023 27.9902C80.7622 27.7615 80.6426 27.4439 80.6426 27.0374C80.6426 26.6181 80.7866 26.2879 81.0754 26.0464C81.3639 25.8051 81.7738 25.6843 82.3057 25.6843H83.735V25.2365C83.735 24.8871 83.6393 24.6283 83.4484 24.46C83.2571 24.2917 82.9442 24.2075 82.5099 24.2075C82.2115 24.2075 81.9733 24.2488 81.7949 24.3314C81.6165 24.4139 81.4529 24.5537 81.3037 24.7506L80.8272 24.3218C81.0282 24.055 81.2583 23.8708 81.5179 23.7691C81.7772 23.6675 82.111 23.6167 82.5195 23.6167C83.7967 23.6167 84.4352 24.1376 84.4352 25.1794V28.3618ZM83.735 26.7039V26.1989H82.4028C81.683 26.1989 81.3233 26.4752 81.3233 27.0279C81.3233 27.5614 81.693 27.8283 82.432 27.8283C82.9051 27.8283 83.2585 27.7234 83.492 27.5138C83.6541 27.3613 83.735 27.0915 83.735 26.7039ZM87.839 28.3618H87.3334C86.9315 28.3618 86.6283 28.2475 86.4241 28.0188C86.2198 27.7901 86.1179 27.4884 86.1179 27.1136V21.5777H86.8182V27.0851C86.8182 27.3201 86.8665 27.4932 86.964 27.6044C87.0612 27.7155 87.2266 27.7711 87.4597 27.7711H87.839V28.3618ZM95.4346 28.3618H94.5693L93.0521 25.9607L92.1184 27.0088V28.3618H91.4182V21.5777H92.1184V26.1131L94.2775 23.6739H95.1528L93.5285 25.4653L95.4346 28.3618ZM97.3311 28.3618H96.6309V23.6739H97.3311V28.3618ZM97.3799 22.3399H96.5921V21.5682H97.3799V22.3399ZM100.92 28.3618H100.424C100.028 28.3618 99.7252 28.2443 99.5146 28.0093C99.3037 27.7743 99.1985 27.4725 99.1985 27.1041V24.1979H98.5954V23.6739H99.1985V22.2351H99.8987V23.6739H100.92V24.1979H99.8987V27.0851C99.8987 27.5424 100.116 27.7711 100.55 27.7711H100.92V28.3618ZM105.695 27.7234C105.449 27.9839 105.209 28.1649 104.975 28.2665C104.742 28.3682 104.457 28.419 104.119 28.419C103.49 28.419 102.98 28.2125 102.588 27.7997C102.196 27.3867 101.999 26.7928 101.999 26.0178C101.999 25.2429 102.196 24.649 102.588 24.2361C102.98 23.8232 103.49 23.6167 104.119 23.6167C104.457 23.6167 104.742 23.6675 104.975 23.7691C105.209 23.8708 105.449 24.0519 105.695 24.3123L105.218 24.7506C105.037 24.5537 104.865 24.4171 104.703 24.3408C104.541 24.2646 104.346 24.2265 104.119 24.2265C103.633 24.2265 103.264 24.4044 103.011 24.7602C102.803 25.0461 102.7 25.4653 102.7 26.0178C102.7 26.5705 102.803 26.9897 103.011 27.2756C103.264 27.6313 103.633 27.8091 104.119 27.8091C104.346 27.8091 104.541 27.7694 104.703 27.6901C104.865 27.6107 105.037 27.4725 105.218 27.2756L105.695 27.7234ZM110.791 28.3618H110.091V25.4653C110.091 25.0586 109.988 24.7506 109.784 24.5409C109.58 24.3314 109.293 24.2265 108.924 24.2265C108.548 24.2265 108.254 24.3314 108.044 24.5409C107.833 24.7506 107.727 25.0586 107.727 25.4653V28.3618H107.027V21.5777H107.727V24.1885C108.078 23.8073 108.525 23.6167 109.07 23.6167C109.608 23.6167 110.029 23.7723 110.334 24.0836C110.638 24.3948 110.791 24.8173 110.791 25.3509V28.3618ZM116.159 26.1989H112.931C112.931 26.7198 113.051 27.12 113.29 27.3995C113.53 27.679 113.88 27.8187 114.341 27.8187C114.613 27.8187 114.841 27.7775 115.027 27.6948C115.211 27.6122 115.401 27.4757 115.595 27.2852L116.072 27.6948C115.812 27.949 115.553 28.1331 115.294 28.2475C115.035 28.3618 114.71 28.419 114.321 28.419C113.66 28.419 113.146 28.2204 112.78 27.8234C112.413 27.4264 112.23 26.8246 112.23 26.0178C112.23 25.262 112.405 24.6728 112.755 24.2503C113.106 23.828 113.585 23.6167 114.195 23.6167C114.811 23.6167 115.292 23.8184 115.639 24.2218C115.986 24.6252 116.159 25.1826 116.159 25.894V26.1989ZM115.469 25.6843C115.443 25.3223 115.391 25.0618 115.313 24.9031C115.086 24.433 114.714 24.1979 114.195 24.1979C113.676 24.1979 113.304 24.433 113.076 24.9031C112.999 25.0682 112.95 25.3287 112.931 25.6843H115.469ZM121.411 28.3618H120.711V25.4748C120.711 25.0682 120.607 24.7585 120.4 24.5458C120.192 24.3329 119.904 24.2265 119.534 24.2265C119.164 24.2265 118.874 24.3346 118.664 24.5505C118.453 24.7664 118.348 25.0746 118.348 25.4748V28.3618H117.647V23.6739H118.348V24.1885C118.685 23.8073 119.132 23.6167 119.69 23.6167C120.208 23.6167 120.617 23.7629 120.915 24.055C121.246 24.3727 121.411 24.8078 121.411 25.3605V28.3618ZM129.201 26.1989H125.972C125.972 26.7198 126.092 27.12 126.332 27.3995C126.572 27.679 126.922 27.8187 127.382 27.8187C127.655 27.8187 127.883 27.7775 128.068 27.6948C128.253 27.6122 128.442 27.4757 128.637 27.2852L129.114 27.6948C128.854 27.949 128.595 28.1331 128.336 28.2475C128.076 28.3618 127.752 28.419 127.363 28.419C126.702 28.419 126.188 28.2204 125.821 27.8234C125.455 27.4264 125.272 26.8246 125.272 26.0178C125.272 25.262 125.447 24.6728 125.797 24.2503C126.147 23.828 126.627 23.6167 127.237 23.6167C127.853 23.6167 128.334 23.8184 128.681 24.2218C129.028 24.6252 129.201 25.1826 129.201 25.894V26.1989ZM128.51 25.6843C128.485 25.3223 128.433 25.0618 128.355 24.9031C128.128 24.433 127.755 24.1979 127.237 24.1979C126.718 24.1979 126.345 24.433 126.118 24.9031C126.04 25.0682 125.992 25.3287 125.972 25.6843H128.51ZM134.239 30.458H133.538V27.8091C133.208 28.2157 132.757 28.419 132.187 28.419C131.687 28.419 131.298 28.2824 131.02 28.0093C130.631 27.6218 130.436 26.9579 130.436 26.0178C130.436 25.0714 130.631 24.4076 131.02 24.0264C131.298 23.7533 131.687 23.6167 132.187 23.6167C132.764 23.6167 133.218 23.8201 133.548 24.2265V23.6739H134.239V30.458ZM133.49 26.6944C133.522 26.5038 133.538 26.2783 133.538 26.0178C133.538 25.7575 133.524 25.5319 133.495 25.3413C133.466 25.1508 133.412 24.965 133.334 24.7839C133.256 24.6029 133.133 24.4648 132.965 24.3695C132.796 24.2742 132.589 24.2265 132.342 24.2265C132.141 24.2265 131.966 24.2599 131.817 24.3266C131.668 24.3933 131.55 24.4806 131.462 24.5886C131.375 24.6966 131.307 24.8332 131.258 24.9983C131.209 25.1634 131.177 25.3239 131.161 25.4796C131.144 25.6351 131.136 25.8146 131.136 26.0178C131.136 26.2211 131.144 26.4006 131.161 26.5562C131.177 26.7119 131.209 26.8722 131.258 27.0374C131.307 27.2026 131.375 27.3391 131.462 27.4471C131.55 27.5551 131.668 27.6424 131.817 27.7091C131.966 27.7758 132.141 27.8091 132.342 27.8091C132.589 27.8091 132.796 27.7615 132.965 27.6662C133.133 27.571 133.256 27.4328 133.334 27.2518C133.412 27.0708 133.464 26.885 133.49 26.6944ZM139.704 28.3618H139.014V27.8377C138.67 28.2253 138.22 28.419 137.662 28.419C137.137 28.419 136.725 28.2729 136.427 27.9807C136.103 27.6694 135.941 27.2312 135.941 26.6658V23.6739H136.641V26.561C136.641 26.9675 136.743 27.2773 136.947 27.49C137.152 27.7028 137.438 27.8091 137.808 27.8091C138.177 27.8091 138.469 27.7012 138.683 27.4852C138.897 27.2692 139.004 26.9611 139.004 26.561V23.6739H139.704V28.3618ZM142.155 28.3618H141.455V23.6739H142.155V28.3618ZM142.204 22.3399H141.416V21.5682H142.204V22.3399ZM147.709 26.0178C147.709 26.9579 147.514 27.6218 147.125 28.0093C146.846 28.2824 146.457 28.419 145.958 28.419C145.387 28.419 144.937 28.2157 144.606 27.8091V30.458H143.906V23.6739H144.606V24.2265C144.937 23.8201 145.387 23.6167 145.958 23.6167C146.457 23.6167 146.846 23.7533 147.125 24.0264C147.514 24.4076 147.709 25.0714 147.709 26.0178ZM146.96 26.6944C146.992 26.5038 147.008 26.2783 147.008 26.0178C147.008 25.7575 146.994 25.5319 146.964 25.3413C146.935 25.1508 146.882 24.965 146.804 24.7839C146.726 24.6029 146.603 24.4648 146.434 24.3695C146.266 24.2742 146.058 24.2265 145.812 24.2265C145.611 24.2265 145.436 24.2599 145.287 24.3266C145.138 24.3933 145.019 24.4806 144.932 24.5886C144.844 24.6966 144.776 24.8332 144.727 24.9983C144.679 25.1634 144.646 25.3239 144.63 25.4796C144.614 25.6351 144.606 25.8146 144.606 26.0178C144.606 26.2211 144.614 26.4006 144.63 26.5562C144.646 26.7119 144.679 26.8722 144.727 27.0374C144.776 27.2026 144.844 27.3391 144.932 27.4471C145.019 27.5551 145.138 27.6424 145.287 27.7091C145.436 27.7758 145.611 27.8091 145.812 27.8091C146.058 27.8091 146.266 27.7615 146.434 27.6662C146.603 27.571 146.726 27.4328 146.804 27.2518C146.882 27.0708 146.934 26.885 146.96 26.6944ZM156.052 28.3618H155.352V25.4748C155.352 25.0682 155.249 24.7585 155.041 24.5458C154.834 24.3329 154.545 24.2265 154.176 24.2265C153.819 24.2265 153.531 24.3314 153.31 24.5409C153.09 24.7506 152.979 25.0365 152.979 25.3985V28.3618H152.279V25.4748C152.279 25.0682 152.176 24.7585 151.968 24.5458C151.76 24.3329 151.472 24.2265 151.102 24.2265C150.733 24.2265 150.441 24.3346 150.227 24.5505C150.013 24.7664 149.906 25.0746 149.906 25.4748V28.3618H149.206V23.6739H149.906V24.1885C150.243 23.8073 150.694 23.6167 151.258 23.6167C151.939 23.6167 152.428 23.8772 152.727 24.398C153.103 23.8772 153.628 23.6167 154.302 23.6167C154.814 23.6167 155.226 23.7629 155.537 24.055C155.881 24.379 156.052 24.8142 156.052 25.3605V28.3618ZM161.421 26.1989H158.192C158.192 26.7198 158.312 27.12 158.552 27.3995C158.792 27.679 159.142 27.8187 159.602 27.8187C159.875 27.8187 160.103 27.7775 160.288 27.6948C160.473 27.6122 160.662 27.4757 160.857 27.2852L161.334 27.6948C161.074 27.949 160.815 28.1331 160.555 28.2475C160.296 28.3618 159.972 28.419 159.583 28.419C158.922 28.419 158.408 28.2204 158.041 27.8234C157.675 27.4264 157.492 26.8246 157.492 26.0178C157.492 25.262 157.667 24.6728 158.017 24.2503C158.367 23.828 158.847 23.6167 159.457 23.6167C160.072 23.6167 160.554 23.8184 160.901 24.2218C161.247 24.6252 161.421 25.1826 161.421 25.894V26.1989ZM160.73 25.6843C160.705 25.3223 160.653 25.0618 160.575 24.9031C160.348 24.433 159.975 24.1979 159.457 24.1979C158.938 24.1979 158.565 24.433 158.338 24.9031C158.26 25.0682 158.212 25.3287 158.192 25.6843H160.73ZM166.673 28.3618H165.972V25.4748C165.972 25.0682 165.869 24.7585 165.661 24.5458C165.454 24.3329 165.165 24.2265 164.796 24.2265C164.426 24.2265 164.136 24.3346 163.925 24.5505C163.715 24.7664 163.609 25.0746 163.609 25.4748V28.3618H162.909V23.6739H163.609V24.1885C163.946 23.8073 164.394 23.6167 164.951 23.6167C165.47 23.6167 165.879 23.7629 166.177 24.055C166.507 24.3727 166.673 24.8078 166.673 25.3605V28.3618ZM170.213 28.3618H169.717C169.321 28.3618 169.018 28.2443 168.807 28.0093C168.597 27.7743 168.491 27.4725 168.491 27.1041V24.1979H167.888V23.6739H168.491V22.2351H169.191V23.6739H170.213V24.1979H169.191V27.0851C169.191 27.5424 169.409 27.7711 169.843 27.7711H170.213V28.3618Z" fill="white"/>
<path fill-rule="evenodd" clip-rule="evenodd" d="M0.00140381 34.082H170.744V36.8152H0.00140381V34.082Z" fill="#F7CE46"/>
</g>
<defs>
<clipPath id="clip0_2001_8672">
<rect width="171" height="37" fill="white"/>
</clipPath>
</defs>
</svg>
