<svg width="146" height="24" viewBox="0 0 146 24" fill="none" xmlns="http://www.w3.org/2000/svg">
<path d="M15.0733 22.8488H1.34344C0.898669 22.8488 0.53125 22.4737 0.53125 22.0196C0.53125 21.5655 0.898669 21.1904 1.34344 21.1904H15.0733C15.5181 21.1904 15.8855 21.5655 15.8855 22.0196C15.8855 22.4737 15.5181 22.8488 15.0733 22.8488Z" fill="#00A0DE"/>
<path d="M15.8861 1.76352C15.8861 2.00043 15.7121 2.17811 15.48 2.17811H14.6678C14.4551 2.17811 14.2617 2.00043 14.2617 1.76352V0.914593C14.2617 0.677683 14.4358 0.5 14.6678 0.5H15.4993C15.7314 0.5 15.9054 0.677683 15.9054 0.914593V1.76352H15.8861Z" fill="#00A0DE"/>
<path d="M2.14372 1.76352C2.14372 1.98069 1.96968 2.17811 1.73763 2.17811H0.906096C0.693379 2.17811 0.5 2.00043 0.5 1.76352V0.914593C0.5 0.697426 0.674041 0.5 0.906096 0.5H1.73763C1.95034 0.5 2.14372 0.677683 2.14372 0.914593V1.76352Z" fill="#00A0DE"/>
<path d="M1.33563 13.866C0.890858 13.866 0.523438 13.4909 0.523438 13.0368V3.63936C0.523438 3.18528 0.890858 2.81018 1.33563 2.81018C1.7804 2.81018 2.14782 3.18528 2.14782 3.63936V13.0368C2.14782 13.4909 1.79974 13.866 1.33563 13.866Z" fill="#00A0DE"/>
<path d="M15.0739 13.866C14.6291 13.866 14.2617 13.4909 14.2617 13.0368V3.63936C14.2617 3.18528 14.6291 2.81018 15.0739 2.81018C15.5187 2.81018 15.8861 3.18528 15.8861 3.63936V13.0368C15.8861 13.4909 15.538 13.866 15.0739 13.866Z" fill="#00A0DE"/>
<path d="M12.7905 2.17826H3.58563C3.14086 2.17826 2.77344 1.80316 2.77344 1.34908C2.77344 0.895004 3.14086 0.519897 3.58563 0.519897H12.7905C13.2352 0.519897 13.6027 0.895004 13.6027 1.34908C13.622 1.80316 13.2546 2.17826 12.7905 2.17826Z" fill="#00A0DE"/>
<path d="M15.8861 14.9119C15.8861 14.6947 15.7121 14.4973 15.48 14.4973H14.6678C14.4551 14.4973 14.2617 14.675 14.2617 14.9119V15.7608C14.2617 15.978 14.4358 16.1754 14.6678 16.1754H15.4993C15.7121 16.1754 15.9054 15.9977 15.9054 15.7608V14.9119H15.8861Z" fill="#00A0DE"/>
<path d="M2.16716 14.9119C2.16716 14.675 1.99312 14.4973 1.76106 14.4973H0.929534C0.716817 14.4973 0.523438 14.675 0.523438 14.9119V15.7608C0.523438 15.9977 0.697479 16.1754 0.929534 16.1754H1.76106C1.97378 16.1754 2.16716 15.9977 2.16716 15.7608V14.9119Z" fill="#00A0DE"/>
<path d="M12.7905 14.4973H3.58563C3.14086 14.4973 2.77344 14.8724 2.77344 15.3265C2.77344 15.7806 3.14086 16.1557 3.58563 16.1557H12.7905C13.2352 16.1557 13.6027 15.7806 13.6027 15.3265C13.622 14.8724 13.2546 14.4973 12.7905 14.4973Z" fill="#00A0DE"/>
<path d="M12.851 13.8264C12.6576 13.8264 12.4642 13.7474 12.3095 13.6092L3.00797 4.1526C2.69856 3.83672 2.69856 3.34316 2.98863 3.02728C3.2787 2.7114 3.76215 2.7114 4.07155 3.00754L13.3731 12.4642C13.6825 12.7801 13.6825 13.2736 13.3924 13.5895C13.2571 13.7474 13.0443 13.8264 12.851 13.8264Z" fill="#00A0DE"/>
<path d="M3.55353 13.8262C3.36015 13.8262 3.14743 13.7472 3.01207 13.5893C2.722 13.2734 2.722 12.7798 3.03141 12.4639L12.3329 3.0073C12.6423 2.69142 13.1258 2.71116 13.4159 3.02704C13.7059 3.34292 13.7059 3.83648 13.3965 4.15236L4.09499 13.609C3.94029 13.7472 3.74691 13.8262 3.55353 13.8262Z" fill="#00A0DE"/>
<path d="M28.626 7.05469H26.3828L26.4602 7.07443H28.3553L28.626 7.05469Z" fill="#00A0DE"/>
<path d="M75.7584 16.0769L77.4022 10.47L79.0459 16.0769H81.3277L78.5431 7.52839L78.4851 7.35071H76.3192L76.2612 7.52839L73.4766 16.0769H75.7584Z" fill="#00A0DE"/>
<path d="M62.9357 7.3114H60.3831L57.4824 10.2135V7.3114H55.3359V16.0573H57.4824V13.2144L58.0626 12.5629L60.8859 16.0573H63.5352L59.5129 10.8848L62.9357 7.3114Z" fill="#00A0DE"/>
<path d="M41.0739 7.31121V8.1404C41.0739 8.12066 41.0546 8.12066 41.0546 8.10091C40.2424 7.0743 38.7727 7.07431 38.7534 7.07431C38.7147 7.07431 38.676 7.07431 38.676 7.07431C36.6842 7.05457 35.1759 8.41679 34.6151 10.2726C34.4797 10.7069 34.4023 11.1807 34.4023 11.6743C34.4023 11.7335 34.4023 11.7928 34.4023 11.852C34.499 14.2803 36.3941 16.2151 38.734 16.2743C39.3335 16.2743 40.2037 16.1361 40.7065 15.6425C40.7065 15.6425 40.8999 15.4649 41.0546 15.2279V16.0571H43.3171V11.694V7.33096H41.0739V7.31121ZM41.0739 12.7601C41.0546 12.7996 41.0352 12.8589 41.0159 12.8983C40.5905 13.7078 39.7783 14.2803 38.8307 14.2803C38.2699 14.2803 37.7285 14.0829 37.3224 13.7275C36.8196 13.2734 36.4908 12.6219 36.4522 11.8717C36.4522 11.8125 36.4522 11.773 36.4522 11.7138C36.4522 11.2597 36.5682 10.8254 36.7616 10.4503C37.187 9.64082 37.9992 9.06829 38.9467 9.06829C39.5075 9.06829 40.049 9.26572 40.4551 9.62108C40.7258 9.85799 40.9386 10.1739 41.0933 10.5095C41.2286 10.8056 41.306 11.1215 41.3253 11.4769C41.3253 11.5361 41.3253 11.5756 41.3253 11.6348C41.306 12.0297 41.2286 12.4048 41.0739 12.7601Z" fill="#00A0DE"/>
<path d="M69.8477 7.37055V8.19973C69.8477 8.17998 69.8284 8.17999 69.8284 8.16025C69.0162 7.15338 67.5465 7.13363 67.5465 7.13363C67.5079 7.13363 67.4692 7.13363 67.4692 7.13363C65.4967 7.11389 63.9884 8.47612 63.4276 10.3122C63.2922 10.7465 63.2148 11.2203 63.2148 11.6941C63.2148 11.7534 63.2148 11.8126 63.2148 11.8718C63.3115 14.3001 65.2066 16.2349 67.5272 16.2744C68.1267 16.2744 68.9775 16.1362 69.4997 15.6426C69.4997 15.6426 69.693 15.465 69.8477 15.228V16.0572H72.0909V11.7139V7.37055H69.8477ZM69.8477 12.7997C69.8284 12.8392 69.8091 12.8984 69.7897 12.9379C69.3643 13.7474 68.5521 14.3001 67.6045 14.3001C67.0437 14.3001 66.5216 14.1027 66.0962 13.7474C65.5934 13.2933 65.2647 12.6418 65.226 11.9113C65.226 11.8521 65.226 11.8126 65.226 11.7534C65.226 11.2993 65.342 10.865 65.5354 10.4899C65.9608 9.68041 66.773 9.12762 67.7012 9.12762C68.262 9.12762 68.7842 9.32505 69.2096 9.68041C69.4803 9.91732 69.693 10.2332 69.8477 10.5688C69.9831 10.865 70.0605 11.1808 70.0798 11.5165C70.0798 11.5757 70.0798 11.6152 70.0798 11.6744C70.0798 12.0693 70.0024 12.4641 69.8477 12.7997Z" fill="#00A0DE"/>
<path d="M33.0779 11.3583C33.0199 9.95659 32.3043 8.71281 31.2021 7.92312C30.0998 6.99522 28.4561 7.03471 28.4561 7.03471H28.1854H26.2903H26.2129V7.01496V4.27076H31.4922V2.07935H24.0664V2.15832V4.23127V16.0175H24.4918H28.5335C28.6108 16.0175 28.7075 16.0175 28.8429 15.9978C30.738 15.8596 32.3237 14.5961 32.8845 12.8785C33.0199 12.4441 33.0972 11.9901 33.0972 11.5162C33.0972 11.4768 33.0972 11.4175 33.0779 11.3583ZM30.3319 12.6416C29.9838 13.2338 29.365 13.6682 28.6495 13.8261H26.2129V9.20638L28.05 9.18663H28.6301C28.6882 9.20638 28.7655 9.20638 28.8235 9.22612C29.1716 9.30509 29.481 9.44329 29.7517 9.64071C30.2739 10.0553 30.622 10.6476 30.6606 11.3188C30.6606 11.3583 30.6606 11.4175 30.6606 11.457C30.6606 11.9111 30.5446 12.3059 30.3319 12.6416Z" fill="#00A0DE"/>
<path d="M53.5587 15.761C53.5587 15.7412 53.5587 15.7215 53.5393 15.7018C53.5393 15.682 53.5393 15.6623 53.52 15.6425C53.52 15.6228 53.52 15.603 53.52 15.603C53.4427 15.1292 53.4233 14.2211 53.404 13.4314V11.5558V7.19275H51.6442H51.1414V8.21936V8.91035V9.32494V10.391V11.5953C51.1414 11.5953 51.1414 11.6743 51.1414 11.8125V11.8322C51.1221 12.1876 51.0448 12.8391 50.774 13.2537C50.4066 13.767 49.8265 14.1026 49.1883 14.1026C49.1303 14.1026 49.0723 14.1026 49.0143 14.1026C48.6662 14.0631 48.3568 13.9447 48.0861 13.767C47.7186 13.5103 47.4286 13.1155 47.2932 12.6614C47.2932 12.6614 47.2932 12.6614 47.2932 12.6417C47.2352 12.4837 47.1965 12.1284 47.1772 11.8915C47.1578 11.773 47.1578 11.6743 47.1578 11.6743C47.0418 9.91721 47.1578 7.21249 47.1578 7.21249L47.0998 7.19275H44.9727C44.9727 8.04167 44.992 11.2597 44.9727 11.8125C44.992 12.3258 45.05 13.1747 45.3207 13.9249C45.4368 14.2211 45.5915 14.5369 45.7848 14.8133C45.8235 14.8726 45.8622 14.9318 45.9202 14.9713C45.9782 15.0305 46.0362 15.0897 46.0749 15.149C46.3456 15.4254 46.6744 15.682 47.0805 15.8597H47.0998C47.2739 15.9387 47.8153 16.1558 48.6662 16.1558C48.7822 16.1558 48.8789 16.1558 48.9563 16.1361C48.9563 16.1361 50.4259 16.1558 51.2768 14.9318C51.2961 15.2674 51.3542 15.761 51.5089 15.9387H53.5974C53.5974 15.8794 53.578 15.8202 53.5587 15.761Z" fill="#00A0DE"/>
<path d="M143.547 13.0364C143.121 13.8458 142.328 14.3591 141.458 14.3591C140.182 14.3591 139.138 13.2733 139.06 11.8913V11.8518C139.06 11.8123 139.06 11.7728 139.06 11.7333C139.06 11.299 139.157 10.8449 139.35 10.4698C139.776 9.62091 140.588 9.1076 141.458 9.1076C142.328 9.1076 143.14 9.62091 143.566 10.4501L143.605 10.5291L145.5 9.73937L145.461 9.66039C144.726 7.96254 143.121 6.87671 141.381 6.87671C139.408 6.87671 137.687 8.2192 137.088 10.2329C136.952 10.7067 136.875 11.2003 136.875 11.6939C136.875 11.7531 136.875 11.8123 136.875 11.8715C136.972 14.4578 138.944 16.4913 141.381 16.4913C143.102 16.4913 144.649 15.4647 145.422 13.8261L145.461 13.7471L143.605 12.9771L143.547 13.0364Z" fill="#3D3834"/>
<path d="M104.695 7.74534C104.618 7.68612 104.54 7.62689 104.443 7.56766C104.424 7.54792 104.405 7.54792 104.385 7.52818C104.327 7.48869 104.289 7.46895 104.231 7.42946L104.153 7.38998C104.057 7.33075 103.96 7.29127 103.883 7.25178C103.844 7.23204 103.825 7.23204 103.786 7.2123C103.728 7.19255 103.689 7.17281 103.631 7.15307C103.593 7.13333 103.573 7.13333 103.535 7.11358H103.515C103.438 7.09384 103.361 7.05436 103.303 7.03461C103.264 7.01487 103.206 7.01487 103.167 6.99513C103.128 6.97538 103.07 6.97539 103.032 6.95565C102.974 6.9359 102.916 6.9359 102.838 6.91616C102.8 6.91616 102.742 6.89641 102.703 6.89641C102.626 6.87667 102.568 6.87668 102.49 6.87668C102.452 6.87668 102.432 6.87668 102.394 6.87668C102.297 6.87668 102.22 6.85693 102.123 6.85693H102.104C101.988 6.85693 101.872 6.85693 101.755 6.87668H101.697C101.601 6.89642 101.504 6.89642 101.407 6.91616L101.33 6.9359C101.233 6.95564 101.137 6.97538 101.059 6.99513L101.001 7.01487C100.905 7.03461 100.808 7.0741 100.711 7.09384L100.673 7.11358C100.576 7.15307 100.479 7.19256 100.363 7.25178C99.3769 7.70586 98.5841 8.5153 98.1006 9.52217L98.062 9.60113C97.9653 9.79856 97.9073 9.99598 97.8299 10.2132C97.6945 10.687 97.6172 11.1805 97.6172 11.6741C97.6172 11.7333 97.6172 11.7925 97.6172 11.8518C97.6365 12.2466 97.6945 12.6612 97.7912 13.0363L97.8106 13.135C97.8686 13.3127 97.9266 13.4904 98.0233 13.7076C98.0426 13.747 98.062 13.7668 98.062 13.8063L98.1006 13.8853C98.1973 14.0629 98.294 14.2604 98.41 14.4183L98.4487 14.4578C98.5647 14.6157 98.6808 14.7737 98.8161 14.9316L98.8548 14.9711C98.8935 15.0106 98.9322 15.0698 98.9902 15.1093L99.0095 15.129C99.0869 15.208 99.1836 15.3067 99.2802 15.3857C99.2996 15.4054 99.3189 15.4252 99.3383 15.4252C99.3769 15.4646 99.4349 15.5041 99.4736 15.5436L99.5123 15.5634C99.609 15.6226 99.6863 15.7016 99.783 15.7608L99.841 15.8003C99.8991 15.8398 99.9377 15.8595 99.9957 15.899L100.054 15.9385C100.15 15.978 100.228 16.0372 100.324 16.0767C100.363 16.0964 100.383 16.0964 100.421 16.1161C100.479 16.1359 100.518 16.1556 100.576 16.1754C100.615 16.1951 100.653 16.1951 100.692 16.2149C100.769 16.2346 100.847 16.2741 100.905 16.2938C100.943 16.3136 101.001 16.3136 101.04 16.3333C101.079 16.3531 101.137 16.3531 101.175 16.3728C101.233 16.3925 101.291 16.3925 101.369 16.4123C101.407 16.4123 101.465 16.432 101.504 16.432C101.581 16.4518 101.639 16.4518 101.717 16.4518C101.755 16.4518 101.775 16.4518 101.814 16.4518C101.91 16.4518 101.988 16.4715 102.104 16.4715C102.22 16.4715 102.336 16.4715 102.452 16.4518H102.51C102.606 16.4518 102.703 16.432 102.8 16.4123L102.877 16.3925C102.974 16.3728 103.07 16.3531 103.148 16.3333L103.206 16.3136C103.303 16.2938 103.399 16.2543 103.496 16.2346L103.554 16.2149C103.651 16.1754 103.767 16.1359 103.844 16.0964H103.863C104.85 15.6423 105.642 14.8526 106.126 13.826L106.165 13.7471L104.115 12.8784L104.076 12.9574C103.651 13.7668 102.838 14.2604 101.988 14.2604C101.659 14.2604 101.349 14.2011 101.059 14.0629C100.324 13.6483 99.9377 13.1548 99.8217 12.4835H106.3V12.4046C106.397 11.6741 106.493 9.12732 104.695 7.74534ZM104.269 10.7462H99.9764C100.015 10.6475 100.054 10.5685 100.092 10.4698C100.518 9.62088 101.33 9.10757 102.2 9.10757C102.529 9.10757 102.838 9.1668 103.128 9.305C103.651 9.60113 104.076 10.1144 104.269 10.7462Z" fill="#3D3834"/>
<path d="M94.6758 11.7137L94.6371 11.7927C93.9023 13.1746 92.6646 13.9841 91.311 13.9841C89.1452 13.9841 87.3854 11.8716 87.3854 9.26562C87.3854 6.65962 89.1452 4.54717 91.311 4.54717C92.8967 4.54717 94.3277 5.69224 94.9272 7.44932L94.9659 7.52829L97.2284 6.54116L97.1897 6.4622C96.1841 3.75748 93.8829 2.02014 91.2917 2.02014C87.7722 2.02014 84.9102 5.25791 84.9102 9.24588C84.9102 13.2339 87.7722 16.4716 91.2917 16.4716C93.5349 16.4716 95.6427 15.1094 96.803 12.8982L96.8803 12.76V12.7403L94.6758 11.7137Z" fill="#3D3834"/>
<path d="M116.561 10.3317C115.942 8.29821 114.279 6.97546 112.325 6.97546H112.267C112.267 6.97546 112.229 6.97546 112.19 6.97546H112.171C112.151 6.97546 110.759 6.9952 109.889 7.9231V7.21237H107.375V21.4269H109.889V15.7411C110.005 15.8793 110.102 15.9583 110.102 15.9583H110.121C110.72 16.5308 111.668 16.6295 112.209 16.6295C114.685 16.59 116.677 14.5368 116.773 11.99C116.773 11.9308 116.773 11.8716 116.773 11.8124C116.793 11.2991 116.715 10.8055 116.561 10.3317ZM110.527 9.73941C110.972 9.38404 111.494 9.18662 112.035 9.18662C112.944 9.18662 113.776 9.71966 114.221 10.5686C114.414 10.9634 114.53 11.3978 114.53 11.8518C114.53 11.8913 114.53 11.9111 114.53 11.9506V12.0098C114.491 12.7205 114.182 13.3918 113.66 13.8656C113.215 14.2209 112.693 14.4184 112.151 14.4184C111.243 14.4184 110.411 13.8853 109.966 13.0364C109.947 12.9969 109.928 12.9377 109.908 12.8982C109.754 12.5428 109.676 12.1677 109.676 11.7531C109.676 11.7137 109.676 11.6742 109.676 11.6544V11.5952C109.696 11.2596 109.773 10.9437 109.908 10.6278C110.044 10.2922 110.256 9.99606 110.527 9.73941Z" fill="#3D3834"/>
<path d="M126.179 13.1548V13.1351C126.16 12.5625 125.947 12.0887 125.541 11.6741L125.522 11.6544C125.367 11.4964 125.193 11.3582 124.98 11.2003C125.019 11.1411 125.077 11.0621 125.116 11.0029C125.541 10.6278 125.773 10.1145 125.773 9.56166C125.773 8.51531 124.748 7.44923 123.569 7.27154C123.221 7.2518 122.969 7.23206 122.834 7.23206C122.757 7.23206 122.718 7.23206 122.718 7.23206L117.941 7.2518V16.1557H120.281L121.442 16.1359H123.24C124.516 16.0372 125.638 15.2278 126.025 14.1222C126.121 13.826 126.179 13.5299 126.179 13.2338C126.179 13.214 126.179 13.1943 126.179 13.1548ZM123.743 13.5102C123.723 13.905 123.395 14.2011 123.105 14.2801C123.066 14.2999 123.008 14.2999 122.95 14.3196C122.737 14.3591 122.486 14.3788 122.312 14.3788H121.693C121.461 14.3788 121.229 14.3788 121.016 14.3788H120.397V12.2861H121.016C121.229 12.2861 121.461 12.2861 121.693 12.2861H122.234C122.312 12.2861 122.737 12.2861 123.027 12.3651H123.047C123.066 12.3651 123.066 12.3651 123.085 12.3848C123.124 12.3848 123.143 12.4046 123.182 12.4243L123.201 12.4441C123.221 12.4638 123.24 12.4638 123.279 12.4836C123.53 12.6415 123.704 12.8981 123.723 13.1745V13.1943C123.723 13.2338 123.723 13.3522 123.723 13.3522C123.723 13.3522 123.762 13.4904 123.743 13.5102ZM123.163 10.3908C122.969 10.4698 122.853 10.4896 122.815 10.4896H122.408C122.312 10.4896 122.234 10.4896 122.234 10.4896H122.041H120.378V9.00888H122.834C122.853 9.00888 122.95 9.02862 123.066 9.08785C123.317 9.22604 123.491 9.4827 123.491 9.69986C123.511 10.0552 123.414 10.2527 123.163 10.3908Z" fill="#3D3834"/>
<path d="M136.095 16.0767C136.076 16.0373 136.057 15.978 136.057 15.9188C136.057 15.8991 136.057 15.8793 136.037 15.8596L136.018 15.7609C135.941 15.2673 135.921 14.3197 135.902 13.6089V7.27161H133.465V11.7729C133.465 11.7729 133.465 11.8519 133.465 11.9703V12.0098C133.446 12.3652 133.369 12.9969 133.117 13.3918C132.769 13.8853 132.189 14.2012 131.59 14.2012C131.532 14.2012 131.474 14.2012 131.435 14.2012C131.106 14.1815 130.816 14.063 130.545 13.8853C130.197 13.6287 129.927 13.2536 129.791 12.839V12.8192C129.753 12.7008 129.714 12.4441 129.675 12.1085V12.0888C129.675 12.0098 129.656 11.9506 129.656 11.9111V11.8716C129.54 10.1343 129.656 7.44928 129.656 7.4098V7.29134H127.277V7.39006C127.277 8.91023 127.297 11.5162 127.277 12.0098C127.297 12.5823 127.374 13.3918 127.625 14.142C127.761 14.4776 127.935 14.7935 128.109 15.0501C128.148 15.1094 128.186 15.1686 128.244 15.2278C128.302 15.287 128.36 15.3463 128.399 15.4055C128.689 15.7214 129.056 15.9583 129.443 16.136H129.463C129.656 16.2347 130.217 16.4321 131.029 16.4321H131.068C131.184 16.4321 131.28 16.4321 131.358 16.4124C131.416 16.4124 132.731 16.3926 133.62 15.3463C133.659 15.7609 133.736 16.0373 133.872 16.1755L133.891 16.1952H136.134L136.095 16.0767Z" fill="#3D3834"/>
<path d="M50.5668 4.82373C50.2767 5.19884 49.8126 5.49497 49.2712 5.51472C48.6717 5.53446 48.1496 5.23832 47.8402 4.82373L46.6992 5.45549C47.1053 6.46236 48.1496 7.17308 49.3292 7.11386C50.4121 7.07437 51.3403 6.40313 51.7271 5.47524L50.5668 4.82373Z" fill="#00A0DE"/>
<path d="M25.9492 21.0717H25.2917V22.809H24.6536V21.0717H23.9961V20.5189H25.9686V21.0717H25.9492Z" fill="#00A0DE"/>
<path d="M27.3438 20.5189H27.9819V20.8545C28.1366 20.6373 28.3493 20.4794 28.6781 20.4794C29.2002 20.4794 29.703 20.894 29.703 21.6639C29.703 22.4339 29.2195 22.8485 28.6781 22.8485C28.33 22.8485 28.1366 22.6905 27.9819 22.5128V23.5H27.3438V20.5189ZM29.0648 21.6639C29.0648 21.2888 28.8134 21.0322 28.5234 21.0322C28.2333 21.0322 27.9819 21.2888 27.9819 21.6639C27.9819 22.039 28.2333 22.2957 28.5234 22.2957C28.8134 22.2957 29.0648 22.0588 29.0648 21.6639Z" fill="#00A0DE"/>
<path d="M31.0703 22.1379C31.0703 21.6443 31.4377 21.4074 31.9792 21.4074C32.2112 21.4074 32.366 21.4469 32.5207 21.5061V21.4666C32.5207 21.1903 32.366 21.0521 32.0372 21.0521C31.7858 21.0521 31.6311 21.0915 31.4184 21.1705L31.2637 20.6769C31.5151 20.5585 31.7471 20.4993 32.1339 20.4993C32.482 20.4993 32.7334 20.598 32.8881 20.7559C33.0621 20.9336 33.1395 21.1705 33.1395 21.4864V22.8091H32.5207V22.5525C32.366 22.7302 32.1532 22.8486 31.8438 22.8486C31.4184 22.8486 31.0703 22.6117 31.0703 22.1379ZM32.5207 21.9997V21.8812C32.4046 21.822 32.2693 21.8023 32.1146 21.8023C31.8438 21.8023 31.6698 21.9207 31.6698 22.1181C31.6698 22.2958 31.8052 22.3945 32.0179 22.3945C32.3273 22.3945 32.5207 22.2366 32.5207 21.9997Z" fill="#00A0DE"/>
<path d="M36.7803 22.809H36.1421V21.9404H35.3686V22.809H34.7305V20.5189H35.3686V21.4073H36.1421V20.5189H36.7803V22.809Z" fill="#00A0DE"/>
<path d="M38.2891 21.6639C38.2891 21.0124 38.7725 20.4794 39.4687 20.4794C39.8941 20.4794 40.1455 20.6373 40.3582 20.8742L39.9908 21.2493C39.8554 21.1111 39.7201 21.0322 39.4687 21.0322C39.1593 21.0322 38.9272 21.3086 38.9272 21.6639C38.9272 22.0193 39.1399 22.2957 39.488 22.2957C39.7007 22.2957 39.8554 22.197 40.0101 22.0588L40.3776 22.4339C40.1648 22.6708 39.9134 22.8485 39.4687 22.8485C38.7725 22.8682 38.2891 22.3352 38.2891 21.6639Z" fill="#00A0DE"/>
<path d="M43.8584 22.809H43.2203V21.0717H42.4467V22.809H41.8086V20.5189H43.8391V22.809H43.8584Z" fill="#00A0DE"/>
<path d="M45.3633 21.6639C45.3633 21.0124 45.8854 20.4794 46.5816 20.4794C47.2777 20.4794 47.7805 21.0124 47.7805 21.6639C47.7805 22.3154 47.2584 22.8485 46.5622 22.8485C45.8661 22.8682 45.3633 22.3352 45.3633 21.6639ZM47.1617 21.6639C47.1617 21.3283 46.9296 21.0322 46.5816 21.0322C46.2141 21.0322 46.0014 21.3086 46.0014 21.6639C46.0014 21.9995 46.2335 22.2957 46.5816 22.2957C46.949 22.2957 47.1617 22.0193 47.1617 21.6639Z" fill="#00A0DE"/>
<path d="M49.2891 20.5189H49.9272V20.8545C50.0819 20.6373 50.2946 20.4794 50.6234 20.4794C51.1455 20.4794 51.6483 20.894 51.6483 21.6639C51.6483 22.4339 51.1648 22.8485 50.6234 22.8485C50.2753 22.8485 50.0819 22.6905 49.9272 22.5128V23.5H49.2891V20.5189ZM51.0101 21.6639C51.0101 21.2888 50.7587 21.0322 50.4687 21.0322C50.1786 21.0322 49.9272 21.2888 49.9272 21.6639C49.9272 22.039 50.1786 22.2957 50.4687 22.2957C50.7587 22.2957 51.0101 22.0588 51.0101 21.6639Z" fill="#00A0DE"/>
<path d="M54.8203 21.0717H54.1628V22.809H53.5247V21.0717H52.8672V20.5189H54.8397V21.0717H54.8203Z" fill="#00A0DE"/>
<path d="M58.2647 22.809H57.6265V21.9404H56.853V22.809H56.2148V20.5189H56.853V21.4073H57.6265V20.5189H58.2647V22.809Z" fill="#00A0DE"/>
<path d="M59.75 22.1379C59.75 21.6443 60.1174 21.4074 60.6589 21.4074C60.8909 21.4074 61.0456 21.4469 61.2003 21.5061V21.4666C61.2003 21.1903 61.0456 21.0521 60.7169 21.0521C60.4655 21.0521 60.3108 21.0915 60.0981 21.1705L59.9434 20.6769C60.1948 20.5585 60.4268 20.4993 60.8136 20.4993C61.1617 20.4993 61.4131 20.598 61.5678 20.7559C61.7418 20.9336 61.8192 21.1705 61.8192 21.4864V22.8091H61.2003V22.5525C61.0456 22.7302 60.8329 22.8486 60.5235 22.8486C60.0981 22.8486 59.75 22.6117 59.75 22.1379ZM61.2003 21.9997V21.8812C61.0843 21.822 60.9489 21.8023 60.7942 21.8023C60.5235 21.8023 60.3495 21.9207 60.3495 22.1181C60.3495 22.2958 60.4848 22.3945 60.6976 22.3945C61.007 22.3945 61.2003 22.2366 61.2003 21.9997Z" fill="#00A0DE"/>
<path d="M65.3768 22.8091H64.758V22.0787H64.4099L63.9458 22.8091H63.2109L63.7911 21.9602C63.501 21.8418 63.327 21.6246 63.327 21.2692C63.327 20.8151 63.6557 20.4993 64.2358 20.4993H65.4155V22.8091H65.3768ZM64.758 21.6048V21.0323H64.3325C64.1005 21.0323 63.9651 21.131 63.9651 21.3284C63.9651 21.5061 64.1005 21.6048 64.3325 21.6048H64.758Z" fill="#00A0DE"/>
<path d="M69.3006 20.5189H69.9387V21.4666L70.7316 20.5189H71.4664L70.6349 21.4666L71.5631 22.809H70.8089L70.2095 21.9404L69.9194 22.2563V22.809H69.2812V20.5189H69.3006Z" fill="#00A0DE"/>
<path d="M72.6719 21.6639C72.6719 21.0124 73.194 20.4794 73.8902 20.4794C74.5863 20.4794 75.0891 21.0124 75.0891 21.6639C75.0891 22.3154 74.567 22.8485 73.8708 22.8485C73.1747 22.8682 72.6719 22.3352 72.6719 21.6639ZM74.4703 21.6639C74.4703 21.3283 74.2382 21.0322 73.8902 21.0322C73.5227 21.0322 73.31 21.3086 73.31 21.6639C73.31 21.9995 73.5421 22.2957 73.8902 22.2957C74.2382 22.2957 74.4703 22.0193 74.4703 21.6639Z" fill="#00A0DE"/>
<path d="M76.6016 20.5189H77.2397L77.8392 21.4863L78.458 20.5189H79.0961V22.809H78.458V21.4271L77.8392 22.3747L77.2204 21.4468V22.809H76.6016V20.5189Z" fill="#00A0DE"/>
<path d="M82.7412 22.809H82.1031V21.0717H81.3296V22.809H80.6914V20.5189H82.7412V22.809Z" fill="#00A0DE"/>
<path d="M84.2305 22.1379C84.2305 21.6443 84.5979 21.4074 85.1393 21.4074C85.3714 21.4074 85.5261 21.4469 85.6808 21.5061V21.4666C85.6808 21.1903 85.5261 21.0521 85.1974 21.0521C84.946 21.0521 84.7913 21.0915 84.5785 21.1705L84.4238 20.6769C84.6752 20.5585 84.9073 20.4993 85.2941 20.4993C85.6421 20.4993 85.8935 20.598 86.0482 20.7559C86.2223 20.9336 86.2996 21.1705 86.2996 21.4864V22.8091H85.6808V22.5525C85.5261 22.7302 85.3134 22.8486 85.004 22.8486C84.5786 22.8486 84.2305 22.6117 84.2305 22.1379ZM85.6808 21.9997V21.8812C85.5648 21.822 85.4294 21.8023 85.2747 21.8023C85.004 21.8023 84.8299 21.9207 84.8299 22.1181C84.8299 22.2958 84.9653 22.3945 85.178 22.3945C85.4874 22.3945 85.6808 22.2366 85.6808 21.9997Z" fill="#00A0DE"/>
<path d="M89.9365 22.809H89.2984V21.9404H88.5249V22.809H87.8867V20.5189H88.5249V21.4073H89.2984V20.5189H89.9365V22.809Z" fill="#00A0DE"/>
<path d="M93.6315 22.809H93.0126V21.4863L92.1424 22.809H91.543V20.5189H92.1618V21.8614L93.032 20.5189H93.6315V22.809Z" fill="#00A0DE"/>
<path d="M97.2243 22.8091H96.5861V22.0787H96.238L95.7739 22.8091H95.0391L95.6192 21.9602C95.3291 21.8418 95.1551 21.6246 95.1551 21.2692C95.1551 20.8151 95.4838 20.4993 96.064 20.4993H97.2436V22.8091H97.2243ZM96.5861 21.6048V21.0323H96.1607C95.9286 21.0323 95.7932 21.131 95.7932 21.3284C95.7932 21.5061 95.9286 21.6048 96.1607 21.6048H96.5861Z" fill="#00A0DE"/>
</svg>
